<?xml version="1.0" encoding="utf-8"?>
<!-- Generator: Adobe Illustrator 22.0.1, SVG Export Plug-In . SVG Version: 6.00 Build 0)  -->
<svg version="1.1" xmlns="http://www.w3.org/2000/svg" xmlns:xlink="http://www.w3.org/1999/xlink" x="0px" y="0px"
	 viewBox="0 0 650 400" style="enable-background:new 0 0 650 400;" xml:space="preserve">
<style type="text/css">
	.st0{fill:#FFFFFF;}
	.st1{fill:#595959;}
	.st2{fill:#D2D2D2;}
	.st3{font-family:'HelveticaNeue';}
	.st4{font-size:22px;}
	.st5{fill:#B04636;}
	.st6{fill:#B0C590;}
	.st7{fill:#568312;}
	.st8{fill:#9FBACD;}
	.st9{fill:#00487A;}
	.st10{fill:none;stroke:#B04636;stroke-width:7;stroke-miterlimit:10;}
	.st11{font-family:'HelveticaNeue-Bold';}
	.st12{font-size:23px;}
</style>
<g id="base">
	<g>
		<g>
			<rect x="26.5" y="77.5" class="st0" width="597" height="316"/>
			<path class="st1" d="M622,79v313H28V79H622 M625,76H25v319h600V76L625,76z"/>
		</g>
		<g>
			<rect x="25" y="76" class="st1" width="600" height="56"/>
			<circle class="st0" cx="41.3" cy="90" r="6"/>
			<circle class="st0" cx="56.7" cy="90" r="6"/>
			<circle class="st0" cx="72" cy="90" r="6"/>
			<polygon class="st0" points="53.2,115.1 40.8,115.1 45.9,110.1 44.6,108.8 38.3,115.1 38.2,115.1 38.2,116.9 38.7,116.9 
				38.2,117.4 44.6,123.7 45.9,122.4 40.3,116.9 53.2,116.9 			"/>
			<polygon class="st0" points="62.7,115.1 75.1,115.1 70.1,110.1 71.4,108.8 77.7,115.1 77.7,115.1 77.7,116.9 77.3,116.9 
				77.7,117.4 71.4,123.7 70.1,122.4 75.6,116.9 62.7,116.9 			"/>
			<path class="st0" d="M446.2,124.5H101.7c-2.8,0-5-2.2-5-5v-10c0-2.8,2.2-5,5-5h344.5c2.8,0,5,2.2,5,5v10
				C451.2,122.2,449,124.5,446.2,124.5z"/>
			<path class="st0" d="M599.2,124.5h-130c-5.5,0-10-4.5-10-10v0c0-5.5,4.5-10,10-10h130c5.5,0,10,4.5,10,10v0
				C609.2,120,604.7,124.5,599.2,124.5z"/>
		</g>
	</g>
	<g>
		<rect x="49.5" y="152.5" class="st0" width="551" height="35"/>
		<path class="st2" d="M599,154v32H51v-32H599 M602,151H48v38h554V151L602,151z"/>
	</g>
	<text transform="matrix(1 0 0 1 58.0004 174.8535)" class="st3 st4">Lorem ipsum dolor sit amet, consectetuer adip</text>
	<g>
		<g>
			<path class="st5" d="M602,208h-5v3h5V208L602,208z M592,208h-5v3h5V208L592,208z M582,208h-5v3h5V208L582,208z M572,208h-5v3h5
				V208L572,208z M562,208h-5v3h5V208L562,208z M552,208h-5v3h5V208L552,208z M542,208h-5v3h5V208L542,208z M532,208h-5v3h5V208
				L532,208z M522,208h-5v3h5V208L522,208z M512,208h-5v3h5V208L512,208z M502,208h-5v3h5V208L502,208z M492,208h-5v3h5V208L492,208
				z M482,208h-5v3h5V208L482,208z M472,208h-5v3h5V208L472,208z M462,208h-5v3h5V208L462,208z M452,208h-5v3h5V208L452,208z
				 M442,208h-5v3h5V208L442,208z M432,208h-5v3h5V208L432,208z M422,208h-5v3h5V208L422,208z M412,208h-5v3h5V208L412,208z
				 M402,208h-5v3h5V208L402,208z M392,208h-5v3h5V208L392,208z M382,208h-5v3h5V208L382,208z M372,208h-5v3h5V208L372,208z
				 M362,208h-5v3h5V208L362,208z M352,208h-5v3h5V208L352,208z M342,208h-5v3h5V208L342,208z M332,208h-5v3h5V208L332,208z
				 M322,208h-5v3h5V208L322,208z M312,208h-5v3h5V208L312,208z M302,208h-5v3h5V208L302,208z M292,208h-5v3h5V208L292,208z
				 M282,208h-5v3h5V208L282,208z M272,208h-5v3h5V208L272,208z M262,208h-5v3h5V208L262,208z M252,208h-5v3h5V208L252,208z
				 M242,208h-5v3h5V208L242,208z M232,208h-5v3h5V208L232,208z M222,208h-5v3h5V208L222,208z M212,208h-5v3h5V208L212,208z
				 M202,208h-5v3h5V208L202,208z M192,208h-5v3h5V208L192,208z M182,208h-5v3h5V208L182,208z M172,208h-5v3h5V208L172,208z
				 M162,208h-5v3h5V208L162,208z M152,208h-5v3h5V208L152,208z M142,208h-5v3h5V208L142,208z M132,208h-5v3h5V208L132,208z
				 M122,208h-5v3h5V208L122,208z M112,208h-5v3h5V208L112,208z M102,208h-5v3h5V208L102,208z M92,208h-5v3h5V208L92,208z M82,208
				h-5v3h5V208L82,208z M72,208h-5v3h5V208L72,208z M62,208h-5v3h5V208L62,208z M52,208h-4v3h4V208L52,208z M51,214h-3v5h3V214
				L51,214z M51,224h-3v5h3V224L51,224z M51,234h-3v5h3V234L51,234z M51,244h-3v5h3V244L51,244z M51,254h-3v5h3V254L51,254z M51,264
				h-3v5h3V264L51,264z M51,274h-3v5h3V274L51,274z M51,284h-3v5h3V284L51,284z M51,294h-3v5h3V294L51,294z M51,304h-3v5h3V304
				L51,304z M51,314h-3v5h3V314L51,314z M58,316h-5v3h5V316L58,316z M68,316h-5v3h5V316L68,316z M78,316h-5v3h5V316L78,316z M88,316
				h-5v3h5V316L88,316z M98,316h-5v3h5V316L98,316z M108,316h-5v3h5V316L108,316z M118,316h-5v3h5V316L118,316z M128,316h-5v3h5V316
				L128,316z M138,316h-5v3h5V316L138,316z M148,316h-5v3h5V316L148,316z M158,316h-5v3h5V316L158,316z M168,316h-5v3h5V316L168,316
				z M178,316h-5v3h5V316L178,316z M188,316h-5v3h5V316L188,316z M198,316h-5v3h5V316L198,316z M208,316h-5v3h5V316L208,316z
				 M218,316h-5v3h5V316L218,316z M228,316h-5v3h5V316L228,316z M238,316h-5v3h5V316L238,316z M248,316h-5v3h5V316L248,316z
				 M258,316h-5v3h5V316L258,316z M268,316h-5v3h5V316L268,316z M278,316h-5v3h5V316L278,316z M288,316h-5v3h5V316L288,316z
				 M298,316h-5v3h5V316L298,316z M308,316h-5v3h5V316L308,316z M318,316h-5v3h5V316L318,316z M328,316h-5v3h5V316L328,316z
				 M338,316h-5v3h5V316L338,316z M348,316h-5v3h5V316L348,316z M358,316h-5v3h5V316L358,316z M368,316h-5v3h5V316L368,316z
				 M378,316h-5v3h5V316L378,316z M388,316h-5v3h5V316L388,316z M398,316h-5v3h5V316L398,316z M408,316h-5v3h5V316L408,316z
				 M418,316h-5v3h5V316L418,316z M428,316h-5v3h5V316L428,316z M438,316h-5v3h5V316L438,316z M448,316h-5v3h5V316L448,316z
				 M458,316h-5v3h5V316L458,316z M468,316h-5v3h5V316L468,316z M478,316h-5v3h5V316L478,316z M488,316h-5v3h5V316L488,316z
				 M498,316h-5v3h5V316L498,316z M508,316h-5v3h5V316L508,316z M518,316h-5v3h5V316L518,316z M528,316h-5v3h5V316L528,316z
				 M538,316h-5v3h5V316L538,316z M548,316h-5v3h5V316L548,316z M558,316h-5v3h5V316L558,316z M568,316h-5v3h5V316L568,316z
				 M578,316h-5v3h5V316L578,316z M588,316h-5v3h5V316L588,316z M598,316h-5v3h5V316L598,316z M602,313h-3v5h3V313L602,313z
				 M602,303h-3v5h3V303L602,303z M602,293h-3v5h3V293L602,293z M602,283h-3v5h3V283L602,283z M602,273h-3v5h3V273L602,273z
				 M602,263h-3v5h3V263L602,263z M602,253h-3v5h3V253L602,253z M602,243h-3v5h3V243L602,243z M602,233h-3v5h3V233L602,233z
				 M602,223h-3v5h3V223L602,223z M602,213h-3v5h3V213L602,213z"/>
		</g>
	</g>
	<g>
		<rect x="49.5" y="244.5" class="st6" width="551" height="35"/>
		<g>
			<path class="st7" d="M599,246v32H51v-32H599 M602,243H48v38h554V243L602,243z"/>
		</g>
	</g>
	<g>
		<rect x="49.5" y="339.5" class="st0" width="551" height="35"/>
		<path class="st2" d="M599,341v32H51v-32H599 M602,338H48v38h554V338L602,338z"/>
	</g>
	<text transform="matrix(1 0 0 1 58.0004 361.8535)" class="st3 st4">Lorem ipsum dolor sit amet, consectetuer adip</text>
	<text transform="matrix(1 0 0 1 58.0004 268.8535)" class="st3 st4">Example2</text>
</g>
<g id="feature">
</g>
<g id="label">
	<rect y="10" class="st5" width="273.9" height="41"/>
	<text transform="matrix(1 0 0 1 14.5288 37.7109)" class="st0 st11 st12">Margins not contained</text>
	<g>
		<g>
			<line class="st10" x1="165" y1="51" x2="165" y2="192.9"/>
			<g>
				<polygon class="st5" points="154.5,189.9 165,208 175.5,189.9 				"/>
			</g>
		</g>
	</g>
</g>
</svg>
