<?xml version="1.0" encoding="utf-8"?>
<!-- Generator: Adobe Illustrator 22.0.1, SVG Export Plug-In . SVG Version: 6.00 Build 0)  -->
<svg version="1.1" xmlns="http://www.w3.org/2000/svg" xmlns:xlink="http://www.w3.org/1999/xlink" x="0px" y="0px"
	 viewBox="0 0 650 400" style="enable-background:new 0 0 650 400;" xml:space="preserve">
<style type="text/css">
	.st0{fill:#FFFFFF;}
	.st1{fill:#595959;}
	.st2{fill:#D2D2D2;}
	.st3{font-family:'HelveticaNeue-Bold';}
	.st4{font-size:32px;}
	.st5{font-family:'HelveticaNeue';}
	.st6{font-size:22px;}
	.st7{fill:#E7C7C2;}
	.st8{fill:#B04636;}
	.st9{fill:#B0C590;}
	.st10{fill:#568312;}
	.st11{font-size:23px;}
	.st12{fill:none;stroke:#B04636;stroke-width:7;stroke-miterlimit:10;}
</style>
<g id="base">
	<g>
		<g>
			<rect x="26.5" y="82.5" class="st0" width="597" height="304"/>
			<path class="st1" d="M622,84v301H28V84H622 M625,81H25v307h600V81L625,81z"/>
		</g>
		<g>
			<rect x="25" y="81" class="st1" width="600" height="56"/>
			<circle class="st0" cx="41.3" cy="95" r="6"/>
			<circle class="st0" cx="56.7" cy="95" r="6"/>
			<circle class="st0" cx="72" cy="95" r="6"/>
			<polygon class="st0" points="53.2,120.1 40.8,120.1 45.9,115.1 44.6,113.8 38.3,120.1 38.2,120.1 38.2,121.9 38.7,121.9 
				38.2,122.4 44.6,128.7 45.9,127.4 40.3,121.9 53.2,121.9 			"/>
			<polygon class="st0" points="62.7,120.1 75.1,120.1 70.1,115.1 71.4,113.8 77.7,120.1 77.7,120.1 77.7,121.9 77.3,121.9 
				77.7,122.4 71.4,128.7 70.1,127.4 75.6,121.9 62.7,121.9 			"/>
			<path class="st0" d="M446.2,129.5H101.7c-2.8,0-5-2.2-5-5v-10c0-2.8,2.2-5,5-5h344.5c2.8,0,5,2.2,5,5v10
				C451.2,127.2,449,129.5,446.2,129.5z"/>
			<path class="st0" d="M599.2,129.5h-130c-5.5,0-10-4.5-10-10v0c0-5.5,4.5-10,10-10h130c5.5,0,10,4.5,10,10v0
				C609.2,125,604.7,129.5,599.2,129.5z"/>
		</g>
	</g>
	<g>
		<rect x="49.5" y="158.5" class="st0" width="551" height="205"/>
		<g>
			<path class="st2" d="M599,160v202H51V160H599 M602,157H48v208h554V157L602,157z"/>
		</g>
	</g>
	<g>
		<rect x="69.5" y="178.5" class="st0" width="511" height="42"/>
		<path class="st2" d="M579,180v39H71v-39H579 M582,177H68v45h514V177L582,177z"/>
	</g>
	<g>
		<rect x="69.5" y="233.5" class="st0" width="511" height="110"/>
		<path class="st2" d="M579,235v107H71V235H579 M582,232H68v113h514V232L582,232z"/>
	</g>
	<g>
		<rect x="89.5" y="253.5" class="st0" width="471" height="35"/>
		<path class="st2" d="M559,255v32H91v-32H559 M562,252H88v38h474V252L562,252z"/>
	</g>
	<g>
		<rect x="89.5" y="288.5" class="st0" width="471" height="35"/>
		<path class="st2" d="M559,290v32H91v-32H559 M562,287H88v38h474V287L562,287z"/>
	</g>
	<text transform="matrix(1 0 0 1 77.9994 209.4238)" class="st3 st4">This is a heading</text>
	<text transform="matrix(1 0 0 1 98.0003 275.8535)" class="st5 st6">Lorem ipsum dolor sit amet, consectetuer adip</text>
	<text transform="matrix(1 0 0 1 98.0002 310.8535)" class="st5 st6">iscing elit, sed diam euismod tincidunt ut</text>
</g>
<g id="feature">
	<g>
		<g>
			<rect x="48" y="326.5" class="st7" width="150" height="38"/>
			<path class="st8" d="M198,326.5h-5v3h2v3h3V326.5L198,326.5z M188,326.5h-5v3h5V326.5L188,326.5z M178,326.5h-5v3h5V326.5
				L178,326.5z M168,326.5h-5v3h5V326.5L168,326.5z M158,326.5h-5v3h5V326.5L158,326.5z M148,326.5h-5v3h5V326.5L148,326.5z
				 M138,326.5h-5v3h5V326.5L138,326.5z M128,326.5h-5v3h5V326.5L128,326.5z M118,326.5h-5v3h5V326.5L118,326.5z M108,326.5h-5v3h5
				V326.5L108,326.5z M98,326.5h-5v3h5V326.5L98,326.5z M88,326.5h-5v3h5V326.5L88,326.5z M78,326.5h-5v3h5V326.5L78,326.5z
				 M68,326.5h-5v3h5V326.5L68,326.5z M58,326.5h-5v3h5V326.5L58,326.5z M51,326.5h-3v5h3V326.5L51,326.5z M51,336.5h-3v5h3V336.5
				L51,336.5z M51,346.5h-3v5h3V346.5L51,346.5z M51,356.5h-3v5h2v3h5v-3h-4V356.5L51,356.5z M65,361.5h-5v3h5V361.5L65,361.5z
				 M75,361.5h-5v3h5V361.5L75,361.5z M85,361.5h-5v3h5V361.5L85,361.5z M95,361.5h-5v3h5V361.5L95,361.5z M105,361.5h-5v3h5V361.5
				L105,361.5z M115,361.5h-5v3h5V361.5L115,361.5z M125,361.5h-5v3h5V361.5L125,361.5z M135,361.5h-5v3h5V361.5L135,361.5z
				 M145,361.5h-5v3h5V361.5L145,361.5z M155,361.5h-5v3h5V361.5L155,361.5z M165,361.5h-5v3h5V361.5L165,361.5z M175,361.5h-5v3h5
				V361.5L175,361.5z M185,361.5h-5v3h5V361.5L185,361.5z M195,361.5h-5v3h5V361.5L195,361.5z M198,357.5h-3v5h3V357.5L198,357.5z
				 M198,347.5h-3v5h3V347.5L198,347.5z M198,337.5h-3v5h3V337.5L198,337.5z"/>
		</g>
	</g>
	<g>
		<g>
			<rect x="49.5" y="313" class="st9" width="147" height="35"/>
			<path class="st10" d="M195,314.5v32H51v-32H195 M198,311.5H48v38h150V311.5L198,311.5z"/>
		</g>
		<text transform="matrix(1 0 0 1 57.9995 336.918)" class="st5 st6">Test element</text>
	</g>
</g>
<g id="label">
	<rect y="15" class="st8" width="647" height="41"/>
	<text transform="matrix(1 0 0 1 14.5288 42.7109)" class="st0 st3 st11">Absolute: up 20px from bottom edge of containing block</text>
	<g>
		<g>
			<polyline class="st12" points="273.9,56 273.9,356 213.1,356 			"/>
			<g>
				<polygon class="st8" points="216.1,345.5 198,356 216.1,366.5 				"/>
			</g>
		</g>
	</g>
</g>
</svg>
