<?xml version="1.0" encoding="utf-8"?>
<!-- Generator: Adobe Illustrator 22.0.1, SVG Export Plug-In . SVG Version: 6.00 Build 0)  -->
<svg version="1.1" id="Layer_1" xmlns="http://www.w3.org/2000/svg" xmlns:xlink="http://www.w3.org/1999/xlink" x="0px" y="0px"
	 viewBox="0 0 650 400" style="enable-background:new 0 0 650 400;" xml:space="preserve">
<style type="text/css">
	.st0{fill:url(#SVGID_1_);}
	.st1{fill:#95B16A;}
	.st2{fill:#FFFFFF;}
	.st3{opacity:0.2;fill:#568312;}
	.st4{fill:#568312;}
	.st5{fill:none;}
	.st6{font-family:'HelveticaNeue';}
	.st7{font-size:30px;}
	.st8{fill:none;stroke:#B04636;stroke-width:7;stroke-miterlimit:10;}
	.st9{fill:#B04636;}
	.st10{fill:url(#SVGID_2_);}
	.st11{fill:#D2D2D2;}
	.st12{font-family:'HelveticaNeue-Medium';}
	.st13{font-size:40px;}
	.st14{fill:url(#SVGID_3_);}
	.st15{fill:url(#SVGID_4_);}
	.st16{fill:url(#SVGID_5_);}
	.st17{fill:url(#SVGID_6_);}
	.st18{fill:url(#SVGID_7_);}
	.st19{fill:url(#SVGID_8_);}
	.st20{fill:url(#SVGID_9_);}
	.st21{fill:url(#SVGID_10_);}
	.st22{font-family:'HelveticaNeue-Bold';}
	.st23{font-size:23px;}
	.st24{fill:none;stroke:#B04636;stroke-width:9.3109;stroke-miterlimit:10;}
</style>
<rect class="st2" width="650" height="400"/>
<rect x="150" y="90" class="st5" width="325" height="110"/>
<text transform="matrix(1 0 0 1 150 111.4199)"><tspan x="0" y="0" class="st6 st7">Lorem ipsum dolor sit </tspan><tspan x="0" y="36" class="st6 st7">amet, conse ctetuer </tspan><tspan x="0" y="72" class="st6 st7">adipis cing elit, sed.</tspan></text>
<g>
	<linearGradient id="SVGID_1_" gradientUnits="userSpaceOnUse" x1="232.4998" y1="260.9367" x2="232.4998" y2="201.8487">
		<stop  offset="0" style="stop-color:#CCCCCC"/>
		<stop  offset="1" style="stop-color:#FFFFFF"/>
	</linearGradient>
	<path class="st0" d="M155,264.8c-2.1,0-3.8-1.7-3.8-3.8v-56c0-2.1,1.7-3.8,3.8-3.8h155c2.1,0,3.8,1.7,3.8,3.8v56
		c0,2.1-1.7,3.8-3.8,3.8H155z"/>
	<path class="st11" d="M310,202.4c1.4,0,2.6,1.2,2.6,2.6v56c0,1.4-1.2,2.6-2.6,2.6H155c-1.4,0-2.6-1.2-2.6-2.6v-56
		c0-1.4,1.2-2.6,2.6-2.6H310 M310,200H155c-2.8,0-5,2.2-5,5v56c0,2.8,2.2,5,5,5h155c2.8,0,5-2.2,5-5v-56
		C315,202.2,312.8,200,310,200L310,200z"/>
</g>
<rect x="156.8" y="217.2" class="st5" width="148.5" height="40.8"/>
<text transform="matrix(1 0 0 1 166.9837 245.7143)" class="st12 st13">Cancel</text>
<g>
	<linearGradient id="SVGID_2_" gradientUnits="userSpaceOnUse" x1="402.5" y1="260.6818" x2="402.5" y2="202.1329">
		<stop  offset="0" style="stop-color:#568312"/>
		<stop  offset="2.840545e-02" style="stop-color:#4C7C05"/>
		<stop  offset="1" style="stop-color:#568312"/>
	</linearGradient>
	<path class="st10" d="M335,264.5c-1.9,0-3.5-1.6-3.5-3.5v-56c0-1.9,1.6-3.5,3.5-3.5h135c1.9,0,3.5,1.6,3.5,3.5v56
		c0,1.9-1.6,3.5-3.5,3.5H335z"/>
	<path class="st1" d="M470,203c1.1,0,2,0.9,2,2v56c0,1.1-0.9,2-2,2H335c-1.1,0-2-0.9-2-2v-56c0-1.1,0.9-2,2-2H470 M470,200H335
		c-2.8,0-5,2.2-5,5v56c0,2.8,2.2,5,5,5h135c2.8,0,5-2.2,5-5v-56C475,202.2,472.8,200,470,200L470,200z"/>
</g>
<rect x="338.8" y="217.2" class="st5" width="126.5" height="40.8"/>
<text transform="matrix(1 0 0 1 356.5033 245.7143)" class="st2 st12 st13">Save</text>
<rect x="301.6" y="312" class="st9" width="205.5" height="41"/>
<text transform="matrix(1 0 0 1 316.003 341)" class="st2 st22 st23">Collapsed width</text>
<g>
	<g>
		<line class="st24" x1="403.3" y1="282.7" x2="403.3" y2="312.7"/>
		<g>
			<polygon class="st9" points="389.4,286.8 403.3,262.7 417.3,286.8 			"/>
		</g>
	</g>
</g>
</svg>
