<?xml version="1.0" encoding="utf-8"?>
<!-- Generator: Adobe Illustrator 22.0.1, SVG Export Plug-In . SVG Version: 6.00 Build 0)  -->
<svg version="1.1" id="Layer_1" xmlns="http://www.w3.org/2000/svg" xmlns:xlink="http://www.w3.org/1999/xlink" x="0px" y="0px"
	 viewBox="0 0 650 400" style="enable-background:new 0 0 650 400;" xml:space="preserve">
<style type="text/css">
	.st0{fill:url(#SVGID_1_);}
	.st1{fill:#95B16A;}
	.st2{fill:#FFFFFF;}
	.st3{opacity:0.2;fill:#568312;}
	.st4{fill:#568312;}
	.st5{fill:none;}
	.st6{font-family:'HelveticaNeue';}
	.st7{font-size:30px;}
	.st8{fill:none;stroke:#B04636;stroke-width:7;stroke-miterlimit:10;}
	.st9{fill:#B04636;}
	.st10{font-family:'HelveticaNeue-Bold';}
	.st11{font-size:23px;}
	.st12{fill:url(#SVGID_2_);}
	.st13{fill:#D2D2D2;}
	.st14{fill:url(#SVGID_3_);}
	.st15{fill:url(#SVGID_4_);}
	.st16{font-family:'HelveticaNeue-Medium';}
	.st17{font-size:40px;}
	.st18{fill:url(#SVGID_5_);}
	.st19{fill:url(#SVGID_6_);}
	.st20{fill:url(#SVGID_7_);}
	.st21{fill:url(#SVGID_8_);}
	.st22{fill:url(#SVGID_9_);}
	.st23{fill:url(#SVGID_10_);}
	.st24{fill:none;stroke:#B04636;stroke-width:9.3109;stroke-miterlimit:10;}
</style>
<rect class="st2" width="650" height="400"/>
<rect x="283" y="140" class="st3" width="245" height="166"/>
<g>
	<path class="st4" d="M528,140h-4.6v3h1.6v3.4h3V140L528,140z M518.7,140h-4.6v3h4.6V140L518.7,140z M509.5,140h-4.6v3h4.6V140
		L509.5,140z M500.2,140h-4.6v3h4.6V140L500.2,140z M490.9,140h-4.6v3h4.6V140L490.9,140z M481.7,140H477v3h4.6V140L481.7,140z
		 M472.4,140h-4.6v3h4.6V140L472.4,140z M463.1,140h-4.6v3h4.6V140L463.1,140z M453.9,140h-4.6v3h4.6V140L453.9,140z M444.6,140H440
		v3h4.6V140L444.6,140z M435.3,140h-4.6v3h4.6V140L435.3,140z M426.1,140h-4.6v3h4.6V140L426.1,140z M416.8,140h-4.6v3h4.6V140
		L416.8,140z M407.5,140h-4.6v3h4.6V140L407.5,140z M398.2,140h-4.6v3h4.6V140L398.2,140z M389,140h-4.6v3h4.6V140L389,140z
		 M379.7,140h-4.6v3h4.6V140L379.7,140z M370.4,140h-4.6v3h4.6V140L370.4,140z M361.2,140h-4.6v3h4.6V140L361.2,140z M351.9,140
		h-4.6v3h4.6V140L351.9,140z M342.6,140H338v3h4.6V140L342.6,140z M333.4,140h-4.6v3h4.6V140L333.4,140z M324.1,140h-4.6v3h4.6V140
		L324.1,140z M314.8,140h-4.6v3h4.6V140L314.8,140z M305.6,140h-4.6v3h4.6V140L305.6,140z M296.3,140h-4.6v3h4.6V140L296.3,140z
		 M287,140h-4v3h4V140L287,140z M286,145.2h-3v4.6h3V145.2L286,145.2z M286,154.5h-3v4.6h3V154.5L286,154.5z M286,163.8h-3v4.6h3
		V163.8L286,163.8z M286,173h-3v4.6h3V173L286,173z M286,182.3h-3v4.6h3V182.3L286,182.3z M286,191.6h-3v4.6h3V191.6L286,191.6z
		 M286,200.8h-3v4.6h3V200.8L286,200.8z M286,210.1h-3v4.6h3V210.1L286,210.1z M286,219.4h-3v4.6h3V219.4L286,219.4z M286,228.7h-3
		v4.6h3V228.7L286,228.7z M286,237.9h-3v4.6h3V237.9L286,237.9z M286,247.2h-3v4.6h3V247.2L286,247.2z M286,256.5h-3v4.6h3V256.5
		L286,256.5z M286,265.7h-3v4.6h3V265.7L286,265.7z M286,275h-3v4.6h3V275L286,275z M286,284.3h-3v4.6h3V284.3L286,284.3z
		 M286,293.5h-3v4.6h3V293.5L286,293.5z M286,302.8h-3v3.2h3l0,0l0,0l0,0V302.8L286,302.8z M293.7,303h-4.6v3h4.6V303L293.7,303z
		 M303,303h-4.6v3h4.6V303L303,303z M312.2,303h-4.6v3h4.6V303L312.2,303z M321.5,303h-4.6v3h4.6V303L321.5,303z M330.8,303h-4.6v3
		h4.6V303L330.8,303z M340,303h-4.6v3h4.6V303L340,303z M349.3,303h-4.6v3h4.6V303L349.3,303z M358.6,303h-4.6v3h4.6V303L358.6,303z
		 M367.8,303h-4.6v3h4.6V303L367.8,303z M377.1,303h-4.6v3h4.6V303L377.1,303z M386.4,303h-4.6v3h4.6V303L386.4,303z M395.6,303H391
		v3h4.6V303L395.6,303z M404.9,303h-4.6v3h4.6V303L404.9,303z M414.2,303h-4.6v3h4.6V303L414.2,303z M423.5,303h-4.6v3h4.6V303
		L423.5,303z M432.7,303h-4.6v3h4.6V303L432.7,303z M442,303h-4.6v3h4.6V303L442,303z M451.3,303h-4.6v3h4.6V303L451.3,303z
		 M460.5,303h-4.6v3h4.6V303L460.5,303z M469.8,303h-4.6v3h4.6V303L469.8,303z M479.1,303h-4.6v3h4.6V303L479.1,303z M488.3,303
		h-4.6v3h4.6V303L488.3,303z M497.6,303H493v3h4.6V303L497.6,303z M506.9,303h-4.6v3h4.6V303L506.9,303z M516.1,303h-4.6v3h4.6V303
		L516.1,303z M528,299.3h-3v3.7h-4.2v3h4.6v-2h2.6V299.3L528,299.3z M528,290.1h-3v4.6h3V290.1L528,290.1z M528,280.8h-3v4.6h3
		V280.8L528,280.8z M528,271.5h-3v4.6h3V271.5L528,271.5z M528,262.3h-3v4.6h3V262.3L528,262.3z M528,253h-3v4.6h3V253L528,253z
		 M528,243.7h-3v4.6h3V243.7L528,243.7z M528,234.5h-3v4.6h3V234.5L528,234.5z M528,225.2h-3v4.6h3V225.2L528,225.2z M528,215.9h-3
		v4.6h3V215.9L528,215.9z M528,206.6h-3v4.6h3V206.6L528,206.6z M528,197.4h-3v4.6h3V197.4L528,197.4z M528,188.1h-3v4.6h3V188.1
		L528,188.1z M528,178.8h-3v4.6h3V178.8L528,178.8z M528,169.6h-3v4.6h3V169.6L528,169.6z M528,160.3h-3v4.6h3V160.3L528,160.3z
		 M528,151h-3v4.6h3V151L528,151z"/>
</g>
<rect x="118" y="34.3" class="st5" width="325" height="110"/>
<text transform="matrix(1 0 0 1 118.0001 55.7533)"><tspan x="0" y="0" class="st6 st7">Lorem ipsum dolor sit </tspan><tspan x="0" y="36" class="st6 st7">amet, conse ctetuer </tspan><tspan x="0" y="72" class="st6 st7">adipis cing elit, sed.</tspan></text>
<g>
	<g>
		<line class="st8" x1="403.7" y1="302.1" x2="403.7" y2="325.7"/>
		<g>
			<polygon class="st9" points="393.2,305.1 403.7,287 414.1,305.1 			"/>
		</g>
	</g>
</g>
<rect x="251.6" y="325" class="st9" width="285.2" height="41"/>
<text transform="matrix(1 0 0 1 266.0031 354)" class="st2 st10 st11">Margin affects all sides</text>
<g>
	<linearGradient id="SVGID_1_" gradientUnits="userSpaceOnUse" x1="200.5" y1="250.9367" x2="200.5" y2="191.8487">
		<stop  offset="0" style="stop-color:#CCCCCC"/>
		<stop  offset="1" style="stop-color:#FFFFFF"/>
	</linearGradient>
	<path class="st0" d="M123,254.8c-2.1,0-3.8-1.7-3.8-3.8v-56c0-2.1,1.7-3.8,3.8-3.8h155c2.1,0,3.8,1.7,3.8,3.8v56
		c0,2.1-1.7,3.8-3.8,3.8H123z"/>
	<path class="st13" d="M278,192.4c1.4,0,2.6,1.2,2.6,2.6v56c0,1.4-1.2,2.6-2.6,2.6H123c-1.4,0-2.6-1.2-2.6-2.6v-56
		c0-1.4,1.2-2.6,2.6-2.6H278 M278,190H123c-2.8,0-5,2.2-5,5v56c0,2.8,2.2,5,5,5h155c2.8,0,5-2.2,5-5v-56
		C283,192.2,280.8,190,278,190L278,190z"/>
</g>
<rect x="124.8" y="207.2" class="st5" width="148.5" height="40.8"/>
<text transform="matrix(1 0 0 1 134.9838 235.7143)" class="st16 st17">Cancel</text>
<g>
	<linearGradient id="SVGID_2_" gradientUnits="userSpaceOnUse" x1="402.5" y1="250.6818" x2="402.5" y2="192.1329">
		<stop  offset="0" style="stop-color:#568312"/>
		<stop  offset="2.840545e-02" style="stop-color:#4C7C05"/>
		<stop  offset="1" style="stop-color:#568312"/>
	</linearGradient>
	<path class="st12" d="M335,254.5c-1.9,0-3.5-1.6-3.5-3.5v-56c0-1.9,1.6-3.5,3.5-3.5h135c1.9,0,3.5,1.6,3.5,3.5v56
		c0,1.9-1.6,3.5-3.5,3.5H335z"/>
	<path class="st1" d="M470,193c1.1,0,2,0.9,2,2v56c0,1.1-0.9,2-2,2H335c-1.1,0-2-0.9-2-2v-56c0-1.1,0.9-2,2-2H470 M470,190H335
		c-2.8,0-5,2.2-5,5v56c0,2.8,2.2,5,5,5h135c2.8,0,5-2.2,5-5v-56C475,192.2,472.8,190,470,190L470,190z"/>
</g>
<rect x="338.8" y="207.2" class="st5" width="126.5" height="40.8"/>
<text transform="matrix(1 0 0 1 356.5033 235.7143)" class="st2 st16 st17">Save</text>
</svg>
