<?xml version="1.0" encoding="utf-8"?>
<!-- Generator: Adobe Illustrator 22.0.1, SVG Export Plug-In . SVG Version: 6.00 Build 0)  -->
<svg version="1.1" xmlns="http://www.w3.org/2000/svg" xmlns:xlink="http://www.w3.org/1999/xlink" x="0px" y="0px"
	 viewBox="0 0 650 400" style="enable-background:new 0 0 650 400;" xml:space="preserve">
<style type="text/css">
	.st0{fill:#EFEFEF;}
	.st1{fill:#568312;}
	.st2{fill:#999999;}
	.st3{fill:#A6A6A6;}
	.st4{fill:#B3B3B3;}
	.st5{fill:#BFBFBF;}
	.st6{fill:#D9D9D9;}
	.st7{fill:#8C8C8C;}
	.st8{fill:#00487A;}
	.st9{fill:#B04636;}
	.st10{fill:#FFFFFF;}
	.st11{fill:none;stroke:#B04636;stroke-width:7;stroke-miterlimit:10;}
	.st12{fill:none;}
</style>
<g id="base">
	<g>
		<rect x="95" y="110" class="st0" width="460" height="180"/>
	</g>
	<g>
		<g>
			<rect x="95" y="110" class="st9" width="20" height="20"/>
		</g>
		<g>
			<rect x="135" y="110" class="st9" width="20" height="20"/>
		</g>
		<g>
			<rect x="175" y="110" class="st9" width="20" height="20"/>
		</g>
		<g>
			<rect x="215" y="110" class="st9" width="20" height="20"/>
		</g>
		<g>
			<rect x="255" y="110" class="st9" width="20" height="20"/>
		</g>
		<g>
			<rect x="295" y="110" class="st9" width="20" height="20"/>
		</g>
		<g>
			<rect x="335" y="110" class="st9" width="20" height="20"/>
		</g>
		<g>
			<rect x="375" y="110" class="st9" width="20" height="20"/>
		</g>
		<g>
			<rect x="415" y="110" class="st9" width="20" height="20"/>
		</g>
		<g>
			<rect x="455" y="110" class="st9" width="20" height="20"/>
		</g>
		<g>
			<rect x="495" y="110" class="st9" width="20" height="20"/>
		</g>
		<g>
			<rect x="535" y="110" class="st9" width="20" height="20"/>
		</g>
		<g>
			<rect x="95" y="150" class="st9" width="20" height="20"/>
		</g>
		<g>
			<rect x="535" y="150" class="st9" width="20" height="20"/>
		</g>
		<g>
			<rect x="95" y="190" class="st9" width="20" height="20"/>
		</g>
		<g>
			<rect x="535" y="190" class="st9" width="20" height="20"/>
		</g>
		<g>
			<rect x="95" y="230" class="st9" width="20" height="20"/>
		</g>
		<g>
			<rect x="535" y="230" class="st9" width="20" height="20"/>
		</g>
		<g>
			<rect x="95" y="270" class="st9" width="20" height="20"/>
		</g>
		<g>
			<rect x="135" y="270" class="st9" width="20" height="20"/>
		</g>
		<g>
			<rect x="175" y="270" class="st9" width="20" height="20"/>
		</g>
		<g>
			<rect x="215" y="270" class="st9" width="20" height="20"/>
		</g>
		<g>
			<rect x="255" y="270" class="st9" width="20" height="20"/>
		</g>
		<g>
			<rect x="295" y="270" class="st9" width="20" height="20"/>
		</g>
		<g>
			<rect x="335" y="270" class="st9" width="20" height="20"/>
		</g>
		<g>
			<rect x="375" y="270" class="st9" width="20" height="20"/>
		</g>
		<g>
			<rect x="415" y="270" class="st9" width="20" height="20"/>
		</g>
		<g>
			<rect x="455" y="270" class="st9" width="20" height="20"/>
		</g>
		<g>
			<rect x="495" y="270" class="st9" width="20" height="20"/>
		</g>
		<g>
			<rect x="535" y="270" class="st9" width="20" height="20"/>
		</g>
	</g>
	<g>
		<polygon class="st2" points="535,130 115,130 115,270 122,270 122,137 535,137 		"/>
		<g>
			<polygon class="st3" points="535,137 122,137 122,270 124,270 124,139 535,139 			"/>
		</g>
		<g>
			<polygon class="st4" points="535,139 124,139 124,270 126,270 126,141 535,141 			"/>
		</g>
		<g>
			<polygon class="st5" points="535,141 126,141 126,270 128,270 128,143 535,143 			"/>
		</g>
		<g>
			<polygon class="st6" points="535,143 128,143 128,270 130,270 130,145 535,145 			"/>
		</g>
	</g>
</g>
<g id="feature">
</g>
<g id="label">
</g>
</svg>
