<?xml version="1.0" encoding="utf-8"?>
<!-- Generator: Adobe Illustrator 22.0.1, SVG Export Plug-In . SVG Version: 6.00 Build 0)  -->
<svg version="1.1" id="Layer_1" xmlns="http://www.w3.org/2000/svg" xmlns:xlink="http://www.w3.org/1999/xlink" x="0px" y="0px"
	 viewBox="0 0 650 400" style="enable-background:new 0 0 650 400;" xml:space="preserve">
<style type="text/css">
	.st0{fill:#D2D2D2;}
	.st1{fill:#568312;}
	.st2{fill:none;stroke:#B04636;stroke-width:7;stroke-miterlimit:10;}
	.st3{fill:#B04636;}
	.st4{fill:#FFFFFF;}
	.st5{fill:none;}
	.st6{font-family:'HelveticaNeue';}
	.st7{font-size:20px;}
	.st8{font-family:'HelveticaNeue-BoldItalic';}
	.st9{font-family:'HelveticaNeue-Bold';}
	.st10{font-size:32px;}
	.st11{font-size:22px;}
	.st12{font-size:23px;}
</style>
<g>
	<g>
		<path class="st0" d="M602.1,62.9v219.2H27.9V62.9H602.1 M605,60H25v225h580V60L605,60z"/>
	</g>
</g>
<g>
	<g>
		<path class="st0" d="M599,83v39H31V83H599 M602,80H28v45h574V80L602,80z"/>
	</g>
</g>
<g>
	<g>
		<path class="st0" d="M599,138v119H31V138H599 M602,135H28v125h574V135L602,135z"/>
	</g>
</g>
<rect x="40" y="145" class="st5" width="552" height="115"/>
<text transform="matrix(1 0 0 1 40 159.2793)"><tspan x="0" y="0" class="st6 st7">Lorem ipsum dolor sit amet,</tspan><tspan x="0" y="30" class="st8 st7">consectetuer</tspan><tspan x="0" y="60" class="st6 st7">adipiscing elit, sed diam nonummy nibh euismod tincidunt ut </tspan><tspan x="0" y="90" class="st6 st7">laoreet dolore magna aliquam erat volutpat. Ut wisi enim.</tspan></text>
<text transform="matrix(1 0 0 1 40 113.4238)" class="st9 st10">This is a heading</text>
<text transform="matrix(1 0 0 1 235.5703 45.8535)" class="st9 st11">Containing box</text>
<rect x="65" y="317" class="st3" width="242" height="41"/>
<text transform="matrix(1 0 0 1 77 345)" class="st4 st9 st12">Box sized to stretch</text>
<g>
	<g>
		<path class="st1" d="M597,169v30H40v-30H597 M600,166H37v36h563V166L600,166z"/>
	</g>
</g>
<g>
	<g>
		<line class="st2" x1="188.2" y1="203.1" x2="188.2" y2="344"/>
		<g>
			<polygon class="st3" points="177.8,206.1 188.2,188 198.7,206.1 			"/>
		</g>
	</g>
</g>
</svg>
