<?xml version="1.0" encoding="utf-8"?>
<!-- Generator: Adobe Illustrator 22.0.1, SVG Export Plug-In . SVG Version: 6.00 Build 0)  -->
<svg version="1.1" id="Layer_1" xmlns="http://www.w3.org/2000/svg" xmlns:xlink="http://www.w3.org/1999/xlink" x="0px" y="0px"
	 viewBox="0 0 650 400" style="enable-background:new 0 0 650 400;" xml:space="preserve">
<style type="text/css">
	.st0{fill:#B04636;}
	.st1{fill:#FFFFFF;}
	.st2{font-family:'HelveticaNeue-Bold';}
	.st3{font-size:23px;}
	.st4{fill:none;stroke:#B04636;stroke-width:7;stroke-miterlimit:10;}
	.st5{fill:none;stroke:#C8C8C8;stroke-width:2.791;stroke-linecap:round;stroke-linejoin:round;stroke-miterlimit:10;}
	.st6{fill:none;}
	.st7{font-family:'HelveticaNeue';}
	.st8{font-size:22px;}
</style>
<rect x="380.5" y="47.8" class="st0" width="230" height="70"/>
<text transform="matrix(1 0 0 1 395.4055 73.3573)"><tspan x="0" y="0" class="st1 st2 st3">Default behaviour:</tspan><tspan x="45.2" y="27.6" class="st1 st2 st3">Collapsed</tspan></text>
<rect x="380.5" y="230.8" class="st0" width="230" height="70"/>
<g>
	<g>
		<line class="st4" x1="359.5" y1="341.9" x2="359.5" y2="204.1"/>
		<g>
			<polygon class="st0" points="370,338.9 359.5,357 349,338.9 			"/>
		</g>
		<g>
			<polygon class="st0" points="370,207.1 359.5,189 349,207.1 			"/>
		</g>
	</g>
</g>
<text transform="matrix(1 0 0 1 427.9841 258.3573)"><tspan x="0" y="0" class="st1 st2 st3">Sized: Given</tspan><tspan x="23.4" y="27.6" class="st1 st2 st3">a height</tspan></text>
<g>
	<g>
		<path class="st5" d="M37.5,42.5v83h295v-83H37.5z"/>
	</g>
</g>
<rect x="57.5" y="62.5" class="st6" width="255" height="56"/>
<text transform="matrix(1 0 0 1 57.5 78.208)"><tspan x="0" y="0" class="st7 st8">Lorem ipsum dolor sit </tspan><tspan x="0" y="28" class="st7 st8">amet, consectetuer elit,</tspan></text>
<g>
	<g>
		<path class="st5" d="M37.5,187.5v170h295v-170H37.5z"/>
	</g>
</g>
<rect x="57.5" y="207.5" class="st6" width="255" height="150"/>
<text transform="matrix(1 0 0 1 57.5 223.208)"><tspan x="0" y="0" class="st7 st8">Lorem ipsum dolor sit </tspan><tspan x="0" y="28" class="st7 st8">amet, consectetuer.</tspan></text>
</svg>
