<?xml version="1.0" encoding="utf-8"?>
<!-- Generator: Adobe Illustrator 22.0.1, SVG Export Plug-In . SVG Version: 6.00 Build 0)  -->
<svg version="1.1" id="Layer_1" xmlns="http://www.w3.org/2000/svg" xmlns:xlink="http://www.w3.org/1999/xlink" x="0px" y="0px"
	 viewBox="0 0 650 400" style="enable-background:new 0 0 650 400;" xml:space="preserve">
<style type="text/css">
	.st0{fill:#FFFFFF;}
	.st1{fill:#D2D2D2;}
	.st2{opacity:0.2;fill:#568312;}
	.st3{fill:none;stroke:#568312;stroke-width:3;stroke-miterlimit:10;}
	.st4{fill:none;stroke:#568312;stroke-width:3;stroke-miterlimit:10;stroke-dasharray:4.5719,4.5719;}
	.st5{fill:none;stroke:#568312;stroke-width:3;stroke-miterlimit:10;stroke-dasharray:4.6984,4.6984;}
	.st6{fill:#B8CB9B;}
	.st7{fill:#568312;}
	.st8{fill:none;stroke:#B04636;stroke-width:7;stroke-miterlimit:10;}
	.st9{fill:#B04636;}
	.st10{fill:none;}
	.st11{font-family:'HelveticaNeue';}
	.st12{font-size:40px;}
	.st13{font-family:'HelveticaNeue-Medium';}
	.st14{font-family:'HelveticaNeue-Bold';}
	.st15{font-size:23px;}
</style>
<rect class="st0" width="650" height="400"/>
<g>
	<g>
		<g>
			<g>
				<path class="st1" d="M612,93v214H38V93H612 M615,90H35v220h580V90L615,90z"/>
			</g>
		</g>
	</g>
</g>
<rect x="156.3" y="114" class="st2" width="320" height="122"/>
<g>
	<g>
		<polyline class="st3" points="476.3,233.7 476.3,236 474.1,236 		"/>
		<line class="st4" x1="469.5" y1="236" x2="160.9" y2="236"/>
		<polyline class="st3" points="158.6,236 156.3,236 156.3,233.7 		"/>
		<line class="st5" x1="156.3" y1="229" x2="156.3" y2="118.6"/>
		<polyline class="st3" points="156.3,116.3 156.3,114 158.6,114 		"/>
		<line class="st4" x1="163.2" y1="114" x2="471.8" y2="114"/>
		<polyline class="st3" points="474.1,114 476.3,114 476.3,116.3 		"/>
		<line class="st5" x1="476.3" y1="121" x2="476.3" y2="231.4"/>
	</g>
</g>
<g>
	<rect x="187" y="148" class="st6" width="257.1" height="51.8"/>
</g>
<rect x="48.5" y="107.8" class="st10" width="557" height="190"/>
<text transform="matrix(1 0 0 1 48.4641 136.381)"><tspan x="0" y="0" class="st11 st12">Lorem ipsum dolor sit amet, </tspan><tspan x="0" y="48" class="st11 st12">conse   </tspan><tspan x="141.5" y="48" class="st13 st12">ctetuer adipis</tspan><tspan x="394.2" y="48" class="st11 st12">   cing </tspan><tspan x="0" y="96" class="st11 st12">elit, sed diam nonum my nibh </tspan><tspan x="0" y="144" class="st11 st12">euis mod tincid unt.</tspan></text>
<g>
	<g>
		<line class="st8" x1="176" y1="161.4" x2="176" y2="61.8"/>
		<g>
			<polygon class="st9" points="186.5,158.4 176,176.5 165.5,158.4 			"/>
		</g>
	</g>
</g>
<g>
	<g>
		<line class="st8" x1="458" y1="161.4" x2="458" y2="61.8"/>
		<g>
			<polygon class="st9" points="468.5,158.4 458,176.5 447.5,158.4 			"/>
		</g>
	</g>
</g>
<rect x="166.2" y="27.8" class="st9" width="300.2" height="41"/>
<text transform="matrix(1 0 0 1 180.6697 56.8333)" class="st0 st14 st15">Margin affects sides only</text>
</svg>
