<?xml version="1.0" encoding="utf-8"?>
<!-- Generator: Adobe Illustrator 22.0.1, SVG Export Plug-In . SVG Version: 6.00 Build 0)  -->
<svg version="1.1" id="Layer_1" xmlns="http://www.w3.org/2000/svg" xmlns:xlink="http://www.w3.org/1999/xlink" x="0px" y="0px"
	 viewBox="0 0 650 400" style="enable-background:new 0 0 650 400;" xml:space="preserve">
<style type="text/css">
	.st0{opacity:0.3;fill:#568312;}
	.st1{fill:#FFFFFF;}
	.st2{fill:#BEBEBE;}
	.st3{opacity:0.2;fill:#568312;}
	.st4{fill:none;stroke:#568312;stroke-width:3;stroke-miterlimit:10;}
	.st5{fill:none;stroke:#568312;stroke-width:3;stroke-miterlimit:10;stroke-dasharray:7.0741,7.0741;}
	.st6{fill:none;stroke:#568312;stroke-width:3;stroke-miterlimit:10;stroke-dasharray:7.2857,7.2857;}
	.st7{fill:none;stroke:#B04636;stroke-width:7;stroke-miterlimit:10;}
	.st8{fill:#B04636;}
	.st9{fill:none;}
	.st10{font-family:'HelveticaNeue';}
	.st11{font-size:22px;}
	.st12{opacity:0.3;}
	.st13{fill:#568312;}
	.st14{font-family:'HelveticaNeue-Bold';}
	.st15{font-size:23px;}
</style>
<rect x="23" y="49" class="st3" width="580" height="160"/>
<g>
	<g>
		<polyline class="st4" points="603,205.5 603,209 599.5,209 		"/>
		<line class="st5" x1="592.4" y1="209" x2="30" y2="209"/>
		<polyline class="st4" points="26.5,209 23,209 23,205.5 		"/>
		<line class="st6" x1="23" y1="198.2" x2="23" y2="56.1"/>
		<polyline class="st4" points="23,52.5 23,49 26.5,49 		"/>
		<line class="st5" x1="33.6" y1="49" x2="596" y2="49"/>
		<polyline class="st4" points="599.5,49 603,49 603,52.5 		"/>
		<line class="st6" x1="603" y1="59.8" x2="603" y2="201.9"/>
	</g>
</g>
<g>
	<g>
		<g>
			<rect x="44.5" y="70.5" class="st1" width="536.9" height="116.9"/>
			<path class="st2" d="M579.9,72.1v113.9H46.1V72.1H579.9 M583,69H43v120h540V69L583,69z"/>
		</g>
	</g>
</g>
<rect x="63" y="89" class="st9" width="500" height="96"/>
<text transform="matrix(1 0 0 1 63 104.708)"><tspan x="0" y="0" class="st10 st11">Lorem ipsum dolor sit amet, consectetuer </tspan><tspan x="0" y="30" class="st10 st11">adipiscing elit, sed diam nonummy nibh euismod </tspan><tspan x="0" y="60" class="st10 st11">tincidunt ut laoreet dolore.</tspan></text>
<rect x="43" y="189" class="st3" width="580" height="160"/>
<g>
	<g>
		<polyline class="st4" points="623,345.5 623,349 619.5,349 		"/>
		<line class="st5" x1="612.4" y1="349" x2="50" y2="349"/>
		<polyline class="st4" points="46.5,349 43,349 43,345.5 		"/>
		<line class="st6" x1="43" y1="338.2" x2="43" y2="196.1"/>
		<polyline class="st4" points="43,192.5 43,189 46.5,189 		"/>
		<line class="st5" x1="53.6" y1="189" x2="616" y2="189"/>
		<polyline class="st4" points="619.5,189 623,189 623,192.5 		"/>
		<line class="st6" x1="623" y1="199.8" x2="623" y2="341.9"/>
	</g>
</g>
<g>
	<g>
		<g>
			<rect x="64.5" y="210.5" class="st1" width="536.9" height="116.9"/>
			<path class="st2" d="M599.9,212.1v113.9H66.1V212.1H599.9 M603,209H63v120h540V209L603,209z"/>
		</g>
	</g>
</g>
<rect x="83" y="229" class="st9" width="500" height="96"/>
<text transform="matrix(1 0 0 1 83 244.708)"><tspan x="0" y="0" class="st10 st11">Lorem ipsum dolor sit amet, consectetuer </tspan><tspan x="0" y="30" class="st10 st11">adipiscing elit, sed diam nonummy nibh euismod </tspan><tspan x="0" y="60" class="st10 st11">tincidunt ut laoreet dolore.</tspan></text>
<rect x="380" y="175.8" class="st8" width="252" height="45"/>
<text transform="matrix(1 0 0 1 403.3642 204.3573)" class="st1 st14 st15">Collapsed margins</text>
</svg>
