<?xml version="1.0" encoding="utf-8"?>
<!-- Generator: Adobe Illustrator 22.0.1, SVG Export Plug-In . SVG Version: 6.00 Build 0)  -->
<svg version="1.1" id="Layer_1" xmlns="http://www.w3.org/2000/svg" xmlns:xlink="http://www.w3.org/1999/xlink" x="0px" y="0px"
	 viewBox="0 0 650 400" style="enable-background:new 0 0 650 400;" xml:space="preserve">
<style type="text/css">
	.st0{fill:url(#SVGID_1_);}
	.st1{fill:#95B16A;}
	.st2{fill:#FFFFFF;}
	.st3{opacity:0.2;fill:#568312;}
	.st4{fill:#568312;}
	.st5{fill:none;}
	.st6{font-family:'HelveticaNeue';}
	.st7{font-size:30px;}
	.st8{fill:none;stroke:#B04636;stroke-width:7;stroke-miterlimit:10;}
	.st9{fill:#B04636;}
	.st10{fill:url(#SVGID_2_);}
	.st11{fill:#D2D2D2;}
	.st12{fill:url(#SVGID_3_);}
	.st13{fill:url(#SVGID_4_);}
	.st14{fill:url(#SVGID_5_);}
	.st15{fill:url(#SVGID_6_);}
	.st16{fill:url(#SVGID_7_);}
	.st17{fill:url(#SVGID_8_);}
	.st18{fill:url(#SVGID_9_);}
	.st19{font-family:'HelveticaNeue-Medium';}
	.st20{font-size:40px;}
	.st21{fill:url(#SVGID_10_);}
	.st22{font-family:'HelveticaNeue-Bold';}
	.st23{font-size:23px;}
	.st24{fill:none;stroke:#B04636;stroke-width:9.3109;stroke-miterlimit:10;}
</style>
<rect x="90" y="70" class="st5" width="325" height="110"/>
<text transform="matrix(1 0 0 1 90 91.4199)"><tspan x="0" y="0" class="st6 st7">Lorem ipsum dolor sit </tspan><tspan x="0" y="36" class="st6 st7">amet, conse ctetuer </tspan><tspan x="0" y="72" class="st6 st7">adipis cing elit, sed.</tspan></text>
<g>
	<linearGradient id="SVGID_1_" gradientUnits="userSpaceOnUse" x1="172.5" y1="240.9367" x2="172.5" y2="181.8487">
		<stop  offset="0" style="stop-color:#CCCCCC"/>
		<stop  offset="1" style="stop-color:#FFFFFF"/>
	</linearGradient>
	<path class="st0" d="M95,244.8c-2.1,0-3.8-1.7-3.8-3.8v-56c0-2.1,1.7-3.8,3.8-3.8h155c2.1,0,3.8,1.7,3.8,3.8v56
		c0,2.1-1.7,3.8-3.8,3.8H95z"/>
	<path class="st11" d="M250,182.4c1.4,0,2.6,1.2,2.6,2.6v56c0,1.4-1.2,2.6-2.6,2.6H95c-1.4,0-2.6-1.2-2.6-2.6v-56
		c0-1.4,1.2-2.6,2.6-2.6H250 M250,180H95c-2.8,0-5,2.2-5,5v56c0,2.8,2.2,5,5,5h155c2.8,0,5-2.2,5-5v-56C255,182.2,252.8,180,250,180
		L250,180z"/>
</g>
<rect x="96.8" y="197.2" class="st5" width="148.5" height="40.8"/>
<text transform="matrix(1 0 0 1 106.9837 225.7143)" class="st19 st20">Cancel</text>
<g>
	<linearGradient id="SVGID_2_" gradientUnits="userSpaceOnUse" x1="342.5" y1="240.6818" x2="342.5" y2="182.1329">
		<stop  offset="0" style="stop-color:#568312"/>
		<stop  offset="2.840545e-02" style="stop-color:#4C7C05"/>
		<stop  offset="1" style="stop-color:#568312"/>
	</linearGradient>
	<path class="st10" d="M275,244.5c-1.9,0-3.5-1.6-3.5-3.5v-56c0-1.9,1.6-3.5,3.5-3.5h135c1.9,0,3.5,1.6,3.5,3.5v56
		c0,1.9-1.6,3.5-3.5,3.5H275z"/>
	<path class="st1" d="M410,183c1.1,0,2,0.9,2,2v56c0,1.1-0.9,2-2,2H275c-1.1,0-2-0.9-2-2v-56c0-1.1,0.9-2,2-2H410 M410,180H275
		c-2.8,0-5,2.2-5,5v56c0,2.8,2.2,5,5,5h135c2.8,0,5-2.2,5-5v-56C415,182.2,412.8,180,410,180L410,180z"/>
</g>
<rect x="279.2" y="197.2" class="st5" width="126.5" height="40.8"/>
<text transform="matrix(1 0 0 1 296.8367 225.7143)" class="st2 st19 st20">Save</text>
<g>
	<g>
		<g>
			<line class="st8" x1="431.2" y1="213.2" x2="479.2" y2="213.2"/>
			<g>
				<polygon class="st9" points="434.3,223.6 416.2,213.2 434.3,202.7 				"/>
			</g>
		</g>
	</g>
	<rect x="478.5" y="175.5" class="st9" width="138" height="77"/>
	<text transform="matrix(1 0 0 1 492.5615 204.5001)"><tspan x="0" y="0" class="st2 st22 st23">Collapsed</tspan><tspan x="20.6" y="27.6" class="st2 st22 st23">height</tspan></text>
</g>
</svg>
