<?xml version="1.0" encoding="utf-8"?>
<!-- Generator: Adobe Illustrator 22.0.1, SVG Export Plug-In . SVG Version: 6.00 Build 0)  -->
<svg version="1.1" xmlns="http://www.w3.org/2000/svg" xmlns:xlink="http://www.w3.org/1999/xlink" x="0px" y="0px"
	 viewBox="0 0 650 400" style="enable-background:new 0 0 650 400;" xml:space="preserve">
<style type="text/css">
	.st0{fill:#EFEFEF;}
	.st1{fill:#568312;}
	.st2{fill:#999999;}
	.st3{fill:#A6A6A6;}
	.st4{fill:#B3B3B3;}
	.st5{fill:#BFBFBF;}
	.st6{fill:#D9D9D9;}
	.st7{fill:#8C8C8C;}
	.st8{fill:#00487A;}
	.st9{fill:#B04636;}
	.st10{fill:#FFFFFF;}
	.st11{font-family:'HelveticaNeue-Bold';}
	.st12{font-size:23px;}
	.st13{fill:none;stroke:#B04636;stroke-width:7;stroke-miterlimit:10;}
	.st14{fill:none;}
</style>
<g id="base">
	<g>
		<rect x="155" y="220" class="st8" width="460" height="180"/>
	</g>
	<g>
		<rect x="135" y="200" width="460" height="180"/>
	</g>
	<g>
		<rect x="115" y="180" class="st7" width="460" height="180"/>
	</g>
	<g>
		<rect x="96.5" y="161.5" class="st0" width="457" height="177"/>
		<g>
			<path class="st1" d="M552,163v174H98V163H552 M555,160H95v180h460V160L555,160z"/>
		</g>
	</g>
</g>
<g id="feature">
</g>
<g id="label">
	<rect x="95" y="7" class="st9" width="167" height="41"/>
	<text transform="matrix(1 0 0 1 108.6667 36)" class="st10 st11 st12">Defined first</text>
	<rect x="195" y="58" class="st9" width="201" height="41"/>
	<text transform="matrix(1 0 0 1 208.6667 87)" class="st10 st11 st12">Defined second</text>
	<rect x="295" y="109" class="st9" width="170" height="41"/>
	<text transform="matrix(1 0 0 1 308.6667 138)" class="st10 st11 st12">Defined third</text>
	<g>
		<g>
			<line class="st13" x1="133" y1="336.9" x2="133" y2="46.5"/>
			<g>
				<polygon class="st9" points="143.5,333.9 133,352 122.5,333.9 				"/>
			</g>
		</g>
	</g>
	<g>
		<g>
			<line class="st13" x1="233" y1="355.9" x2="233" y2="97.5"/>
			<g>
				<polygon class="st9" points="243.5,352.9 233,371 222.5,352.9 				"/>
			</g>
		</g>
	</g>
	<g>
		<g>
			<line class="st13" x1="333" y1="372.9" x2="333" y2="149.5"/>
			<g>
				<polygon class="st9" points="343.5,369.9 333,388 322.5,369.9 				"/>
			</g>
		</g>
	</g>
</g>
</svg>
