<?xml version="1.0" encoding="utf-8"?>
<!-- Generator: Adobe Illustrator 22.0.1, SVG Export Plug-In . SVG Version: 6.00 Build 0)  -->
<svg version="1.1" id="Layer_1" xmlns="http://www.w3.org/2000/svg" xmlns:xlink="http://www.w3.org/1999/xlink" x="0px" y="0px"
	 viewBox="0 0 650 400" style="enable-background:new 0 0 650 400;" xml:space="preserve">
<style type="text/css">
	.st0{fill:#FFFF96;}
	.st1{fill:none;}
	.st2{fill:#B4B4B4;}
	.st3{font-family:'HelveticaNeue';}
	.st4{font-size:17px;}
	.st5{fill:none;stroke:#646464;stroke-width:2;stroke-miterlimit:10;stroke-dasharray:10,5;}
	.st6{font-family:'HelveticaNeue-Bold';}
	.st7{font-size:22px;}
	.st8{fill:none;stroke:#B04636;stroke-width:7;stroke-miterlimit:10;}
	.st9{fill:#B04636;}
	.st10{fill:#568312;}
	.st11{font-size:20px;}
	.st12{fill:#00B7C8;}
</style>
<rect x="235" y="150" class="st1" width="180" height="140"/>
<text transform="matrix(1 0 0 1 235 162.1377)"><tspan x="0" y="0" class="st2 st3 st4">Lorem ipsum dolor sit </tspan><tspan x="0" y="20.4" class="st2 st3 st4">amet, consectetuer elit, </tspan><tspan x="0" y="40.8" class="st2 st3 st4">sed diam non ummy </tspan><tspan x="0" y="61.2" class="st2 st3 st4">nibh euismod ut laoreet </tspan><tspan x="0" y="81.6" class="st2 st3 st4">dolore magna aliquam </tspan><tspan x="0" y="102" class="st2 st3 st4">erat volutpat. Ut wisi </tspan><tspan x="0" y="122.4" class="st2 st3 st4">enim ad minim veniam.</tspan></text>
<text transform="matrix(1 0 0 1 259.4192 28.8535)" class="st6 st7">Padding box</text>
<rect x="215" y="130" class="st5" width="220" height="180"/>
<g>
	<g>
		<line class="st8" x1="206.2" y1="217.7" x2="180.8" y2="217.7"/>
		<g>
			<polygon class="st9" points="203.1,207.2 221.3,217.7 203.1,228.1 			"/>
		</g>
	</g>
</g>
<g>
	<g>
		<line class="st8" x1="431.8" y1="217.7" x2="457.3" y2="217.7"/>
		<g>
			<polygon class="st9" points="434.9,228.1 416.8,217.7 434.9,207.2 			"/>
		</g>
	</g>
</g>
<g>
	<g>
		<line class="st8" x1="325" y1="315.9" x2="325" y2="341.3"/>
		<g>
			<polygon class="st9" points="314.5,318.9 325,300.8 335.5,318.9 			"/>
		</g>
	</g>
</g>
<g>
	<g>
		<line class="st8" x1="325" y1="130.2" x2="325" y2="104.8"/>
		<g>
			<polygon class="st9" points="335.5,127.2 325,145.3 314.5,127.2 			"/>
		</g>
	</g>
</g>
<text transform="matrix(1 0 0 1 466.9995 225.4216)" class="st3 st11">Padding</text>
<text transform="matrix(1 0 0 1 287.7703 360.1948)" class="st3 st11">Padding</text>
<text transform="matrix(1 0 0 1 287.7703 97.1401)" class="st3 st11">Padding</text>
<text transform="matrix(1 0 0 1 96.5405 225.4216)" class="st3 st11">Padding</text>
</svg>
