<?xml version="1.0" encoding="utf-8"?>
<!-- Generator: Adobe Illustrator 22.0.1, SVG Export Plug-In . SVG Version: 6.00 Build 0)  -->
<svg version="1.1" id="Layer_1" xmlns="http://www.w3.org/2000/svg" xmlns:xlink="http://www.w3.org/1999/xlink" x="0px" y="0px"
	 viewBox="0 0 650 400" style="enable-background:new 0 0 650 400;" xml:space="preserve">
<style type="text/css">
	.st0{fill:#FFFF96;}
	.st1{fill:#B4B4B4;}
	.st2{fill:none;stroke:#646464;stroke-width:2;stroke-miterlimit:10;stroke-dasharray:10,5;}
	.st3{fill:none;stroke:#B04636;stroke-width:7;stroke-miterlimit:10;}
	.st4{fill:#B04636;}
	.st5{fill:#568312;}
	.st6{fill:#00B7C8;}
	.st7{font-family:'HelveticaNeue-Bold';}
	.st8{font-size:22px;}
	.st9{fill:none;}
	.st10{font-family:'HelveticaNeue';}
	.st11{font-size:17px;}
	.st12{font-size:20px;}
</style>
<rect x="175" y="90" class="st2" width="300" height="260"/>
<rect x="195" y="110" class="st0" width="260" height="220"/>
<rect x="215" y="130" class="st2" width="220" height="180"/>
<g>
	<g>
		<rect x="195" y="110" class="st5" width="20" height="20"/>
	</g>
	<g>
		<rect x="235" y="110" class="st5" width="20" height="20"/>
	</g>
	<g>
		<rect x="275" y="110" class="st5" width="20" height="20"/>
	</g>
	<g>
		<rect x="315" y="110" class="st5" width="20" height="20"/>
	</g>
	<g>
		<rect x="355" y="110" class="st5" width="20" height="20"/>
	</g>
	<g>
		<rect x="395" y="110" class="st5" width="20" height="20"/>
	</g>
	<g>
		<rect x="215" y="310" class="st5" width="20" height="20"/>
	</g>
	<g>
		<rect x="255" y="310" class="st5" width="20" height="20"/>
	</g>
	<g>
		<rect x="295" y="310" class="st5" width="20" height="20"/>
	</g>
	<g>
		<rect x="335" y="310" class="st5" width="20" height="20"/>
	</g>
	<g>
		<rect x="375" y="310" class="st5" width="20" height="20"/>
	</g>
	<g>
		<rect x="415" y="310" class="st5" width="20" height="20"/>
	</g>
	<g>
		<rect x="195" y="150" class="st5" width="20" height="20"/>
	</g>
	<g>
		<rect x="195" y="190" class="st5" width="20" height="20"/>
	</g>
	<g>
		<rect x="195" y="230" class="st5" width="20" height="20"/>
	</g>
	<g>
		<rect x="195" y="270" class="st5" width="20" height="20"/>
	</g>
	<g>
		<rect x="195" y="310" class="st5" width="20" height="20"/>
	</g>
	<g>
		<rect x="435" y="110" class="st5" width="20" height="20"/>
	</g>
	<g>
		<rect x="435" y="150" class="st5" width="20" height="20"/>
	</g>
	<g>
		<rect x="435" y="190" class="st5" width="20" height="20"/>
	</g>
	<g>
		<rect x="435" y="230" class="st5" width="20" height="20"/>
	</g>
	<g>
		<rect x="435" y="270" class="st5" width="20" height="20"/>
	</g>
	<g>
		<rect x="435" y="310" class="st5" width="20" height="20"/>
	</g>
</g>
<text transform="matrix(1 0 0 1 288.3484 28.8535)" class="st7 st8">Margin</text>
<rect x="215" y="130" class="st6" width="30" height="30"/>
<rect x="235" y="150" class="st9" width="180" height="140"/>
<text transform="matrix(1 0 0 1 235 162.1377)"><tspan x="0" y="0" class="st10 st11">Lorem ipsum dolor sit </tspan><tspan x="0" y="20.4" class="st10 st11">amet, consectetuer elit, </tspan><tspan x="0" y="40.8" class="st10 st11">sed diam non ummy </tspan><tspan x="0" y="61.2" class="st10 st11">nibh euismod ut laoreet </tspan><tspan x="0" y="81.6" class="st10 st11">dolore magna aliquam </tspan><tspan x="0" y="102" class="st10 st11">erat volutpat. Ut wisi </tspan><tspan x="0" y="122.4" class="st10 st11">enim ad minim veniam.</tspan></text>
<g>
	<g>
		<line class="st3" x1="168.6" y1="203.8" x2="143.2" y2="203.8"/>
		<g>
			<polygon class="st4" points="165.6,193.3 183.7,203.8 165.6,214.3 			"/>
		</g>
	</g>
</g>
<g>
	<g>
		<line class="st3" x1="478.4" y1="203.8" x2="503.8" y2="203.8"/>
		<g>
			<polygon class="st4" points="481.4,214.3 463.3,203.8 481.4,193.3 			"/>
		</g>
	</g>
</g>
<g>
	<g>
		<line class="st3" x1="327.4" y1="351.7" x2="327.4" y2="368.1"/>
		<g>
			<polygon class="st4" points="317,354.7 327.4,336.6 337.9,354.7 			"/>
		</g>
	</g>
</g>
<g>
	<g>
		<line class="st3" x1="327.4" y1="88.1" x2="327.4" y2="70.7"/>
		<g>
			<polygon class="st4" points="337.9,85 327.4,103.2 317,85 			"/>
		</g>
	</g>
</g>
<text transform="matrix(1 0 0 1 513.5613 211.5437)" class="st10 st12">Margin</text>
<text transform="matrix(1 0 0 1 296.5073 387.9858)" class="st10 st12">Margin</text>
<text transform="matrix(1 0 0 1 296.5073 64.0134)" class="st10 st12">Margin</text>
<text transform="matrix(1 0 0 1 71.5784 211.5437)" class="st10 st12">Margin</text>
</svg>
