<?xml version="1.0" encoding="utf-8"?>
<!-- Generator: Adobe Illustrator 22.0.1, SVG Export Plug-In . SVG Version: 6.00 Build 0)  -->
<svg version="1.1" xmlns="http://www.w3.org/2000/svg" xmlns:xlink="http://www.w3.org/1999/xlink" x="0px" y="0px"
	 viewBox="0 0 650 400" style="enable-background:new 0 0 650 400;" xml:space="preserve">
<style type="text/css">
	.st0{fill:#EFEFEF;}
	.st1{fill:#568312;}
	.st2{fill:#999999;}
	.st3{fill:#A6A6A6;}
	.st4{fill:#B3B3B3;}
	.st5{fill:#BFBFBF;}
	.st6{fill:#D9D9D9;}
	.st7{fill:#8C8C8C;}
	.st8{fill:#00487A;}
	.st9{fill:#B04636;}
	.st10{fill:#FFFFFF;}
	.st11{fill:none;stroke:#B04636;stroke-width:7;stroke-miterlimit:10;}
	.st12{fill:none;}
</style>
<g id="base">
	<g>
		<rect x="96.5" y="111.5" class="st0" width="457" height="177"/>
		<g>
			<path class="st1" d="M552,113v174H98V113H552 M555,110H95v180h460V110L555,110z"/>
		</g>
	</g>
	<polygon class="st2" points="552,113 98,113 98,287 107,287 107,122 552,122 	"/>
	<g>
		<polygon class="st3" points="552,122 107,122 107,287 113,287 113,128 552,128 		"/>
	</g>
	<g>
		<polygon class="st4" points="552,128 113,128 113,287 119,287 119,134 552,134 		"/>
	</g>
	<g>
		<polygon class="st5" points="552,134 119,134 119,287 125,287 125,140 552,140 		"/>
	</g>
	<g>
		<polygon class="st6" points="552,140 125,140 125,287 131,287 131,146 552,146 		"/>
	</g>
	<g>
		<path d="M113.7,137.9v-6.6h29.2v6.6h-10.7V167h-7.9v-29.1H113.7z"/>
		<path d="M148.3,160.8c1.1,1,2.6,1.6,4.6,1.6c1.4,0,2.7-0.4,3.7-1.1c1-0.7,1.7-1.5,1.9-2.3h6.2c-1,3.1-2.5,5.3-4.6,6.6
			c-2.1,1.3-4.6,2-7.5,2c-2,0-3.9-0.3-5.5-1c-1.6-0.6-3-1.6-4.2-2.8c-1.1-1.2-2-2.6-2.6-4.3c-0.6-1.7-0.9-3.5-0.9-5.5
			c0-1.9,0.3-3.7,1-5.4c0.6-1.7,1.5-3.1,2.7-4.3c1.2-1.2,2.6-2.2,4.2-2.9c1.6-0.7,3.4-1,5.4-1c2.2,0,4.1,0.4,5.8,1.3
			c1.6,0.9,3,2,4,3.4c1,1.4,1.8,3.1,2.3,4.9c0.5,1.8,0.6,3.8,0.5,5.8h-18.7C146.7,158.1,147.2,159.8,148.3,160.8z M156.3,147.2
			c-0.9-0.9-2.1-1.4-3.9-1.4c-1.1,0-2.1,0.2-2.8,0.6c-0.8,0.4-1.3,0.9-1.8,1.4c-0.5,0.6-0.8,1.2-1,1.8c-0.2,0.6-0.3,1.2-0.3,1.7
			h11.5C157.8,149.5,157.2,148.1,156.3,147.2z"/>
		<path d="M167.5,141.1h8.1l4.5,6.8l4.5-6.8h7.8l-8.5,12.1l9.5,13.8h-8.1l-5.4-8.1l-5.4,8.1h-8l9.3-13.6L167.5,141.1z"/>
		<path d="M210.4,141.1v4.8h-5.2v12.8c0,1.2,0.2,2,0.6,2.4c0.4,0.4,1.2,0.6,2.4,0.6c0.4,0,0.8,0,1.1-0.1c0.4,0,0.7-0.1,1.1-0.1v5.5
			c-0.6,0.1-1.3,0.2-2,0.2c-0.7,0-1.5,0-2.2,0c-1.1,0-2.1-0.1-3.1-0.2c-1-0.1-1.8-0.4-2.6-0.9c-0.8-0.4-1.3-1-1.8-1.9
			c-0.4-0.8-0.7-1.8-0.7-3.1v-15.2h-4.3v-4.8h4.3v-7.8h7.1v7.8H210.4z"/>
	</g>
</g>
<g id="feature">
</g>
<g id="label">
</g>
</svg>
