<?xml version="1.0" encoding="utf-8"?>
<!-- Generator: Adobe Illustrator 22.0.1, SVG Export Plug-In . SVG Version: 6.00 Build 0)  -->
<svg version="1.1" xmlns="http://www.w3.org/2000/svg" xmlns:xlink="http://www.w3.org/1999/xlink" x="0px" y="0px"
	 viewBox="0 0 650 400" style="enable-background:new 0 0 650 400;" xml:space="preserve">
<style type="text/css">
	.st0{fill:#EFEFEF;}
	.st1{fill:#568312;}
	.st2{fill:#999999;}
	.st3{fill:#A6A6A6;}
	.st4{fill:#B3B3B3;}
	.st5{fill:#BFBFBF;}
	.st6{fill:#D9D9D9;}
	.st7{fill:#8C8C8C;}
	.st8{fill:#00487A;}
	.st9{fill:#B04636;}
	.st10{fill:#FFFFFF;}
	.st11{fill:none;stroke:#B04636;stroke-width:7;stroke-miterlimit:10;}
	.st12{fill:none;}
</style>
<g id="base">
	<g>
		<rect x="96.5" y="111.5" class="st0" width="457" height="177"/>
		<g>
			<path class="st1" d="M552,113v174H98V113H552 M555,110H95v180h460V110L555,110z"/>
		</g>
	</g>
	<polygon class="st2" points="552,113 98,113 98,287 105,287 105,120 552,120 	"/>
	<g>
		<polygon class="st3" points="552,120 105,120 105,287 107,287 107,122 552,122 		"/>
	</g>
	<g>
		<polygon class="st4" points="552,122 107,122 107,287 109,287 109,124 552,124 		"/>
	</g>
	<g>
		<polygon class="st5" points="552,124 109,124 109,287 111,287 111,126 552,126 		"/>
	</g>
	<g>
		<polygon class="st6" points="552,126 111,126 111,287 113,287 113,128 552,128 		"/>
	</g>
</g>
<g id="feature">
</g>
<g id="label">
</g>
</svg>
