<?xml version="1.0" encoding="utf-8"?>
<!-- Generator: Adobe Illustrator 22.0.1, SVG Export Plug-In . SVG Version: 6.00 Build 0)  -->
<svg version="1.1" id="Layer_1" xmlns="http://www.w3.org/2000/svg" xmlns:xlink="http://www.w3.org/1999/xlink" x="0px" y="0px"
	 viewBox="0 0 650 400" style="enable-background:new 0 0 650 400;" xml:space="preserve">
<style type="text/css">
	.st0{opacity:0.3;fill:#568312;}
	.st1{fill:#FFFFFF;}
	.st2{fill:#BEBEBE;}
	.st3{fill:none;}
	.st4{font-family:'HelveticaNeue';}
	.st5{font-size:22px;}
	.st6{opacity:0.2;fill:#568312;}
	.st7{fill:none;stroke:#568312;stroke-width:3;stroke-miterlimit:10;}
	.st8{fill:none;stroke:#568312;stroke-width:3;stroke-miterlimit:10;stroke-dasharray:7.0741,7.0741;}
	.st9{fill:none;stroke:#568312;stroke-width:3;stroke-miterlimit:10;stroke-dasharray:7.2857,7.2857;}
	.st10{fill:none;stroke:#B04636;stroke-width:7;stroke-miterlimit:10;}
	.st11{fill:#B04636;}
	.st12{font-family:'HelveticaNeue-Bold';}
	.st13{font-size:23px;}
	.st14{opacity:0.3;}
	.st15{fill:#568312;}
</style>
<g>
	<g>
		<g>
			<rect x="31.5" y="254.5" class="st1" width="576.9" height="112.9"/>
			<path class="st2" d="M606.9,256.1v109.9H33.1V256.1H570H606.9 M610,253h-40H30v116h580V253L610,253z"/>
		</g>
	</g>
</g>
<rect x="47" y="268" class="st3" width="546" height="96"/>
<text transform="matrix(1 0 0 1 47 283.708)"><tspan x="0" y="0" class="st4 st5">Lorem ipsum dolor sit amet, consect etuer adipiscing </tspan><tspan x="0" y="30" class="st4 st5">elit, sed diam nonummy nibh euismod tincidunt ut </tspan><tspan x="0" y="60" class="st4 st5">laoreet dolore.</tspan></text>
<rect x="30" y="92" class="st6" width="580" height="160"/>
<g>
	<g>
		<polyline class="st7" points="610,248.5 610,252 606.5,252 		"/>
		<line class="st8" x1="599.4" y1="252" x2="37" y2="252"/>
		<polyline class="st7" points="33.5,252 30,252 30,248.5 		"/>
		<line class="st9" x1="30" y1="241.2" x2="30" y2="99.1"/>
		<polyline class="st7" points="30,95.5 30,92 33.5,92 		"/>
		<line class="st8" x1="40.6" y1="92" x2="603" y2="92"/>
		<polyline class="st7" points="606.5,92 610,92 610,95.5 		"/>
		<line class="st9" x1="610" y1="102.8" x2="610" y2="244.9"/>
	</g>
</g>
<g>
	<g>
		<line class="st10" x1="320" y1="89.9" x2="320" y2="60"/>
		<g>
			<polygon class="st11" points="330.5,86.9 320,105 309.5,86.9 			"/>
		</g>
	</g>
</g>
<g>
	<g>
		<g>
			<rect x="51.5" y="113.5" class="st1" width="536.9" height="116.9"/>
			<path class="st2" d="M586.9,115.1v113.9H53.1V115.1H586.9 M590,112H50v120h540V112L590,112z"/>
		</g>
	</g>
</g>
<rect x="70" y="132" class="st3" width="500" height="96"/>
<text transform="matrix(1 0 0 1 70 147.708)"><tspan x="0" y="0" class="st4 st5">Lorem ipsum dolor sit amet, consectetuer </tspan><tspan x="0" y="30" class="st4 st5">adipiscing elit, sed diam nonummy nibh euismod </tspan><tspan x="0" y="60" class="st4 st5">tincidunt ut laoreet dolore.</tspan></text>
<rect x="194" y="28.8" class="st11" width="252" height="45"/>
<text transform="matrix(1 0 0 1 206.2553 57.3573)" class="st1 st12 st13">Margin around block</text>
</svg>
