<?xml version="1.0" encoding="utf-8"?>
<!-- Generator: Adobe Illustrator 22.0.1, SVG Export Plug-In . SVG Version: 6.00 Build 0)  -->
<svg version="1.1" id="Layer_1" xmlns="http://www.w3.org/2000/svg" xmlns:xlink="http://www.w3.org/1999/xlink" x="0px" y="0px"
	 viewBox="0 0 650 400" style="enable-background:new 0 0 650 400;" xml:space="preserve">
<style type="text/css">
	.st0{fill:#FFFF96;}
	.st1{fill:#B4B4B4;}
	.st2{fill:none;stroke:#646464;stroke-width:2;stroke-miterlimit:10;stroke-dasharray:10,5;}
	.st3{fill:none;stroke:#B04636;stroke-width:7;stroke-miterlimit:10;}
	.st4{fill:#B04636;}
	.st5{fill:#568312;}
	.st6{fill:none;}
	.st7{font-family:'HelveticaNeue';}
	.st8{font-size:17px;}
	.st9{font-family:'HelveticaNeue-Bold';}
	.st10{font-size:22px;}
	.st11{font-size:20px;}
	.st12{fill:#00B7C8;}
</style>
<rect x="195" y="110" class="st0" width="260" height="220"/>
<rect x="235" y="150" class="st6" width="180" height="140"/>
<text transform="matrix(1 0 0 1 235 162.1377)"><tspan x="0" y="0" class="st7 st8">Lorem ipsum dolor sit </tspan><tspan x="0" y="20.4" class="st7 st8">amet, consectetuer elit, </tspan><tspan x="0" y="40.8" class="st7 st8">sed diam non ummy </tspan><tspan x="0" y="61.2" class="st7 st8">nibh euismod ut laoreet </tspan><tspan x="0" y="81.6" class="st7 st8">dolore magna aliquam </tspan><tspan x="0" y="102" class="st7 st8">erat volutpat. Ut wisi </tspan><tspan x="0" y="122.4" class="st7 st8">enim ad minim veniam.</tspan></text>
<rect x="215" y="130" class="st2" width="220" height="180"/>
<g>
	<g>
		<rect x="195" y="110" class="st5" width="20" height="20"/>
	</g>
	<g>
		<rect x="235" y="110" class="st5" width="20" height="20"/>
	</g>
	<g>
		<rect x="275" y="110" class="st5" width="20" height="20"/>
	</g>
	<g>
		<rect x="315" y="110" class="st5" width="20" height="20"/>
	</g>
	<g>
		<rect x="355" y="110" class="st5" width="20" height="20"/>
	</g>
	<g>
		<rect x="395" y="110" class="st5" width="20" height="20"/>
	</g>
	<g>
		<rect x="215" y="310" class="st5" width="20" height="20"/>
	</g>
	<g>
		<rect x="255" y="310" class="st5" width="20" height="20"/>
	</g>
	<g>
		<rect x="295" y="310" class="st5" width="20" height="20"/>
	</g>
	<g>
		<rect x="335" y="310" class="st5" width="20" height="20"/>
	</g>
	<g>
		<rect x="375" y="310" class="st5" width="20" height="20"/>
	</g>
	<g>
		<rect x="415" y="310" class="st5" width="20" height="20"/>
	</g>
	<g>
		<rect x="195" y="150" class="st5" width="20" height="20"/>
	</g>
	<g>
		<rect x="195" y="190" class="st5" width="20" height="20"/>
	</g>
	<g>
		<rect x="195" y="230" class="st5" width="20" height="20"/>
	</g>
	<g>
		<rect x="195" y="270" class="st5" width="20" height="20"/>
	</g>
	<g>
		<rect x="195" y="310" class="st5" width="20" height="20"/>
	</g>
	<g>
		<rect x="435" y="110" class="st5" width="20" height="20"/>
	</g>
	<g>
		<rect x="435" y="150" class="st5" width="20" height="20"/>
	</g>
	<g>
		<rect x="435" y="190" class="st5" width="20" height="20"/>
	</g>
	<g>
		<rect x="435" y="230" class="st5" width="20" height="20"/>
	</g>
	<g>
		<rect x="435" y="270" class="st5" width="20" height="20"/>
	</g>
	<g>
		<rect x="435" y="310" class="st5" width="20" height="20"/>
	</g>
</g>
<text transform="matrix(1 0 0 1 229.4768 28.8535)" class="st9 st10">Background-color</text>
<g>
	<g>
		<line class="st3" x1="305" y1="125.9" x2="305" y2="86.5"/>
		<g>
			<polygon class="st4" points="315.5,122.9 305,141 294.5,122.9 			"/>
		</g>
	</g>
</g>
<text transform="matrix(1 0 0 1 158.6819 82.0269)" class="st7 st11">Background-color behind border box</text>
</svg>
