<?xml version="1.0" encoding="utf-8"?>
<!-- Generator: Adobe Illustrator 22.0.1, SVG Export Plug-In . SVG Version: 6.00 Build 0)  -->
<svg version="1.1" id="Layer_1" xmlns="http://www.w3.org/2000/svg" xmlns:xlink="http://www.w3.org/1999/xlink" x="0px" y="0px"
	 viewBox="0 0 650 400" style="enable-background:new 0 0 650 400;" xml:space="preserve">
<style type="text/css">
	.st0{fill:#D2D2D2;}
	.st1{fill:#568312;}
	.st2{fill:none;stroke:#B04636;stroke-width:7;stroke-miterlimit:10;}
	.st3{fill:#B04636;}
	.st4{fill:#FFFFFF;}
	.st5{font-family:'HelveticaNeue-Bold';}
	.st6{font-size:32px;}
	.st7{font-size:22px;}
	.st8{font-size:23px;}
</style>
<g>
	<g>
		<path class="st0" d="M602.1,62.9v219.2H27.9V62.9H602.1 M605,60H25v225h580V60L605,60z"/>
	</g>
</g>
<g>
	<g>
		<path class="st1" d="M179,83v108H31V83h568 M28,80v114h154V80"/>
	</g>
</g>
<text transform="matrix(1 0 0 1 40 113.4238)"><tspan x="0" y="0" class="st5 st6">This is a</tspan><tspan x="0" y="30" class="st5 st6">heading</tspan></text>
<text transform="matrix(1 0 0 1 235.5703 45.8535)" class="st5 st7">Containing box</text>
<rect x="85" y="317" class="st3" width="150" height="41"/>
<text transform="matrix(1 0 0 1 103 345)" class="st4 st5 st8">Sized box</text>
<g>
	<g>
		<line class="st2" x1="144.2" y1="200.1" x2="144.2" y2="317"/>
		<g>
			<polygon class="st3" points="133.8,203.1 144.2,185 154.7,203.1 			"/>
		</g>
	</g>
</g>
</svg>
