<?xml version="1.0" encoding="utf-8"?>
<!-- Generator: Adobe Illustrator 22.0.1, SVG Export Plug-In . SVG Version: 6.00 Build 0)  -->
<svg version="1.1" id="Layer_1" xmlns="http://www.w3.org/2000/svg" xmlns:xlink="http://www.w3.org/1999/xlink" x="0px" y="0px"
	 viewBox="0 0 650 400" style="enable-background:new 0 0 650 400;" xml:space="preserve">
<style type="text/css">
	.st0{fill:none;stroke:#B04636;stroke-width:7;stroke-miterlimit:10;}
	.st1{fill:#B04636;}
	.st2{fill:#FFFFFF;}
	.st3{font-family:'HelveticaNeue-Bold';}
	.st4{font-size:23px;}
	.st5{fill:#C8C8C8;}
	.st6{fill:none;}
	.st7{font-family:'HelveticaNeue';}
	.st8{font-size:22px;}
</style>
<g>
	<g>
		<line class="st0" x1="579.9" y1="34" x2="426" y2="34"/>
		<g>
			<polygon class="st1" points="576.9,23.5 595,34 576.9,44.5 			"/>
		</g>
	</g>
</g>
<g>
	<g>
		<line class="st0" x1="70.1" y1="34" x2="224" y2="34"/>
		<g>
			<polygon class="st1" points="73.1,44.5 55,34 73.1,23.5 			"/>
		</g>
	</g>
</g>
<g>
	<g>
		<line class="st0" x1="394.9" y1="210.5" x2="330.5" y2="210.5"/>
		<g>
			<polygon class="st1" points="391.9,200 410,210.5 391.9,221 			"/>
		</g>
	</g>
</g>
<g>
	<g>
		<line class="st0" x1="66.1" y1="210.5" x2="220" y2="210.5"/>
		<g>
			<polygon class="st1" points="69.1,221 51,210.5 69.1,200 			"/>
		</g>
	</g>
</g>
<rect x="155" y="15" class="st1" width="340" height="40"/>
<text transform="matrix(1 0 0 1 168.0278 41.5)" class="st2 st3 st4">Default behaviour: Stretched</text>
<rect x="109.5" y="191" class="st1" width="244" height="40"/>
<text transform="matrix(1 0 0 1 120.7683 217.5)" class="st2 st3 st4">Sized: Given a width</text>
<g>
	<g>
		<path class="st5" d="M592,63v110H58V63H592 M595,60H55v116h540V60L595,60z"/>
	</g>
</g>
<rect x="75" y="75" class="st6" width="500" height="96"/>
<text transform="matrix(1 0 0 1 75 90.708)"><tspan x="0" y="0" class="st7 st8">Lorem ipsum dolor sit amet, consectetuer </tspan><tspan x="0" y="30" class="st7 st8">adipiscing elit, sed diam nonummy nibh euismod </tspan><tspan x="0" y="60" class="st7 st8">tincidunt ut laoreet dolore.</tspan></text>
<g>
	<g>
		<path class="st5" d="M407,239v134H58V239H407 M410,236H55v140h355V236L410,236z"/>
	</g>
</g>
<rect x="75" y="251" class="st6" width="327" height="125"/>
<text transform="matrix(1 0 0 1 75 266.708)"><tspan x="0" y="0" class="st7 st8">Lorem ipsum dolor sit amet, </tspan><tspan x="0" y="30" class="st7 st8">consectetuer adipiscing elit, sed </tspan><tspan x="0" y="60" class="st7 st8">diam nonummy nibh euismod </tspan><tspan x="0" y="90" class="st7 st8">tincidunt ut laoreet dolore.</tspan></text>
</svg>
