<?xml version="1.0" encoding="utf-8"?>
<!-- Generator: Adobe Illustrator 22.0.1, SVG Export Plug-In . SVG Version: 6.00 Build 0)  -->
<svg version="1.1" id="Layer_1" xmlns="http://www.w3.org/2000/svg" xmlns:xlink="http://www.w3.org/1999/xlink" x="0px" y="0px"
	 viewBox="0 0 650 400" style="enable-background:new 0 0 650 400;" xml:space="preserve">
<style type="text/css">
	.st0{fill:#FFFF96;}
	.st1{fill:#B4B4B4;}
	.st2{fill:none;stroke:#646464;stroke-width:2;stroke-miterlimit:10;stroke-dasharray:10,5;}
	.st3{fill:none;}
	.st4{font-family:'HelveticaNeue';}
	.st5{font-size:17px;}
	.st6{fill:none;stroke:#B04636;stroke-width:7;stroke-miterlimit:10;}
	.st7{fill:#B04636;}
	.st8{fill:#568312;}
	.st9{font-family:'HelveticaNeue-Bold';}
	.st10{font-size:22px;}
	.st11{font-size:20px;}
	.st12{fill:#00B7C8;}
</style>
<rect x="235" y="150" class="st3" width="180" height="140"/>
<text transform="matrix(1 0 0 1 235 162.1377)"><tspan x="0" y="0" class="st1 st4 st5">Lorem ipsum dolor sit </tspan><tspan x="0" y="20.4" class="st1 st4 st5">amet, consectetuer elit, </tspan><tspan x="0" y="40.8" class="st1 st4 st5">sed diam non ummy </tspan><tspan x="0" y="61.2" class="st1 st4 st5">nibh euismod ut laoreet </tspan><tspan x="0" y="81.6" class="st1 st4 st5">dolore magna aliquam </tspan><tspan x="0" y="102" class="st1 st4 st5">erat volutpat. Ut wisi </tspan><tspan x="0" y="122.4" class="st1 st4 st5">enim ad minim veniam.</tspan></text>
<rect x="215" y="130" class="st2" width="220" height="180"/>
<g>
	<g>
		<rect x="195" y="110" class="st8" width="20" height="20"/>
	</g>
	<g>
		<rect x="235" y="110" class="st8" width="20" height="20"/>
	</g>
	<g>
		<rect x="275" y="110" class="st8" width="20" height="20"/>
	</g>
	<g>
		<rect x="315" y="110" class="st8" width="20" height="20"/>
	</g>
	<g>
		<rect x="355" y="110" class="st8" width="20" height="20"/>
	</g>
	<g>
		<rect x="395" y="110" class="st8" width="20" height="20"/>
	</g>
	<g>
		<rect x="215" y="310" class="st8" width="20" height="20"/>
	</g>
	<g>
		<rect x="255" y="310" class="st8" width="20" height="20"/>
	</g>
	<g>
		<rect x="295" y="310" class="st8" width="20" height="20"/>
	</g>
	<g>
		<rect x="335" y="310" class="st8" width="20" height="20"/>
	</g>
	<g>
		<rect x="375" y="310" class="st8" width="20" height="20"/>
	</g>
	<g>
		<rect x="415" y="310" class="st8" width="20" height="20"/>
	</g>
	<g>
		<rect x="195" y="150" class="st8" width="20" height="20"/>
	</g>
	<g>
		<rect x="195" y="190" class="st8" width="20" height="20"/>
	</g>
	<g>
		<rect x="195" y="230" class="st8" width="20" height="20"/>
	</g>
	<g>
		<rect x="195" y="270" class="st8" width="20" height="20"/>
	</g>
	<g>
		<rect x="195" y="310" class="st8" width="20" height="20"/>
	</g>
	<g>
		<rect x="435" y="110" class="st8" width="20" height="20"/>
	</g>
	<g>
		<rect x="435" y="150" class="st8" width="20" height="20"/>
	</g>
	<g>
		<rect x="435" y="190" class="st8" width="20" height="20"/>
	</g>
	<g>
		<rect x="435" y="230" class="st8" width="20" height="20"/>
	</g>
	<g>
		<rect x="435" y="270" class="st8" width="20" height="20"/>
	</g>
	<g>
		<rect x="435" y="310" class="st8" width="20" height="20"/>
	</g>
</g>
<text transform="matrix(1 0 0 1 266.5369 28.8535)" class="st9 st10">Border box</text>
<g>
	<g>
		<line class="st6" x1="186.2" y1="209.8" x2="160.8" y2="209.8"/>
		<g>
			<polygon class="st7" points="183.1,199.4 201.3,209.8 183.1,220.3 			"/>
		</g>
	</g>
</g>
<g>
	<g>
		<line class="st6" x1="458.9" y1="209.8" x2="484.4" y2="209.8"/>
		<g>
			<polygon class="st7" points="462,220.3 443.9,209.8 462,199.4 			"/>
		</g>
	</g>
</g>
<g>
	<g>
		<line class="st6" x1="325" y1="337.7" x2="325" y2="363.1"/>
		<g>
			<polygon class="st7" points="314.5,340.8 325,322.6 335.5,340.8 			"/>
		</g>
	</g>
</g>
<g>
	<g>
		<line class="st6" x1="325" y1="103.1" x2="325" y2="77.7"/>
		<g>
			<polygon class="st7" points="335.5,100.1 325,118.2 314.5,100.1 			"/>
		</g>
	</g>
</g>
<text transform="matrix(1 0 0 1 494.124 217.5847)" class="st4 st11">Border</text>
<text transform="matrix(1 0 0 1 294.45 382.0269)" class="st4 st11">Border</text>
<text transform="matrix(1 0 0 1 294.45 70.0544)" class="st4 st11">Border</text>
<text transform="matrix(1 0 0 1 89.9009 217.5847)" class="st4 st11">Border</text>
</svg>
