<?xml version="1.0" encoding="utf-8"?>
<!-- Generator: Adobe Illustrator 22.0.1, SVG Export Plug-In . SVG Version: 6.00 Build 0)  -->
<svg version="1.1" id="Layer_1" xmlns="http://www.w3.org/2000/svg" xmlns:xlink="http://www.w3.org/1999/xlink" x="0px" y="0px"
	 viewBox="0 0 650 400" style="enable-background:new 0 0 650 400;" xml:space="preserve">
<style type="text/css">
	.st0{fill:#D2D2D2;}
	.st1{fill:#568312;}
	.st2{fill:none;}
	.st3{font-family:'HelveticaNeue';}
	.st4{font-size:20px;}
	.st5{fill:none;stroke:#B04636;stroke-width:7;stroke-miterlimit:10;}
	.st6{fill:#B04636;}
	.st7{font-family:'HelveticaNeue-Bold';}
	.st8{font-size:32px;}
	.st9{font-size:22px;}
	.st10{fill:#FFFFFF;}
	.st11{font-size:23px;}
</style>
<g>
	<g>
		<path class="st0" d="M602.1,62.9v219.2H27.9V62.9H602.1 M605,60H25v225h580V60L605,60z"/>
	</g>
</g>
<g>
	<g>
		<path class="st1" d="M599,83v39H31V83H599 M602,80H28v45h574V80L602,80z"/>
	</g>
</g>
<g>
	<g>
		<path class="st1" d="M599,138v119H31V138H599 M602,135H28v125h574V135L602,135z"/>
	</g>
</g>
<rect x="40" y="145" class="st2" width="552" height="120"/>
<text transform="matrix(1 0 0 1 40 159.2793)"><tspan x="0" y="0" class="st3 st4">Lorem ipsum dolor sit amet, consectetuer adipiscing elit, sed </tspan><tspan x="0" y="30" class="st3 st4">diam nonummy nibh euismod tincidunt ut laoreet dolore </tspan><tspan x="0" y="60" class="st3 st4">magna aliquam erat volutpat. Ut wisi enim ad minim veniam, </tspan><tspan x="0" y="90" class="st3 st4">quis nostrud exerci tation ullamcorper suscipit.</tspan></text>
<g>
	<g>
		<line class="st5" x1="553" y1="115.1" x2="553" y2="317"/>
		<g>
			<polygon class="st6" points="542.5,118.1 553,100 563.5,118.1 			"/>
		</g>
	</g>
</g>
<text transform="matrix(1 0 0 1 40 113.4238)" class="st7 st8">This is a heading</text>
<text transform="matrix(1 0 0 1 235.5703 45.8535)" class="st7 st9">Containing box</text>
<rect x="362" y="317" class="st6" width="206" height="41"/>
<text transform="matrix(1 0 0 1 374 345)" class="st10 st7 st11">Stretched boxes</text>
<g>
	<g>
		<line class="st5" x1="517.2" y1="249.1" x2="517.2" y2="317"/>
		<g>
			<polygon class="st6" points="506.8,252.1 517.2,234 527.7,252.1 			"/>
		</g>
	</g>
</g>
</svg>
