<?xml version="1.0" encoding="utf-8"?>
<!-- Generator: Adobe Illustrator 22.0.1, SVG Export Plug-In . SVG Version: 6.00 Build 0)  -->
<svg version="1.1" id="Layer_1" xmlns="http://www.w3.org/2000/svg" xmlns:xlink="http://www.w3.org/1999/xlink" x="0px" y="0px"
	 viewBox="0 0 650 400" style="enable-background:new 0 0 650 400;" xml:space="preserve">
<style type="text/css">
	.st0{fill:#FFFFFF;}
	.st1{fill:#F4F5F5;}
	.st2{fill:#D0D0D1;}
	.st3{fill:#B3B2B3;}
	.st4{fill:#A4A4A4;}
	.st5{fill:#CCCBCB;}
	.st6{fill:#E4E4E4;}
	.st7{fill:#F2F2F2;}
	.st8{fill:#B6B6B7;}
	.st9{fill:#EEEDED;}
	.st10{font-family:'HelveticaNeue';}
	.st11{font-size:24px;}
</style>
<g>
	<path class="st0" d="M220,84v-2h-3.2h-2h-16h-2H196v2h-2v1.9v20v2.1h2v2h0.8h2h16h2h3.2v-2h2v-2.1v-20V84H220z"/>
	<rect x="194" y="82" class="st1" width="2" height="2"/>
	<rect x="220" y="82" class="st1" width="2" height="2"/>
	<rect x="196" y="82" class="st2" width="2" height="2"/>
	<rect x="218" y="82" class="st2" width="2" height="2"/>
	<rect x="198" y="82" class="st3" width="2" height="2"/>
	<rect x="216" y="82" class="st3" width="2" height="2"/>
	<rect x="200" y="82" class="st4" width="16" height="2"/>
	<rect x="194" y="84" class="st5" width="2" height="2"/>
	<rect x="220" y="84" class="st5" width="2" height="2"/>
	<rect x="196" y="84" class="st5" width="2" height="2"/>
	<rect x="218" y="84" class="st5" width="2" height="2"/>
	<rect x="198" y="84" class="st6" width="2" height="2"/>
	<rect x="216" y="84" class="st6" width="2" height="2"/>
	<rect x="200" y="84" class="st7" width="16" height="2"/>
	<rect x="194" y="86" class="st8" width="2" height="20"/>
	<rect x="220" y="86" class="st8" width="2" height="20"/>
	<rect x="196" y="86" class="st9" width="2" height="20"/>
	<rect x="218" y="86" class="st9" width="2" height="20"/>
	<rect x="194" y="106" class="st5" width="2" height="2"/>
	<rect x="220" y="106" class="st5" width="2" height="2"/>
	<rect x="196" y="106" class="st5" width="2" height="2"/>
	<rect x="218" y="106" class="st5" width="2" height="2"/>
	<rect x="198" y="106" class="st6" width="2" height="2"/>
	<rect x="216" y="106" class="st6" width="2" height="2"/>
	<rect x="200" y="106" class="st7" width="16" height="2"/>
	<rect x="194" y="108" class="st1" width="2" height="2"/>
	<rect x="220" y="108" class="st1" width="2" height="2"/>
	<rect x="196" y="108" class="st2" width="2" height="2"/>
	<rect x="218" y="108" class="st2" width="2" height="2"/>
	<rect x="198" y="108" class="st3" width="2" height="2"/>
	<rect x="216" y="108" class="st3" width="2" height="2"/>
	<rect x="200" y="108" class="st4" width="16" height="2"/>
</g>
<g>
	<path class="st0" d="M220,134v-2h-3.2h-2h-16h-2H196v2h-2v1.9v20v2.1h2v2h0.8h2h16h2h3.2v-2h2v-2.1v-20V134H220z"/>
	<rect x="194" y="132" class="st1" width="2" height="2"/>
	<rect x="220" y="132" class="st1" width="2" height="2"/>
	<rect x="196" y="132" class="st2" width="2" height="2"/>
	<rect x="218" y="132" class="st2" width="2" height="2"/>
	<rect x="198" y="132" class="st3" width="2" height="2"/>
	<rect x="216" y="132" class="st3" width="2" height="2"/>
	<rect x="200" y="132" class="st4" width="16" height="2"/>
	<rect x="194" y="134" class="st5" width="2" height="2"/>
	<rect x="220" y="134" class="st5" width="2" height="2"/>
	<rect x="196" y="134" class="st5" width="2" height="2"/>
	<rect x="218" y="134" class="st5" width="2" height="2"/>
	<rect x="198" y="134" class="st6" width="2" height="2"/>
	<rect x="216" y="134" class="st6" width="2" height="2"/>
	<rect x="200" y="134" class="st7" width="16" height="2"/>
	<rect x="194" y="136" class="st8" width="2" height="20"/>
	<rect x="220" y="136" class="st8" width="2" height="20"/>
	<rect x="196" y="136" class="st9" width="2" height="20"/>
	<rect x="218" y="136" class="st9" width="2" height="20"/>
	<rect x="194" y="156" class="st5" width="2" height="2"/>
	<rect x="220" y="156" class="st5" width="2" height="2"/>
	<rect x="196" y="156" class="st5" width="2" height="2"/>
	<rect x="218" y="156" class="st5" width="2" height="2"/>
	<rect x="198" y="156" class="st6" width="2" height="2"/>
	<rect x="216" y="156" class="st6" width="2" height="2"/>
	<rect x="200" y="156" class="st7" width="16" height="2"/>
	<rect x="194" y="158" class="st1" width="2" height="2"/>
	<rect x="220" y="158" class="st1" width="2" height="2"/>
	<rect x="196" y="158" class="st2" width="2" height="2"/>
	<rect x="218" y="158" class="st2" width="2" height="2"/>
	<rect x="198" y="158" class="st3" width="2" height="2"/>
	<rect x="216" y="158" class="st3" width="2" height="2"/>
	<rect x="200" y="158" class="st4" width="16" height="2"/>
</g>
<g>
	<path class="st0" d="M220,284v-2h-3.2h-2h-16h-2H196v2h-2v1.9v20v2.1h2v2h0.8h2h16h2h3.2v-2h2v-2.1v-20V284H220z"/>
	<rect x="194" y="282" class="st1" width="2" height="2"/>
	<rect x="220" y="282" class="st1" width="2" height="2"/>
	<rect x="196" y="282" class="st2" width="2" height="2"/>
	<rect x="218" y="282" class="st2" width="2" height="2"/>
	<rect x="198" y="282" class="st3" width="2" height="2"/>
	<rect x="216" y="282" class="st3" width="2" height="2"/>
	<rect x="200" y="282" class="st4" width="16" height="2"/>
	<rect x="194" y="284" class="st5" width="2" height="2"/>
	<rect x="220" y="284" class="st5" width="2" height="2"/>
	<rect x="196" y="284" class="st5" width="2" height="2"/>
	<rect x="218" y="284" class="st5" width="2" height="2"/>
	<rect x="198" y="284" class="st6" width="2" height="2"/>
	<rect x="216" y="284" class="st6" width="2" height="2"/>
	<rect x="200" y="284" class="st7" width="16" height="2"/>
	<rect x="194" y="286" class="st8" width="2" height="20"/>
	<rect x="220" y="286" class="st8" width="2" height="20"/>
	<rect x="196" y="286" class="st9" width="2" height="20"/>
	<rect x="218" y="286" class="st9" width="2" height="20"/>
	<rect x="194" y="306" class="st5" width="2" height="2"/>
	<rect x="220" y="306" class="st5" width="2" height="2"/>
	<rect x="196" y="306" class="st5" width="2" height="2"/>
	<rect x="218" y="306" class="st5" width="2" height="2"/>
	<rect x="198" y="306" class="st6" width="2" height="2"/>
	<rect x="216" y="306" class="st6" width="2" height="2"/>
	<rect x="200" y="306" class="st7" width="16" height="2"/>
	<rect x="194" y="308" class="st1" width="2" height="2"/>
	<rect x="220" y="308" class="st1" width="2" height="2"/>
	<rect x="196" y="308" class="st2" width="2" height="2"/>
	<rect x="218" y="308" class="st2" width="2" height="2"/>
	<rect x="198" y="308" class="st3" width="2" height="2"/>
	<rect x="216" y="308" class="st3" width="2" height="2"/>
	<rect x="200" y="308" class="st4" width="16" height="2"/>
</g>
<text transform="matrix(1 0 0 1 234 104)"><tspan x="0" y="0" class="st10 st11">Bananas</tspan><tspan x="0" y="50" class="st10 st11">Apples</tspan><tspan x="70" y="100" class="st10 st11">Red apples</tspan><tspan x="70" y="150" class="st10 st11">Green apples</tspan><tspan x="0" y="200" class="st10 st11">Pears</tspan></text>
<g>
	<path class="st0" d="M290,184v-2h-3.2h-2h-16h-2H266v2h-2v1.9v20v2.1h2v2h0.8h2h16h2h3.2v-2h2v-2.1v-20V184H290z"/>
	<rect x="264" y="182" class="st1" width="2" height="2"/>
	<rect x="290" y="182" class="st1" width="2" height="2"/>
	<rect x="266" y="182" class="st2" width="2" height="2"/>
	<rect x="288" y="182" class="st2" width="2" height="2"/>
	<rect x="268" y="182" class="st3" width="2" height="2"/>
	<rect x="286" y="182" class="st3" width="2" height="2"/>
	<rect x="270" y="182" class="st4" width="16" height="2"/>
	<rect x="264" y="184" class="st5" width="2" height="2"/>
	<rect x="290" y="184" class="st5" width="2" height="2"/>
	<rect x="266" y="184" class="st5" width="2" height="2"/>
	<rect x="288" y="184" class="st5" width="2" height="2"/>
	<rect x="268" y="184" class="st6" width="2" height="2"/>
	<rect x="286" y="184" class="st6" width="2" height="2"/>
	<rect x="270" y="184" class="st7" width="16" height="2"/>
	<rect x="264" y="186" class="st8" width="2" height="20"/>
	<rect x="290" y="186" class="st8" width="2" height="20"/>
	<rect x="266" y="186" class="st9" width="2" height="20"/>
	<rect x="288" y="186" class="st9" width="2" height="20"/>
	<rect x="264" y="206" class="st5" width="2" height="2"/>
	<rect x="290" y="206" class="st5" width="2" height="2"/>
	<rect x="266" y="206" class="st5" width="2" height="2"/>
	<rect x="288" y="206" class="st5" width="2" height="2"/>
	<rect x="268" y="206" class="st6" width="2" height="2"/>
	<rect x="286" y="206" class="st6" width="2" height="2"/>
	<rect x="270" y="206" class="st7" width="16" height="2"/>
	<rect x="264" y="208" class="st1" width="2" height="2"/>
	<rect x="290" y="208" class="st1" width="2" height="2"/>
	<rect x="266" y="208" class="st2" width="2" height="2"/>
	<rect x="288" y="208" class="st2" width="2" height="2"/>
	<rect x="268" y="208" class="st3" width="2" height="2"/>
	<rect x="286" y="208" class="st3" width="2" height="2"/>
	<rect x="270" y="208" class="st4" width="16" height="2"/>
</g>
<g>
	<path class="st0" d="M290,234v-2h-3.2h-2h-16h-2H266v2h-2v1.9v20v2.1h2v2h0.8h2h16h2h3.2v-2h2v-2.1v-20V234H290z"/>
	<rect x="264" y="232" class="st1" width="2" height="2"/>
	<rect x="290" y="232" class="st1" width="2" height="2"/>
	<rect x="266" y="232" class="st2" width="2" height="2"/>
	<rect x="288" y="232" class="st2" width="2" height="2"/>
	<rect x="268" y="232" class="st3" width="2" height="2"/>
	<rect x="286" y="232" class="st3" width="2" height="2"/>
	<rect x="270" y="232" class="st4" width="16" height="2"/>
	<rect x="264" y="234" class="st5" width="2" height="2"/>
	<rect x="290" y="234" class="st5" width="2" height="2"/>
	<rect x="266" y="234" class="st5" width="2" height="2"/>
	<rect x="288" y="234" class="st5" width="2" height="2"/>
	<rect x="268" y="234" class="st6" width="2" height="2"/>
	<rect x="286" y="234" class="st6" width="2" height="2"/>
	<rect x="270" y="234" class="st7" width="16" height="2"/>
	<rect x="264" y="236" class="st8" width="2" height="20"/>
	<rect x="290" y="236" class="st8" width="2" height="20"/>
	<rect x="266" y="236" class="st9" width="2" height="20"/>
	<rect x="288" y="236" class="st9" width="2" height="20"/>
	<rect x="264" y="256" class="st5" width="2" height="2"/>
	<rect x="290" y="256" class="st5" width="2" height="2"/>
	<rect x="266" y="256" class="st5" width="2" height="2"/>
	<rect x="288" y="256" class="st5" width="2" height="2"/>
	<rect x="268" y="256" class="st6" width="2" height="2"/>
	<rect x="286" y="256" class="st6" width="2" height="2"/>
	<rect x="270" y="256" class="st7" width="16" height="2"/>
	<rect x="264" y="258" class="st1" width="2" height="2"/>
	<rect x="290" y="258" class="st1" width="2" height="2"/>
	<rect x="266" y="258" class="st2" width="2" height="2"/>
	<rect x="288" y="258" class="st2" width="2" height="2"/>
	<rect x="268" y="258" class="st3" width="2" height="2"/>
	<rect x="286" y="258" class="st3" width="2" height="2"/>
	<rect x="270" y="258" class="st4" width="16" height="2"/>
</g>
</svg>
