<?xml version="1.0" encoding="utf-8"?>
<!-- Generator: Adobe Illustrator 22.0.1, SVG Export Plug-In . SVG Version: 6.00 Build 0)  -->
<svg version="1.1" id="Layer_1" xmlns="http://www.w3.org/2000/svg" xmlns:xlink="http://www.w3.org/1999/xlink" x="0px" y="0px"
	 viewBox="0 0 650 400" style="enable-background:new 0 0 650 400;" xml:space="preserve">
<style type="text/css">
	.st0{fill:none;stroke:#AAAAAA;stroke-width:10;stroke-miterlimit:10;}
	.st1{fill:#FFFFFF;}
	.st2{fill:#444444;}
	.st3{fill:#568312;}
	.st4{fill:#E2EAD6;}
	.st5{font-family:'Consolas';}
	.st6{font-size:22px;}
	.st7{font-family:'HelveticaNeue-Bold';}
</style>
<line class="st0" x1="277" y1="62" x2="277" y2="109"/>
<polyline class="st0" points="132,227 132,109 422,109 422,299 "/>
<g>
	<rect x="220.5" y="40.5" class="st1" width="114" height="44"/>
	<path class="st2" d="M334,41v43H221V41H334 M335,40H220v45h115V40L335,40z"/>
</g>
<g>
	<rect x="75.5" y="135.5" class="st1" width="114" height="44"/>
	<path class="st2" d="M189,136v43H76v-43H189 M190,135H75v45h115V135L190,135z"/>
</g>
<g>
	<rect x="75.5" y="205.5" class="st1" width="114" height="44"/>
	<path class="st2" d="M189,206v43H76v-43H189 M190,205H75v45h115V205L190,205z"/>
</g>
<g>
	<rect x="365.5" y="135.5" class="st1" width="114" height="44"/>
	<g>
		<path class="st2" d="M479,136v43H366v-43H479 M480,135H365v45h115V135L480,135z"/>
	</g>
</g>
<g>
	<rect x="365" y="205" class="st3" width="115" height="45"/>
</g>
<g>
	<g>
		<rect x="365.5" y="275.5" class="st4" width="114" height="44"/>
		<path class="st2" d="M479,276v43H366v-43H479 M480,275H365v45h115V275L480,275z"/>
	</g>
</g>
<text transform="matrix(1 0 0 1 252.8086 69.5)" class="st5 st6">html</text>
<text transform="matrix(1 0 0 1 109.3086 164.5)" class="st5 st6">head</text>
<text transform="matrix(1 0 0 1 103.2607 235.5)" class="st5 st6">title</text>
<g>
	<text transform="matrix(1 0 0 1 398.1419 164.5)" class="st5 st6">body</text>
</g>
<text transform="matrix(1 0 0 1 416.2855 235.5)" class="st1 st5 st6">p</text>
<text transform="matrix(1 0 0 1 494.3333 235.5)" class="st7 st6">Parent</text>
<text transform="matrix(1 0 0 1 494.3333 306.5)" class="st7 st6">Child</text>
<text transform="matrix(1 0 0 1 410.2376 304.5)" class="st5 st6">em</text>
</svg>
