<?xml version="1.0" encoding="utf-8"?>
<!-- Generator: Adobe Illustrator 22.0.1, SVG Export Plug-In . SVG Version: 6.00 Build 0)  -->
<svg version="1.1" xmlns="http://www.w3.org/2000/svg" xmlns:xlink="http://www.w3.org/1999/xlink" x="0px" y="0px"
	 viewBox="0 0 650 400" style="enable-background:new 0 0 650 400;" xml:space="preserve">
<style type="text/css">
	.st0{fill:none;stroke:#AAAAAA;stroke-width:10;stroke-miterlimit:10;}
	.st1{fill:#568312;}
	.st2{fill:#FFFFFF;}
	.st3{fill:#787878;}
	.st4{fill:#646464;}
	.st5{fill:#B04636;}
	.st6{font-family:'Consolas';}
	.st7{font-size:22px;}
	.st8{opacity:0.5;fill:#FFFFFF;}
	.st9{fill:#00487A;}
	.st10{fill:#9BB79B;}
	.st11{fill:none;stroke:#00487A;stroke-width:10;stroke-miterlimit:10;}
</style>
<g id="lines">
</g>
<g id="nodes">
	<g>
		<line class="st0" x1="279" y1="22" x2="279" y2="64"/>
		<polyline class="st0" points="185,85 185,65 394,65 394,85 		"/>
		<polyline class="st0" points="464,295 464,210 324,210 324,230 		"/>
		<line class="st0" x1="185" y1="130" x2="185" y2="145"/>
		<line class="st0" x1="394" y1="130" x2="394" y2="145"/>
		<line class="st0" x1="394" y1="190" x2="394" y2="211"/>
		<g>
			<rect x="222" class="st1" width="115" height="45"/>
		</g>
		<g>
			<rect x="127" y="85" class="st1" width="115" height="45"/>
		</g>
		<g>
			<rect x="127" y="145" class="st1" width="115" height="45"/>
		</g>
		<g>
			<rect x="337" y="85" class="st1" width="115" height="45"/>
		</g>
		<g>
			<g>
				<rect x="407" y="230" class="st5" width="115" height="45"/>
			</g>
		</g>
		<text transform="matrix(1 0 0 1 254.8086 28.5)" class="st2 st6 st7">html</text>
		<text transform="matrix(1 0 0 1 161.3086 113.5)" class="st2 st6 st7">head</text>
		<text transform="matrix(1 0 0 1 155.2607 174.5)" class="st2 st6 st7">title</text>
		<text transform="matrix(1 0 0 1 370.3086 113.5)" class="st2 st6 st7">body</text>
		<g>
			<rect x="336" y="145" width="115" height="45"/>
		</g>
		<text transform="matrix(1 0 0 1 387.2852 174.5)" class="st2 st6 st7">p</text>
		<g>
			<path class="st2" d="M298,278.4c-16,0-28.3-3.2-30.5-3.8v-44.1h114v43.8c-2.6-0.7-12.6-3.2-26.4-3.2c-10.1,0-20.1,1.3-29.7,3.9
				C316.9,277.3,307.7,278.4,298,278.4L298,278.4z"/>
			<path class="st3" d="M381,231v42.7c-3.3-0.9-12.8-3-25.9-3c-10.2,0-20.2,1.3-29.8,3.9c-8.5,2.3-17.6,3.4-27.2,3.4
				c-15.2,0-27.1-2.9-30-3.7V231H381 M382,230H267v45c0,0,13.2,3.9,31,3.9c8.4,0,17.9-0.9,27.5-3.4c10.8-2.9,21-3.8,29.6-3.8
				c16.2,0,26.9,3.3,26.9,3.3V230L382,230z"/>
		</g>
		<g>
			<text transform="matrix(1 0 0 1 452.2373 258.5)" class="st2 st6 st7">em</text>
		</g>
		<text transform="matrix(1 0 0 1 300.1416 258.5)" class="st4 st6 st7">I am</text>
		<g>
			<path class="st2" d="M438,343.4c-16,0-28.3-3.2-30.5-3.8v-44.1h114v43.8c-2.6-0.7-12.6-3.2-26.4-3.2c-10.1,0-20.1,1.3-29.7,3.9
				C456.9,342.3,447.7,343.4,438,343.4L438,343.4z"/>
			<path class="st3" d="M521,296v42.7c-3.3-0.9-12.8-3-25.9-3c-10.2,0-20.2,1.3-29.8,3.9c-8.5,2.3-17.6,3.4-27.2,3.4
				c-15.2,0-27.1-2.9-30-3.7V296H521 M522,295H407v45c0,0,13.2,3.9,31,3.9c8.4,0,17.9-0.9,27.5-3.4c10.8-2.9,21-3.8,29.6-3.8
				c16.2,0,26.9,3.3,26.9,3.3V295L522,295z"/>
		</g>
		<text transform="matrix(1 0 0 1 434.0938 323.5)" class="st4 st6 st7">happy</text>
	</g>
</g>
<g id="labels">
</g>
</svg>
