<?xml version="1.0" encoding="utf-8"?>
<!-- Generator: Adobe Illustrator 22.0.1, SVG Export Plug-In . SVG Version: 6.00 Build 0)  -->
<svg version="1.1" xmlns="http://www.w3.org/2000/svg" xmlns:xlink="http://www.w3.org/1999/xlink" x="0px" y="0px"
	 viewBox="0 0 650 400" style="enable-background:new 0 0 650 400;" xml:space="preserve">
<style type="text/css">
	.st0{fill:none;stroke:#AAAAAA;stroke-width:10;stroke-miterlimit:10;}
	.st1{fill:#AAAAAA;}
	.st2{fill:#B0C590;}
	.st3{fill:#FFFFAE;}
	.st4{fill:#FFFFFF;}
	.st5{fill:#969696;}
	.st6{fill:#646464;}
	.st7{fill:#B04636;}
	.st8{font-family:'HelveticaNeue';}
	.st9{font-size:18px;}
</style>
<g id="base">
	<g>
		<g>
			<line class="st0" x1="205" y1="28" x2="205" y2="65.5"/>
			<g>
				<polygon class="st1" points="190,61.1 205,87 220,61.1 				"/>
			</g>
		</g>
	</g>
	<g>
		<g>
			<line class="st0" x1="445" y1="28" x2="445" y2="65.5"/>
			<g>
				<polygon class="st1" points="430,61.1 445,87 460,61.1 				"/>
			</g>
		</g>
	</g>
	<rect x="200" y="357" class="st7" width="250" height="40"/>
	<g>
		<text transform="matrix(1 0 0 1 212.6548 382.3838)" class="st4 st8 st9">Paint Render tree on screen</text>
	</g>
	<g>
		<rect x="200.5" y="197.5" class="st4" width="249" height="39"/>
		<g>
			<path class="st5" d="M449,198v38H201v-38H449 M450,197H200v40h250V197L450,197z"/>
		</g>
	</g>
	<g>
		<text transform="matrix(1 0 0 1 235.6587 222.3838)" class="st6 st8 st9">Construct Render tree</text>
	</g>
	<g>
		<rect x="200.5" y="277.5" class="st4" width="249" height="39"/>
		<g>
			<path class="st5" d="M449,278v38H201v-38H449 M450,277H200v40h250V277L450,277z"/>
		</g>
	</g>
	<g>
		<text transform="matrix(1 0 0 1 247.9888 302.3838)" class="st6 st8 st9">Layout Render tree</text>
	</g>
	<g>
		<path class="st4" d="M177.9,50.9c-26.4,0-54-7.4-57.4-8.3V3.5h169v39c-2.7-0.2-14.6-1.2-29.6-1.2c-15.8,0-38.2,1.1-55.1,6.2
			C197.5,49.8,188.4,50.9,177.9,50.9z"/>
		<g>
			<path class="st5" d="M289,4v37.9c-3.5-0.3-15-1.1-29.1-1.1c-15.9,0-38.3,1.1-55.2,6.3c-7.4,2.3-16.4,3.4-26.8,3.4
				c-25.6,0-52.2-6.9-56.9-8.2V4H289 M290,3H120v40c0,0,29.4,8.4,57.9,8.4c9.5,0,18.9-0.9,27.1-3.4c16.2-5,37.6-6.2,54.9-6.2
				C277,41.8,290,43,290,43V3L290,3z"/>
		</g>
	</g>
	<g>
		<path class="st4" d="M417.9,50.9c-26.4,0-54-7.4-57.4-8.3V3.5h169v39c-2.7-0.2-14.6-1.2-29.6-1.2c-15.8,0-38.2,1.1-55.1,6.2
			C437.4,49.8,428.4,50.9,417.9,50.9z"/>
		<g>
			<path class="st5" d="M529,4v37.9c-3.5-0.3-15-1.1-29.1-1.1c-15.9,0-38.3,1.1-55.2,6.3c-7.4,2.3-16.4,3.4-26.8,3.4
				c-25.6,0-52.2-6.9-56.9-8.2V4H529 M530,3H360v40c0,0,29.4,8.4,57.9,8.4c9.5,0,18.9-0.9,27.1-3.4c16.2-5,37.6-6.2,54.9-6.2
				C517,41.8,530,43,530,43V3L530,3z"/>
		</g>
	</g>
	<g>
		<rect x="120.5" y="87.5" class="st4" width="169" height="39"/>
		<g>
			<path class="st5" d="M289,88v38H121V88H289 M290,87H120v40h170V87L290,87z"/>
		</g>
	</g>
	<g>
		<text transform="matrix(1 0 0 1 141.812 112.3837)" class="st6 st8 st9">Construct DOM</text>
	</g>
	<g>
		<rect x="360.5" y="87.5" class="st4" width="169" height="39"/>
		<g>
			<path class="st5" d="M529,88v38H361V88H529 M530,87H360v40h170V87L530,87z"/>
		</g>
	</g>
	<g>
		<text transform="matrix(1 0 0 1 369.9856 112.3837)" class="st6 st8 st9">Construct CSSOM</text>
	</g>
	<g>
		<text transform="matrix(1 0 0 1 408.3442 28.3838)" class="st6 st8 st9">CSS files</text>
	</g>
	<g>
		<text transform="matrix(1 0 0 1 163.9966 28.3838)" class="st6 st8 st9">HTML File</text>
	</g>
	<g>
		<g>
			<polyline class="st0" points="205,127 205,151 325,151 325,175.5 			"/>
			<g>
				<polygon class="st1" points="310,171.1 325,197 340,171.1 				"/>
			</g>
		</g>
	</g>
	<g>
		<g>
			<line class="st0" x1="325" y1="237" x2="325" y2="255.5"/>
			<g>
				<polygon class="st1" points="310,251.1 325,277 340,251.1 				"/>
			</g>
		</g>
	</g>
	<g>
		<g>
			<line class="st0" x1="325" y1="317" x2="325" y2="335.5"/>
			<g>
				<polygon class="st1" points="310,331.1 325,357 340,331.1 				"/>
			</g>
		</g>
	</g>
	<polyline class="st0" points="445,127 445,151 325,151 	"/>
</g>
<g id="feature">
</g>
<g id="label">
</g>
</svg>
