<?xml version="1.0" encoding="utf-8"?>
<!-- Generator: Adobe Illustrator 22.0.1, SVG Export Plug-In . SVG Version: 6.00 Build 0)  -->
<svg version="1.1" id="Layer_1" xmlns="http://www.w3.org/2000/svg" xmlns:xlink="http://www.w3.org/1999/xlink" x="0px" y="0px"
	 viewBox="0 0 650 400" style="enable-background:new 0 0 650 400;" xml:space="preserve">
<style type="text/css">
	.st0{fill:#FFFFFF;}
	.st1{enable-background:new    ;}
	.st2{fill:#568312;}
	.st3{fill:#D2D2D2;}
	.st4{fill:none;}
	.st5{fill:none;stroke:#B04636;stroke-width:7;stroke-miterlimit:10;}
	.st6{fill:#B04636;}
	.st7{font-family:'HelveticaNeue-Bold';}
	.st8{font-size:23px;}
</style>
<rect class="st0" width="650" height="400"/>
<g>
	<g class="st1">
		<path d="M65.2,98.4v-4.2h18.7v4.2h-6.8V117h-5V98.4H65.2z"/>
		<path d="M90.6,94.2v8.6h0.1c0.6-1,1.3-1.7,2.2-2.1s1.8-0.7,2.6-0.7c1.2,0,2.2,0.2,3,0.5c0.8,0.3,1.4,0.8,1.8,1.4
			c0.4,0.6,0.8,1.3,0.9,2.1c0.2,0.8,0.3,1.8,0.3,2.8V117h-4.5v-9.3c0-1.4-0.2-2.4-0.6-3.1c-0.4-0.7-1.2-1-2.3-1
			c-1.2,0-2.1,0.4-2.7,1.1c-0.6,0.7-0.8,1.9-0.8,3.6v8.7h-4.5V94.2H90.6z"/>
		<path d="M105.2,97.9v-3.7h4.5v3.7H105.2z M109.7,100.5V117h-4.5v-16.5H109.7z"/>
		<path d="M117.1,112.9c0.2,0.4,0.5,0.6,0.8,0.9s0.7,0.4,1.1,0.5c0.4,0.1,0.8,0.2,1.3,0.2c0.3,0,0.7,0,1-0.1c0.4-0.1,0.7-0.2,1-0.4
			c0.3-0.2,0.5-0.4,0.7-0.6c0.2-0.3,0.3-0.6,0.3-1c0-0.7-0.5-1.2-1.4-1.5c-0.9-0.3-2.2-0.7-3.8-1c-0.7-0.1-1.3-0.3-1.9-0.5
			c-0.6-0.2-1.2-0.5-1.7-0.8s-0.9-0.7-1.2-1.2s-0.4-1.1-0.4-1.8c0-1.1,0.2-1.9,0.6-2.6s1-1.2,1.6-1.6c0.7-0.4,1.5-0.7,2.3-0.8
			c0.9-0.2,1.7-0.2,2.6-0.2s1.8,0.1,2.6,0.3c0.8,0.2,1.6,0.5,2.3,0.9c0.7,0.4,1.2,0.9,1.6,1.6c0.4,0.7,0.7,1.5,0.8,2.5h-4.3
			c-0.1-0.9-0.4-1.5-1-1.8c-0.6-0.3-1.3-0.5-2.1-0.5c-0.3,0-0.5,0-0.8,0c-0.3,0-0.6,0.1-0.8,0.2c-0.2,0.1-0.5,0.3-0.6,0.5
			c-0.2,0.2-0.3,0.5-0.3,0.8c0,0.4,0.1,0.7,0.4,1c0.3,0.3,0.7,0.5,1.2,0.6s1,0.3,1.6,0.4c0.6,0.1,1.2,0.3,1.9,0.4
			c0.7,0.1,1.3,0.3,1.9,0.5c0.6,0.2,1.2,0.5,1.7,0.8c0.5,0.4,0.9,0.8,1.2,1.3c0.3,0.5,0.4,1.2,0.4,1.9c0,1.1-0.2,2-0.7,2.7
			c-0.4,0.7-1,1.3-1.7,1.8c-0.7,0.4-1.5,0.8-2.4,0.9c-0.9,0.2-1.8,0.3-2.8,0.3c-1,0-1.9-0.1-2.8-0.3c-0.9-0.2-1.7-0.5-2.4-1
			c-0.7-0.4-1.3-1-1.8-1.8c-0.5-0.7-0.7-1.7-0.8-2.8h4.3C116.8,112.1,116.9,112.5,117.1,112.9z"/>
		<path d="M139.5,97.9v-3.7h4.5v3.7H139.5z M144.1,100.5V117h-4.5v-16.5H144.1z"/>
		<path d="M151.5,112.9c0.2,0.4,0.5,0.6,0.8,0.9s0.7,0.4,1.1,0.5c0.4,0.1,0.8,0.2,1.3,0.2c0.3,0,0.7,0,1-0.1c0.4-0.1,0.7-0.2,1-0.4
			c0.3-0.2,0.5-0.4,0.7-0.6c0.2-0.3,0.3-0.6,0.3-1c0-0.7-0.5-1.2-1.4-1.5c-0.9-0.3-2.2-0.7-3.8-1c-0.7-0.1-1.3-0.3-1.9-0.5
			c-0.6-0.2-1.2-0.5-1.7-0.8s-0.9-0.7-1.2-1.2s-0.4-1.1-0.4-1.8c0-1.1,0.2-1.9,0.6-2.6s1-1.2,1.6-1.6c0.7-0.4,1.5-0.7,2.3-0.8
			c0.9-0.2,1.7-0.2,2.6-0.2s1.8,0.1,2.6,0.3c0.8,0.2,1.6,0.5,2.3,0.9c0.7,0.4,1.2,0.9,1.6,1.6c0.4,0.7,0.7,1.5,0.8,2.5h-4.3
			c-0.1-0.9-0.4-1.5-1-1.8c-0.6-0.3-1.3-0.5-2.1-0.5c-0.3,0-0.5,0-0.8,0c-0.3,0-0.6,0.1-0.8,0.2c-0.2,0.1-0.5,0.3-0.6,0.5
			c-0.2,0.2-0.3,0.5-0.3,0.8c0,0.4,0.1,0.7,0.4,1c0.3,0.3,0.7,0.5,1.2,0.6s1,0.3,1.6,0.4c0.6,0.1,1.2,0.3,1.9,0.4
			c0.7,0.1,1.3,0.3,1.9,0.5c0.6,0.2,1.2,0.5,1.7,0.8c0.5,0.4,0.9,0.8,1.2,1.3c0.3,0.5,0.4,1.2,0.4,1.9c0,1.1-0.2,2-0.7,2.7
			c-0.4,0.7-1,1.3-1.7,1.8c-0.7,0.4-1.5,0.8-2.4,0.9c-0.9,0.2-1.8,0.3-2.8,0.3c-1,0-1.9-0.1-2.8-0.3c-0.9-0.2-1.7-0.5-2.4-1
			c-0.7-0.4-1.3-1-1.8-1.8c-0.5-0.7-0.7-1.7-0.8-2.8h4.3C151.2,112.1,151.3,112.5,151.5,112.9z"/>
		<path d="M173.5,105.5c0.1-1.1,0.3-2,0.8-2.7s1.1-1.3,1.8-1.7c0.7-0.4,1.5-0.7,2.4-0.9c0.9-0.2,1.8-0.3,2.7-0.3
			c0.8,0,1.7,0.1,2.5,0.2c0.9,0.1,1.6,0.3,2.3,0.7c0.7,0.3,1.3,0.8,1.7,1.4c0.4,0.6,0.7,1.4,0.7,2.4v8.6c0,0.7,0,1.5,0.1,2.1
			c0.1,0.7,0.2,1.2,0.4,1.5h-4.6c-0.1-0.3-0.2-0.5-0.2-0.8c-0.1-0.3-0.1-0.5-0.1-0.8c-0.7,0.7-1.6,1.3-2.6,1.6c-1,0.3-2,0.4-3,0.4
			c-0.8,0-1.5-0.1-2.2-0.3c-0.7-0.2-1.3-0.5-1.8-0.9c-0.5-0.4-0.9-0.9-1.2-1.5s-0.4-1.4-0.4-2.2c0-0.9,0.2-1.7,0.5-2.3
			c0.3-0.6,0.8-1.1,1.3-1.5c0.5-0.4,1.1-0.6,1.8-0.8c0.7-0.2,1.3-0.3,2-0.4c0.7-0.1,1.4-0.2,2-0.3c0.7-0.1,1.2-0.2,1.8-0.3
			c0.5-0.1,0.9-0.3,1.2-0.6c0.3-0.2,0.4-0.6,0.4-1.1c0-0.5-0.1-0.9-0.2-1.2s-0.4-0.5-0.6-0.7c-0.3-0.2-0.6-0.3-0.9-0.3
			c-0.4-0.1-0.7-0.1-1.1-0.1c-0.9,0-1.6,0.2-2.1,0.6c-0.5,0.4-0.8,1-0.9,1.9H173.5z M184,108.9c-0.2,0.2-0.4,0.3-0.7,0.4
			c-0.3,0.1-0.6,0.2-0.9,0.2c-0.3,0.1-0.7,0.1-1,0.2c-0.4,0-0.7,0.1-1.1,0.2c-0.3,0.1-0.7,0.1-1,0.3c-0.3,0.1-0.6,0.3-0.9,0.4
			c-0.2,0.2-0.4,0.4-0.6,0.7c-0.1,0.3-0.2,0.6-0.2,1.1c0,0.4,0.1,0.7,0.2,1c0.1,0.3,0.4,0.5,0.6,0.7c0.3,0.2,0.6,0.3,0.9,0.3
			c0.3,0.1,0.7,0.1,1.1,0.1c0.9,0,1.6-0.1,2.1-0.4c0.5-0.3,0.9-0.7,1.1-1.1c0.2-0.4,0.4-0.8,0.4-1.3c0.1-0.4,0.1-0.8,0.1-1V108.9z"
			/>
		<path d="M205.5,94.2v8.6h0.1c0.6-1,1.3-1.7,2.2-2.1s1.8-0.7,2.6-0.7c1.2,0,2.2,0.2,3,0.5c0.8,0.3,1.4,0.8,1.8,1.4
			c0.4,0.6,0.8,1.3,0.9,2.1c0.2,0.8,0.3,1.8,0.3,2.8V117H212v-9.3c0-1.4-0.2-2.4-0.6-3.1c-0.4-0.7-1.2-1-2.3-1
			c-1.2,0-2.1,0.4-2.7,1.1c-0.6,0.7-0.8,1.9-0.8,3.6v8.7H201V94.2H205.5z"/>
		<path d="M224.8,113c0.7,0.7,1.7,1,2.9,1c0.9,0,1.7-0.2,2.4-0.7c0.7-0.5,1.1-0.9,1.2-1.5h4c-0.6,2-1.6,3.4-2.9,4.3
			c-1.3,0.9-2.9,1.3-4.8,1.3c-1.3,0-2.5-0.2-3.5-0.6c-1-0.4-1.9-1-2.7-1.8c-0.7-0.8-1.3-1.7-1.7-2.8c-0.4-1.1-0.6-2.2-0.6-3.5
			c0-1.2,0.2-2.4,0.6-3.5c0.4-1.1,1-2,1.7-2.8c0.7-0.8,1.6-1.4,2.7-1.8c1-0.4,2.2-0.7,3.4-0.7c1.4,0,2.6,0.3,3.7,0.8
			s1.9,1.3,2.6,2.2c0.7,0.9,1.2,2,1.5,3.1c0.3,1.2,0.4,2.4,0.3,3.7h-11.9C223.8,111.3,224.2,112.4,224.8,113z M230,104.3
			c-0.5-0.6-1.4-0.9-2.5-0.9c-0.7,0-1.3,0.1-1.8,0.4c-0.5,0.2-0.9,0.5-1.2,0.9c-0.3,0.4-0.5,0.7-0.6,1.2s-0.2,0.8-0.2,1.1h7.4
			C230.9,105.8,230.5,104.9,230,104.3z"/>
		<path d="M238.1,105.5c0.1-1.1,0.3-2,0.8-2.7c0.5-0.7,1.1-1.3,1.8-1.7c0.7-0.4,1.5-0.7,2.4-0.9c0.9-0.2,1.8-0.3,2.7-0.3
			c0.8,0,1.7,0.1,2.5,0.2c0.9,0.1,1.6,0.3,2.3,0.7c0.7,0.3,1.3,0.8,1.7,1.4c0.4,0.6,0.7,1.4,0.7,2.4v8.6c0,0.7,0,1.5,0.1,2.1
			c0.1,0.7,0.2,1.2,0.4,1.5h-4.6c-0.1-0.3-0.2-0.5-0.2-0.8c-0.1-0.3-0.1-0.5-0.1-0.8c-0.7,0.7-1.6,1.3-2.6,1.6c-1,0.3-2,0.4-3,0.4
			c-0.8,0-1.5-0.1-2.2-0.3c-0.7-0.2-1.3-0.5-1.8-0.9c-0.5-0.4-0.9-0.9-1.2-1.5s-0.4-1.4-0.4-2.2c0-0.9,0.2-1.7,0.5-2.3
			c0.3-0.6,0.8-1.1,1.3-1.5c0.5-0.4,1.1-0.6,1.8-0.8c0.7-0.2,1.3-0.3,2-0.4c0.7-0.1,1.4-0.2,2-0.3s1.2-0.2,1.8-0.3
			c0.5-0.1,0.9-0.3,1.2-0.6c0.3-0.2,0.4-0.6,0.4-1.1c0-0.5-0.1-0.9-0.2-1.2s-0.4-0.5-0.6-0.7c-0.3-0.2-0.6-0.3-0.9-0.3
			c-0.4-0.1-0.7-0.1-1.1-0.1c-0.9,0-1.6,0.2-2.1,0.6c-0.5,0.4-0.8,1-0.9,1.9H238.1z M248.6,108.9c-0.2,0.2-0.4,0.3-0.7,0.4
			c-0.3,0.1-0.6,0.2-0.9,0.2c-0.3,0.1-0.7,0.1-1,0.2s-0.7,0.1-1.1,0.2c-0.3,0.1-0.7,0.1-1,0.3c-0.3,0.1-0.6,0.3-0.9,0.4
			c-0.2,0.2-0.4,0.4-0.6,0.7s-0.2,0.6-0.2,1.1c0,0.4,0.1,0.7,0.2,1s0.4,0.5,0.6,0.7c0.3,0.2,0.6,0.3,0.9,0.3
			c0.3,0.1,0.7,0.1,1.1,0.1c0.9,0,1.6-0.1,2.1-0.4c0.5-0.3,0.9-0.7,1.1-1.1c0.2-0.4,0.4-0.8,0.4-1.3c0.1-0.4,0.1-0.8,0.1-1V108.9z"
			/>
		<path d="M268.5,114.9c-0.5,0.9-1.2,1.5-2.1,1.9s-1.8,0.6-2.9,0.6c-1.2,0-2.3-0.2-3.3-0.7c-0.9-0.5-1.7-1.1-2.3-2
			c-0.6-0.8-1.1-1.8-1.4-2.8c-0.3-1.1-0.5-2.2-0.5-3.3c0-1.1,0.2-2.2,0.5-3.2c0.3-1,0.8-1.9,1.4-2.7c0.6-0.8,1.4-1.4,2.3-1.9
			c0.9-0.5,2-0.7,3.2-0.7c1,0,1.9,0.2,2.8,0.6c0.9,0.4,1.6,1,2.1,1.8h0.1v-8.3h4.5V117h-4.3L268.5,114.9L268.5,114.9z M268.3,106.7
			c-0.1-0.6-0.3-1.2-0.7-1.7c-0.3-0.5-0.7-0.9-1.2-1.2c-0.5-0.3-1.1-0.4-1.9-0.4c-0.7,0-1.4,0.1-1.9,0.4c-0.5,0.3-0.9,0.7-1.2,1.2
			c-0.3,0.5-0.5,1.1-0.7,1.7c-0.1,0.6-0.2,1.3-0.2,2c0,0.6,0.1,1.3,0.2,1.9c0.1,0.6,0.4,1.2,0.7,1.7c0.3,0.5,0.7,0.9,1.2,1.2
			c0.5,0.3,1.1,0.5,1.8,0.5c0.7,0,1.4-0.1,1.9-0.4c0.5-0.3,0.9-0.7,1.2-1.2c0.3-0.5,0.5-1.1,0.6-1.7s0.2-1.3,0.2-2
			C268.5,108,268.4,107.3,268.3,106.7z"/>
		<path d="M276.4,97.9v-3.7h4.5v3.7H276.4z M280.9,100.5V117h-4.5v-16.5H280.9z"/>
		<path d="M288.8,100.5v2.3h0.1c0.6-1,1.3-1.7,2.2-2.1s1.9-0.7,2.8-0.7c1.2,0,2.2,0.2,3,0.5c0.8,0.3,1.4,0.8,1.8,1.4
			c0.4,0.6,0.8,1.3,0.9,2.1c0.2,0.8,0.3,1.8,0.3,2.8V117h-4.5v-9.3c0-1.4-0.2-2.4-0.6-3.1c-0.4-0.7-1.2-1-2.3-1
			c-1.2,0-2.1,0.4-2.7,1.1c-0.6,0.7-0.8,1.9-0.8,3.6v8.7h-4.5v-16.5H288.8z"/>
		<path d="M319.1,118.2c-0.2,0.9-0.6,1.6-1.2,2.4c-0.6,0.7-1.5,1.4-2.6,1.9c-1.1,0.5-2.6,0.8-4.5,0.8c-0.8,0-1.6-0.1-2.5-0.3
			c-0.8-0.2-1.6-0.5-2.3-0.9c-0.7-0.4-1.3-1-1.7-1.6s-0.7-1.5-0.8-2.4h4.5c0.2,0.9,0.6,1.4,1.2,1.8c0.6,0.3,1.3,0.5,2.1,0.5
			c1.3,0,2.2-0.4,2.8-1.2c0.6-0.8,0.9-1.7,0.8-2.9V114H315c-0.5,0.9-1.2,1.5-2.1,1.9c-0.9,0.4-1.9,0.6-2.9,0.6
			c-1.2,0-2.3-0.2-3.2-0.7c-0.9-0.4-1.6-1-2.2-1.8s-1-1.6-1.3-2.7c-0.3-1-0.4-2.1-0.4-3.2c0-1.1,0.2-2.1,0.5-3.1
			c0.3-1,0.8-1.9,1.4-2.6c0.6-0.8,1.3-1.4,2.2-1.8c0.9-0.4,1.9-0.7,3.1-0.7c1.1,0,2,0.2,2.9,0.6s1.5,1.1,2.1,2h0.1v-2.2h4.3v15.5
			C319.4,116.6,319.3,117.4,319.1,118.2z M312.9,112.7c0.5-0.3,0.9-0.6,1.2-1c0.3-0.4,0.6-0.9,0.7-1.5s0.2-1.1,0.2-1.7
			c0-0.7-0.1-1.3-0.2-1.9s-0.3-1.1-0.6-1.6c-0.3-0.5-0.7-0.8-1.2-1.1c-0.5-0.3-1.1-0.4-1.9-0.4c-0.6,0-1.2,0.1-1.6,0.4
			c-0.5,0.3-0.8,0.6-1.2,1s-0.5,0.9-0.7,1.5s-0.2,1.2-0.2,1.8c0,0.6,0.1,1.2,0.2,1.8s0.3,1.1,0.6,1.6c0.3,0.5,0.7,0.9,1.1,1.2
			c0.5,0.3,1.1,0.4,1.8,0.4C311.8,113.1,312.4,113,312.9,112.7z"/>
	</g>
	<g>
		<g>
			<path class="st2" d="M612.1,66.9v330.2H37.9V66.9H612.1 M615,64H35v336h580V64L615,64z"/>
		</g>
	</g>
	<g>
		<g>
			<path class="st3" d="M592,87v39H58V87H592 M595,84H55v45h540V84L595,84z"/>
		</g>
	</g>
	<g>
		<g>
			<path class="st3" d="M592,142v110H58V142H592 M595,139H55v116h540V139L595,139z"/>
		</g>
	</g>
	<g class="st1">
		<path d="M86.8,169v13.9h8.3v1.8H84.7V169H86.8z"/>
		<path d="M96.4,176.7c0.2-0.7,0.6-1.4,1.1-1.9c0.5-0.5,1-1,1.7-1.3c0.7-0.3,1.5-0.5,2.4-0.5c0.9,0,1.7,0.2,2.4,0.5
			c0.7,0.3,1.3,0.7,1.7,1.3c0.5,0.5,0.8,1.2,1.1,1.9c0.2,0.7,0.4,1.5,0.4,2.3s-0.1,1.6-0.4,2.3c-0.2,0.7-0.6,1.3-1.1,1.9
			c-0.5,0.5-1,1-1.7,1.3c-0.7,0.3-1.5,0.5-2.4,0.5c-0.9,0-1.7-0.2-2.4-0.5s-1.3-0.7-1.7-1.3c-0.5-0.5-0.8-1.2-1.1-1.9
			c-0.2-0.7-0.4-1.5-0.4-2.3S96.1,177.4,96.4,176.7z M98.3,180.9c0.2,0.5,0.4,1,0.8,1.3c0.3,0.4,0.7,0.6,1.1,0.8s0.9,0.3,1.4,0.3
			s0.9-0.1,1.4-0.3s0.8-0.5,1.1-0.8s0.6-0.8,0.8-1.3c0.2-0.5,0.3-1.1,0.3-1.8s-0.1-1.3-0.3-1.8c-0.2-0.5-0.4-1-0.8-1.4
			c-0.3-0.4-0.7-0.6-1.1-0.8c-0.4-0.2-0.9-0.3-1.4-0.3s-0.9,0.1-1.4,0.3c-0.4,0.2-0.8,0.5-1.1,0.8c-0.3,0.4-0.6,0.8-0.8,1.4
			c-0.2,0.5-0.3,1.1-0.3,1.8S98.1,180.3,98.3,180.9z"/>
		<path d="M111,173.3v2.4h0c0.5-0.9,1-1.6,1.7-2c0.7-0.4,1.5-0.6,2.5-0.6v2c-0.7,0-1.4,0.1-1.9,0.3c-0.5,0.2-1,0.5-1.3,0.9
			c-0.3,0.4-0.6,0.9-0.7,1.4c-0.1,0.6-0.2,1.2-0.2,1.9v5.1h-1.9v-11.4H111z"/>
		<path d="M124.2,184c-0.9,0.6-1.9,1-3.2,1c-0.9,0-1.7-0.1-2.4-0.4c-0.7-0.3-1.2-0.7-1.7-1.2c-0.5-0.5-0.8-1.2-1-1.9
			s-0.4-1.5-0.4-2.4c0-0.9,0.1-1.7,0.4-2.4s0.6-1.3,1.1-1.9c0.5-0.5,1-0.9,1.7-1.2c0.7-0.3,1.4-0.4,2.1-0.4c1,0,1.9,0.2,2.5,0.6
			c0.7,0.4,1.2,0.9,1.6,1.6c0.4,0.6,0.7,1.3,0.8,2.1c0.2,0.8,0.2,1.5,0.2,2.2h-8.5c0,0.5,0,1,0.2,1.4c0.1,0.4,0.3,0.8,0.6,1.2
			s0.7,0.6,1.1,0.8c0.5,0.2,1,0.3,1.6,0.3c0.8,0,1.4-0.2,1.9-0.5c0.5-0.4,0.8-0.9,1-1.7h1.8C125.6,182.4,125.1,183.3,124.2,184z
			 M123.8,176.7c-0.2-0.4-0.4-0.7-0.7-1c-0.3-0.3-0.6-0.5-1-0.7c-0.4-0.2-0.8-0.3-1.3-0.3c-0.5,0-0.9,0.1-1.3,0.3
			c-0.4,0.2-0.7,0.4-1,0.7c-0.3,0.3-0.5,0.6-0.7,1c-0.2,0.4-0.3,0.8-0.3,1.2h6.5C124.1,177.5,124,177.1,123.8,176.7z"/>
		<path d="M129.8,173.3v1.7h0c0.9-1.3,2.1-1.9,3.7-1.9c0.7,0,1.3,0.1,1.9,0.4c0.6,0.3,1,0.8,1.2,1.5c0.4-0.6,0.9-1.1,1.5-1.4
			c0.6-0.3,1.3-0.5,2.1-0.5c0.6,0,1.1,0.1,1.6,0.2c0.5,0.1,0.9,0.3,1.2,0.6c0.3,0.3,0.6,0.6,0.8,1c0.2,0.4,0.3,0.9,0.3,1.5v8.3h-1.9
			v-7.5c0-0.4,0-0.7-0.1-1c-0.1-0.3-0.2-0.6-0.3-0.8s-0.4-0.4-0.7-0.5s-0.7-0.2-1.1-0.2c-0.9,0-1.6,0.3-2.2,0.8
			c-0.5,0.5-0.8,1.2-0.8,2.1v7.1h-1.9v-7.5c0-0.4,0-0.7-0.1-1c-0.1-0.3-0.2-0.6-0.3-0.8c-0.2-0.2-0.4-0.4-0.6-0.5s-0.6-0.2-1-0.2
			c-0.5,0-1,0.1-1.4,0.3s-0.7,0.5-0.9,0.8c-0.2,0.3-0.4,0.6-0.5,1c-0.1,0.3-0.2,0.6-0.2,0.8v7.1H128v-11.4H129.8z"/>
		<path d="M153,171.3V169h1.9v2.3H153z M154.9,173.3v11.4H153v-11.4H154.9z"/>
		<path d="M159.7,173.3v1.5h0c0.3-0.6,0.8-1.1,1.5-1.4c0.7-0.3,1.4-0.4,2.2-0.4c0.9,0,1.6,0.2,2.3,0.5c0.7,0.3,1.2,0.8,1.6,1.3
			s0.8,1.2,1,1.9c0.2,0.7,0.3,1.5,0.3,2.3c0,0.8-0.1,1.6-0.3,2.3c-0.2,0.7-0.5,1.3-1,1.9c-0.4,0.5-1,1-1.6,1.3
			c-0.7,0.3-1.4,0.5-2.3,0.5c-0.3,0-0.6,0-0.9-0.1s-0.7-0.2-1-0.3s-0.7-0.3-1-0.5c-0.3-0.2-0.6-0.5-0.8-0.8h0v5.9h-1.9v-15.7H159.7z
			 M166.4,177.4c-0.1-0.5-0.4-1-0.6-1.4c-0.3-0.4-0.7-0.7-1.1-0.9c-0.4-0.2-1-0.4-1.6-0.4c-0.6,0-1.2,0.1-1.6,0.4
			c-0.4,0.2-0.8,0.6-1.1,1s-0.5,0.9-0.6,1.4s-0.2,1-0.2,1.6c0,0.6,0.1,1.1,0.2,1.6s0.3,1,0.6,1.4c0.3,0.4,0.7,0.7,1.1,1
			s1,0.4,1.6,0.4s1.2-0.1,1.6-0.4s0.8-0.6,1-1c0.3-0.4,0.5-0.9,0.6-1.4c0.1-0.5,0.2-1.1,0.2-1.6
			C166.6,178.4,166.6,177.9,166.4,177.4z"/>
		<path d="M172.3,182.2c0.2,0.3,0.4,0.5,0.7,0.7c0.3,0.2,0.6,0.3,1,0.4s0.7,0.1,1.1,0.1c0.3,0,0.6,0,0.9-0.1c0.3,0,0.6-0.1,0.9-0.2
			c0.3-0.1,0.5-0.3,0.7-0.5c0.2-0.2,0.3-0.5,0.3-0.9c0-0.5-0.2-0.9-0.5-1.1c-0.4-0.2-0.8-0.5-1.4-0.6c-0.6-0.2-1.1-0.3-1.8-0.4
			c-0.6-0.1-1.2-0.3-1.8-0.5c-0.6-0.2-1-0.5-1.4-1c-0.4-0.4-0.6-1-0.6-1.7c0-0.6,0.1-1.1,0.4-1.5c0.3-0.4,0.6-0.7,1-1
			s0.9-0.4,1.4-0.6c0.5-0.1,1-0.2,1.5-0.2c0.6,0,1.2,0.1,1.8,0.2c0.5,0.1,1,0.3,1.4,0.6c0.4,0.3,0.8,0.6,1,1.1
			c0.2,0.5,0.4,1,0.4,1.7h-1.9c0-0.4-0.1-0.7-0.3-0.9c-0.2-0.2-0.4-0.4-0.6-0.6c-0.2-0.1-0.5-0.3-0.8-0.3c-0.3-0.1-0.6-0.1-0.9-0.1
			c-0.3,0-0.6,0-0.8,0.1s-0.5,0.1-0.8,0.2c-0.2,0.1-0.4,0.3-0.6,0.4c-0.1,0.2-0.2,0.4-0.2,0.7c0,0.3,0.1,0.6,0.3,0.8
			c0.2,0.2,0.5,0.4,0.9,0.5c0.4,0.1,0.7,0.3,1.2,0.4c0.4,0.1,0.9,0.2,1.3,0.3c0.5,0.1,0.9,0.2,1.4,0.4c0.4,0.1,0.8,0.3,1.2,0.6
			c0.3,0.2,0.6,0.5,0.8,0.9c0.2,0.4,0.3,0.8,0.3,1.4c0,0.7-0.1,1.3-0.4,1.7c-0.3,0.5-0.7,0.8-1.1,1.1s-1,0.5-1.6,0.6
			c-0.6,0.1-1.2,0.2-1.7,0.2c-0.6,0-1.2-0.1-1.8-0.2c-0.6-0.1-1.1-0.3-1.5-0.6c-0.4-0.3-0.8-0.7-1.1-1.2s-0.4-1.1-0.4-1.8h1.9
			C172,181.5,172.1,181.9,172.3,182.2z"/>
		<path d="M189.5,184.7v-1.8h0c-0.4,0.7-0.9,1.2-1.5,1.6c-0.6,0.3-1.3,0.5-2.2,0.5c-0.7,0-1.4-0.1-1.9-0.3c-0.5-0.2-0.9-0.5-1.2-0.8
			c-0.3-0.4-0.5-0.8-0.6-1.3c-0.1-0.5-0.2-1.1-0.2-1.7v-7.5h1.9v7.7c0,0.7,0.2,1.3,0.6,1.7c0.4,0.4,1,0.6,1.7,0.6
			c0.6,0,1.1-0.1,1.5-0.3c0.4-0.2,0.8-0.4,1-0.7c0.3-0.3,0.5-0.7,0.6-1.1c0.1-0.4,0.2-0.9,0.2-1.4v-6.4h1.9v11.4H189.5z"/>
		<path d="M195.8,173.3v1.7h0c0.9-1.3,2.1-1.9,3.7-1.9c0.7,0,1.3,0.1,1.9,0.4c0.6,0.3,1,0.8,1.2,1.5c0.4-0.6,0.9-1.1,1.5-1.4
			c0.6-0.3,1.3-0.5,2.1-0.5c0.6,0,1.1,0.1,1.6,0.2c0.5,0.1,0.9,0.3,1.2,0.6c0.3,0.3,0.6,0.6,0.8,1c0.2,0.4,0.3,0.9,0.3,1.5v8.3h-1.9
			v-7.5c0-0.4,0-0.7-0.1-1c-0.1-0.3-0.2-0.6-0.3-0.8s-0.4-0.4-0.7-0.5s-0.7-0.2-1.1-0.2c-0.9,0-1.6,0.3-2.2,0.8
			c-0.5,0.5-0.8,1.2-0.8,2.1v7.1h-1.9v-7.5c0-0.4,0-0.7-0.1-1c-0.1-0.3-0.2-0.6-0.3-0.8c-0.2-0.2-0.4-0.4-0.6-0.5s-0.6-0.2-1-0.2
			c-0.5,0-1,0.1-1.4,0.3s-0.7,0.5-0.9,0.8c-0.2,0.3-0.4,0.6-0.5,1c-0.1,0.3-0.2,0.6-0.2,0.8v7.1h-1.9v-11.4H195.8z"/>
	</g>
	<g class="st1">
		<path d="M226.1,184.7l0.4-1.6h0c-0.6,0.7-1.1,1.2-1.7,1.5c-0.6,0.3-1.3,0.4-2,0.4c-0.7,0-1.4-0.1-1.9-0.3c-0.6-0.2-1-0.5-1.4-0.9
			c-0.4-0.4-0.7-0.9-0.9-1.5c-0.2-0.6-0.3-1.2-0.3-1.9c0-0.9,0.1-1.7,0.4-2.6c0.3-0.9,0.7-1.6,1.2-2.3c0.5-0.7,1.2-1.3,2-1.7
			c0.8-0.4,1.7-0.6,2.7-0.6c0.4,0,0.7,0,1.1,0.1c0.4,0.1,0.7,0.2,1,0.3s0.6,0.4,0.9,0.6c0.2,0.3,0.4,0.6,0.5,1h0l1.2-6.1h1.8
			l-3.3,15.7H226.1z M220.8,182.5c0.5,0.5,1.2,0.8,2.2,0.8c0.7,0,1.3-0.2,1.9-0.5c0.6-0.4,1-0.8,1.4-1.4c0.4-0.6,0.7-1.2,0.9-1.8
			c0.2-0.7,0.3-1.3,0.3-1.9c0-0.9-0.2-1.6-0.7-2.1c-0.5-0.6-1.2-0.8-2.1-0.8c-0.7,0-1.4,0.2-2,0.5c-0.6,0.3-1,0.8-1.4,1.3
			c-0.4,0.5-0.7,1.1-0.9,1.8s-0.3,1.3-0.3,1.9C220.1,181.2,220.4,182,220.8,182.5z"/>
		<path d="M231.7,177.5c0.3-0.9,0.7-1.6,1.3-2.3c0.5-0.7,1.2-1.2,2-1.6c0.8-0.4,1.7-0.6,2.7-0.6c1.5,0,2.7,0.4,3.5,1.2
			c0.8,0.8,1.2,2,1.2,3.5c0,0.9-0.1,1.8-0.4,2.7c-0.3,0.9-0.7,1.6-1.2,2.3c-0.5,0.7-1.2,1.2-2,1.6c-0.8,0.4-1.7,0.6-2.7,0.6
			c-0.7,0-1.4-0.1-2-0.4c-0.6-0.2-1.1-0.6-1.5-1s-0.7-0.9-0.9-1.5c-0.2-0.6-0.3-1.2-0.3-1.9C231.3,179.3,231.5,178.4,231.7,177.5z
			 M234,182.5c0.5,0.6,1.3,0.9,2.3,0.9c0.7,0,1.3-0.2,1.8-0.5c0.5-0.4,1-0.8,1.3-1.3c0.4-0.5,0.6-1.1,0.8-1.7
			c0.2-0.6,0.3-1.2,0.3-1.8c0-0.4-0.1-0.9-0.2-1.3c-0.1-0.4-0.3-0.7-0.5-1c-0.2-0.3-0.6-0.5-0.9-0.7c-0.4-0.2-0.8-0.3-1.3-0.3
			c-0.7,0-1.3,0.2-1.9,0.5c-0.5,0.4-1,0.8-1.4,1.3c-0.4,0.5-0.6,1.1-0.8,1.8c-0.2,0.6-0.3,1.3-0.3,1.8
			C233.2,181.1,233.5,181.9,234,182.5z"/>
		<path d="M248.6,169l-3.3,15.7h-1.8l3.3-15.7H248.6z"/>
		<path d="M249.3,177.5c0.3-0.9,0.7-1.6,1.3-2.3c0.5-0.7,1.2-1.2,2-1.6c0.8-0.4,1.7-0.6,2.7-0.6c1.5,0,2.7,0.4,3.5,1.2
			c0.8,0.8,1.2,2,1.2,3.5c0,0.9-0.1,1.8-0.4,2.7c-0.3,0.9-0.7,1.6-1.2,2.3c-0.5,0.7-1.2,1.2-2,1.6c-0.8,0.4-1.7,0.6-2.7,0.6
			c-0.7,0-1.4-0.1-2-0.4c-0.6-0.2-1.1-0.6-1.5-1s-0.7-0.9-0.9-1.5c-0.2-0.6-0.3-1.2-0.3-1.9C248.8,179.3,249,178.4,249.3,177.5z
			 M251.5,182.5c0.5,0.6,1.3,0.9,2.3,0.9c0.7,0,1.3-0.2,1.8-0.5c0.5-0.4,1-0.8,1.3-1.3c0.4-0.5,0.6-1.1,0.8-1.7
			c0.2-0.6,0.3-1.2,0.3-1.8c0-0.4-0.1-0.9-0.2-1.3c-0.1-0.4-0.3-0.7-0.5-1c-0.2-0.3-0.6-0.5-0.9-0.7c-0.4-0.2-0.8-0.3-1.3-0.3
			c-0.7,0-1.3,0.2-1.9,0.5c-0.5,0.4-1,0.8-1.4,1.3c-0.4,0.5-0.6,1.1-0.8,1.8c-0.2,0.6-0.3,1.3-0.3,1.8
			C250.7,181.1,251,181.9,251.5,182.5z"/>
		<path d="M265.1,173.3l-0.5,2.4h0c0.4-0.8,1-1.4,1.7-1.9c0.7-0.5,1.5-0.8,2.5-0.8c0.1,0,0.2,0,0.3,0s0.2,0,0.3,0l-0.4,2
			c-0.1,0-0.2,0-0.3,0h-0.3c-0.2,0-0.4,0-0.6,0c-0.1,0-0.3,0-0.5,0.1c-0.5,0.1-1,0.4-1.4,0.7c-0.4,0.3-0.8,0.7-1,1.2
			c-0.2,0.4-0.4,0.8-0.6,1.3s-0.3,1-0.4,1.4l-1.1,5H261l2.4-11.4H265.1z"/>
		<path d="M281.7,175.2c-0.5-0.3-1-0.5-1.7-0.5c-0.3,0-0.6,0-0.9,0.1c-0.3,0-0.6,0.1-0.8,0.2c-0.2,0.1-0.4,0.3-0.6,0.4
			s-0.2,0.4-0.2,0.7c0,0.3,0.1,0.5,0.3,0.7c0.2,0.2,0.4,0.4,0.7,0.5c0.3,0.2,0.6,0.3,1,0.5s0.7,0.3,1.1,0.4c0.4,0.2,0.8,0.3,1.1,0.5
			c0.4,0.2,0.7,0.4,1,0.6c0.3,0.2,0.5,0.5,0.7,0.9c0.2,0.3,0.3,0.7,0.3,1.2c0,0.6-0.1,1.2-0.4,1.6c-0.3,0.4-0.6,0.8-1.1,1.1
			s-0.9,0.5-1.5,0.6c-0.5,0.1-1.1,0.2-1.7,0.2c-0.7,0-1.3-0.1-1.8-0.2c-0.6-0.1-1-0.3-1.4-0.6c-0.4-0.3-0.7-0.7-1-1.2
			c-0.2-0.5-0.4-1.1-0.4-1.8h1.8c0,0.4,0,0.8,0.2,1c0.2,0.3,0.4,0.5,0.6,0.7c0.3,0.2,0.6,0.3,0.9,0.4s0.7,0.1,1.1,0.1
			c0.3,0,0.6,0,0.9-0.1s0.6-0.2,0.8-0.3c0.2-0.1,0.5-0.3,0.6-0.5c0.2-0.2,0.2-0.5,0.2-0.8c0-0.3-0.1-0.5-0.3-0.7
			c-0.2-0.2-0.4-0.4-0.7-0.5c-0.3-0.2-0.6-0.3-1-0.5c-0.4-0.1-0.7-0.3-1.1-0.5c-0.4-0.1-0.8-0.3-1.1-0.5c-0.4-0.2-0.7-0.4-1-0.6
			c-0.3-0.2-0.5-0.5-0.7-0.8c-0.2-0.3-0.3-0.7-0.3-1.1c0-0.5,0.1-1,0.4-1.4c0.2-0.4,0.6-0.8,1-1s0.8-0.5,1.4-0.6
			c0.5-0.1,1-0.2,1.6-0.2c0.5,0,1,0.1,1.6,0.2c0.5,0.1,1,0.3,1.4,0.6c0.4,0.3,0.7,0.7,1,1.1c0.2,0.5,0.4,1,0.4,1.7h-1.9
			C282.4,176,282.1,175.5,281.7,175.2z"/>
		<path d="M289.2,173.3l-2.4,11.4H285l2.4-11.4H289.2z M287.8,171.3l0.5-2.3h1.9l-0.5,2.3H287.8z"/>
		<path d="M297.1,173.3l-0.4,1.7h-2.3l-1.4,6.7c0,0.1,0,0.3,0,0.4c0,0.1,0,0.2,0,0.4c0,0.3,0.1,0.5,0.3,0.6c0.2,0.1,0.5,0.2,0.8,0.2
			c0.2,0,0.4,0,0.5-0.1c0.2,0,0.4-0.1,0.5-0.1l-0.3,1.7c-0.2,0-0.4,0.1-0.7,0.1c-0.2,0-0.4,0-0.7,0c-0.4,0-0.7,0-1-0.1
			c-0.3-0.1-0.6-0.1-0.8-0.3c-0.2-0.1-0.4-0.3-0.5-0.6c-0.1-0.2-0.2-0.5-0.2-0.9c0-0.2,0-0.3,0-0.5s0-0.3,0.1-0.5l1.5-7.1h-1.9
			l0.4-1.7h1.9l0.7-3.4h1.9l-0.7,3.4H297.1z"/>
		<path d="M304.8,175.1c0.3-0.5,0.7-0.8,1.1-1.2c0.4-0.3,0.9-0.5,1.5-0.7c0.6-0.1,1.1-0.2,1.7-0.2c0.6,0,1.1,0,1.6,0.1
			c0.5,0.1,0.9,0.2,1.3,0.5c0.4,0.2,0.7,0.5,0.9,0.9c0.2,0.4,0.3,0.8,0.3,1.4c0,0.3,0,0.7-0.1,1s-0.2,0.7-0.2,1l-0.7,3.1
			c0,0.2-0.1,0.5-0.2,0.8c-0.1,0.3-0.1,0.6-0.1,0.8c0,0.3,0.1,0.4,0.2,0.5c0.1,0.1,0.2,0.2,0.4,0.2c0.1,0,0.2,0,0.3-0.1
			c0.1,0,0.2-0.1,0.3-0.1l-0.3,1.4c-0.1,0.1-0.3,0.1-0.6,0.2c-0.2,0.1-0.4,0.1-0.6,0.1c-0.5,0-0.9-0.1-1.2-0.4s-0.4-0.7-0.3-1.2l0,0
			c-0.4,0.5-0.9,0.9-1.5,1.2c-0.6,0.3-1.4,0.4-2.3,0.4c-0.5,0-0.9-0.1-1.4-0.2c-0.4-0.1-0.8-0.3-1.1-0.5s-0.6-0.6-0.7-1
			c-0.2-0.4-0.3-0.9-0.3-1.5c0-0.8,0.2-1.5,0.5-2c0.4-0.5,0.8-0.8,1.4-1.1c0.6-0.2,1.2-0.4,1.8-0.5c0.7-0.1,1.3-0.2,2-0.2
			c0.5,0,0.9-0.1,1.3-0.1c0.4-0.1,0.7-0.1,0.9-0.3c0.2-0.1,0.4-0.3,0.5-0.5c0.1-0.2,0.2-0.5,0.2-0.9c0-0.3-0.1-0.6-0.2-0.7
			c-0.1-0.2-0.3-0.3-0.6-0.5c-0.2-0.1-0.5-0.2-0.7-0.2c-0.3,0-0.5-0.1-0.8-0.1c-0.4,0-0.7,0-1,0.1s-0.7,0.2-0.9,0.4
			c-0.3,0.2-0.5,0.4-0.7,0.6c-0.2,0.3-0.3,0.6-0.4,0.9h-1.9C304.3,176.1,304.5,175.6,304.8,175.1z M305.3,182.9
			c0.4,0.3,0.9,0.4,1.4,0.4c1.5,0,2.5-0.5,3.2-1.5c0.3-0.4,0.5-0.9,0.6-1.4c0.1-0.5,0.2-1,0.4-1.5h0c-0.3,0.2-0.6,0.3-1,0.4
			c-0.4,0.1-0.8,0.1-1.3,0.2s-0.9,0.1-1.4,0.2c-0.5,0.1-0.9,0.2-1.2,0.3c-0.4,0.1-0.7,0.4-0.9,0.6c-0.2,0.3-0.4,0.6-0.4,1.1
			C304.7,182.3,304.9,182.7,305.3,182.9z"/>
		<path d="M318.5,173.3l-0.4,1.7l0,0c0.5-0.6,1.1-1.1,1.7-1.5c0.7-0.4,1.4-0.5,2.2-0.5c0.7,0,1.3,0.2,1.8,0.5c0.5,0.3,0.9,0.8,1,1.6
			c0.4-0.6,1-1.1,1.7-1.5c0.7-0.4,1.4-0.6,2.2-0.6c0.4,0,0.8,0,1.2,0.1c0.4,0.1,0.7,0.2,1,0.4c0.3,0.2,0.5,0.5,0.7,0.8
			c0.2,0.3,0.3,0.7,0.3,1.2c0,0.3,0,0.7-0.1,1.1c-0.1,0.4-0.1,0.8-0.2,1.1l-1.4,6.8h-1.9l1.6-7.2c0-0.2,0.1-0.4,0.1-0.6
			c0-0.2,0.1-0.4,0.1-0.6c0-0.4-0.2-0.8-0.5-1.1s-0.7-0.4-1.2-0.4c-0.3,0-0.5,0-0.8,0.1c-0.3,0.1-0.5,0.2-0.8,0.3
			c-0.2,0.1-0.5,0.3-0.7,0.5c-0.2,0.2-0.4,0.4-0.6,0.6c-0.3,0.3-0.5,0.7-0.7,1.2c-0.1,0.4-0.3,0.9-0.4,1.4l-1.3,5.9h-1.9l1.4-6.5
			c0.1-0.4,0.2-0.9,0.3-1.2c0.1-0.4,0.1-0.6,0.1-0.8c0-0.5-0.1-0.8-0.4-1.1c-0.3-0.3-0.7-0.4-1.2-0.4c-0.5,0-1,0.1-1.5,0.4
			c-0.5,0.3-0.9,0.6-1.3,1c-0.4,0.4-0.7,0.8-0.8,1.2c-0.1,0.4-0.3,0.9-0.4,1.4l-1.3,6h-1.8l2.4-11.4H318.5z"/>
		<path d="M335.3,180.6c0,0.4,0.1,0.8,0.2,1.2s0.4,0.6,0.7,0.9s0.6,0.4,0.9,0.5c0.4,0.1,0.7,0.2,1.1,0.2c0.8,0,1.5-0.2,2.1-0.6
			c0.5-0.4,0.9-0.9,1.2-1.6h1.9c-0.1,0.6-0.4,1.2-0.7,1.7c-0.3,0.5-0.7,0.9-1.2,1.2c-0.5,0.3-1,0.6-1.5,0.7s-1.1,0.2-1.8,0.2
			c-0.9,0-1.7-0.1-2.3-0.4c-0.6-0.3-1.1-0.7-1.5-1.1c-0.4-0.4-0.6-0.9-0.8-1.5s-0.2-1.1-0.2-1.6c0-1.1,0.2-2.1,0.5-3
			s0.7-1.7,1.3-2.3c0.5-0.6,1.2-1.1,1.9-1.5c0.7-0.4,1.5-0.5,2.2-0.5c1.7,0,2.9,0.4,3.7,1.3c0.8,0.9,1.2,2.1,1.2,3.7
			c0,0.3,0,0.6-0.1,0.8c0,0.3-0.1,0.5-0.1,0.6h-8.6C335.3,179.9,335.3,180.2,335.3,180.6z M342.1,176.8c-0.1-0.4-0.2-0.7-0.4-1
			c-0.2-0.3-0.5-0.5-0.8-0.7s-0.8-0.3-1.3-0.3c-0.5,0-1,0.1-1.5,0.3c-0.4,0.2-0.8,0.4-1.1,0.7c-0.3,0.3-0.6,0.6-0.8,1
			s-0.4,0.8-0.5,1.2h6.6C342.2,177.5,342.2,177.1,342.1,176.8z"/>
		<path d="M352.1,173.3l-0.4,1.7h-2.3l-1.4,6.7c0,0.1,0,0.3,0,0.4s0,0.2,0,0.4c0,0.3,0.1,0.5,0.3,0.6c0.2,0.1,0.5,0.2,0.8,0.2
			c0.2,0,0.4,0,0.5-0.1c0.2,0,0.4-0.1,0.5-0.1l-0.3,1.7c-0.2,0-0.4,0.1-0.7,0.1c-0.2,0-0.4,0-0.7,0c-0.4,0-0.7,0-1-0.1
			c-0.3-0.1-0.6-0.1-0.8-0.3c-0.2-0.1-0.4-0.3-0.5-0.6c-0.1-0.2-0.2-0.5-0.2-0.9c0-0.2,0-0.3,0-0.5c0-0.1,0-0.3,0.1-0.5l1.5-7.1
			h-1.9l0.4-1.7h1.9l0.7-3.4h1.9l-0.7,3.4H352.1z"/>
	</g>
	<g class="st1">
		<path d="M366.3,175.3c-0.5-0.4-1.1-0.6-1.9-0.6c-0.7,0-1.2,0.1-1.7,0.4c-0.5,0.2-0.8,0.6-1.1,1c-0.3,0.4-0.5,0.9-0.6,1.4
			s-0.2,1.1-0.2,1.7c0,0.5,0.1,1,0.2,1.5c0.1,0.5,0.3,0.9,0.6,1.3s0.6,0.7,1,0.9c0.4,0.2,0.9,0.4,1.5,0.4c0.9,0,1.6-0.2,2.2-0.7
			c0.5-0.5,0.8-1.2,1-2h1.9c-0.2,1.4-0.7,2.5-1.6,3.3c-0.8,0.8-2,1.1-3.4,1.1c-0.9,0-1.6-0.1-2.3-0.4c-0.7-0.3-1.2-0.7-1.7-1.2
			c-0.4-0.5-0.8-1.1-1-1.8c-0.2-0.7-0.3-1.5-0.3-2.3s0.1-1.6,0.3-2.4c0.2-0.7,0.6-1.4,1-1.9c0.4-0.5,1-1,1.7-1.3
			c0.7-0.3,1.5-0.5,2.4-0.5c0.6,0,1.2,0.1,1.8,0.2c0.6,0.2,1.1,0.4,1.5,0.7c0.4,0.3,0.8,0.7,1.1,1.2c0.3,0.5,0.5,1.1,0.5,1.7h-1.9
			C367.1,176.3,366.8,175.7,366.3,175.3z"/>
		<path d="M371.1,176.7c0.2-0.7,0.6-1.4,1.1-1.9c0.5-0.5,1-1,1.7-1.3c0.7-0.3,1.5-0.5,2.4-0.5c0.9,0,1.7,0.2,2.4,0.5
			c0.7,0.3,1.3,0.7,1.7,1.3c0.5,0.5,0.8,1.2,1.1,1.9c0.2,0.7,0.4,1.5,0.4,2.3s-0.1,1.6-0.4,2.3c-0.2,0.7-0.6,1.3-1.1,1.9
			c-0.5,0.5-1,1-1.7,1.3s-1.5,0.5-2.4,0.5c-0.9,0-1.7-0.2-2.4-0.5s-1.3-0.7-1.7-1.3s-0.8-1.2-1.1-1.9c-0.2-0.7-0.4-1.5-0.4-2.3
			S370.8,177.4,371.1,176.7z M373,180.9c0.2,0.5,0.4,1,0.8,1.3c0.3,0.4,0.7,0.6,1.1,0.8c0.4,0.2,0.9,0.3,1.4,0.3
			c0.5,0,0.9-0.1,1.4-0.3c0.4-0.2,0.8-0.5,1.1-0.8c0.3-0.4,0.6-0.8,0.8-1.3c0.2-0.5,0.3-1.1,0.3-1.8s-0.1-1.3-0.3-1.8
			c-0.2-0.5-0.4-1-0.8-1.4c-0.3-0.4-0.7-0.6-1.1-0.8c-0.4-0.2-0.9-0.3-1.4-0.3c-0.5,0-0.9,0.1-1.4,0.3c-0.4,0.2-0.8,0.5-1.1,0.8
			c-0.3,0.4-0.6,0.8-0.8,1.4s-0.3,1.1-0.3,1.8S372.8,180.3,373,180.9z"/>
		<path d="M385.7,173.3v1.8h0c0.8-1.4,2-2.1,3.7-2.1c0.7,0,1.4,0.1,1.9,0.3c0.5,0.2,0.9,0.5,1.2,0.9c0.3,0.4,0.5,0.8,0.7,1.3
			c0.1,0.5,0.2,1.1,0.2,1.7v7.5h-1.9V177c0-0.7-0.2-1.3-0.6-1.7c-0.4-0.4-1-0.6-1.7-0.6c-0.6,0-1.1,0.1-1.5,0.3
			c-0.4,0.2-0.8,0.4-1,0.7c-0.3,0.3-0.5,0.7-0.6,1.1c-0.1,0.4-0.2,0.9-0.2,1.4v6.4H384v-11.4H385.7z"/>
		<path d="M397.6,182.2c0.2,0.3,0.4,0.5,0.7,0.7c0.3,0.2,0.6,0.3,1,0.4s0.7,0.1,1.1,0.1c0.3,0,0.6,0,0.9-0.1c0.3,0,0.6-0.1,0.9-0.2
			c0.3-0.1,0.5-0.3,0.7-0.5c0.2-0.2,0.3-0.5,0.3-0.9c0-0.5-0.2-0.9-0.5-1.1c-0.4-0.2-0.8-0.5-1.4-0.6c-0.6-0.2-1.1-0.3-1.8-0.4
			c-0.6-0.1-1.2-0.3-1.8-0.5c-0.6-0.2-1-0.5-1.4-1c-0.4-0.4-0.6-1-0.6-1.7c0-0.6,0.1-1.1,0.4-1.5c0.3-0.4,0.6-0.7,1-1
			c0.4-0.3,0.9-0.4,1.4-0.6c0.5-0.1,1-0.2,1.5-0.2c0.6,0,1.2,0.1,1.8,0.2c0.5,0.1,1,0.3,1.4,0.6c0.4,0.3,0.8,0.6,1,1.1
			c0.2,0.5,0.4,1,0.4,1.7h-1.9c0-0.4-0.1-0.7-0.3-0.9c-0.2-0.2-0.4-0.4-0.6-0.6c-0.2-0.1-0.5-0.3-0.8-0.3c-0.3-0.1-0.6-0.1-0.9-0.1
			c-0.3,0-0.6,0-0.8,0.1s-0.5,0.1-0.8,0.2c-0.2,0.1-0.4,0.3-0.6,0.4c-0.1,0.2-0.2,0.4-0.2,0.7c0,0.3,0.1,0.6,0.3,0.8
			c0.2,0.2,0.5,0.4,0.9,0.5c0.4,0.1,0.7,0.3,1.2,0.4c0.4,0.1,0.9,0.2,1.3,0.3c0.5,0.1,0.9,0.2,1.4,0.4c0.4,0.1,0.8,0.3,1.2,0.6
			c0.3,0.2,0.6,0.5,0.8,0.9c0.2,0.4,0.3,0.8,0.3,1.4c0,0.7-0.1,1.3-0.4,1.7c-0.3,0.5-0.7,0.8-1.1,1.1c-0.5,0.3-1,0.5-1.6,0.6
			c-0.6,0.1-1.2,0.2-1.7,0.2c-0.6,0-1.2-0.1-1.8-0.2c-0.6-0.1-1.1-0.3-1.5-0.6c-0.4-0.3-0.8-0.7-1.1-1.2c-0.3-0.5-0.4-1.1-0.4-1.8
			h1.9C397.4,181.5,397.5,181.9,397.6,182.2z"/>
		<path d="M415.2,184c-0.9,0.6-1.9,1-3.2,1c-0.9,0-1.7-0.1-2.4-0.4c-0.7-0.3-1.2-0.7-1.7-1.2c-0.5-0.5-0.8-1.2-1-1.9
			c-0.2-0.7-0.4-1.5-0.4-2.4c0-0.9,0.1-1.7,0.4-2.4s0.6-1.3,1.1-1.9c0.5-0.5,1-0.9,1.7-1.2c0.7-0.3,1.4-0.4,2.1-0.4
			c1,0,1.9,0.2,2.5,0.6c0.7,0.4,1.2,0.9,1.6,1.6c0.4,0.6,0.7,1.3,0.8,2.1s0.2,1.5,0.2,2.2h-8.5c0,0.5,0,1,0.2,1.4
			c0.1,0.4,0.3,0.8,0.6,1.2c0.3,0.3,0.7,0.6,1.1,0.8c0.5,0.2,1,0.3,1.6,0.3c0.8,0,1.4-0.2,1.9-0.5c0.5-0.4,0.8-0.9,1-1.7h1.8
			C416.7,182.4,416.1,183.3,415.2,184z M414.8,176.7c-0.2-0.4-0.4-0.7-0.7-1c-0.3-0.3-0.6-0.5-1-0.7c-0.4-0.2-0.8-0.3-1.3-0.3
			c-0.5,0-0.9,0.1-1.3,0.3c-0.4,0.2-0.7,0.4-1,0.7c-0.3,0.3-0.5,0.6-0.7,1c-0.2,0.4-0.3,0.8-0.3,1.2h6.5
			C415.1,177.5,415,177.1,414.8,176.7z"/>
		<path d="M425.8,175.3c-0.5-0.4-1.1-0.6-1.9-0.6c-0.7,0-1.2,0.1-1.7,0.4c-0.5,0.2-0.8,0.6-1.1,1c-0.3,0.4-0.5,0.9-0.6,1.4
			c-0.1,0.5-0.2,1.1-0.2,1.7c0,0.5,0.1,1,0.2,1.5c0.1,0.5,0.3,0.9,0.6,1.3s0.6,0.7,1,0.9c0.4,0.2,0.9,0.4,1.5,0.4
			c0.9,0,1.6-0.2,2.2-0.7c0.5-0.5,0.8-1.2,1-2h1.9c-0.2,1.4-0.7,2.5-1.6,3.3c-0.8,0.8-2,1.1-3.4,1.1c-0.9,0-1.6-0.1-2.3-0.4
			c-0.7-0.3-1.2-0.7-1.7-1.2c-0.4-0.5-0.8-1.1-1-1.8c-0.2-0.7-0.3-1.5-0.3-2.3s0.1-1.6,0.3-2.4c0.2-0.7,0.6-1.4,1-1.9s1-1,1.7-1.3
			c0.7-0.3,1.5-0.5,2.4-0.5c0.6,0,1.2,0.1,1.8,0.2c0.6,0.2,1.1,0.4,1.5,0.7c0.4,0.3,0.8,0.7,1.1,1.2s0.5,1.1,0.5,1.7h-1.9
			C426.6,176.3,426.3,175.7,425.8,175.3z"/>
		<path d="M435.7,173.3v1.7h-2.3v7.1c0,0.2,0,0.4,0.1,0.5c0,0.1,0.1,0.2,0.2,0.3c0.1,0.1,0.2,0.1,0.4,0.1c0.2,0,0.4,0,0.7,0h0.9v1.7
			h-1.4c-0.5,0-0.9,0-1.2-0.1c-0.3-0.1-0.6-0.2-0.8-0.4s-0.4-0.4-0.5-0.7c-0.1-0.3-0.2-0.7-0.2-1.3V175h-1.9v-1.7h1.9v-3.4h1.9v3.4
			H435.7z"/>
		<path d="M445.8,184c-0.9,0.6-1.9,1-3.2,1c-0.9,0-1.7-0.1-2.4-0.4c-0.7-0.3-1.2-0.7-1.7-1.2c-0.5-0.5-0.8-1.2-1-1.9
			s-0.4-1.5-0.4-2.4c0-0.9,0.1-1.7,0.4-2.4c0.3-0.7,0.6-1.3,1.1-1.9c0.5-0.5,1-0.9,1.7-1.2c0.7-0.3,1.4-0.4,2.1-0.4
			c1,0,1.9,0.2,2.5,0.6c0.7,0.4,1.2,0.9,1.6,1.6s0.7,1.3,0.8,2.1s0.2,1.5,0.2,2.2h-8.5c0,0.5,0,1,0.2,1.4c0.1,0.4,0.3,0.8,0.6,1.2
			s0.7,0.6,1.1,0.8c0.5,0.2,1,0.3,1.6,0.3c0.8,0,1.4-0.2,1.9-0.5c0.5-0.4,0.8-0.9,1-1.7h1.8C447.2,182.4,446.7,183.3,445.8,184z
			 M445.4,176.7c-0.2-0.4-0.4-0.7-0.7-1c-0.3-0.3-0.6-0.5-1-0.7c-0.4-0.2-0.8-0.3-1.3-0.3c-0.5,0-0.9,0.1-1.3,0.3
			c-0.4,0.2-0.7,0.4-1,0.7c-0.3,0.3-0.5,0.6-0.7,1c-0.2,0.4-0.3,0.8-0.3,1.2h6.5C445.6,177.5,445.5,177.1,445.4,176.7z"/>
		<path d="M454.4,173.3v1.7h-2.3v7.1c0,0.2,0,0.4,0.1,0.5c0,0.1,0.1,0.2,0.2,0.3c0.1,0.1,0.2,0.1,0.4,0.1c0.2,0,0.4,0,0.7,0h0.9v1.7
			H453c-0.5,0-0.9,0-1.2-0.1c-0.3-0.1-0.6-0.2-0.8-0.4c-0.2-0.2-0.4-0.4-0.5-0.7s-0.2-0.7-0.2-1.3V175h-1.9v-1.7h1.9v-3.4h1.9v3.4
			H454.4z"/>
		<path d="M464.2,184.7v-1.8h0c-0.4,0.7-0.9,1.2-1.5,1.6c-0.6,0.3-1.3,0.5-2.2,0.5c-0.7,0-1.4-0.1-1.9-0.3c-0.5-0.2-0.9-0.5-1.2-0.8
			c-0.3-0.4-0.5-0.8-0.6-1.3c-0.1-0.5-0.2-1.1-0.2-1.7v-7.5h1.9v7.7c0,0.7,0.2,1.3,0.6,1.7c0.4,0.4,1,0.6,1.7,0.6
			c0.6,0,1.1-0.1,1.5-0.3c0.4-0.2,0.8-0.4,1-0.7c0.3-0.3,0.5-0.7,0.6-1.1s0.2-0.9,0.2-1.4v-6.4h1.9v11.4H464.2z"/>
		<path d="M476.8,184c-0.8,0.6-1.9,1-3.2,1c-0.9,0-1.7-0.1-2.4-0.4c-0.7-0.3-1.2-0.7-1.7-1.2c-0.5-0.5-0.8-1.2-1-1.9
			c-0.2-0.7-0.4-1.5-0.4-2.4c0-0.9,0.1-1.7,0.4-2.4s0.6-1.3,1.1-1.9c0.5-0.5,1-0.9,1.7-1.2c0.7-0.3,1.4-0.4,2.1-0.4
			c1,0,1.9,0.2,2.5,0.6s1.2,0.9,1.6,1.6s0.7,1.3,0.8,2.1c0.2,0.8,0.2,1.5,0.2,2.2h-8.5c0,0.5,0,1,0.2,1.4c0.1,0.4,0.3,0.8,0.6,1.2
			c0.3,0.3,0.7,0.6,1.1,0.8c0.5,0.2,1,0.3,1.6,0.3c0.8,0,1.4-0.2,1.9-0.5c0.5-0.4,0.8-0.9,1-1.7h1.8
			C478.2,182.4,477.6,183.3,476.8,184z M476.3,176.7c-0.2-0.4-0.4-0.7-0.7-1c-0.3-0.3-0.6-0.5-1-0.7c-0.4-0.2-0.8-0.3-1.3-0.3
			c-0.5,0-0.9,0.1-1.3,0.3c-0.4,0.2-0.7,0.4-1,0.7c-0.3,0.3-0.5,0.6-0.7,1s-0.3,0.8-0.3,1.2h6.5
			C476.6,177.5,476.5,177.1,476.3,176.7z"/>
		<path d="M482.2,173.3v2.4h0c0.5-0.9,1-1.6,1.7-2c0.7-0.4,1.5-0.6,2.5-0.6v2c-0.7,0-1.4,0.1-1.9,0.3c-0.5,0.2-1,0.5-1.3,0.9
			c-0.3,0.4-0.6,0.9-0.7,1.4c-0.1,0.6-0.2,1.2-0.2,1.9v5.1h-1.9v-11.4H482.2z"/>
		<path d="M504.1,184.7c-0.3,0.2-0.8,0.3-1.3,0.3c-0.5,0-0.9-0.1-1.2-0.4c-0.3-0.3-0.4-0.7-0.4-1.3c-0.5,0.6-1.1,1.1-1.8,1.3
			c-0.7,0.3-1.4,0.4-2.2,0.4c-0.5,0-1-0.1-1.5-0.2c-0.5-0.1-0.9-0.3-1.2-0.6c-0.3-0.2-0.6-0.6-0.8-1c-0.2-0.4-0.3-0.9-0.3-1.5
			c0-0.6,0.1-1.2,0.3-1.6c0.2-0.4,0.5-0.7,0.9-1s0.8-0.5,1.2-0.6s0.9-0.2,1.4-0.3c0.5-0.1,1-0.2,1.5-0.2c0.5-0.1,0.9-0.1,1.2-0.2
			c0.4-0.1,0.6-0.2,0.8-0.4c0.2-0.2,0.3-0.5,0.3-0.8c0-0.4-0.1-0.7-0.2-1s-0.4-0.4-0.6-0.6s-0.5-0.2-0.8-0.3s-0.6-0.1-0.9-0.1
			c-0.8,0-1.5,0.2-2,0.5c-0.5,0.3-0.8,0.9-0.9,1.7h-1.9c0-0.7,0.2-1.3,0.4-1.8c0.3-0.5,0.6-0.9,1.1-1.2s0.9-0.5,1.5-0.6
			c0.6-0.1,1.2-0.2,1.8-0.2c0.5,0,1,0,1.5,0.1s1,0.2,1.4,0.5s0.7,0.5,1,1s0.4,0.9,0.4,1.6v5.8c0,0.4,0,0.8,0.1,1
			c0.1,0.2,0.2,0.3,0.5,0.3c0.2,0,0.4,0,0.6-0.1V184.7z M501,178.8c-0.2,0.2-0.5,0.3-0.9,0.4c-0.4,0.1-0.8,0.1-1.2,0.2
			c-0.4,0.1-0.8,0.1-1.3,0.2c-0.4,0.1-0.8,0.2-1.1,0.3c-0.3,0.1-0.6,0.4-0.8,0.6c-0.2,0.3-0.3,0.6-0.3,1.1c0,0.3,0.1,0.6,0.2,0.8
			c0.1,0.2,0.3,0.4,0.5,0.5c0.2,0.1,0.4,0.2,0.7,0.3c0.3,0.1,0.5,0.1,0.8,0.1c0.6,0,1.1-0.1,1.6-0.3c0.4-0.2,0.8-0.4,1.1-0.6
			c0.3-0.3,0.5-0.5,0.6-0.8c0.1-0.3,0.2-0.6,0.2-0.8V178.8z"/>
		<path d="M514.1,184.7v-1.5h0c-0.3,0.6-0.8,1.1-1.5,1.4s-1.4,0.4-2.2,0.4c-0.9,0-1.6-0.2-2.3-0.5c-0.7-0.3-1.2-0.8-1.6-1.3
			c-0.4-0.5-0.8-1.2-1-1.9s-0.3-1.5-0.3-2.3s0.1-1.6,0.3-2.3c0.2-0.7,0.5-1.3,1-1.9s1-1,1.6-1.3s1.4-0.5,2.3-0.5
			c0.3,0,0.6,0,0.9,0.1c0.3,0.1,0.7,0.2,1,0.3c0.3,0.1,0.7,0.3,1,0.5c0.3,0.2,0.6,0.5,0.8,0.8h0V169h1.9v15.7H514.1z M507.4,180.7
			c0.1,0.5,0.4,1,0.6,1.4c0.3,0.4,0.7,0.7,1.1,0.9c0.4,0.2,1,0.4,1.6,0.4c0.6,0,1.2-0.1,1.6-0.4c0.4-0.2,0.8-0.6,1.1-1
			c0.3-0.4,0.5-0.9,0.6-1.4c0.1-0.5,0.2-1,0.2-1.6c0-0.6-0.1-1.1-0.2-1.6s-0.3-1-0.6-1.4c-0.3-0.4-0.7-0.7-1.1-1
			c-0.5-0.2-1-0.4-1.7-0.4c-0.6,0-1.2,0.1-1.6,0.4c-0.4,0.2-0.8,0.6-1.1,1c-0.3,0.4-0.5,0.9-0.6,1.4c-0.1,0.5-0.2,1.1-0.2,1.6
			C507.2,179.6,507.2,180.2,507.4,180.7z"/>
		<path d="M519,171.3V169h1.9v2.3H519z M520.8,173.3v11.4H519v-11.4H520.8z"/>
		<path d="M525.7,173.3v1.5h0c0.3-0.6,0.8-1.1,1.5-1.4s1.4-0.4,2.2-0.4c0.9,0,1.6,0.2,2.3,0.5c0.7,0.3,1.2,0.8,1.6,1.3
			c0.4,0.5,0.8,1.2,1,1.9c0.2,0.7,0.3,1.5,0.3,2.3c0,0.8-0.1,1.6-0.3,2.3c-0.2,0.7-0.5,1.3-1,1.9c-0.4,0.5-1,1-1.6,1.3
			c-0.7,0.3-1.4,0.5-2.3,0.5c-0.3,0-0.6,0-0.9-0.1s-0.7-0.2-1-0.3c-0.3-0.1-0.7-0.3-1-0.5c-0.3-0.2-0.6-0.5-0.8-0.8h0v5.9h-1.9
			v-15.7H525.7z M532.4,177.4c-0.1-0.5-0.4-1-0.6-1.4c-0.3-0.4-0.7-0.7-1.1-0.9s-1-0.4-1.6-0.4c-0.6,0-1.2,0.1-1.6,0.4
			c-0.4,0.2-0.8,0.6-1.1,1c-0.3,0.4-0.5,0.9-0.6,1.4s-0.2,1-0.2,1.6c0,0.6,0.1,1.1,0.2,1.6c0.1,0.5,0.3,1,0.6,1.4
			c0.3,0.4,0.7,0.7,1.1,1c0.5,0.2,1,0.4,1.7,0.4c0.6,0,1.2-0.1,1.6-0.4c0.4-0.2,0.8-0.6,1-1c0.3-0.4,0.5-0.9,0.6-1.4
			c0.1-0.5,0.2-1.1,0.2-1.6C532.6,178.4,532.5,177.9,532.4,177.4z"/>
	</g>
	<g class="st1">
		<path d="M84.5,206.3V204h1.9v2.3H84.5z M86.4,208.3v11.4h-1.9v-11.4H86.4z"/>
		<path d="M90.7,217.2c0.2,0.3,0.4,0.5,0.7,0.7c0.3,0.2,0.6,0.3,1,0.4s0.7,0.1,1.1,0.1c0.3,0,0.6,0,0.9-0.1c0.3,0,0.6-0.1,0.9-0.2
			c0.3-0.1,0.5-0.3,0.7-0.5c0.2-0.2,0.3-0.5,0.3-0.9c0-0.5-0.2-0.9-0.5-1.1c-0.4-0.2-0.8-0.5-1.4-0.6c-0.6-0.2-1.1-0.3-1.8-0.4
			c-0.6-0.1-1.2-0.3-1.8-0.5c-0.6-0.2-1-0.5-1.4-1c-0.4-0.4-0.6-1-0.6-1.7c0-0.6,0.1-1.1,0.4-1.5c0.3-0.4,0.6-0.7,1-1
			s0.9-0.4,1.4-0.6c0.5-0.1,1-0.2,1.5-0.2c0.6,0,1.2,0.1,1.8,0.2c0.5,0.1,1,0.3,1.4,0.6c0.4,0.3,0.8,0.6,1,1.1
			c0.2,0.5,0.4,1,0.4,1.7h-1.9c0-0.4-0.1-0.7-0.3-0.9c-0.2-0.2-0.4-0.4-0.6-0.6c-0.2-0.1-0.5-0.3-0.8-0.3c-0.3-0.1-0.6-0.1-0.9-0.1
			c-0.3,0-0.6,0-0.8,0.1s-0.5,0.1-0.8,0.2c-0.2,0.1-0.4,0.3-0.6,0.4c-0.1,0.2-0.2,0.4-0.2,0.7c0,0.3,0.1,0.6,0.3,0.8
			c0.2,0.2,0.5,0.4,0.9,0.5c0.4,0.1,0.7,0.3,1.2,0.4c0.4,0.1,0.9,0.2,1.3,0.3c0.5,0.1,0.9,0.2,1.4,0.4c0.4,0.1,0.8,0.3,1.2,0.6
			c0.3,0.2,0.6,0.5,0.8,0.9c0.2,0.4,0.3,0.8,0.3,1.4c0,0.7-0.1,1.3-0.4,1.7c-0.3,0.5-0.7,0.8-1.1,1.1s-1,0.5-1.6,0.6
			c-0.6,0.1-1.2,0.2-1.7,0.2c-0.6,0-1.2-0.1-1.8-0.2c-0.6-0.1-1.1-0.3-1.5-0.6c-0.4-0.3-0.8-0.7-1.1-1.2s-0.4-1.1-0.4-1.8h1.9
			C90.5,216.5,90.5,216.9,90.7,217.2z"/>
		<path d="M107.1,210.3c-0.5-0.4-1.1-0.6-1.9-0.6c-0.7,0-1.2,0.1-1.7,0.4c-0.5,0.2-0.8,0.6-1.1,1c-0.3,0.4-0.5,0.9-0.6,1.4
			c-0.1,0.5-0.2,1.1-0.2,1.7c0,0.5,0.1,1,0.2,1.5c0.1,0.5,0.3,0.9,0.6,1.3s0.6,0.7,1,0.9c0.4,0.2,0.9,0.4,1.5,0.4
			c0.9,0,1.6-0.2,2.2-0.7c0.5-0.5,0.8-1.2,1-2h1.9c-0.2,1.4-0.7,2.5-1.6,3.3c-0.8,0.8-2,1.1-3.4,1.1c-0.9,0-1.6-0.1-2.3-0.4
			s-1.2-0.7-1.7-1.2c-0.4-0.5-0.8-1.1-1-1.8c-0.2-0.7-0.3-1.5-0.3-2.3s0.1-1.6,0.3-2.4c0.2-0.7,0.6-1.4,1-1.9c0.4-0.5,1-1,1.7-1.3
			c0.7-0.3,1.5-0.5,2.4-0.5c0.6,0,1.2,0.1,1.8,0.2c0.6,0.2,1.1,0.4,1.5,0.7c0.4,0.3,0.8,0.7,1.1,1.2c0.3,0.5,0.5,1.1,0.5,1.7H108
			C107.9,211.3,107.6,210.7,107.1,210.3z"/>
		<path d="M112.2,206.3V204h1.9v2.3H112.2z M114.1,208.3v11.4h-1.9v-11.4H114.1z"/>
		<path d="M118.7,208.3v1.8h0c0.8-1.4,2-2.1,3.7-2.1c0.7,0,1.4,0.1,1.9,0.3c0.5,0.2,0.9,0.5,1.2,0.9c0.3,0.4,0.5,0.8,0.6,1.3
			c0.1,0.5,0.2,1.1,0.2,1.7v7.5h-1.9V212c0-0.7-0.2-1.3-0.6-1.7c-0.4-0.4-1-0.6-1.7-0.6c-0.6,0-1.1,0.1-1.5,0.3
			c-0.4,0.2-0.8,0.4-1,0.7c-0.3,0.3-0.5,0.7-0.6,1.1s-0.2,0.9-0.2,1.4v6.4H117v-11.4H118.7z"/>
		<path d="M137.8,222.9c-0.9,0.9-2.2,1.4-4,1.4c-0.5,0-1.1-0.1-1.6-0.2c-0.6-0.1-1-0.3-1.5-0.6c-0.4-0.3-0.8-0.6-1.1-1
			c-0.3-0.4-0.5-0.9-0.5-1.6h1.9c0,0.3,0.1,0.6,0.3,0.9c0.2,0.2,0.4,0.4,0.7,0.6s0.6,0.3,0.9,0.3s0.7,0.1,1,0.1
			c0.6,0,1.1-0.1,1.6-0.3c0.4-0.2,0.8-0.5,1.1-0.9c0.3-0.4,0.5-0.8,0.6-1.4c0.1-0.5,0.2-1.1,0.2-1.7v-0.7h0
			c-0.3,0.7-0.8,1.2-1.5,1.6c-0.7,0.3-1.3,0.5-2.1,0.5c-0.9,0-1.6-0.2-2.2-0.5c-0.6-0.3-1.2-0.7-1.6-1.2s-0.7-1.1-1-1.8
			s-0.3-1.4-0.3-2.2c0-0.7,0.1-1.4,0.3-2.1c0.2-0.7,0.5-1.4,0.9-1.9c0.4-0.6,1-1.1,1.6-1.4c0.7-0.4,1.5-0.6,2.5-0.6
			c0.7,0,1.4,0.2,2,0.5s1.1,0.8,1.4,1.4h0v-1.6h1.8v10.4C139,220.6,138.6,222,137.8,222.9z M135.4,217.8c0.4-0.3,0.8-0.6,1-1
			s0.5-0.9,0.6-1.4c0.1-0.5,0.2-1.1,0.2-1.6c0-0.5-0.1-1-0.2-1.5c-0.1-0.5-0.3-0.9-0.6-1.3c-0.3-0.4-0.6-0.7-1-0.9s-0.9-0.4-1.5-0.4
			c-0.6,0-1.1,0.1-1.5,0.3c-0.4,0.2-0.8,0.5-1,0.9c-0.3,0.4-0.5,0.8-0.6,1.3c-0.1,0.5-0.2,1-0.2,1.6c0,0.5,0.1,1,0.2,1.5
			c0.1,0.5,0.3,1,0.5,1.4c0.2,0.4,0.6,0.8,1,1c0.4,0.3,0.9,0.4,1.5,0.4C134.4,218.2,134.9,218.1,135.4,217.8z"/>
		<path d="M156,219c-0.9,0.6-1.9,1-3.2,1c-0.9,0-1.7-0.1-2.4-0.4c-0.7-0.3-1.2-0.7-1.7-1.2c-0.5-0.5-0.8-1.2-1-1.9s-0.4-1.5-0.4-2.4
			c0-0.9,0.1-1.7,0.4-2.4s0.6-1.3,1.1-1.9c0.5-0.5,1-0.9,1.7-1.2c0.7-0.3,1.4-0.4,2.1-0.4c1,0,1.9,0.2,2.5,0.6
			c0.7,0.4,1.2,0.9,1.6,1.6c0.4,0.6,0.7,1.3,0.8,2.1c0.2,0.8,0.2,1.5,0.2,2.2h-8.5c0,0.5,0,1,0.2,1.4c0.1,0.4,0.3,0.8,0.6,1.2
			s0.7,0.6,1.1,0.8c0.5,0.2,1,0.3,1.6,0.3c0.8,0,1.4-0.2,1.9-0.5c0.5-0.4,0.8-0.9,1-1.7h1.8C157.4,217.4,156.9,218.3,156,219z
			 M155.6,211.7c-0.2-0.4-0.4-0.7-0.7-1c-0.3-0.3-0.6-0.5-1-0.7c-0.4-0.2-0.8-0.3-1.3-0.3c-0.5,0-0.9,0.1-1.3,0.3
			c-0.4,0.2-0.7,0.4-1,0.7c-0.3,0.3-0.5,0.6-0.7,1c-0.2,0.4-0.3,0.8-0.3,1.2h6.5C155.8,212.5,155.7,212.1,155.6,211.7z"/>
		<path d="M161.8,204v15.7h-1.9V204H161.8z"/>
		<path d="M164.8,206.3V204h1.9v2.3H164.8z M166.6,208.3v11.4h-1.9v-11.4H166.6z"/>
		<path d="M174.4,208.3v1.7h-2.3v7.1c0,0.2,0,0.4,0.1,0.5c0,0.1,0.1,0.2,0.2,0.3c0.1,0.1,0.2,0.1,0.4,0.1c0.2,0,0.4,0,0.7,0h0.9v1.7
			H173c-0.5,0-0.9,0-1.2-0.1c-0.3-0.1-0.6-0.2-0.8-0.4c-0.2-0.2-0.4-0.4-0.5-0.7c-0.1-0.3-0.2-0.7-0.2-1.3V210h-1.9v-1.7h1.9v-3.4
			h1.9v3.4H174.4z"/>
		<path d="M179.3,217.3v2.2c0,0.8-0.2,1.6-0.6,2.2s-1,1-1.8,1.3v-1.1c0.2-0.1,0.5-0.2,0.6-0.4c0.2-0.2,0.3-0.4,0.4-0.5
			s0.2-0.4,0.2-0.6c0-0.2,0-0.4,0-0.6h-1.3v-2.4H179.3z"/>
		<path d="M190.1,217.2c0.2,0.3,0.4,0.5,0.7,0.7c0.3,0.2,0.6,0.3,1,0.4s0.7,0.1,1.1,0.1c0.3,0,0.6,0,0.9-0.1c0.3,0,0.6-0.1,0.9-0.2
			c0.3-0.1,0.5-0.3,0.7-0.5c0.2-0.2,0.3-0.5,0.3-0.9c0-0.5-0.2-0.9-0.5-1.1c-0.4-0.2-0.8-0.5-1.4-0.6c-0.6-0.2-1.1-0.3-1.8-0.4
			c-0.6-0.1-1.2-0.3-1.8-0.5c-0.6-0.2-1-0.5-1.4-1c-0.4-0.4-0.6-1-0.6-1.7c0-0.6,0.1-1.1,0.4-1.5c0.3-0.4,0.6-0.7,1-1
			s0.9-0.4,1.4-0.6c0.5-0.1,1-0.2,1.5-0.2c0.6,0,1.2,0.1,1.8,0.2c0.5,0.1,1,0.3,1.4,0.6c0.4,0.3,0.8,0.6,1,1.1
			c0.2,0.5,0.4,1,0.4,1.7h-1.9c0-0.4-0.1-0.7-0.3-0.9c-0.2-0.2-0.4-0.4-0.6-0.6c-0.2-0.1-0.5-0.3-0.8-0.3c-0.3-0.1-0.6-0.1-0.9-0.1
			c-0.3,0-0.6,0-0.8,0.1s-0.5,0.1-0.8,0.2c-0.2,0.1-0.4,0.3-0.6,0.4c-0.1,0.2-0.2,0.4-0.2,0.7c0,0.3,0.1,0.6,0.3,0.8
			c0.2,0.2,0.5,0.4,0.9,0.5c0.4,0.1,0.7,0.3,1.2,0.4c0.4,0.1,0.9,0.2,1.3,0.3c0.5,0.1,0.9,0.2,1.4,0.4c0.4,0.1,0.8,0.3,1.2,0.6
			c0.3,0.2,0.6,0.5,0.8,0.9c0.2,0.4,0.3,0.8,0.3,1.4c0,0.7-0.1,1.3-0.4,1.7c-0.3,0.5-0.7,0.8-1.1,1.1s-1,0.5-1.6,0.6
			c-0.6,0.1-1.2,0.2-1.7,0.2c-0.6,0-1.2-0.1-1.8-0.2c-0.6-0.1-1.1-0.3-1.5-0.6c-0.4-0.3-0.8-0.7-1.1-1.2s-0.4-1.1-0.4-1.8h1.9
			C189.9,216.5,190,216.9,190.1,217.2z"/>
		<path d="M207.8,219c-0.9,0.6-1.9,1-3.2,1c-0.9,0-1.7-0.1-2.4-0.4c-0.7-0.3-1.2-0.7-1.7-1.2c-0.5-0.5-0.8-1.2-1-1.9
			s-0.4-1.5-0.4-2.4c0-0.9,0.1-1.7,0.4-2.4s0.6-1.3,1.1-1.9c0.5-0.5,1-0.9,1.7-1.2c0.7-0.3,1.4-0.4,2.1-0.4c1,0,1.9,0.2,2.5,0.6
			c0.7,0.4,1.2,0.9,1.6,1.6c0.4,0.6,0.7,1.3,0.8,2.1c0.2,0.8,0.2,1.5,0.2,2.2h-8.5c0,0.5,0,1,0.2,1.4c0.1,0.4,0.3,0.8,0.6,1.2
			s0.7,0.6,1.1,0.8c0.5,0.2,1,0.3,1.6,0.3c0.8,0,1.4-0.2,1.9-0.5c0.5-0.4,0.8-0.9,1-1.7h1.8C209.2,217.4,208.6,218.3,207.8,219z
			 M207.3,211.7c-0.2-0.4-0.4-0.7-0.7-1c-0.3-0.3-0.6-0.5-1-0.7c-0.4-0.2-0.8-0.3-1.3-0.3c-0.5,0-0.9,0.1-1.3,0.3
			c-0.4,0.2-0.7,0.4-1,0.7c-0.3,0.3-0.5,0.6-0.7,1c-0.2,0.4-0.3,0.8-0.3,1.2h6.5C207.6,212.5,207.5,212.1,207.3,211.7z"/>
		<path d="M219.8,219.7v-1.5h0c-0.3,0.6-0.8,1.1-1.5,1.4s-1.4,0.4-2.2,0.4c-0.9,0-1.6-0.2-2.3-0.5c-0.7-0.3-1.2-0.8-1.6-1.3
			c-0.4-0.5-0.8-1.2-1-1.9c-0.2-0.7-0.3-1.5-0.3-2.3s0.1-1.6,0.3-2.3s0.5-1.3,1-1.9c0.4-0.5,1-1,1.6-1.3c0.7-0.3,1.4-0.5,2.3-0.5
			c0.3,0,0.6,0,0.9,0.1c0.3,0.1,0.7,0.2,1,0.3s0.7,0.3,1,0.5c0.3,0.2,0.6,0.5,0.8,0.8h0V204h1.9v15.7H219.8z M213.1,215.7
			c0.1,0.5,0.4,1,0.6,1.4c0.3,0.4,0.7,0.7,1.1,0.9c0.4,0.2,1,0.4,1.6,0.4c0.6,0,1.2-0.1,1.6-0.4s0.8-0.6,1.1-1
			c0.3-0.4,0.5-0.9,0.6-1.4c0.1-0.5,0.2-1,0.2-1.6c0-0.6-0.1-1.1-0.2-1.6c-0.1-0.5-0.3-1-0.6-1.4c-0.3-0.4-0.7-0.7-1.1-1
			s-1-0.4-1.6-0.4c-0.6,0-1.2,0.1-1.6,0.4c-0.4,0.2-0.8,0.6-1.1,1c-0.3,0.4-0.5,0.9-0.6,1.4c-0.1,0.5-0.2,1.1-0.2,1.6
			C212.9,214.6,213,215.2,213.1,215.7z"/>
		<path d="M239,219.7v-1.5h0c-0.3,0.6-0.8,1.1-1.5,1.4s-1.4,0.4-2.2,0.4c-0.9,0-1.6-0.2-2.3-0.5c-0.7-0.3-1.2-0.8-1.6-1.3
			c-0.4-0.5-0.8-1.2-1-1.9c-0.2-0.7-0.3-1.5-0.3-2.3s0.1-1.6,0.3-2.3s0.5-1.3,1-1.9c0.4-0.5,1-1,1.6-1.3c0.7-0.3,1.4-0.5,2.3-0.5
			c0.3,0,0.6,0,0.9,0.1c0.3,0.1,0.7,0.2,1,0.3c0.3,0.1,0.7,0.3,1,0.5c0.3,0.2,0.6,0.5,0.8,0.8h0V204h1.9v15.7H239z M232.3,215.7
			c0.1,0.5,0.4,1,0.6,1.4c0.3,0.4,0.7,0.7,1.1,0.9c0.4,0.2,1,0.4,1.6,0.4c0.6,0,1.2-0.1,1.6-0.4c0.4-0.2,0.8-0.6,1.1-1
			c0.3-0.4,0.5-0.9,0.6-1.4c0.1-0.5,0.2-1,0.2-1.6c0-0.6-0.1-1.1-0.2-1.6s-0.3-1-0.6-1.4c-0.3-0.4-0.7-0.7-1.1-1
			c-0.5-0.2-1-0.4-1.7-0.4c-0.6,0-1.2,0.1-1.6,0.4c-0.4,0.2-0.8,0.6-1.1,1c-0.3,0.4-0.5,0.9-0.6,1.4c-0.1,0.5-0.2,1.1-0.2,1.6
			C232,214.6,232.1,215.2,232.3,215.7z"/>
		<path d="M243.8,206.3V204h1.9v2.3H243.8z M245.7,208.3v11.4h-1.9v-11.4H245.7z"/>
		<path d="M258.7,219.7c-0.3,0.2-0.8,0.3-1.3,0.3c-0.5,0-0.9-0.1-1.2-0.4s-0.4-0.7-0.4-1.3c-0.5,0.6-1.1,1.1-1.8,1.3
			c-0.7,0.3-1.4,0.4-2.2,0.4c-0.5,0-1-0.1-1.5-0.2s-0.9-0.3-1.2-0.6c-0.3-0.2-0.6-0.6-0.8-1s-0.3-0.9-0.3-1.5c0-0.6,0.1-1.2,0.3-1.6
			c0.2-0.4,0.5-0.7,0.9-1s0.8-0.5,1.2-0.6s0.9-0.2,1.4-0.3c0.5-0.1,1-0.2,1.5-0.2c0.5-0.1,0.9-0.1,1.2-0.2c0.4-0.1,0.6-0.2,0.8-0.4
			c0.2-0.2,0.3-0.5,0.3-0.8c0-0.4-0.1-0.7-0.2-1c-0.2-0.2-0.4-0.4-0.6-0.6c-0.2-0.1-0.5-0.2-0.8-0.3s-0.6-0.1-0.9-0.1
			c-0.8,0-1.5,0.2-2,0.5s-0.8,0.9-0.9,1.7h-1.9c0-0.7,0.2-1.3,0.4-1.8c0.3-0.5,0.6-0.9,1.1-1.2c0.4-0.3,0.9-0.5,1.5-0.6
			c0.6-0.1,1.2-0.2,1.8-0.2c0.5,0,1,0,1.5,0.1s1,0.2,1.4,0.5c0.4,0.2,0.7,0.5,1,1c0.2,0.4,0.4,0.9,0.4,1.6v5.8c0,0.4,0,0.8,0.1,1
			c0.1,0.2,0.2,0.3,0.5,0.3c0.2,0,0.4,0,0.6-0.1V219.7z M255.7,213.8c-0.2,0.2-0.5,0.3-0.9,0.4c-0.4,0.1-0.8,0.1-1.2,0.2
			c-0.4,0.1-0.8,0.1-1.3,0.2c-0.4,0.1-0.8,0.2-1.1,0.3c-0.3,0.1-0.6,0.4-0.8,0.6c-0.2,0.3-0.3,0.6-0.3,1.1c0,0.3,0.1,0.6,0.2,0.8
			c0.1,0.2,0.3,0.4,0.5,0.5c0.2,0.1,0.4,0.2,0.7,0.3c0.3,0.1,0.5,0.1,0.8,0.1c0.6,0,1.1-0.1,1.6-0.3c0.4-0.2,0.8-0.4,1.1-0.6
			c0.3-0.3,0.5-0.5,0.6-0.8c0.1-0.3,0.2-0.6,0.2-0.8V213.8z"/>
		<path d="M262.2,208.3v1.7h0c0.9-1.3,2.1-1.9,3.7-1.9c0.7,0,1.3,0.1,1.9,0.4c0.6,0.3,1,0.8,1.2,1.5c0.4-0.6,0.9-1.1,1.5-1.4
			c0.6-0.3,1.3-0.5,2.1-0.5c0.6,0,1.1,0.1,1.6,0.2c0.5,0.1,0.9,0.3,1.2,0.6c0.3,0.3,0.6,0.6,0.8,1s0.3,0.9,0.3,1.5v8.3h-1.9v-7.5
			c0-0.4,0-0.7-0.1-1c-0.1-0.3-0.2-0.6-0.3-0.8c-0.2-0.2-0.4-0.4-0.7-0.5c-0.3-0.1-0.7-0.2-1.1-0.2c-0.9,0-1.7,0.3-2.2,0.8
			c-0.5,0.5-0.8,1.2-0.8,2.1v7.1h-1.9v-7.5c0-0.4,0-0.7-0.1-1c-0.1-0.3-0.2-0.6-0.3-0.8c-0.2-0.2-0.4-0.4-0.6-0.5
			c-0.3-0.1-0.6-0.2-1-0.2c-0.5,0-1,0.1-1.4,0.3s-0.7,0.5-0.9,0.8c-0.2,0.3-0.4,0.6-0.5,1c-0.1,0.3-0.2,0.6-0.2,0.8v7.1h-1.9v-11.4
			H262.2z"/>
		<path d="M287.1,208.3v1.8h0c0.8-1.4,2-2.1,3.7-2.1c0.7,0,1.4,0.1,1.9,0.3c0.5,0.2,0.9,0.5,1.2,0.9c0.3,0.4,0.5,0.8,0.6,1.3
			c0.1,0.5,0.2,1.1,0.2,1.7v7.5h-1.9V212c0-0.7-0.2-1.3-0.6-1.7c-0.4-0.4-1-0.6-1.7-0.6c-0.6,0-1.1,0.1-1.5,0.3
			c-0.4,0.2-0.8,0.4-1,0.7c-0.3,0.3-0.5,0.7-0.6,1.1c-0.1,0.4-0.2,0.9-0.2,1.4v6.4h-1.9v-11.4H287.1z"/>
		<path d="M297.7,206.3V204h1.9v2.3H297.7z M299.5,208.3v11.4h-1.9v-11.4H299.5z"/>
		<path d="M304.4,204v5.9h0c0.3-0.6,0.8-1.1,1.5-1.4s1.4-0.4,2.2-0.4c0.9,0,1.6,0.2,2.3,0.5c0.7,0.3,1.2,0.8,1.6,1.3
			c0.4,0.5,0.8,1.2,1,1.9c0.2,0.7,0.3,1.5,0.3,2.3c0,0.8-0.1,1.6-0.3,2.3c-0.2,0.7-0.5,1.3-1,1.9c-0.4,0.5-1,1-1.6,1.3
			c-0.7,0.3-1.4,0.5-2.3,0.5c-0.3,0-0.6,0-0.9-0.1s-0.7-0.2-1-0.3c-0.3-0.1-0.7-0.3-1-0.5c-0.3-0.2-0.6-0.5-0.8-0.8h0v1.5h-1.9V204
			H304.4z M311.1,212.4c-0.1-0.5-0.4-1-0.6-1.4c-0.3-0.4-0.7-0.7-1.1-0.9s-1-0.4-1.6-0.4c-0.6,0-1.2,0.1-1.6,0.4
			c-0.4,0.2-0.8,0.6-1.1,1c-0.3,0.4-0.5,0.9-0.6,1.4s-0.2,1-0.2,1.6c0,0.6,0.1,1.1,0.2,1.6c0.1,0.5,0.3,1,0.6,1.4
			c0.3,0.4,0.7,0.7,1.1,1c0.5,0.2,1,0.4,1.7,0.4c0.6,0,1.2-0.1,1.6-0.4c0.4-0.2,0.8-0.6,1-1c0.3-0.4,0.5-0.9,0.6-1.4
			c0.1-0.5,0.2-1.1,0.2-1.6C311.3,213.4,311.2,212.9,311.1,212.4z"/>
		<path d="M317.3,204v6h0c0.1-0.4,0.4-0.6,0.6-0.9c0.3-0.2,0.6-0.4,0.9-0.6c0.3-0.2,0.7-0.3,1-0.3c0.4-0.1,0.7-0.1,1-0.1
			c0.7,0,1.4,0.1,1.9,0.3c0.5,0.2,0.9,0.5,1.2,0.9c0.3,0.4,0.5,0.8,0.6,1.3c0.1,0.5,0.2,1.1,0.2,1.7v7.5H323V212
			c0-0.7-0.2-1.3-0.6-1.7c-0.4-0.4-1-0.6-1.7-0.6c-0.6,0-1.1,0.1-1.5,0.3c-0.4,0.2-0.8,0.4-1,0.7c-0.3,0.3-0.5,0.7-0.6,1.1
			c-0.1,0.4-0.2,0.9-0.2,1.4v6.4h-1.9V204H317.3z"/>
		<path d="M341.9,219c-0.9,0.6-1.9,1-3.2,1c-0.9,0-1.7-0.1-2.4-0.4c-0.7-0.3-1.2-0.7-1.7-1.2c-0.5-0.5-0.8-1.2-1-1.9
			s-0.4-1.5-0.4-2.4c0-0.9,0.1-1.7,0.4-2.4c0.3-0.7,0.6-1.3,1.1-1.9c0.5-0.5,1-0.9,1.7-1.2c0.7-0.3,1.4-0.4,2.1-0.4
			c1,0,1.9,0.2,2.5,0.6c0.7,0.4,1.2,0.9,1.6,1.6s0.7,1.3,0.8,2.1c0.2,0.8,0.2,1.5,0.2,2.2h-8.5c0,0.5,0,1,0.2,1.4s0.3,0.8,0.6,1.2
			c0.3,0.3,0.7,0.6,1.1,0.8c0.5,0.2,1,0.3,1.6,0.3c0.8,0,1.4-0.2,1.9-0.5c0.5-0.4,0.8-0.9,1-1.7h1.8
			C343.3,217.4,342.7,218.3,341.9,219z M341.4,211.7c-0.2-0.4-0.4-0.7-0.7-1s-0.6-0.5-1-0.7c-0.4-0.2-0.8-0.3-1.3-0.3
			c-0.5,0-0.9,0.1-1.3,0.3c-0.4,0.2-0.7,0.4-1,0.7c-0.3,0.3-0.5,0.6-0.7,1s-0.3,0.8-0.3,1.2h6.5
			C341.7,212.5,341.6,212.1,341.4,211.7z"/>
		<path d="M353.3,219.7v-1.8h0c-0.4,0.7-0.9,1.2-1.5,1.6s-1.3,0.5-2.2,0.5c-0.7,0-1.4-0.1-1.9-0.3c-0.5-0.2-0.9-0.5-1.2-0.8
			c-0.3-0.4-0.5-0.8-0.6-1.3c-0.1-0.5-0.2-1.1-0.2-1.7v-7.5h1.9v7.7c0,0.7,0.2,1.3,0.6,1.7c0.4,0.4,1,0.6,1.7,0.6
			c0.6,0,1.1-0.1,1.5-0.3c0.4-0.2,0.8-0.4,1-0.7c0.3-0.3,0.5-0.7,0.6-1.1c0.1-0.4,0.2-0.9,0.2-1.4v-6.4h1.9v11.4H353.3z"/>
		<path d="M358,206.3V204h1.9v2.3H358z M359.8,208.3v11.4H358v-11.4H359.8z"/>
		<path d="M364.2,217.2c0.2,0.3,0.4,0.5,0.7,0.7c0.3,0.2,0.6,0.3,1,0.4s0.7,0.1,1.1,0.1c0.3,0,0.6,0,0.9-0.1c0.3,0,0.6-0.1,0.9-0.2
			c0.3-0.1,0.5-0.3,0.7-0.5c0.2-0.2,0.3-0.5,0.3-0.9c0-0.5-0.2-0.9-0.6-1.1c-0.4-0.2-0.8-0.5-1.4-0.6c-0.5-0.2-1.1-0.3-1.8-0.4
			c-0.6-0.1-1.2-0.3-1.8-0.5c-0.5-0.2-1-0.5-1.4-1c-0.4-0.4-0.5-1-0.5-1.7c0-0.6,0.1-1.1,0.4-1.5c0.3-0.4,0.6-0.7,1-1
			s0.9-0.4,1.4-0.6c0.5-0.1,1-0.2,1.5-0.2c0.6,0,1.2,0.1,1.8,0.2c0.5,0.1,1,0.3,1.4,0.6c0.4,0.3,0.8,0.6,1,1.1
			c0.2,0.5,0.4,1,0.4,1.7h-1.9c0-0.4-0.1-0.7-0.3-0.9c-0.2-0.2-0.4-0.4-0.6-0.6c-0.2-0.1-0.5-0.3-0.8-0.3c-0.3-0.1-0.6-0.1-0.9-0.1
			c-0.3,0-0.6,0-0.8,0.1c-0.3,0-0.5,0.1-0.8,0.2c-0.2,0.1-0.4,0.3-0.6,0.4s-0.2,0.4-0.2,0.7c0,0.3,0.1,0.6,0.3,0.8
			c0.2,0.2,0.5,0.4,0.9,0.5c0.4,0.1,0.7,0.3,1.2,0.4c0.4,0.1,0.9,0.2,1.3,0.3c0.5,0.1,0.9,0.2,1.4,0.4s0.8,0.3,1.2,0.6
			c0.3,0.2,0.6,0.5,0.8,0.9c0.2,0.4,0.3,0.8,0.3,1.4c0,0.7-0.1,1.3-0.4,1.7c-0.3,0.5-0.7,0.8-1.1,1.1s-1,0.5-1.6,0.6
			c-0.6,0.1-1.2,0.2-1.7,0.2c-0.6,0-1.2-0.1-1.8-0.2c-0.6-0.1-1.1-0.3-1.5-0.6c-0.4-0.3-0.8-0.7-1.1-1.2s-0.4-1.1-0.4-1.8h1.9
			C363.9,216.5,364,216.9,364.2,217.2z"/>
		<path d="M375.5,208.3v1.7h0c0.9-1.3,2.1-1.9,3.7-1.9c0.7,0,1.3,0.1,1.9,0.4c0.6,0.3,1,0.8,1.2,1.5c0.4-0.6,0.9-1.1,1.5-1.4
			c0.6-0.3,1.3-0.5,2.1-0.5c0.6,0,1.1,0.1,1.6,0.2c0.5,0.1,0.9,0.3,1.2,0.6c0.3,0.3,0.6,0.6,0.8,1s0.3,0.9,0.3,1.5v8.3h-1.9v-7.5
			c0-0.4,0-0.7-0.1-1c-0.1-0.3-0.2-0.6-0.3-0.8c-0.2-0.2-0.4-0.4-0.7-0.5c-0.3-0.1-0.7-0.2-1.1-0.2c-0.9,0-1.7,0.3-2.2,0.8
			c-0.5,0.5-0.8,1.2-0.8,2.1v7.1h-1.9v-7.5c0-0.4,0-0.7-0.1-1c-0.1-0.3-0.2-0.6-0.3-0.8c-0.2-0.2-0.4-0.4-0.6-0.5
			c-0.3-0.1-0.6-0.2-1-0.2c-0.5,0-1,0.1-1.4,0.3s-0.7,0.5-0.9,0.8c-0.2,0.3-0.4,0.6-0.5,1c-0.1,0.3-0.2,0.6-0.2,0.8v7.1h-1.9v-11.4
			H375.5z"/>
		<path d="M392.3,211.7c0.2-0.7,0.6-1.4,1.1-1.9c0.5-0.5,1-1,1.7-1.3c0.7-0.3,1.5-0.5,2.4-0.5c0.9,0,1.7,0.2,2.4,0.5
			c0.7,0.3,1.3,0.7,1.7,1.3c0.5,0.5,0.8,1.2,1.1,1.9c0.2,0.7,0.4,1.5,0.4,2.3s-0.1,1.6-0.4,2.3c-0.2,0.7-0.6,1.3-1.1,1.9
			s-1,1-1.7,1.3c-0.7,0.3-1.5,0.5-2.4,0.5c-0.9,0-1.7-0.2-2.4-0.5c-0.7-0.3-1.3-0.7-1.7-1.3c-0.5-0.5-0.8-1.2-1.1-1.9
			c-0.2-0.7-0.4-1.5-0.4-2.3S392,212.4,392.3,211.7z M394.2,215.9c0.2,0.5,0.4,1,0.8,1.3c0.3,0.4,0.7,0.6,1.1,0.8
			c0.4,0.2,0.9,0.3,1.4,0.3c0.5,0,0.9-0.1,1.4-0.3c0.4-0.2,0.8-0.5,1.1-0.8c0.3-0.4,0.6-0.8,0.8-1.3s0.3-1.1,0.3-1.8
			s-0.1-1.3-0.3-1.8s-0.4-1-0.8-1.4c-0.3-0.4-0.7-0.6-1.1-0.8c-0.4-0.2-0.9-0.3-1.4-0.3c-0.5,0-0.9,0.1-1.4,0.3
			c-0.4,0.2-0.8,0.5-1.1,0.8c-0.3,0.4-0.6,0.8-0.8,1.4s-0.3,1.1-0.3,1.8S394,215.3,394.2,215.9z"/>
		<path d="M413.4,219.7v-1.5h0c-0.3,0.6-0.8,1.1-1.5,1.4s-1.4,0.4-2.2,0.4c-0.9,0-1.6-0.2-2.3-0.5c-0.7-0.3-1.2-0.8-1.6-1.3
			c-0.4-0.5-0.8-1.2-1-1.9s-0.3-1.5-0.3-2.3s0.1-1.6,0.3-2.3c0.2-0.7,0.5-1.3,1-1.9s1-1,1.6-1.3s1.4-0.5,2.3-0.5
			c0.3,0,0.6,0,0.9,0.1c0.3,0.1,0.7,0.2,1,0.3c0.3,0.1,0.7,0.3,1,0.5c0.3,0.2,0.6,0.5,0.8,0.8h0V204h1.9v15.7H413.4z M406.7,215.7
			c0.1,0.5,0.4,1,0.6,1.4c0.3,0.4,0.7,0.7,1.1,0.9c0.4,0.2,1,0.4,1.6,0.4c0.6,0,1.2-0.1,1.6-0.4c0.4-0.2,0.8-0.6,1.1-1
			c0.3-0.4,0.5-0.9,0.6-1.4c0.1-0.5,0.2-1,0.2-1.6c0-0.6-0.1-1.1-0.2-1.6s-0.3-1-0.6-1.4c-0.3-0.4-0.7-0.7-1.1-1
			c-0.5-0.2-1-0.4-1.7-0.4c-0.6,0-1.2,0.1-1.6,0.4c-0.4,0.2-0.8,0.6-1.1,1c-0.3,0.4-0.5,0.9-0.6,1.4c-0.1,0.5-0.2,1.1-0.2,1.6
			C406.5,214.6,406.6,215.2,406.7,215.7z"/>
		<path d="M429.2,208.3v1.7h-2.3v7.1c0,0.2,0,0.4,0.1,0.5c0,0.1,0.1,0.2,0.2,0.3c0.1,0.1,0.2,0.1,0.4,0.1c0.2,0,0.4,0,0.7,0h0.9v1.7
			h-1.4c-0.5,0-0.9,0-1.2-0.1c-0.3-0.1-0.6-0.2-0.8-0.4s-0.4-0.4-0.5-0.7s-0.2-0.7-0.2-1.3V210h-1.9v-1.7h1.9v-3.4h1.9v3.4H429.2z"
			/>
		<path d="M431.3,206.3V204h1.9v2.3H431.3z M433.2,208.3v11.4h-1.9v-11.4H433.2z"/>
		<path d="M437.9,208.3v1.8h0c0.8-1.4,2-2.1,3.7-2.1c0.7,0,1.4,0.1,1.9,0.3c0.5,0.2,0.9,0.5,1.2,0.9c0.3,0.4,0.5,0.8,0.6,1.3
			c0.1,0.5,0.2,1.1,0.2,1.7v7.5h-1.9V212c0-0.7-0.2-1.3-0.6-1.7c-0.4-0.4-1-0.6-1.7-0.6c-0.6,0-1.1,0.1-1.5,0.3
			c-0.4,0.2-0.8,0.4-1,0.7c-0.3,0.3-0.5,0.7-0.6,1.1c-0.1,0.4-0.2,0.9-0.2,1.4v6.4h-1.9v-11.4H437.9z"/>
		<path d="M455.1,210.3c-0.5-0.4-1.1-0.6-1.9-0.6c-0.7,0-1.2,0.1-1.7,0.4c-0.5,0.2-0.8,0.6-1.1,1c-0.3,0.4-0.5,0.9-0.6,1.4
			c-0.1,0.5-0.2,1.1-0.2,1.7c0,0.5,0.1,1,0.2,1.5c0.1,0.5,0.3,0.9,0.6,1.3s0.6,0.7,1,0.9c0.4,0.2,0.9,0.4,1.5,0.4
			c0.9,0,1.6-0.2,2.2-0.7c0.5-0.5,0.8-1.2,1-2h1.9c-0.2,1.4-0.7,2.5-1.6,3.3c-0.8,0.8-2,1.1-3.4,1.1c-0.9,0-1.6-0.1-2.3-0.4
			c-0.7-0.3-1.2-0.7-1.7-1.2c-0.4-0.5-0.8-1.1-1-1.8c-0.2-0.7-0.3-1.5-0.3-2.3s0.1-1.6,0.3-2.4c0.2-0.7,0.6-1.4,1-1.9s1-1,1.7-1.3
			s1.5-0.5,2.4-0.5c0.6,0,1.2,0.1,1.8,0.2c0.6,0.2,1.1,0.4,1.5,0.7c0.4,0.3,0.8,0.7,1.1,1.2c0.3,0.5,0.5,1.1,0.5,1.7h-1.9
			C455.9,211.3,455.6,210.7,455.1,210.3z"/>
		<path d="M460.3,206.3V204h1.9v2.3H460.3z M462.1,208.3v11.4h-1.9v-11.4H462.1z"/>
		<path d="M473.3,219.7v-1.5h0c-0.3,0.6-0.8,1.1-1.5,1.4s-1.4,0.4-2.2,0.4c-0.9,0-1.6-0.2-2.3-0.5c-0.7-0.3-1.2-0.8-1.6-1.3
			c-0.4-0.5-0.8-1.2-1-1.9s-0.3-1.5-0.3-2.3s0.1-1.6,0.3-2.3c0.2-0.7,0.5-1.3,1-1.9s1-1,1.6-1.3s1.4-0.5,2.3-0.5
			c0.3,0,0.6,0,0.9,0.1c0.3,0.1,0.7,0.2,1,0.3c0.3,0.1,0.7,0.3,1,0.5c0.3,0.2,0.6,0.5,0.8,0.8h0V204h1.9v15.7H473.3z M466.6,215.7
			c0.1,0.5,0.4,1,0.6,1.4c0.3,0.4,0.7,0.7,1.1,0.9c0.4,0.2,1,0.4,1.6,0.4c0.6,0,1.2-0.1,1.6-0.4c0.4-0.2,0.8-0.6,1.1-1
			c0.3-0.4,0.5-0.9,0.6-1.4c0.1-0.5,0.2-1,0.2-1.6c0-0.6-0.1-1.1-0.2-1.6s-0.3-1-0.6-1.4c-0.3-0.4-0.7-0.7-1.1-1
			c-0.5-0.2-1-0.4-1.7-0.4c-0.6,0-1.2,0.1-1.6,0.4c-0.4,0.2-0.8,0.6-1.1,1c-0.3,0.4-0.5,0.9-0.6,1.4c-0.1,0.5-0.2,1.1-0.2,1.6
			C466.4,214.6,466.5,215.2,466.6,215.7z"/>
		<path d="M485.8,219.7v-1.8h0c-0.4,0.7-0.9,1.2-1.5,1.6s-1.3,0.5-2.2,0.5c-0.7,0-1.4-0.1-1.9-0.3c-0.5-0.2-0.9-0.5-1.2-0.8
			c-0.3-0.4-0.5-0.8-0.6-1.3c-0.1-0.5-0.2-1.1-0.2-1.7v-7.5h1.9v7.7c0,0.7,0.2,1.3,0.6,1.7c0.4,0.4,1,0.6,1.7,0.6
			c0.6,0,1.1-0.1,1.5-0.3c0.4-0.2,0.8-0.4,1-0.7c0.3-0.3,0.5-0.7,0.6-1.1c0.1-0.4,0.2-0.9,0.2-1.4v-6.4h1.9v11.4H485.8z"/>
		<path d="M492.1,208.3v1.8h0c0.8-1.4,2-2.1,3.7-2.1c0.7,0,1.4,0.1,1.9,0.3c0.5,0.2,0.9,0.5,1.2,0.9c0.3,0.4,0.5,0.8,0.6,1.3
			c0.1,0.5,0.2,1.1,0.2,1.7v7.5h-1.9V212c0-0.7-0.2-1.3-0.6-1.7c-0.4-0.4-1-0.6-1.7-0.6c-0.6,0-1.1,0.1-1.5,0.3
			c-0.4,0.2-0.8,0.4-1,0.7c-0.3,0.3-0.5,0.7-0.6,1.1c-0.1,0.4-0.2,0.9-0.2,1.4v6.4h-1.9v-11.4H492.1z"/>
		<path d="M507.4,208.3v1.7h-2.3v7.1c0,0.2,0,0.4,0.1,0.5c0,0.1,0.1,0.2,0.2,0.3c0.1,0.1,0.2,0.1,0.4,0.1c0.2,0,0.4,0,0.7,0h0.9v1.7
			H506c-0.5,0-0.9,0-1.2-0.1c-0.3-0.1-0.6-0.2-0.8-0.4s-0.4-0.4-0.5-0.7s-0.2-0.7-0.2-1.3V210h-1.9v-1.7h1.9v-3.4h1.9v3.4H507.4z"/>
		<path d="M523.3,219.7v-1.8h0c-0.4,0.7-0.9,1.2-1.5,1.6s-1.3,0.5-2.2,0.5c-0.7,0-1.4-0.1-1.9-0.3c-0.5-0.2-0.9-0.5-1.2-0.8
			c-0.3-0.4-0.5-0.8-0.6-1.3c-0.1-0.5-0.2-1.1-0.2-1.7v-7.5h1.9v7.7c0,0.7,0.2,1.3,0.6,1.7c0.4,0.4,1,0.6,1.7,0.6
			c0.6,0,1.1-0.1,1.5-0.3c0.4-0.2,0.8-0.4,1-0.7c0.3-0.3,0.5-0.7,0.6-1.1c0.1-0.4,0.2-0.9,0.2-1.4v-6.4h1.9v11.4H523.3z"/>
		<path d="M532.7,208.3v1.7h-2.3v7.1c0,0.2,0,0.4,0.1,0.5c0,0.1,0.1,0.2,0.2,0.3c0.1,0.1,0.2,0.1,0.4,0.1c0.2,0,0.4,0,0.7,0h0.9v1.7
			h-1.4c-0.5,0-0.9,0-1.2-0.1c-0.3-0.1-0.6-0.2-0.8-0.4s-0.4-0.4-0.5-0.7s-0.2-0.7-0.2-1.3V210h-1.9v-1.7h1.9v-3.4h1.9v3.4H532.7z"
			/>
	</g>
	<g>
		<path class="st3" d="M572.1,161.9v32.2H77.9v-32.2H572.1 M575,159H75v38h500V159L575,159z"/>
	</g>
	<g>
		<path class="st3" d="M572.1,196.9v32.2H77.9v-32.2H572.1 M575,194H75v38h500V194L575,194z"/>
	</g>
	<g>
		<g>
			<path class="st3" d="M592,268v109H58V268H592 M595,265H55v115h540V265L595,265z"/>
		</g>
	</g>
	<rect x="83" y="295" class="st4" width="492" height="63"/>
	<g class="st1">
		<path d="M86.8,295v13.9h8.3v1.8H84.7V295H86.8z"/>
		<path d="M96.4,302.7c0.2-0.7,0.6-1.4,1.1-1.9c0.5-0.5,1-1,1.7-1.3c0.7-0.3,1.5-0.5,2.4-0.5c0.9,0,1.7,0.2,2.4,0.5
			c0.7,0.3,1.3,0.7,1.7,1.3c0.5,0.5,0.8,1.2,1.1,1.9c0.2,0.7,0.4,1.5,0.4,2.3s-0.1,1.6-0.4,2.3c-0.2,0.7-0.6,1.3-1.1,1.9
			c-0.5,0.5-1,1-1.7,1.3c-0.7,0.3-1.5,0.5-2.4,0.5c-0.9,0-1.7-0.2-2.4-0.5s-1.3-0.7-1.7-1.3c-0.5-0.5-0.8-1.2-1.1-1.9
			c-0.2-0.7-0.4-1.5-0.4-2.3S96.1,303.4,96.4,302.7z M98.3,306.9c0.2,0.5,0.4,1,0.8,1.3c0.3,0.4,0.7,0.6,1.1,0.8s0.9,0.3,1.4,0.3
			s0.9-0.1,1.4-0.3s0.8-0.5,1.1-0.8s0.6-0.8,0.8-1.3c0.2-0.5,0.3-1.1,0.3-1.8s-0.1-1.3-0.3-1.8c-0.2-0.5-0.4-1-0.8-1.4
			c-0.3-0.4-0.7-0.6-1.1-0.8c-0.4-0.2-0.9-0.3-1.4-0.3s-0.9,0.1-1.4,0.3c-0.4,0.2-0.8,0.5-1.1,0.8c-0.3,0.4-0.6,0.8-0.8,1.4
			c-0.2,0.5-0.3,1.1-0.3,1.8S98.1,306.3,98.3,306.9z"/>
		<path d="M111,299.3v2.4h0c0.5-0.9,1-1.6,1.7-2c0.7-0.4,1.5-0.6,2.5-0.6v2c-0.7,0-1.4,0.1-1.9,0.3c-0.5,0.2-1,0.5-1.3,0.9
			c-0.3,0.4-0.6,0.9-0.7,1.4c-0.1,0.6-0.2,1.2-0.2,1.9v5.1h-1.9v-11.4H111z"/>
		<path d="M124.2,310c-0.9,0.6-1.9,1-3.2,1c-0.9,0-1.7-0.1-2.4-0.4c-0.7-0.3-1.2-0.7-1.7-1.2c-0.5-0.5-0.8-1.2-1-1.9
			s-0.4-1.5-0.4-2.4c0-0.9,0.1-1.7,0.4-2.4s0.6-1.3,1.1-1.9c0.5-0.5,1-0.9,1.7-1.2c0.7-0.3,1.4-0.4,2.1-0.4c1,0,1.9,0.2,2.5,0.6
			c0.7,0.4,1.2,0.9,1.6,1.6c0.4,0.6,0.7,1.3,0.8,2.1c0.2,0.8,0.2,1.5,0.2,2.2h-8.5c0,0.5,0,1,0.2,1.4c0.1,0.4,0.3,0.8,0.6,1.2
			s0.7,0.6,1.1,0.8c0.5,0.2,1,0.3,1.6,0.3c0.8,0,1.4-0.2,1.9-0.5c0.5-0.4,0.8-0.9,1-1.7h1.8C125.6,308.4,125.1,309.3,124.2,310z
			 M123.8,302.7c-0.2-0.4-0.4-0.7-0.7-1c-0.3-0.3-0.6-0.5-1-0.7c-0.4-0.2-0.8-0.3-1.3-0.3c-0.5,0-0.9,0.1-1.3,0.3
			c-0.4,0.2-0.7,0.4-1,0.7c-0.3,0.3-0.5,0.6-0.7,1c-0.2,0.4-0.3,0.8-0.3,1.2h6.5C124.1,303.5,124,303.1,123.8,302.7z"/>
		<path d="M129.8,299.3v1.7h0c0.9-1.3,2.1-1.9,3.7-1.9c0.7,0,1.3,0.1,1.9,0.4c0.6,0.3,1,0.8,1.2,1.5c0.4-0.6,0.9-1.1,1.5-1.4
			c0.6-0.3,1.3-0.5,2.1-0.5c0.6,0,1.1,0.1,1.6,0.2c0.5,0.1,0.9,0.3,1.2,0.6c0.3,0.3,0.6,0.6,0.8,1c0.2,0.4,0.3,0.9,0.3,1.5v8.3h-1.9
			v-7.5c0-0.4,0-0.7-0.1-1c-0.1-0.3-0.2-0.6-0.3-0.8s-0.4-0.4-0.7-0.5s-0.7-0.2-1.1-0.2c-0.9,0-1.6,0.3-2.2,0.8
			c-0.5,0.5-0.8,1.2-0.8,2.1v7.1h-1.9v-7.5c0-0.4,0-0.7-0.1-1c-0.1-0.3-0.2-0.6-0.3-0.8c-0.2-0.2-0.4-0.4-0.6-0.5s-0.6-0.2-1-0.2
			c-0.5,0-1,0.1-1.4,0.3s-0.7,0.5-0.9,0.8c-0.2,0.3-0.4,0.6-0.5,1c-0.1,0.3-0.2,0.6-0.2,0.8v7.1H128v-11.4H129.8z"/>
		<path d="M153,297.3V295h1.9v2.3H153z M154.9,299.3v11.4H153v-11.4H154.9z"/>
		<path d="M159.7,299.3v1.5h0c0.3-0.6,0.8-1.1,1.5-1.4c0.7-0.3,1.4-0.4,2.2-0.4c0.9,0,1.6,0.2,2.3,0.5c0.7,0.3,1.2,0.8,1.6,1.3
			s0.8,1.2,1,1.9c0.2,0.7,0.3,1.5,0.3,2.3c0,0.8-0.1,1.6-0.3,2.3c-0.2,0.7-0.5,1.3-1,1.9c-0.4,0.5-1,1-1.6,1.3
			c-0.7,0.3-1.4,0.5-2.3,0.5c-0.3,0-0.6,0-0.9-0.1s-0.7-0.2-1-0.3s-0.7-0.3-1-0.5c-0.3-0.2-0.6-0.5-0.8-0.8h0v5.9h-1.9v-15.7H159.7z
			 M166.4,303.4c-0.1-0.5-0.4-1-0.6-1.4c-0.3-0.4-0.7-0.7-1.1-0.9c-0.4-0.2-1-0.4-1.6-0.4c-0.6,0-1.2,0.1-1.6,0.4
			c-0.4,0.2-0.8,0.6-1.1,1s-0.5,0.9-0.6,1.4s-0.2,1-0.2,1.6c0,0.6,0.1,1.1,0.2,1.6s0.3,1,0.6,1.4c0.3,0.4,0.7,0.7,1.1,1
			s1,0.4,1.6,0.4s1.2-0.1,1.6-0.4s0.8-0.6,1-1c0.3-0.4,0.5-0.9,0.6-1.4c0.1-0.5,0.2-1.1,0.2-1.6
			C166.6,304.4,166.6,303.9,166.4,303.4z"/>
		<path d="M172.3,308.2c0.2,0.3,0.4,0.5,0.7,0.7c0.3,0.2,0.6,0.3,1,0.4s0.7,0.1,1.1,0.1c0.3,0,0.6,0,0.9-0.1c0.3,0,0.6-0.1,0.9-0.2
			c0.3-0.1,0.5-0.3,0.7-0.5c0.2-0.2,0.3-0.5,0.3-0.9c0-0.5-0.2-0.9-0.5-1.1c-0.4-0.2-0.8-0.5-1.4-0.6c-0.6-0.2-1.1-0.3-1.8-0.4
			c-0.6-0.1-1.2-0.3-1.8-0.5c-0.6-0.2-1-0.5-1.4-1c-0.4-0.4-0.6-1-0.6-1.7c0-0.6,0.1-1.1,0.4-1.5c0.3-0.4,0.6-0.7,1-1
			s0.9-0.4,1.4-0.6c0.5-0.1,1-0.2,1.5-0.2c0.6,0,1.2,0.1,1.8,0.2c0.5,0.1,1,0.3,1.4,0.6c0.4,0.3,0.8,0.6,1,1.1
			c0.2,0.5,0.4,1,0.4,1.7h-1.9c0-0.4-0.1-0.7-0.3-0.9c-0.2-0.2-0.4-0.4-0.6-0.6c-0.2-0.1-0.5-0.3-0.8-0.3c-0.3-0.1-0.6-0.1-0.9-0.1
			c-0.3,0-0.6,0-0.8,0.1s-0.5,0.1-0.8,0.2c-0.2,0.1-0.4,0.3-0.6,0.4c-0.1,0.2-0.2,0.4-0.2,0.7c0,0.3,0.1,0.6,0.3,0.8
			c0.2,0.2,0.5,0.4,0.9,0.5c0.4,0.1,0.7,0.3,1.2,0.4c0.4,0.1,0.9,0.2,1.3,0.3c0.5,0.1,0.9,0.2,1.4,0.4c0.4,0.1,0.8,0.3,1.2,0.6
			c0.3,0.2,0.6,0.5,0.8,0.9c0.2,0.4,0.3,0.8,0.3,1.4c0,0.7-0.1,1.3-0.4,1.7c-0.3,0.5-0.7,0.8-1.1,1.1s-1,0.5-1.6,0.6
			c-0.6,0.1-1.2,0.2-1.7,0.2c-0.6,0-1.2-0.1-1.8-0.2c-0.6-0.1-1.1-0.3-1.5-0.6c-0.4-0.3-0.8-0.7-1.1-1.2s-0.4-1.1-0.4-1.8h1.9
			C172,307.5,172.1,307.9,172.3,308.2z"/>
		<path d="M189.5,310.7v-1.8h0c-0.4,0.7-0.9,1.2-1.5,1.6c-0.6,0.3-1.3,0.5-2.2,0.5c-0.7,0-1.4-0.1-1.9-0.3c-0.5-0.2-0.9-0.5-1.2-0.8
			c-0.3-0.4-0.5-0.8-0.6-1.3c-0.1-0.5-0.2-1.1-0.2-1.7v-7.5h1.9v7.7c0,0.7,0.2,1.3,0.6,1.7c0.4,0.4,1,0.6,1.7,0.6
			c0.6,0,1.1-0.1,1.5-0.3c0.4-0.2,0.8-0.4,1-0.7c0.3-0.3,0.5-0.7,0.6-1.1c0.1-0.4,0.2-0.9,0.2-1.4v-6.4h1.9v11.4H189.5z"/>
		<path d="M195.8,299.3v1.7h0c0.9-1.3,2.1-1.9,3.7-1.9c0.7,0,1.3,0.1,1.9,0.4c0.6,0.3,1,0.8,1.2,1.5c0.4-0.6,0.9-1.1,1.5-1.4
			c0.6-0.3,1.3-0.5,2.1-0.5c0.6,0,1.1,0.1,1.6,0.2c0.5,0.1,0.9,0.3,1.2,0.6c0.3,0.3,0.6,0.6,0.8,1c0.2,0.4,0.3,0.9,0.3,1.5v8.3h-1.9
			v-7.5c0-0.4,0-0.7-0.1-1c-0.1-0.3-0.2-0.6-0.3-0.8s-0.4-0.4-0.7-0.5s-0.7-0.2-1.1-0.2c-0.9,0-1.6,0.3-2.2,0.8
			c-0.5,0.5-0.8,1.2-0.8,2.1v7.1h-1.9v-7.5c0-0.4,0-0.7-0.1-1c-0.1-0.3-0.2-0.6-0.3-0.8c-0.2-0.2-0.4-0.4-0.6-0.5s-0.6-0.2-1-0.2
			c-0.5,0-1,0.1-1.4,0.3s-0.7,0.5-0.9,0.8c-0.2,0.3-0.4,0.6-0.5,1c-0.1,0.3-0.2,0.6-0.2,0.8v7.1h-1.9v-11.4H195.8z"/>
	</g>
	<g class="st1">
		<path d="M227.2,309.3c-0.4,0.6-0.8,1.1-1.4,1.3c-0.6,0.3-1.3,0.4-2,0.4c-0.9,0-1.6-0.2-2.2-0.5c-0.6-0.3-1.2-0.8-1.6-1.3
			c-0.4-0.6-0.7-1.2-0.9-1.9c-0.2-0.7-0.3-1.5-0.3-2.3c0-0.8,0.1-1.5,0.3-2.2c0.2-0.7,0.5-1.3,0.9-1.9c0.4-0.5,0.9-1,1.6-1.3
			c0.6-0.3,1.4-0.5,2.2-0.5c0.7,0,1.3,0.1,1.9,0.4c0.6,0.3,1.1,0.7,1.4,1.3h0V295h3.1v15.7h-3L227.2,309.3L227.2,309.3z M227,303.6
			c-0.1-0.4-0.2-0.8-0.5-1.1c-0.2-0.3-0.5-0.6-0.8-0.8c-0.3-0.2-0.8-0.3-1.3-0.3c-0.5,0-0.9,0.1-1.3,0.3c-0.4,0.2-0.6,0.5-0.8,0.8
			c-0.2,0.3-0.4,0.7-0.5,1.2c-0.1,0.4-0.1,0.9-0.1,1.4c0,0.4,0.1,0.9,0.2,1.3c0.1,0.4,0.3,0.8,0.5,1.2c0.2,0.3,0.5,0.6,0.9,0.8
			c0.3,0.2,0.8,0.3,1.2,0.3c0.5,0,0.9-0.1,1.3-0.3c0.3-0.2,0.6-0.5,0.8-0.8c0.2-0.3,0.4-0.7,0.4-1.2c0.1-0.4,0.1-0.9,0.1-1.4
			S227.1,304.1,227,303.6z"/>
		<path d="M232.6,302.6c0.3-0.7,0.7-1.4,1.2-1.9c0.5-0.5,1.1-0.9,1.8-1.2c0.7-0.3,1.5-0.4,2.4-0.4s1.7,0.1,2.4,0.4s1.3,0.7,1.9,1.2
			c0.5,0.5,0.9,1.2,1.2,1.9c0.3,0.7,0.4,1.6,0.4,2.5s-0.1,1.7-0.4,2.5c-0.3,0.7-0.7,1.4-1.2,1.9c-0.5,0.5-1.1,0.9-1.9,1.2
			s-1.5,0.4-2.4,0.4s-1.7-0.1-2.4-0.4c-0.7-0.3-1.3-0.7-1.8-1.2c-0.5-0.5-0.9-1.1-1.2-1.9c-0.3-0.7-0.4-1.6-0.4-2.5
			S232.3,303.3,232.6,302.6z M235.4,306.4c0.1,0.4,0.2,0.8,0.5,1.2c0.2,0.3,0.5,0.6,0.8,0.8c0.4,0.2,0.8,0.3,1.3,0.3s1-0.1,1.3-0.3
			c0.4-0.2,0.6-0.5,0.9-0.8c0.2-0.3,0.4-0.7,0.5-1.2s0.1-0.9,0.1-1.3c0-0.5,0-0.9-0.1-1.3c-0.1-0.4-0.2-0.8-0.5-1.2
			c-0.2-0.3-0.5-0.6-0.9-0.8s-0.8-0.3-1.3-0.3s-1,0.1-1.3,0.3s-0.6,0.5-0.8,0.8c-0.2,0.3-0.4,0.7-0.5,1.2c-0.1,0.4-0.1,0.9-0.1,1.3
			C235.3,305.5,235.3,305.9,235.4,306.4z"/>
		<path d="M249.2,295v15.7h-3.1V295H249.2z"/>
		<path d="M251.7,302.6c0.3-0.7,0.7-1.4,1.2-1.9c0.5-0.5,1.1-0.9,1.8-1.2c0.7-0.3,1.5-0.4,2.4-0.4s1.7,0.1,2.4,0.4s1.3,0.7,1.9,1.2
			c0.5,0.5,0.9,1.2,1.2,1.9c0.3,0.7,0.4,1.6,0.4,2.5s-0.1,1.7-0.4,2.5c-0.3,0.7-0.7,1.4-1.2,1.9c-0.5,0.5-1.1,0.9-1.9,1.2
			s-1.5,0.4-2.4,0.4s-1.7-0.1-2.4-0.4c-0.7-0.3-1.3-0.7-1.8-1.2c-0.5-0.5-0.9-1.1-1.2-1.9c-0.3-0.7-0.4-1.6-0.4-2.5
			S251.4,303.3,251.7,302.6z M254.6,306.4c0.1,0.4,0.2,0.8,0.5,1.2c0.2,0.3,0.5,0.6,0.8,0.8c0.4,0.2,0.8,0.3,1.3,0.3s1-0.1,1.3-0.3
			c0.4-0.2,0.6-0.5,0.9-0.8c0.2-0.3,0.4-0.7,0.5-1.2s0.1-0.9,0.1-1.3c0-0.5,0-0.9-0.1-1.3c-0.1-0.4-0.2-0.8-0.5-1.2
			c-0.2-0.3-0.5-0.6-0.9-0.8s-0.8-0.3-1.3-0.3s-1,0.1-1.3,0.3s-0.6,0.5-0.8,0.8c-0.2,0.3-0.4,0.7-0.5,1.2c-0.1,0.4-0.1,0.9-0.1,1.3
			C254.4,305.5,254.5,305.9,254.6,306.4z"/>
		<path d="M268.1,299.3v2.1h0c0.1-0.4,0.3-0.7,0.6-1c0.2-0.3,0.5-0.6,0.9-0.8s0.7-0.4,1-0.5c0.4-0.1,0.7-0.2,1.1-0.2
			c0.2,0,0.4,0,0.7,0.1v2.9c-0.1,0-0.3-0.1-0.5-0.1c-0.2,0-0.4,0-0.6,0c-0.6,0-1.1,0.1-1.5,0.3c-0.4,0.2-0.7,0.5-1,0.8
			c-0.2,0.3-0.4,0.7-0.5,1.2c-0.1,0.4-0.2,0.9-0.2,1.4v5.1h-3.1v-11.4H268.1z"/>
		<path d="M282.4,307.9c0.1,0.2,0.3,0.4,0.5,0.6c0.2,0.2,0.5,0.3,0.8,0.3c0.3,0.1,0.6,0.1,0.9,0.1c0.2,0,0.5,0,0.7-0.1
			c0.2-0.1,0.5-0.1,0.7-0.2c0.2-0.1,0.4-0.3,0.5-0.4s0.2-0.4,0.2-0.7c0-0.5-0.3-0.8-0.9-1.1c-0.6-0.2-1.5-0.5-2.6-0.7
			c-0.5-0.1-0.9-0.2-1.3-0.4c-0.4-0.1-0.8-0.3-1.2-0.5c-0.3-0.2-0.6-0.5-0.8-0.9c-0.2-0.3-0.3-0.8-0.3-1.3c0-0.7,0.1-1.3,0.4-1.8
			c0.3-0.5,0.7-0.8,1.1-1.1c0.5-0.3,1-0.5,1.6-0.6c0.6-0.1,1.2-0.2,1.8-0.2c0.6,0,1.2,0.1,1.8,0.2c0.6,0.1,1.1,0.3,1.6,0.6
			c0.5,0.3,0.8,0.6,1.1,1.1c0.3,0.5,0.5,1,0.5,1.7h-3c0-0.6-0.3-1-0.7-1.2c-0.4-0.2-0.9-0.3-1.5-0.3c-0.2,0-0.4,0-0.6,0
			c-0.2,0-0.4,0.1-0.6,0.1s-0.3,0.2-0.4,0.3c-0.1,0.1-0.2,0.3-0.2,0.6c0,0.3,0.1,0.5,0.3,0.7c0.2,0.2,0.5,0.3,0.8,0.4
			c0.3,0.1,0.7,0.2,1.1,0.3c0.4,0.1,0.9,0.2,1.3,0.3c0.5,0.1,0.9,0.2,1.3,0.4s0.8,0.3,1.2,0.6c0.3,0.2,0.6,0.5,0.8,0.9
			c0.2,0.4,0.3,0.8,0.3,1.3c0,0.7-0.2,1.4-0.5,1.9c-0.3,0.5-0.7,0.9-1.2,1.2c-0.5,0.3-1,0.5-1.7,0.6c-0.6,0.1-1.3,0.2-1.9,0.2
			c-0.7,0-1.3-0.1-1.9-0.2c-0.6-0.1-1.2-0.4-1.7-0.7c-0.5-0.3-0.9-0.7-1.2-1.2s-0.5-1.1-0.5-1.9h3
			C282.2,307.3,282.3,307.6,282.4,307.9z"/>
		<path d="M291.7,297.6V295h3.1v2.6H291.7z M294.8,299.3v11.4h-3.1v-11.4H294.8z"/>
		<path d="M303.5,299.3v2.1h-2.3v5.6c0,0.5,0.1,0.9,0.3,1.1c0.2,0.2,0.5,0.3,1.1,0.3c0.2,0,0.3,0,0.5,0c0.2,0,0.3,0,0.5-0.1v2.4
			c-0.3,0-0.6,0.1-0.9,0.1c-0.3,0-0.6,0-0.9,0c-0.5,0-0.9,0-1.4-0.1c-0.4-0.1-0.8-0.2-1.1-0.4c-0.3-0.2-0.6-0.5-0.8-0.8
			c-0.2-0.4-0.3-0.8-0.3-1.4v-6.7h-1.9v-2.1h1.9v-3.4h3.1v3.4H303.5z"/>
		<path d="M311,302.8c0-0.7,0.2-1.3,0.5-1.8c0.3-0.5,0.7-0.9,1.2-1.2c0.5-0.3,1.1-0.5,1.7-0.6c0.6-0.1,1.2-0.2,1.9-0.2
			c0.6,0,1.2,0,1.7,0.1c0.6,0.1,1.1,0.2,1.6,0.5s0.9,0.6,1.2,1s0.5,1,0.5,1.7v5.9c0,0.5,0,1,0.1,1.5c0.1,0.5,0.2,0.8,0.3,1.1h-3.2
			c-0.1-0.2-0.1-0.4-0.1-0.5s-0.1-0.4-0.1-0.6c-0.5,0.5-1.1,0.9-1.8,1.1c-0.7,0.2-1.4,0.3-2.1,0.3c-0.5,0-1-0.1-1.5-0.2
			c-0.5-0.1-0.9-0.3-1.2-0.6c-0.4-0.3-0.6-0.6-0.8-1.1c-0.2-0.4-0.3-0.9-0.3-1.5c0-0.6,0.1-1.2,0.3-1.6s0.5-0.8,0.9-1
			c0.4-0.2,0.8-0.4,1.2-0.6c0.5-0.1,0.9-0.2,1.4-0.3c0.5-0.1,0.9-0.1,1.4-0.2s0.9-0.1,1.2-0.2s0.6-0.2,0.8-0.4
			c0.2-0.2,0.3-0.4,0.3-0.7c0-0.3-0.1-0.6-0.2-0.8c-0.1-0.2-0.3-0.4-0.4-0.5c-0.2-0.1-0.4-0.2-0.6-0.2c-0.2,0-0.5-0.1-0.8-0.1
			c-0.6,0-1.1,0.1-1.5,0.4c-0.4,0.3-0.6,0.7-0.6,1.3H311z M318.2,305.1c-0.1,0.1-0.3,0.2-0.5,0.3c-0.2,0.1-0.4,0.1-0.6,0.2
			c-0.2,0-0.5,0.1-0.7,0.1s-0.5,0.1-0.7,0.1c-0.2,0-0.5,0.1-0.7,0.2c-0.2,0.1-0.4,0.2-0.6,0.3c-0.2,0.1-0.3,0.3-0.4,0.5
			s-0.2,0.4-0.2,0.7c0,0.3,0.1,0.5,0.2,0.7c0.1,0.2,0.2,0.3,0.4,0.5c0.2,0.1,0.4,0.2,0.6,0.2c0.2,0,0.5,0.1,0.7,0.1
			c0.6,0,1.1-0.1,1.4-0.3s0.6-0.5,0.7-0.7c0.2-0.3,0.3-0.6,0.3-0.9c0-0.3,0.1-0.5,0.1-0.7V305.1z"/>
		<path d="M326.8,299.3v1.5h0c0.4-0.6,0.9-1,1.5-1.4c0.6-0.3,1.2-0.5,2-0.5c0.7,0,1.4,0.1,2,0.4c0.6,0.3,1,0.8,1.4,1.5
			c0.3-0.5,0.8-0.9,1.4-1.3c0.6-0.4,1.3-0.6,2.1-0.6c0.6,0,1.2,0.1,1.7,0.2s1,0.4,1.3,0.7c0.4,0.3,0.7,0.7,0.9,1.3
			c0.2,0.5,0.3,1.1,0.3,1.9v7.6h-3.1v-6.4c0-0.4,0-0.7,0-1.1c0-0.3-0.1-0.6-0.2-0.9c-0.1-0.2-0.3-0.4-0.6-0.6s-0.6-0.2-1-0.2
			c-0.4,0-0.8,0.1-1.1,0.3s-0.5,0.4-0.6,0.7s-0.3,0.6-0.3,0.9c-0.1,0.3-0.1,0.7-0.1,1v6.3H331v-6.4c0-0.3,0-0.7,0-1
			s-0.1-0.6-0.2-0.9s-0.3-0.5-0.5-0.7c-0.3-0.2-0.6-0.3-1.1-0.3c-0.1,0-0.3,0-0.6,0.1c-0.2,0.1-0.5,0.2-0.7,0.4
			c-0.2,0.2-0.4,0.4-0.6,0.8c-0.2,0.3-0.2,0.8-0.2,1.4v6.6h-3.1v-11.4H326.8z"/>
		<path d="M347,308c0.5,0.5,1.1,0.7,2,0.7c0.6,0,1.2-0.2,1.6-0.5c0.5-0.3,0.7-0.6,0.8-1h2.8c-0.4,1.4-1.1,2.3-2,2.9s-2,0.9-3.3,0.9
			c-0.9,0-1.7-0.1-2.4-0.4c-0.7-0.3-1.3-0.7-1.8-1.2c-0.5-0.5-0.9-1.2-1.2-1.9s-0.4-1.5-0.4-2.4c0-0.9,0.1-1.6,0.4-2.4
			c0.3-0.7,0.7-1.4,1.2-1.9s1.1-1,1.8-1.3c0.7-0.3,1.5-0.5,2.4-0.5c1,0,1.8,0.2,2.5,0.6c0.7,0.4,1.3,0.9,1.8,1.5
			c0.5,0.6,0.8,1.3,1,2.2s0.3,1.7,0.2,2.5h-8.2C346.3,306.8,346.5,307.5,347,308z M350.5,302c-0.4-0.4-0.9-0.6-1.7-0.6
			c-0.5,0-0.9,0.1-1.2,0.3c-0.3,0.2-0.6,0.4-0.8,0.6c-0.2,0.2-0.3,0.5-0.4,0.8c-0.1,0.3-0.1,0.5-0.1,0.7h5.1
			C351.2,303,350.9,302.4,350.5,302z"/>
		<path d="M362.5,299.3v2.1h-2.3v5.6c0,0.5,0.1,0.9,0.3,1.1c0.2,0.2,0.5,0.3,1.1,0.3c0.2,0,0.3,0,0.5,0c0.2,0,0.3,0,0.5-0.1v2.4
			c-0.3,0-0.6,0.1-0.9,0.1c-0.3,0-0.6,0-0.9,0c-0.5,0-0.9,0-1.4-0.1c-0.4-0.1-0.8-0.2-1.1-0.4c-0.3-0.2-0.6-0.5-0.8-0.8
			c-0.2-0.4-0.3-0.8-0.3-1.4v-6.7h-1.9v-2.1h1.9v-3.4h3.1v3.4H362.5z"/>
	</g>
	<g class="st1">
		<path d="M377.2,301.3c-0.5-0.4-1.1-0.6-1.9-0.6c-0.7,0-1.2,0.1-1.7,0.4c-0.5,0.2-0.8,0.6-1.1,1c-0.3,0.4-0.5,0.9-0.6,1.4
			c-0.1,0.5-0.2,1.1-0.2,1.7c0,0.5,0.1,1,0.2,1.5c0.1,0.5,0.3,0.9,0.6,1.3c0.3,0.4,0.6,0.7,1,0.9c0.4,0.2,0.9,0.4,1.5,0.4
			c0.9,0,1.6-0.2,2.2-0.7c0.5-0.5,0.8-1.2,1-2h1.9c-0.2,1.4-0.7,2.5-1.6,3.3c-0.8,0.8-2,1.1-3.4,1.1c-0.9,0-1.6-0.1-2.3-0.4
			c-0.7-0.3-1.2-0.7-1.7-1.2c-0.4-0.5-0.8-1.1-1-1.8c-0.2-0.7-0.3-1.5-0.3-2.3s0.1-1.6,0.3-2.4c0.2-0.7,0.6-1.4,1-1.9
			c0.4-0.5,1-1,1.7-1.3s1.5-0.5,2.4-0.5c0.6,0,1.2,0.1,1.8,0.2c0.6,0.2,1.1,0.4,1.5,0.7c0.4,0.3,0.8,0.7,1.1,1.2
			c0.3,0.5,0.5,1.1,0.5,1.7h-1.9C378,302.3,377.7,301.7,377.2,301.3z"/>
		<path d="M382,302.7c0.2-0.7,0.6-1.4,1.1-1.9c0.5-0.5,1-1,1.7-1.3c0.7-0.3,1.5-0.5,2.4-0.5c0.9,0,1.7,0.2,2.4,0.5
			c0.7,0.3,1.3,0.7,1.7,1.3c0.5,0.5,0.8,1.2,1.1,1.9c0.2,0.7,0.4,1.5,0.4,2.3s-0.1,1.6-0.4,2.3s-0.6,1.3-1.1,1.9s-1,1-1.7,1.3
			c-0.7,0.3-1.5,0.5-2.4,0.5c-0.9,0-1.7-0.2-2.4-0.5s-1.3-0.7-1.7-1.3c-0.5-0.5-0.8-1.2-1.1-1.9s-0.4-1.5-0.4-2.3
			S381.7,303.4,382,302.7z M383.9,306.9c0.2,0.5,0.4,1,0.8,1.3s0.7,0.6,1.1,0.8s0.9,0.3,1.4,0.3c0.5,0,0.9-0.1,1.4-0.3
			s0.8-0.5,1.1-0.8c0.3-0.4,0.6-0.8,0.8-1.3c0.2-0.5,0.3-1.1,0.3-1.8s-0.1-1.3-0.3-1.8c-0.2-0.5-0.4-1-0.8-1.4
			c-0.3-0.4-0.7-0.6-1.1-0.8c-0.4-0.2-0.9-0.3-1.4-0.3c-0.5,0-0.9,0.1-1.4,0.3c-0.4,0.2-0.8,0.5-1.1,0.8c-0.3,0.4-0.6,0.8-0.8,1.4
			c-0.2,0.5-0.3,1.1-0.3,1.8S383.7,306.3,383.9,306.9z"/>
		<path d="M396.6,299.3v1.8h0c0.8-1.4,2-2.1,3.7-2.1c0.7,0,1.4,0.1,1.9,0.3c0.5,0.2,0.9,0.5,1.2,0.9c0.3,0.4,0.5,0.8,0.6,1.3
			c0.1,0.5,0.2,1.1,0.2,1.7v7.5h-1.9V303c0-0.7-0.2-1.3-0.6-1.7c-0.4-0.4-1-0.6-1.7-0.6c-0.6,0-1.1,0.1-1.5,0.3
			c-0.4,0.2-0.8,0.4-1,0.7c-0.3,0.3-0.5,0.7-0.6,1.1c-0.1,0.4-0.2,0.9-0.2,1.4v6.4h-1.9v-11.4H396.6z"/>
		<path d="M408.5,308.2c0.2,0.3,0.4,0.5,0.7,0.7c0.3,0.2,0.6,0.3,1,0.4s0.7,0.1,1.1,0.1c0.3,0,0.6,0,0.9-0.1s0.6-0.1,0.9-0.2
			c0.3-0.1,0.5-0.3,0.7-0.5c0.2-0.2,0.3-0.5,0.3-0.9c0-0.5-0.2-0.9-0.5-1.1c-0.4-0.2-0.8-0.5-1.4-0.6c-0.6-0.2-1.1-0.3-1.8-0.4
			c-0.6-0.1-1.2-0.3-1.8-0.5c-0.6-0.2-1-0.5-1.4-1c-0.4-0.4-0.6-1-0.6-1.7c0-0.6,0.1-1.1,0.4-1.5c0.3-0.4,0.6-0.7,1-1
			s0.9-0.4,1.4-0.6c0.5-0.1,1-0.2,1.5-0.2c0.6,0,1.2,0.1,1.8,0.2c0.5,0.1,1,0.3,1.4,0.6c0.4,0.3,0.8,0.6,1,1.1
			c0.2,0.5,0.4,1,0.4,1.7h-1.9c0-0.4-0.1-0.7-0.3-0.9c-0.2-0.2-0.4-0.4-0.6-0.6c-0.2-0.1-0.5-0.3-0.8-0.3c-0.3-0.1-0.6-0.1-0.9-0.1
			c-0.3,0-0.6,0-0.8,0.1s-0.5,0.1-0.8,0.2c-0.2,0.1-0.4,0.3-0.6,0.4s-0.2,0.4-0.2,0.7c0,0.3,0.1,0.6,0.3,0.8
			c0.2,0.2,0.5,0.4,0.9,0.5c0.4,0.1,0.7,0.3,1.2,0.4c0.4,0.1,0.9,0.2,1.3,0.3c0.5,0.1,0.9,0.2,1.4,0.4s0.8,0.3,1.2,0.6
			c0.3,0.2,0.6,0.5,0.8,0.9c0.2,0.4,0.3,0.8,0.3,1.4c0,0.7-0.1,1.3-0.4,1.7c-0.3,0.5-0.7,0.8-1.1,1.1s-1,0.5-1.6,0.6
			c-0.6,0.1-1.2,0.2-1.7,0.2c-0.6,0-1.2-0.1-1.8-0.2s-1.1-0.3-1.5-0.6c-0.4-0.3-0.8-0.7-1.1-1.2c-0.3-0.5-0.4-1.1-0.4-1.8h1.9
			C408.3,307.5,408.4,307.9,408.5,308.2z"/>
		<path d="M426.1,310c-0.9,0.6-1.9,1-3.2,1c-0.9,0-1.7-0.1-2.4-0.4c-0.7-0.3-1.2-0.7-1.7-1.2c-0.5-0.5-0.8-1.2-1-1.9
			s-0.4-1.5-0.4-2.4c0-0.9,0.1-1.7,0.4-2.4c0.3-0.7,0.6-1.3,1.1-1.9c0.5-0.5,1-0.9,1.7-1.2c0.7-0.3,1.4-0.4,2.1-0.4
			c1,0,1.9,0.2,2.5,0.6c0.7,0.4,1.2,0.9,1.6,1.6c0.4,0.6,0.7,1.3,0.8,2.1c0.2,0.8,0.2,1.5,0.2,2.2h-8.5c0,0.5,0,1,0.2,1.4
			s0.3,0.8,0.6,1.2c0.3,0.3,0.7,0.6,1.1,0.8c0.5,0.2,1,0.3,1.6,0.3c0.8,0,1.4-0.2,1.9-0.5c0.5-0.4,0.8-0.9,1-1.7h1.8
			C427.5,308.4,427,309.3,426.1,310z M425.7,302.7c-0.2-0.4-0.4-0.7-0.7-1s-0.6-0.5-1-0.7c-0.4-0.2-0.8-0.3-1.3-0.3
			c-0.5,0-0.9,0.1-1.3,0.3c-0.4,0.2-0.7,0.4-1,0.7c-0.3,0.3-0.5,0.6-0.7,1c-0.2,0.4-0.3,0.8-0.3,1.2h6.5
			C426,303.5,425.9,303.1,425.7,302.7z"/>
		<path d="M436.7,301.3c-0.5-0.4-1.1-0.6-1.9-0.6c-0.7,0-1.2,0.1-1.7,0.4c-0.5,0.2-0.8,0.6-1.1,1c-0.3,0.4-0.5,0.9-0.6,1.4
			c-0.1,0.5-0.2,1.1-0.2,1.7c0,0.5,0.1,1,0.2,1.5c0.1,0.5,0.3,0.9,0.6,1.3c0.3,0.4,0.6,0.7,1,0.9c0.4,0.2,0.9,0.4,1.5,0.4
			c0.9,0,1.6-0.2,2.2-0.7c0.5-0.5,0.8-1.2,1-2h1.9c-0.2,1.4-0.7,2.5-1.6,3.3c-0.8,0.8-2,1.1-3.4,1.1c-0.9,0-1.6-0.1-2.3-0.4
			c-0.7-0.3-1.2-0.7-1.7-1.2c-0.4-0.5-0.8-1.1-1-1.8c-0.2-0.7-0.3-1.5-0.3-2.3s0.1-1.6,0.3-2.4c0.2-0.7,0.6-1.4,1-1.9
			c0.4-0.5,1-1,1.7-1.3s1.5-0.5,2.4-0.5c0.6,0,1.2,0.1,1.8,0.2c0.6,0.2,1.1,0.4,1.5,0.7c0.4,0.3,0.8,0.7,1.1,1.2
			c0.3,0.5,0.5,1.1,0.5,1.7h-1.9C437.5,302.3,437.2,301.7,436.7,301.3z"/>
		<path d="M446.6,299.3v1.7h-2.3v7.1c0,0.2,0,0.4,0.1,0.5s0.1,0.2,0.2,0.3c0.1,0.1,0.2,0.1,0.4,0.1c0.2,0,0.4,0,0.7,0h0.9v1.7h-1.4
			c-0.5,0-0.9,0-1.2-0.1c-0.3-0.1-0.6-0.2-0.8-0.4s-0.4-0.4-0.5-0.7c-0.1-0.3-0.2-0.7-0.2-1.3V301h-1.9v-1.7h1.9v-3.4h1.9v3.4H446.6
			z"/>
		<path d="M456.7,310c-0.9,0.6-1.9,1-3.2,1c-0.9,0-1.7-0.1-2.4-0.4c-0.7-0.3-1.2-0.7-1.7-1.2c-0.5-0.5-0.8-1.2-1-1.9
			s-0.4-1.5-0.4-2.4c0-0.9,0.1-1.7,0.4-2.4c0.3-0.7,0.6-1.3,1.1-1.9c0.5-0.5,1-0.9,1.7-1.2c0.7-0.3,1.4-0.4,2.1-0.4
			c1,0,1.9,0.2,2.5,0.6c0.7,0.4,1.2,0.9,1.6,1.6s0.7,1.3,0.8,2.1s0.2,1.5,0.2,2.2H450c0,0.5,0,1,0.2,1.4c0.1,0.4,0.3,0.8,0.6,1.2
			c0.3,0.3,0.7,0.6,1.1,0.8c0.5,0.2,1,0.3,1.6,0.3c0.8,0,1.4-0.2,1.9-0.5c0.5-0.4,0.8-0.9,1-1.7h1.8
			C458.1,308.4,457.6,309.3,456.7,310z M456.3,302.7c-0.2-0.4-0.4-0.7-0.7-1c-0.3-0.3-0.6-0.5-1-0.7c-0.4-0.2-0.8-0.3-1.3-0.3
			c-0.5,0-0.9,0.1-1.3,0.3c-0.4,0.2-0.7,0.4-1,0.7c-0.3,0.3-0.5,0.6-0.7,1s-0.3,0.8-0.3,1.2h6.5
			C456.5,303.5,456.4,303.1,456.3,302.7z"/>
		<path d="M465.3,299.3v1.7h-2.3v7.1c0,0.2,0,0.4,0.1,0.5s0.1,0.2,0.2,0.3c0.1,0.1,0.2,0.1,0.4,0.1c0.2,0,0.4,0,0.7,0h0.9v1.7h-1.4
			c-0.5,0-0.9,0-1.2-0.1c-0.3-0.1-0.6-0.2-0.8-0.4s-0.4-0.4-0.5-0.7c-0.1-0.3-0.2-0.7-0.2-1.3V301h-1.9v-1.7h1.9v-3.4h1.9v3.4H465.3
			z"/>
		<path d="M475.1,310.7v-1.8h0c-0.4,0.7-0.9,1.2-1.5,1.6s-1.3,0.5-2.2,0.5c-0.7,0-1.4-0.1-1.9-0.3c-0.5-0.2-0.9-0.5-1.2-0.8
			c-0.3-0.4-0.5-0.8-0.6-1.3c-0.1-0.5-0.2-1.1-0.2-1.7v-7.5h1.9v7.7c0,0.7,0.2,1.3,0.6,1.7c0.4,0.4,1,0.6,1.7,0.6
			c0.6,0,1.1-0.1,1.5-0.3c0.4-0.2,0.8-0.4,1-0.7c0.3-0.3,0.5-0.7,0.6-1.1c0.1-0.4,0.2-0.9,0.2-1.4v-6.4h1.9v11.4H475.1z"/>
		<path d="M487.7,310c-0.9,0.6-1.9,1-3.2,1c-0.9,0-1.7-0.1-2.4-0.4c-0.7-0.3-1.2-0.7-1.7-1.2c-0.5-0.5-0.8-1.2-1-1.9
			s-0.4-1.5-0.4-2.4c0-0.9,0.1-1.7,0.4-2.4c0.3-0.7,0.6-1.3,1.1-1.9c0.5-0.5,1-0.9,1.7-1.2c0.7-0.3,1.4-0.4,2.1-0.4
			c1,0,1.9,0.2,2.5,0.6c0.7,0.4,1.2,0.9,1.6,1.6c0.4,0.6,0.7,1.3,0.8,2.1c0.2,0.8,0.2,1.5,0.2,2.2H481c0,0.5,0,1,0.2,1.4
			s0.3,0.8,0.6,1.2c0.3,0.3,0.7,0.6,1.1,0.8c0.5,0.2,1,0.3,1.6,0.3c0.8,0,1.4-0.2,1.9-0.5c0.5-0.4,0.8-0.9,1-1.7h1.8
			C489.1,308.4,488.5,309.3,487.7,310z M487.2,302.7c-0.2-0.4-0.4-0.7-0.7-1s-0.6-0.5-1-0.7c-0.4-0.2-0.8-0.3-1.3-0.3
			c-0.5,0-0.9,0.1-1.3,0.3c-0.4,0.2-0.7,0.4-1,0.7c-0.3,0.3-0.5,0.6-0.7,1c-0.2,0.4-0.3,0.8-0.3,1.2h6.5
			C487.5,303.5,487.4,303.1,487.2,302.7z"/>
		<path d="M493.1,299.3v2.4h0c0.5-0.9,1-1.6,1.7-2c0.7-0.4,1.5-0.6,2.5-0.6v2c-0.7,0-1.4,0.1-1.9,0.3c-0.5,0.2-1,0.5-1.3,0.9
			c-0.3,0.4-0.6,0.9-0.7,1.4s-0.2,1.2-0.2,1.9v5.1h-1.9v-11.4H493.1z"/>
		<path d="M515,310.7c-0.3,0.2-0.8,0.3-1.3,0.3c-0.5,0-0.9-0.1-1.2-0.4s-0.4-0.7-0.4-1.3c-0.5,0.6-1.1,1.1-1.8,1.3
			c-0.7,0.3-1.4,0.4-2.2,0.4c-0.5,0-1-0.1-1.5-0.2c-0.5-0.1-0.9-0.3-1.2-0.6c-0.3-0.2-0.6-0.6-0.8-1c-0.2-0.4-0.3-0.9-0.3-1.5
			c0-0.6,0.1-1.2,0.3-1.6c0.2-0.4,0.5-0.7,0.9-1s0.8-0.5,1.2-0.6s0.9-0.2,1.4-0.3c0.5-0.1,1-0.2,1.5-0.2c0.5-0.1,0.9-0.1,1.2-0.2
			c0.4-0.1,0.6-0.2,0.8-0.4s0.3-0.5,0.3-0.8c0-0.4-0.1-0.7-0.2-1s-0.4-0.4-0.6-0.6s-0.5-0.2-0.8-0.3s-0.6-0.1-0.9-0.1
			c-0.8,0-1.5,0.2-2,0.5c-0.5,0.3-0.8,0.9-0.9,1.7h-1.9c0-0.7,0.2-1.3,0.4-1.8c0.3-0.5,0.6-0.9,1.1-1.2c0.4-0.3,0.9-0.5,1.5-0.6
			c0.6-0.1,1.2-0.2,1.8-0.2c0.5,0,1,0,1.5,0.1s1,0.2,1.4,0.5s0.7,0.5,1,1s0.4,0.9,0.4,1.6v5.8c0,0.4,0,0.8,0.1,1
			c0.1,0.2,0.2,0.3,0.5,0.3c0.2,0,0.4,0,0.6-0.1V310.7z M511.9,304.8c-0.2,0.2-0.5,0.3-0.9,0.4c-0.4,0.1-0.8,0.1-1.2,0.2
			c-0.4,0.1-0.8,0.1-1.3,0.2c-0.4,0.1-0.8,0.2-1.1,0.3c-0.3,0.1-0.6,0.4-0.8,0.6c-0.2,0.3-0.3,0.6-0.3,1.1c0,0.3,0.1,0.6,0.2,0.8
			c0.1,0.2,0.3,0.4,0.5,0.5c0.2,0.1,0.4,0.2,0.7,0.3c0.3,0.1,0.5,0.1,0.8,0.1c0.6,0,1.1-0.1,1.6-0.3c0.4-0.2,0.8-0.4,1.1-0.6
			c0.3-0.3,0.5-0.5,0.6-0.8c0.1-0.3,0.2-0.6,0.2-0.8V304.8z"/>
		<path d="M525,310.7v-1.5h0c-0.3,0.6-0.8,1.1-1.5,1.4s-1.4,0.4-2.2,0.4c-0.9,0-1.6-0.2-2.3-0.5c-0.7-0.3-1.2-0.8-1.6-1.3
			c-0.4-0.5-0.8-1.2-1-1.9s-0.3-1.5-0.3-2.3s0.1-1.6,0.3-2.3c0.2-0.7,0.5-1.3,1-1.9s1-1,1.6-1.3s1.4-0.5,2.3-0.5
			c0.3,0,0.6,0,0.9,0.1c0.3,0.1,0.7,0.2,1,0.3c0.3,0.1,0.7,0.3,1,0.5c0.3,0.2,0.6,0.5,0.8,0.8h0V295h1.9v15.7H525z M518.3,306.7
			c0.1,0.5,0.4,1,0.6,1.4c0.3,0.4,0.7,0.7,1.1,0.9c0.4,0.2,1,0.4,1.6,0.4c0.6,0,1.2-0.1,1.6-0.4c0.4-0.2,0.8-0.6,1.1-1
			c0.3-0.4,0.5-0.9,0.6-1.4c0.1-0.5,0.2-1,0.2-1.6c0-0.6-0.1-1.1-0.2-1.6s-0.3-1-0.6-1.4c-0.3-0.4-0.7-0.7-1.1-1
			c-0.5-0.2-1-0.4-1.7-0.4c-0.6,0-1.2,0.1-1.6,0.4c-0.4,0.2-0.8,0.6-1.1,1c-0.3,0.4-0.5,0.9-0.6,1.4c-0.1,0.5-0.2,1.1-0.2,1.6
			C518.1,305.6,518.1,306.2,518.3,306.7z"/>
		<path d="M529.9,297.3V295h1.9v2.3H529.9z M531.7,299.3v11.4h-1.9v-11.4H531.7z"/>
		<path d="M536.6,299.3v1.5h0c0.3-0.6,0.8-1.1,1.5-1.4s1.4-0.4,2.2-0.4c0.9,0,1.6,0.2,2.3,0.5c0.7,0.3,1.2,0.8,1.6,1.3
			c0.4,0.5,0.8,1.2,1,1.9c0.2,0.7,0.3,1.5,0.3,2.3c0,0.8-0.1,1.6-0.3,2.3c-0.2,0.7-0.5,1.3-1,1.9c-0.4,0.5-1,1-1.6,1.3
			c-0.7,0.3-1.4,0.5-2.3,0.5c-0.3,0-0.6,0-0.9-0.1s-0.7-0.2-1-0.3c-0.3-0.1-0.7-0.3-1-0.5c-0.3-0.2-0.6-0.5-0.8-0.8h0v5.9h-1.9
			v-15.7H536.6z M543.3,303.4c-0.1-0.5-0.4-1-0.6-1.4c-0.3-0.4-0.7-0.7-1.1-0.9s-1-0.4-1.6-0.4c-0.6,0-1.2,0.1-1.6,0.4
			c-0.4,0.2-0.8,0.6-1.1,1c-0.3,0.4-0.5,0.9-0.6,1.4s-0.2,1-0.2,1.6c0,0.6,0.1,1.1,0.2,1.6c0.1,0.5,0.3,1,0.6,1.4
			c0.3,0.4,0.7,0.7,1.1,1c0.5,0.2,1,0.4,1.7,0.4c0.6,0,1.2-0.1,1.6-0.4c0.4-0.2,0.8-0.6,1-1c0.3-0.4,0.5-0.9,0.6-1.4
			c0.1-0.5,0.2-1.1,0.2-1.6C543.5,304.4,543.4,303.9,543.3,303.4z"/>
	</g>
	<g class="st1">
		<path d="M84.5,332.3V330h1.9v2.3H84.5z M86.4,334.3v11.4h-1.9v-11.4H86.4z"/>
		<path d="M90.7,343.2c0.2,0.3,0.4,0.5,0.7,0.7c0.3,0.2,0.6,0.3,1,0.4s0.7,0.1,1.1,0.1c0.3,0,0.6,0,0.9-0.1c0.3,0,0.6-0.1,0.9-0.2
			c0.3-0.1,0.5-0.3,0.7-0.5c0.2-0.2,0.3-0.5,0.3-0.9c0-0.5-0.2-0.9-0.5-1.1c-0.4-0.2-0.8-0.5-1.4-0.6c-0.6-0.2-1.1-0.3-1.8-0.4
			c-0.6-0.1-1.2-0.3-1.8-0.5c-0.6-0.2-1-0.5-1.4-1c-0.4-0.4-0.6-1-0.6-1.7c0-0.6,0.1-1.1,0.4-1.5c0.3-0.4,0.6-0.7,1-1
			s0.9-0.4,1.4-0.6c0.5-0.1,1-0.2,1.5-0.2c0.6,0,1.2,0.1,1.8,0.2c0.5,0.1,1,0.3,1.4,0.6c0.4,0.3,0.8,0.6,1,1.1
			c0.2,0.5,0.4,1,0.4,1.7h-1.9c0-0.4-0.1-0.7-0.3-0.9c-0.2-0.2-0.4-0.4-0.6-0.6c-0.2-0.1-0.5-0.3-0.8-0.3c-0.3-0.1-0.6-0.1-0.9-0.1
			c-0.3,0-0.6,0-0.8,0.1s-0.5,0.1-0.8,0.2c-0.2,0.1-0.4,0.3-0.6,0.4c-0.1,0.2-0.2,0.4-0.2,0.7c0,0.3,0.1,0.6,0.3,0.8
			c0.2,0.2,0.5,0.4,0.9,0.5c0.4,0.1,0.7,0.3,1.2,0.4c0.4,0.1,0.9,0.2,1.3,0.3c0.5,0.1,0.9,0.2,1.4,0.4c0.4,0.1,0.8,0.3,1.2,0.6
			c0.3,0.2,0.6,0.5,0.8,0.9c0.2,0.4,0.3,0.8,0.3,1.4c0,0.7-0.1,1.3-0.4,1.7c-0.3,0.5-0.7,0.8-1.1,1.1s-1,0.5-1.6,0.6
			c-0.6,0.1-1.2,0.2-1.7,0.2c-0.6,0-1.2-0.1-1.8-0.2c-0.6-0.1-1.1-0.3-1.5-0.6c-0.4-0.3-0.8-0.7-1.1-1.2s-0.4-1.1-0.4-1.8h1.9
			C90.5,342.5,90.5,342.9,90.7,343.2z"/>
		<path d="M107.1,336.3c-0.5-0.4-1.1-0.6-1.9-0.6c-0.7,0-1.2,0.1-1.7,0.4c-0.5,0.2-0.8,0.6-1.1,1c-0.3,0.4-0.5,0.9-0.6,1.4
			c-0.1,0.5-0.2,1.1-0.2,1.7c0,0.5,0.1,1,0.2,1.5c0.1,0.5,0.3,0.9,0.6,1.3s0.6,0.7,1,0.9c0.4,0.2,0.9,0.4,1.5,0.4
			c0.9,0,1.6-0.2,2.2-0.7c0.5-0.5,0.8-1.2,1-2h1.9c-0.2,1.4-0.7,2.5-1.6,3.3c-0.8,0.8-2,1.1-3.4,1.1c-0.9,0-1.6-0.1-2.3-0.4
			s-1.2-0.7-1.7-1.2c-0.4-0.5-0.8-1.1-1-1.8c-0.2-0.7-0.3-1.5-0.3-2.3s0.1-1.6,0.3-2.4c0.2-0.7,0.6-1.4,1-1.9c0.4-0.5,1-1,1.7-1.3
			c0.7-0.3,1.5-0.5,2.4-0.5c0.6,0,1.2,0.1,1.8,0.2c0.6,0.2,1.1,0.4,1.5,0.7c0.4,0.3,0.8,0.7,1.1,1.2c0.3,0.5,0.5,1.1,0.5,1.7H108
			C107.9,337.3,107.6,336.7,107.1,336.3z"/>
		<path d="M112.2,332.3V330h1.9v2.3H112.2z M114.1,334.3v11.4h-1.9v-11.4H114.1z"/>
		<path d="M118.7,334.3v1.8h0c0.8-1.4,2-2.1,3.7-2.1c0.7,0,1.4,0.1,1.9,0.3c0.5,0.2,0.9,0.5,1.2,0.9c0.3,0.4,0.5,0.8,0.6,1.3
			c0.1,0.5,0.2,1.1,0.2,1.7v7.5h-1.9V338c0-0.7-0.2-1.3-0.6-1.7c-0.4-0.4-1-0.6-1.7-0.6c-0.6,0-1.1,0.1-1.5,0.3
			c-0.4,0.2-0.8,0.4-1,0.7c-0.3,0.3-0.5,0.7-0.6,1.1s-0.2,0.9-0.2,1.4v6.4H117v-11.4H118.7z"/>
		<path d="M137.8,348.9c-0.9,0.9-2.2,1.4-4,1.4c-0.5,0-1.1-0.1-1.6-0.2c-0.6-0.1-1-0.3-1.5-0.6c-0.4-0.3-0.8-0.6-1.1-1
			c-0.3-0.4-0.5-0.9-0.5-1.6h1.9c0,0.3,0.1,0.6,0.3,0.9c0.2,0.2,0.4,0.4,0.7,0.6s0.6,0.3,0.9,0.3s0.7,0.1,1,0.1
			c0.6,0,1.1-0.1,1.6-0.3c0.4-0.2,0.8-0.5,1.1-0.9c0.3-0.4,0.5-0.8,0.6-1.4c0.1-0.5,0.2-1.1,0.2-1.7v-0.7h0
			c-0.3,0.7-0.8,1.2-1.5,1.6c-0.7,0.3-1.3,0.5-2.1,0.5c-0.9,0-1.6-0.2-2.2-0.5c-0.6-0.3-1.2-0.7-1.6-1.2s-0.7-1.1-1-1.8
			s-0.3-1.4-0.3-2.2c0-0.7,0.1-1.4,0.3-2.1c0.2-0.7,0.5-1.4,0.9-1.9c0.4-0.6,1-1.1,1.6-1.4c0.7-0.4,1.5-0.6,2.5-0.6
			c0.7,0,1.4,0.2,2,0.5s1.1,0.8,1.4,1.4h0v-1.6h1.8v10.4C139,346.6,138.6,348,137.8,348.9z M135.4,343.8c0.4-0.3,0.8-0.6,1-1
			s0.5-0.9,0.6-1.4c0.1-0.5,0.2-1.1,0.2-1.6c0-0.5-0.1-1-0.2-1.5c-0.1-0.5-0.3-0.9-0.6-1.3c-0.3-0.4-0.6-0.7-1-0.9s-0.9-0.4-1.5-0.4
			c-0.6,0-1.1,0.1-1.5,0.3c-0.4,0.2-0.8,0.5-1,0.9c-0.3,0.4-0.5,0.8-0.6,1.3c-0.1,0.5-0.2,1-0.2,1.6c0,0.5,0.1,1,0.2,1.5
			c0.1,0.5,0.3,1,0.5,1.4c0.2,0.4,0.6,0.8,1,1c0.4,0.3,0.9,0.4,1.5,0.4C134.4,344.2,134.9,344.1,135.4,343.8z"/>
		<path d="M156,345c-0.9,0.6-1.9,1-3.2,1c-0.9,0-1.7-0.1-2.4-0.4c-0.7-0.3-1.2-0.7-1.7-1.2c-0.5-0.5-0.8-1.2-1-1.9s-0.4-1.5-0.4-2.4
			c0-0.9,0.1-1.7,0.4-2.4s0.6-1.3,1.1-1.9c0.5-0.5,1-0.9,1.7-1.2c0.7-0.3,1.4-0.4,2.1-0.4c1,0,1.9,0.2,2.5,0.6
			c0.7,0.4,1.2,0.9,1.6,1.6c0.4,0.6,0.7,1.3,0.8,2.1c0.2,0.8,0.2,1.5,0.2,2.2h-8.5c0,0.5,0,1,0.2,1.4c0.1,0.4,0.3,0.8,0.6,1.2
			s0.7,0.6,1.1,0.8c0.5,0.2,1,0.3,1.6,0.3c0.8,0,1.4-0.2,1.9-0.5c0.5-0.4,0.8-0.9,1-1.7h1.8C157.4,343.4,156.9,344.3,156,345z
			 M155.6,337.7c-0.2-0.4-0.4-0.7-0.7-1c-0.3-0.3-0.6-0.5-1-0.7c-0.4-0.2-0.8-0.3-1.3-0.3c-0.5,0-0.9,0.1-1.3,0.3
			c-0.4,0.2-0.7,0.4-1,0.7c-0.3,0.3-0.5,0.6-0.7,1c-0.2,0.4-0.3,0.8-0.3,1.2h6.5C155.8,338.5,155.7,338.1,155.6,337.7z"/>
		<path d="M161.8,330v15.7h-1.9V330H161.8z"/>
		<path d="M164.8,332.3V330h1.9v2.3H164.8z M166.6,334.3v11.4h-1.9v-11.4H166.6z"/>
		<path d="M174.4,334.3v1.7h-2.3v7.1c0,0.2,0,0.4,0.1,0.5c0,0.1,0.1,0.2,0.2,0.3c0.1,0.1,0.2,0.1,0.4,0.1c0.2,0,0.4,0,0.7,0h0.9v1.7
			H173c-0.5,0-0.9,0-1.2-0.1c-0.3-0.1-0.6-0.2-0.8-0.4c-0.2-0.2-0.4-0.4-0.5-0.7c-0.1-0.3-0.2-0.7-0.2-1.3V336h-1.9v-1.7h1.9v-3.4
			h1.9v3.4H174.4z"/>
		<path d="M179.3,343.3v2.2c0,0.8-0.2,1.6-0.6,2.2s-1,1-1.8,1.3v-1.1c0.2-0.1,0.5-0.2,0.6-0.4c0.2-0.2,0.3-0.4,0.4-0.5
			s0.2-0.4,0.2-0.6c0-0.2,0-0.4,0-0.6h-1.3v-2.4H179.3z"/>
		<path d="M190.1,343.2c0.2,0.3,0.4,0.5,0.7,0.7c0.3,0.2,0.6,0.3,1,0.4s0.7,0.1,1.1,0.1c0.3,0,0.6,0,0.9-0.1c0.3,0,0.6-0.1,0.9-0.2
			c0.3-0.1,0.5-0.3,0.7-0.5c0.2-0.2,0.3-0.5,0.3-0.9c0-0.5-0.2-0.9-0.5-1.1c-0.4-0.2-0.8-0.5-1.4-0.6c-0.6-0.2-1.1-0.3-1.8-0.4
			c-0.6-0.1-1.2-0.3-1.8-0.5c-0.6-0.2-1-0.5-1.4-1c-0.4-0.4-0.6-1-0.6-1.7c0-0.6,0.1-1.1,0.4-1.5c0.3-0.4,0.6-0.7,1-1
			s0.9-0.4,1.4-0.6c0.5-0.1,1-0.2,1.5-0.2c0.6,0,1.2,0.1,1.8,0.2c0.5,0.1,1,0.3,1.4,0.6c0.4,0.3,0.8,0.6,1,1.1
			c0.2,0.5,0.4,1,0.4,1.7h-1.9c0-0.4-0.1-0.7-0.3-0.9c-0.2-0.2-0.4-0.4-0.6-0.6c-0.2-0.1-0.5-0.3-0.8-0.3c-0.3-0.1-0.6-0.1-0.9-0.1
			c-0.3,0-0.6,0-0.8,0.1s-0.5,0.1-0.8,0.2c-0.2,0.1-0.4,0.3-0.6,0.4c-0.1,0.2-0.2,0.4-0.2,0.7c0,0.3,0.1,0.6,0.3,0.8
			c0.2,0.2,0.5,0.4,0.9,0.5c0.4,0.1,0.7,0.3,1.2,0.4c0.4,0.1,0.9,0.2,1.3,0.3c0.5,0.1,0.9,0.2,1.4,0.4c0.4,0.1,0.8,0.3,1.2,0.6
			c0.3,0.2,0.6,0.5,0.8,0.9c0.2,0.4,0.3,0.8,0.3,1.4c0,0.7-0.1,1.3-0.4,1.7c-0.3,0.5-0.7,0.8-1.1,1.1s-1,0.5-1.6,0.6
			c-0.6,0.1-1.2,0.2-1.7,0.2c-0.6,0-1.2-0.1-1.8-0.2c-0.6-0.1-1.1-0.3-1.5-0.6c-0.4-0.3-0.8-0.7-1.1-1.2s-0.4-1.1-0.4-1.8h1.9
			C189.9,342.5,190,342.9,190.1,343.2z"/>
		<path d="M207.8,345c-0.9,0.6-1.9,1-3.2,1c-0.9,0-1.7-0.1-2.4-0.4c-0.7-0.3-1.2-0.7-1.7-1.2c-0.5-0.5-0.8-1.2-1-1.9
			s-0.4-1.5-0.4-2.4c0-0.9,0.1-1.7,0.4-2.4s0.6-1.3,1.1-1.9c0.5-0.5,1-0.9,1.7-1.2c0.7-0.3,1.4-0.4,2.1-0.4c1,0,1.9,0.2,2.5,0.6
			c0.7,0.4,1.2,0.9,1.6,1.6c0.4,0.6,0.7,1.3,0.8,2.1c0.2,0.8,0.2,1.5,0.2,2.2h-8.5c0,0.5,0,1,0.2,1.4c0.1,0.4,0.3,0.8,0.6,1.2
			s0.7,0.6,1.1,0.8c0.5,0.2,1,0.3,1.6,0.3c0.8,0,1.4-0.2,1.9-0.5c0.5-0.4,0.8-0.9,1-1.7h1.8C209.2,343.4,208.6,344.3,207.8,345z
			 M207.3,337.7c-0.2-0.4-0.4-0.7-0.7-1c-0.3-0.3-0.6-0.5-1-0.7c-0.4-0.2-0.8-0.3-1.3-0.3c-0.5,0-0.9,0.1-1.3,0.3
			c-0.4,0.2-0.7,0.4-1,0.7c-0.3,0.3-0.5,0.6-0.7,1c-0.2,0.4-0.3,0.8-0.3,1.2h6.5C207.6,338.5,207.5,338.1,207.3,337.7z"/>
		<path d="M219.8,345.7v-1.5h0c-0.3,0.6-0.8,1.1-1.5,1.4s-1.4,0.4-2.2,0.4c-0.9,0-1.6-0.2-2.3-0.5c-0.7-0.3-1.2-0.8-1.6-1.3
			c-0.4-0.5-0.8-1.2-1-1.9c-0.2-0.7-0.3-1.5-0.3-2.3s0.1-1.6,0.3-2.3s0.5-1.3,1-1.9c0.4-0.5,1-1,1.6-1.3c0.7-0.3,1.4-0.5,2.3-0.5
			c0.3,0,0.6,0,0.9,0.1c0.3,0.1,0.7,0.2,1,0.3s0.7,0.3,1,0.5c0.3,0.2,0.6,0.5,0.8,0.8h0V330h1.9v15.7H219.8z M213.1,341.7
			c0.1,0.5,0.4,1,0.6,1.4c0.3,0.4,0.7,0.7,1.1,0.9c0.4,0.2,1,0.4,1.6,0.4c0.6,0,1.2-0.1,1.6-0.4s0.8-0.6,1.1-1
			c0.3-0.4,0.5-0.9,0.6-1.4c0.1-0.5,0.2-1,0.2-1.6c0-0.6-0.1-1.1-0.2-1.6c-0.1-0.5-0.3-1-0.6-1.4c-0.3-0.4-0.7-0.7-1.1-1
			s-1-0.4-1.6-0.4c-0.6,0-1.2,0.1-1.6,0.4c-0.4,0.2-0.8,0.6-1.1,1c-0.3,0.4-0.5,0.9-0.6,1.4c-0.1,0.5-0.2,1.1-0.2,1.6
			C212.9,340.6,213,341.2,213.1,341.7z"/>
		<path d="M239,345.7v-1.5h0c-0.3,0.6-0.8,1.1-1.5,1.4s-1.4,0.4-2.2,0.4c-0.9,0-1.6-0.2-2.3-0.5c-0.7-0.3-1.2-0.8-1.6-1.3
			c-0.4-0.5-0.8-1.2-1-1.9c-0.2-0.7-0.3-1.5-0.3-2.3s0.1-1.6,0.3-2.3s0.5-1.3,1-1.9c0.4-0.5,1-1,1.6-1.3c0.7-0.3,1.4-0.5,2.3-0.5
			c0.3,0,0.6,0,0.9,0.1c0.3,0.1,0.7,0.2,1,0.3c0.3,0.1,0.7,0.3,1,0.5c0.3,0.2,0.6,0.5,0.8,0.8h0V330h1.9v15.7H239z M232.3,341.7
			c0.1,0.5,0.4,1,0.6,1.4c0.3,0.4,0.7,0.7,1.1,0.9c0.4,0.2,1,0.4,1.6,0.4c0.6,0,1.2-0.1,1.6-0.4c0.4-0.2,0.8-0.6,1.1-1
			c0.3-0.4,0.5-0.9,0.6-1.4c0.1-0.5,0.2-1,0.2-1.6c0-0.6-0.1-1.1-0.2-1.6s-0.3-1-0.6-1.4c-0.3-0.4-0.7-0.7-1.1-1
			c-0.5-0.2-1-0.4-1.7-0.4c-0.6,0-1.2,0.1-1.6,0.4c-0.4,0.2-0.8,0.6-1.1,1c-0.3,0.4-0.5,0.9-0.6,1.4c-0.1,0.5-0.2,1.1-0.2,1.6
			C232,340.6,232.1,341.2,232.3,341.7z"/>
		<path d="M243.8,332.3V330h1.9v2.3H243.8z M245.7,334.3v11.4h-1.9v-11.4H245.7z"/>
		<path d="M258.7,345.7c-0.3,0.2-0.8,0.3-1.3,0.3c-0.5,0-0.9-0.1-1.2-0.4s-0.4-0.7-0.4-1.3c-0.5,0.6-1.1,1.1-1.8,1.3
			c-0.7,0.3-1.4,0.4-2.2,0.4c-0.5,0-1-0.1-1.5-0.2s-0.9-0.3-1.2-0.6c-0.3-0.2-0.6-0.6-0.8-1s-0.3-0.9-0.3-1.5c0-0.6,0.1-1.2,0.3-1.6
			c0.2-0.4,0.5-0.7,0.9-1s0.8-0.5,1.2-0.6s0.9-0.2,1.4-0.3c0.5-0.1,1-0.2,1.5-0.2c0.5-0.1,0.9-0.1,1.2-0.2c0.4-0.1,0.6-0.2,0.8-0.4
			c0.2-0.2,0.3-0.5,0.3-0.8c0-0.4-0.1-0.7-0.2-1c-0.2-0.2-0.4-0.4-0.6-0.6c-0.2-0.1-0.5-0.2-0.8-0.3s-0.6-0.1-0.9-0.1
			c-0.8,0-1.5,0.2-2,0.5s-0.8,0.9-0.9,1.7h-1.9c0-0.7,0.2-1.3,0.4-1.8c0.3-0.5,0.6-0.9,1.1-1.2c0.4-0.3,0.9-0.5,1.5-0.6
			c0.6-0.1,1.2-0.2,1.8-0.2c0.5,0,1,0,1.5,0.1s1,0.2,1.4,0.5c0.4,0.2,0.7,0.5,1,1c0.2,0.4,0.4,0.9,0.4,1.6v5.8c0,0.4,0,0.8,0.1,1
			c0.1,0.2,0.2,0.3,0.5,0.3c0.2,0,0.4,0,0.6-0.1V345.7z M255.7,339.8c-0.2,0.2-0.5,0.3-0.9,0.4c-0.4,0.1-0.8,0.1-1.2,0.2
			c-0.4,0.1-0.8,0.1-1.3,0.2c-0.4,0.1-0.8,0.2-1.1,0.3c-0.3,0.1-0.6,0.4-0.8,0.6c-0.2,0.3-0.3,0.6-0.3,1.1c0,0.3,0.1,0.6,0.2,0.8
			c0.1,0.2,0.3,0.4,0.5,0.5c0.2,0.1,0.4,0.2,0.7,0.3c0.3,0.1,0.5,0.1,0.8,0.1c0.6,0,1.1-0.1,1.6-0.3c0.4-0.2,0.8-0.4,1.1-0.6
			c0.3-0.3,0.5-0.5,0.6-0.8c0.1-0.3,0.2-0.6,0.2-0.8V339.8z"/>
		<path d="M262.2,334.3v1.7h0c0.9-1.3,2.1-1.9,3.7-1.9c0.7,0,1.3,0.1,1.9,0.4c0.6,0.3,1,0.8,1.2,1.5c0.4-0.6,0.9-1.1,1.5-1.4
			c0.6-0.3,1.3-0.5,2.1-0.5c0.6,0,1.1,0.1,1.6,0.2c0.5,0.1,0.9,0.3,1.2,0.6c0.3,0.3,0.6,0.6,0.8,1s0.3,0.9,0.3,1.5v8.3h-1.9v-7.5
			c0-0.4,0-0.7-0.1-1c-0.1-0.3-0.2-0.6-0.3-0.8c-0.2-0.2-0.4-0.4-0.7-0.5c-0.3-0.1-0.7-0.2-1.1-0.2c-0.9,0-1.7,0.3-2.2,0.8
			c-0.5,0.5-0.8,1.2-0.8,2.1v7.1h-1.9v-7.5c0-0.4,0-0.7-0.1-1c-0.1-0.3-0.2-0.6-0.3-0.8c-0.2-0.2-0.4-0.4-0.6-0.5
			c-0.3-0.1-0.6-0.2-1-0.2c-0.5,0-1,0.1-1.4,0.3s-0.7,0.5-0.9,0.8c-0.2,0.3-0.4,0.6-0.5,1c-0.1,0.3-0.2,0.6-0.2,0.8v7.1h-1.9v-11.4
			H262.2z"/>
		<path d="M287.1,334.3v1.8h0c0.8-1.4,2-2.1,3.7-2.1c0.7,0,1.4,0.1,1.9,0.3c0.5,0.2,0.9,0.5,1.2,0.9c0.3,0.4,0.5,0.8,0.6,1.3
			c0.1,0.5,0.2,1.1,0.2,1.7v7.5h-1.9V338c0-0.7-0.2-1.3-0.6-1.7c-0.4-0.4-1-0.6-1.7-0.6c-0.6,0-1.1,0.1-1.5,0.3
			c-0.4,0.2-0.8,0.4-1,0.7c-0.3,0.3-0.5,0.7-0.6,1.1c-0.1,0.4-0.2,0.9-0.2,1.4v6.4h-1.9v-11.4H287.1z"/>
		<path d="M297.7,332.3V330h1.9v2.3H297.7z M299.5,334.3v11.4h-1.9v-11.4H299.5z"/>
		<path d="M304.4,330v5.9h0c0.3-0.6,0.8-1.1,1.5-1.4s1.4-0.4,2.2-0.4c0.9,0,1.6,0.2,2.3,0.5c0.7,0.3,1.2,0.8,1.6,1.3
			c0.4,0.5,0.8,1.2,1,1.9c0.2,0.7,0.3,1.5,0.3,2.3c0,0.8-0.1,1.6-0.3,2.3c-0.2,0.7-0.5,1.3-1,1.9c-0.4,0.5-1,1-1.6,1.3
			c-0.7,0.3-1.4,0.5-2.3,0.5c-0.3,0-0.6,0-0.9-0.1s-0.7-0.2-1-0.3c-0.3-0.1-0.7-0.3-1-0.5c-0.3-0.2-0.6-0.5-0.8-0.8h0v1.5h-1.9V330
			H304.4z M311.1,338.4c-0.1-0.5-0.4-1-0.6-1.4c-0.3-0.4-0.7-0.7-1.1-0.9s-1-0.4-1.6-0.4c-0.6,0-1.2,0.1-1.6,0.4
			c-0.4,0.2-0.8,0.6-1.1,1c-0.3,0.4-0.5,0.9-0.6,1.4s-0.2,1-0.2,1.6c0,0.6,0.1,1.1,0.2,1.6c0.1,0.5,0.3,1,0.6,1.4
			c0.3,0.4,0.7,0.7,1.1,1c0.5,0.2,1,0.4,1.7,0.4c0.6,0,1.2-0.1,1.6-0.4c0.4-0.2,0.8-0.6,1-1c0.3-0.4,0.5-0.9,0.6-1.4
			c0.1-0.5,0.2-1.1,0.2-1.6C311.3,339.4,311.2,338.9,311.1,338.4z"/>
		<path d="M317.3,330v6h0c0.1-0.4,0.4-0.6,0.6-0.9c0.3-0.2,0.6-0.4,0.9-0.6c0.3-0.2,0.7-0.3,1-0.3c0.4-0.1,0.7-0.1,1-0.1
			c0.7,0,1.4,0.1,1.9,0.3c0.5,0.2,0.9,0.5,1.2,0.9c0.3,0.4,0.5,0.8,0.6,1.3c0.1,0.5,0.2,1.1,0.2,1.7v7.5H323V338
			c0-0.7-0.2-1.3-0.6-1.7c-0.4-0.4-1-0.6-1.7-0.6c-0.6,0-1.1,0.1-1.5,0.3c-0.4,0.2-0.8,0.4-1,0.7c-0.3,0.3-0.5,0.7-0.6,1.1
			c-0.1,0.4-0.2,0.9-0.2,1.4v6.4h-1.9V330H317.3z"/>
		<path d="M341.9,345c-0.9,0.6-1.9,1-3.2,1c-0.9,0-1.7-0.1-2.4-0.4c-0.7-0.3-1.2-0.7-1.7-1.2c-0.5-0.5-0.8-1.2-1-1.9
			s-0.4-1.5-0.4-2.4c0-0.9,0.1-1.7,0.4-2.4c0.3-0.7,0.6-1.3,1.1-1.9c0.5-0.5,1-0.9,1.7-1.2c0.7-0.3,1.4-0.4,2.1-0.4
			c1,0,1.9,0.2,2.5,0.6c0.7,0.4,1.2,0.9,1.6,1.6s0.7,1.3,0.8,2.1c0.2,0.8,0.2,1.5,0.2,2.2h-8.5c0,0.5,0,1,0.2,1.4s0.3,0.8,0.6,1.2
			c0.3,0.3,0.7,0.6,1.1,0.8c0.5,0.2,1,0.3,1.6,0.3c0.8,0,1.4-0.2,1.9-0.5c0.5-0.4,0.8-0.9,1-1.7h1.8
			C343.3,343.4,342.7,344.3,341.9,345z M341.4,337.7c-0.2-0.4-0.4-0.7-0.7-1s-0.6-0.5-1-0.7c-0.4-0.2-0.8-0.3-1.3-0.3
			c-0.5,0-0.9,0.1-1.3,0.3c-0.4,0.2-0.7,0.4-1,0.7c-0.3,0.3-0.5,0.6-0.7,1s-0.3,0.8-0.3,1.2h6.5
			C341.7,338.5,341.6,338.1,341.4,337.7z"/>
		<path d="M353.3,345.7v-1.8h0c-0.4,0.7-0.9,1.2-1.5,1.6s-1.3,0.5-2.2,0.5c-0.7,0-1.4-0.1-1.9-0.3c-0.5-0.2-0.9-0.5-1.2-0.8
			c-0.3-0.4-0.5-0.8-0.6-1.3c-0.1-0.5-0.2-1.1-0.2-1.7v-7.5h1.9v7.7c0,0.7,0.2,1.3,0.6,1.7c0.4,0.4,1,0.6,1.7,0.6
			c0.6,0,1.1-0.1,1.5-0.3c0.4-0.2,0.8-0.4,1-0.7c0.3-0.3,0.5-0.7,0.6-1.1c0.1-0.4,0.2-0.9,0.2-1.4v-6.4h1.9v11.4H353.3z"/>
		<path d="M358,332.3V330h1.9v2.3H358z M359.8,334.3v11.4H358v-11.4H359.8z"/>
		<path d="M364.2,343.2c0.2,0.3,0.4,0.5,0.7,0.7c0.3,0.2,0.6,0.3,1,0.4s0.7,0.1,1.1,0.1c0.3,0,0.6,0,0.9-0.1c0.3,0,0.6-0.1,0.9-0.2
			c0.3-0.1,0.5-0.3,0.7-0.5c0.2-0.2,0.3-0.5,0.3-0.9c0-0.5-0.2-0.9-0.6-1.1c-0.4-0.2-0.8-0.5-1.4-0.6c-0.5-0.2-1.1-0.3-1.8-0.4
			c-0.6-0.1-1.2-0.3-1.8-0.5c-0.5-0.2-1-0.5-1.4-1c-0.4-0.4-0.5-1-0.5-1.7c0-0.6,0.1-1.1,0.4-1.5c0.3-0.4,0.6-0.7,1-1
			s0.9-0.4,1.4-0.6c0.5-0.1,1-0.2,1.5-0.2c0.6,0,1.2,0.1,1.8,0.2c0.5,0.1,1,0.3,1.4,0.6c0.4,0.3,0.8,0.6,1,1.1
			c0.2,0.5,0.4,1,0.4,1.7h-1.9c0-0.4-0.1-0.7-0.3-0.9c-0.2-0.2-0.4-0.4-0.6-0.6c-0.2-0.1-0.5-0.3-0.8-0.3c-0.3-0.1-0.6-0.1-0.9-0.1
			c-0.3,0-0.6,0-0.8,0.1c-0.3,0-0.5,0.1-0.8,0.2c-0.2,0.1-0.4,0.3-0.6,0.4s-0.2,0.4-0.2,0.7c0,0.3,0.1,0.6,0.3,0.8
			c0.2,0.2,0.5,0.4,0.9,0.5c0.4,0.1,0.7,0.3,1.2,0.4c0.4,0.1,0.9,0.2,1.3,0.3c0.5,0.1,0.9,0.2,1.4,0.4s0.8,0.3,1.2,0.6
			c0.3,0.2,0.6,0.5,0.8,0.9c0.2,0.4,0.3,0.8,0.3,1.4c0,0.7-0.1,1.3-0.4,1.7c-0.3,0.5-0.7,0.8-1.1,1.1s-1,0.5-1.6,0.6
			c-0.6,0.1-1.2,0.2-1.7,0.2c-0.6,0-1.2-0.1-1.8-0.2c-0.6-0.1-1.1-0.3-1.5-0.6c-0.4-0.3-0.8-0.7-1.1-1.2s-0.4-1.1-0.4-1.8h1.9
			C363.9,342.5,364,342.9,364.2,343.2z"/>
		<path d="M375.5,334.3v1.7h0c0.9-1.3,2.1-1.9,3.7-1.9c0.7,0,1.3,0.1,1.9,0.4c0.6,0.3,1,0.8,1.2,1.5c0.4-0.6,0.9-1.1,1.5-1.4
			c0.6-0.3,1.3-0.5,2.1-0.5c0.6,0,1.1,0.1,1.6,0.2c0.5,0.1,0.9,0.3,1.2,0.6c0.3,0.3,0.6,0.6,0.8,1s0.3,0.9,0.3,1.5v8.3h-1.9v-7.5
			c0-0.4,0-0.7-0.1-1c-0.1-0.3-0.2-0.6-0.3-0.8c-0.2-0.2-0.4-0.4-0.7-0.5c-0.3-0.1-0.7-0.2-1.1-0.2c-0.9,0-1.7,0.3-2.2,0.8
			c-0.5,0.5-0.8,1.2-0.8,2.1v7.1h-1.9v-7.5c0-0.4,0-0.7-0.1-1c-0.1-0.3-0.2-0.6-0.3-0.8c-0.2-0.2-0.4-0.4-0.6-0.5
			c-0.3-0.1-0.6-0.2-1-0.2c-0.5,0-1,0.1-1.4,0.3s-0.7,0.5-0.9,0.8c-0.2,0.3-0.4,0.6-0.5,1c-0.1,0.3-0.2,0.6-0.2,0.8v7.1h-1.9v-11.4
			H375.5z"/>
		<path d="M392.3,337.7c0.2-0.7,0.6-1.4,1.1-1.9c0.5-0.5,1-1,1.7-1.3c0.7-0.3,1.5-0.5,2.4-0.5c0.9,0,1.7,0.2,2.4,0.5
			c0.7,0.3,1.3,0.7,1.7,1.3c0.5,0.5,0.8,1.2,1.1,1.9c0.2,0.7,0.4,1.5,0.4,2.3s-0.1,1.6-0.4,2.3c-0.2,0.7-0.6,1.3-1.1,1.9
			s-1,1-1.7,1.3c-0.7,0.3-1.5,0.5-2.4,0.5c-0.9,0-1.7-0.2-2.4-0.5c-0.7-0.3-1.3-0.7-1.7-1.3c-0.5-0.5-0.8-1.2-1.1-1.9
			c-0.2-0.7-0.4-1.5-0.4-2.3S392,338.4,392.3,337.7z M394.2,341.9c0.2,0.5,0.4,1,0.8,1.3c0.3,0.4,0.7,0.6,1.1,0.8
			c0.4,0.2,0.9,0.3,1.4,0.3c0.5,0,0.9-0.1,1.4-0.3c0.4-0.2,0.8-0.5,1.1-0.8c0.3-0.4,0.6-0.8,0.8-1.3s0.3-1.1,0.3-1.8
			s-0.1-1.3-0.3-1.8s-0.4-1-0.8-1.4c-0.3-0.4-0.7-0.6-1.1-0.8c-0.4-0.2-0.9-0.3-1.4-0.3c-0.5,0-0.9,0.1-1.4,0.3
			c-0.4,0.2-0.8,0.5-1.1,0.8c-0.3,0.4-0.6,0.8-0.8,1.4s-0.3,1.1-0.3,1.8S394,341.3,394.2,341.9z"/>
		<path d="M413.4,345.7v-1.5h0c-0.3,0.6-0.8,1.1-1.5,1.4s-1.4,0.4-2.2,0.4c-0.9,0-1.6-0.2-2.3-0.5c-0.7-0.3-1.2-0.8-1.6-1.3
			c-0.4-0.5-0.8-1.2-1-1.9s-0.3-1.5-0.3-2.3s0.1-1.6,0.3-2.3c0.2-0.7,0.5-1.3,1-1.9s1-1,1.6-1.3s1.4-0.5,2.3-0.5
			c0.3,0,0.6,0,0.9,0.1c0.3,0.1,0.7,0.2,1,0.3c0.3,0.1,0.7,0.3,1,0.5c0.3,0.2,0.6,0.5,0.8,0.8h0V330h1.9v15.7H413.4z M406.7,341.7
			c0.1,0.5,0.4,1,0.6,1.4c0.3,0.4,0.7,0.7,1.1,0.9c0.4,0.2,1,0.4,1.6,0.4c0.6,0,1.2-0.1,1.6-0.4c0.4-0.2,0.8-0.6,1.1-1
			c0.3-0.4,0.5-0.9,0.6-1.4c0.1-0.5,0.2-1,0.2-1.6c0-0.6-0.1-1.1-0.2-1.6s-0.3-1-0.6-1.4c-0.3-0.4-0.7-0.7-1.1-1
			c-0.5-0.2-1-0.4-1.7-0.4c-0.6,0-1.2,0.1-1.6,0.4c-0.4,0.2-0.8,0.6-1.1,1c-0.3,0.4-0.5,0.9-0.6,1.4c-0.1,0.5-0.2,1.1-0.2,1.6
			C406.5,340.6,406.6,341.2,406.7,341.7z"/>
		<path d="M421,343.3v2.4h-2.4v-2.4H421z"/>
	</g>
	<g>
		<path class="st3" d="M572.1,287.9v32.2H77.9v-32.2L572.1,287.9 M575,285H75v38h500V285L575,285z"/>
	</g>
	<g>
		<path class="st3" d="M572.1,322.9v32.2H77.9v-32.2H572.1 M575,320H75v38h500V320L575,320z"/>
	</g>
	<g>
		<path class="st3" d="M353.1,161.9v32.2H216.9v-32.2H353.1 M356,159H214v38h142V159L356,159z"/>
	</g>
	<g>
		<path class="st3" d="M364.1,287.9v32.2H216.9v-32.2h136.2 M356,285H214v38h153v-38H356z"/>
	</g>
</g>
<g>
	<g>
		<line class="st5" x1="325" y1="49.9" x2="325" y2="0"/>
		<g>
			<polygon class="st6" points="335.5,46.9 325,65 314.5,46.9 			"/>
		</g>
	</g>
</g>
<rect x="225.8" class="st6" width="198.3" height="41"/>
<text transform="matrix(1 0 0 1 241.96 29)" class="st0 st7 st8">Containing box</text>
</svg>
