<?xml version="1.0" encoding="utf-8"?>
<!-- Generator: Adobe Illustrator 22.0.1, SVG Export Plug-In . SVG Version: 6.00 Build 0)  -->
<svg version="1.1" xmlns="http://www.w3.org/2000/svg" xmlns:xlink="http://www.w3.org/1999/xlink" x="0px" y="0px"
	 viewBox="0 0 650 400" style="enable-background:new 0 0 650 400;" xml:space="preserve">
<style type="text/css">
	.st0{fill:#FFFFFF;}
	.st1{fill:#D2D2D2;}
	.st2{fill:#B04636;}
	.st3{font-family:'HelveticaNeue-Bold';}
	.st4{font-size:32px;}
	.st5{fill:none;}
	.st6{font-family:'HelveticaNeue';}
	.st7{font-size:22px;}
	.st8{fill:#B0C590;}
	.st9{fill:#568312;}
	.st10{fill:#99B370;}
	.st11{fill:#CBF8CB;}
	.st12{fill:#9FB978;}
	.st13{fill:none;stroke:#B04636;stroke-width:7;stroke-miterlimit:10;}
	.st14{font-size:23px;}
</style>
<g id="content">
	<g>
		<rect x="26.5" y="88.5" class="st0" width="577" height="240"/>
		<path class="st1" d="M602,90v237H28V90H602 M605,87H25v243h580V87L605,87z"/>
	</g>
	<g>
		<rect x="46.5" y="108.5" class="st0" width="537" height="200"/>
		<path class="st1" d="M582,110v197H48V110H582 M585,107H45v203h540V107L585,107z"/>
	</g>
	<g>
		<rect x="56.5" y="173.5" class="st0" width="517" height="125"/>
		<path class="st1" d="M572,175v122H58V175H572 M575,172H55v128h520V172L575,172z"/>
	</g>
	<g>
		<rect x="56.5" y="118.5" class="st0" width="517" height="42"/>
		<path class="st1" d="M572,120v39H58v-39H572 M575,117H55v45h520V117L575,117z"/>
	</g>
	<g>
		<rect x="136.5" y="183.5" class="st0" width="427" height="35"/>
		<path class="st1" d="M562,185v32H138v-32H562 M565,182H135v38h430V182L565,182z"/>
	</g>
	<text transform="matrix(1 0 0 1 57.9998 149.4238)" class="st3 st4">This is a heading</text>
	<rect x="138" y="190" class="st5" width="427" height="30"/>
	<text transform="matrix(1 0 0 1 138.0002 205.708)" class="st6 st7">Lorem ipsum dolor sit amet, consect etuer</text>
	<g>
		<rect x="136.5" y="218.5" class="st0" width="427" height="35"/>
		<path class="st1" d="M562,220v32H138v-32H562 M565,217H135v38h430V217L565,217z"/>
	</g>
	<rect x="138" y="225" class="st5" width="427" height="30"/>
	<text transform="matrix(1 0 0 1 138.0002 240.708)" class="st6 st7">elit sed diam nibh euismod tincidunt ut</text>
	<g>
		<rect x="66.5" y="253.5" class="st0" width="497" height="35"/>
		<path class="st1" d="M562,255v32H68v-32H562 M565,252H65v38h500V252L565,252z"/>
	</g>
	<rect x="68" y="260" class="st5" width="497" height="30"/>
	<text transform="matrix(1 0 0 1 68.0002 275.708)" class="st6 st7">laoreet dolore magna aliquam erat volutpat.</text>
</g>
<g id="feature">
	<g>
		<rect x="66.5" y="183.5" class="st8" width="57" height="57"/>
		<g>
			<path class="st9" d="M122,185v54H68v-54H122 M125,182H65v60h60V182L125,182z"/>
		</g>
	</g>
	<g>
		<path class="st2" d="M129,172h-3v3h3V172L129,172z M123,172h-3v3h3V172L123,172z M117,172h-3v3h3V172L117,172z M111,172h-3v3h3
			V172L111,172z M105,172h-3v3h3V172L105,172z M99,172h-3v3h3V172L99,172z M93,172h-3v3h3V172L93,172z M87,172h-3v3h3V172L87,172z
			 M81,172h-3v3h3V172L81,172z M75,172h-3v3h3V172L75,172z M69,172h-3v3h3V172L69,172z M63,172h-3v3h3V172L63,172z M58,172h-3v3h2
			v-2h1V172L58,172z M58,176h-3v3h3V176L58,176z M58,182h-3v3h3V182L58,182z M58,188h-3v3h3V188L58,188z M58,194h-3v3h3V194L58,194z
			 M58,200h-3v3h3V200L58,200z M58,206h-3v3h3V206L58,206z M58,212h-3v3h3V212L58,212z M58,218h-3v3h3V218L58,218z M58,224h-3v3h3
			V224L58,224z M58,230h-3v3h3V230L58,230z M58,236h-3v3h3V236L58,236z M58,242h-3v3h3V242L58,242z M58,248h-3v3h2v1h3v-3h-2V248
			L58,248z M66,249h-3v3h3V249L66,249z M72,249h-3v3h3V249L72,249z M78,249h-3v3h3V249L78,249z M84,249h-3v3h3V249L84,249z M90,249
			h-3v3h3V249L90,249z M96,249h-3v3h3V249L96,249z M102,249h-3v3h3V249L102,249z M108,249h-3v3h3V249L108,249z M114,249h-3v3h3V249
			L114,249z M120,249h-3v3h3V249L120,249z M126,249h-3v3h3V249L126,249z M132,249h-3v3h3V249L132,249z M135,249h-3v3h3V249L135,249z
			 M135,243h-3v3h3V243L135,243z M135,237h-3v3h3V237L135,237z M135,231h-3v3h3V231L135,231z M135,225h-3v3h3V225L135,225z M135,219
			h-3v3h3V219L135,219z M135,213h-3v3h3V213L135,213z M135,207h-3v3h3V207L135,207z M135,201h-3v3h3V201L135,201z M135,195h-3v3h3
			V195L135,195z M135,189h-3v3h3V189L135,189z M135,183h-3v3h3V183L135,183z M135,177h-3v3h3V177L135,177z M135,172h-3v3h3V172
			L135,172z"/>
	</g>
</g>
<g id="label">
	<rect x="25" y="10" class="st2" width="519" height="41"/>
	<text transform="matrix(1 0 0 1 39.5288 37.7117)" class="st0 st3 st14">Right margin moves content away from float</text>
	<g>
		<g>
			<line class="st13" x1="135" y1="164.1" x2="135" y2="51"/>
			<g>
				<polygon class="st2" points="145.5,161 135,179.2 124.5,161 				"/>
			</g>
		</g>
	</g>
</g>
</svg>
