<?xml version="1.0" encoding="utf-8"?>
<!-- Generator: Adobe Illustrator 22.0.1, SVG Export Plug-In . SVG Version: 6.00 Build 0)  -->
<svg version="1.1" id="Layer_1" xmlns="http://www.w3.org/2000/svg" xmlns:xlink="http://www.w3.org/1999/xlink" x="0px" y="0px"
	 viewBox="0 0 650 400" style="enable-background:new 0 0 650 400;" xml:space="preserve">
<style type="text/css">
	.st0{fill:#FFFFFF;}
	.st1{fill:#C8C8C8;}
	.st2{fill:#B04636;}
	.st3{fill:#568312;}
	.st4{fill:none;stroke:#B04636;stroke-width:7;stroke-miterlimit:10;}
	.st5{font-family:'HelveticaNeue-Bold';}
	.st6{font-size:22px;}
	.st7{font-family:'Times-Roman';}
	.st8{font-size:34px;}
	.st9{font-family:'Times-Bold';}
</style>
<g>
	<rect x="31.2" y="31.2" class="st0" width="587.7" height="49.7"/>
	<path class="st1" d="M617.7,32.3v47.3H32.3V32.3H617.7 M620,30H30v52h590V30L620,30z"/>
</g>
<rect x="75" y="219" class="st2" width="340" height="45"/>
<g>
	<text transform="matrix(1 0 0 1 92.3333 248.5)" class="st0 st5 st6">Generated content: attribute</text>
</g>
<text transform="matrix(1 0 0 1 40 66)" class="st7 st8">A paragraph of text</text>
<g>
	<text transform="matrix(1 0 0 1 310 66)" class="st3 st9 st8">class: intro</text>
</g>
<g>
	<g>
		<line class="st4" x1="319.4" y1="82" x2="76.5" y2="220.5"/>
		<g>
			<polygon class="st2" points="311.6,74.4 332.5,74.5 321.9,92.6 			"/>
		</g>
	</g>
</g>
<g>
	<g>
		<line class="st4" x1="403.4" y1="82" x2="279.5" y2="152.5"/>
		<g>
			<polygon class="st2" points="395.6,74.4 416.5,74.5 405.9,92.6 			"/>
		</g>
	</g>
</g>
<rect x="272" y="146" class="st2" width="350" height="45"/>
<g>
	<text transform="matrix(1 0 0 1 289.3333 175.5)" class="st0 st5 st6">Generated content: text string</text>
</g>
</svg>
