<?xml version="1.0" encoding="utf-8"?>
<!-- Generator: Adobe Illustrator 22.0.1, SVG Export Plug-In . SVG Version: 6.00 Build 0)  -->
<svg version="1.1" id="Layer_1" xmlns="http://www.w3.org/2000/svg" xmlns:xlink="http://www.w3.org/1999/xlink" x="0px" y="0px"
	 viewBox="0 0 650 400" style="enable-background:new 0 0 650 400;" xml:space="preserve">
<style type="text/css">
	.st0{fill:#F0F0F0;}
	.st1{fill:#568312;}
	.st2{enable-background:new    ;}
	.st3{fill:#D2D2D2;}
	.st4{fill:#595959;}
	.st5{fill:#FFFFFF;}
	.st6{fill:none;stroke:#B04636;stroke-width:4.5594;stroke-miterlimit:10;}
	.st7{fill:#B04636;}
	.st8{font-family:'HelveticaNeue-Bold';}
	.st9{font-size:23px;}
</style>
<g>
	<g>
		<g>
			<g>
				<rect x="34.3" y="61.6" class="st0" width="569" height="329"/>
				<path class="st1" d="M600.8,64.1v324h-564v-324H600.8 M608.8,59.1L608.8,59.1L608.8,59.1z M608.8,59.1h-577v334h574v-332
					L608.8,59.1L608.8,59.1z"/>
			</g>
		</g>
	</g>
	<g class="st2">
		<path class="st3" d="M59.1,92.5v-4.2h18.7v4.2h-6.8v18.6h-5V92.5H59.1z"/>
		<path class="st3" d="M84.5,88.3v8.6h0.1c0.6-1,1.3-1.7,2.2-2.1s1.8-0.7,2.6-0.7c1.2,0,2.2,0.2,3,0.5c0.8,0.3,1.4,0.8,1.8,1.4
			c0.4,0.6,0.8,1.3,0.9,2.1c0.2,0.8,0.3,1.8,0.3,2.8v10.2h-4.5v-9.3c0-1.4-0.2-2.4-0.6-3.1c-0.4-0.7-1.2-1-2.3-1
			c-1.2,0-2.1,0.4-2.7,1.1c-0.6,0.7-0.8,1.9-0.8,3.6v8.7h-4.5V88.3H84.5z"/>
		<path class="st3" d="M99,92v-3.7h4.5V92H99z M103.6,94.6v16.5H99V94.6H103.6z"/>
		<path class="st3" d="M111,107c0.2,0.4,0.5,0.6,0.8,0.9s0.7,0.4,1.1,0.5c0.4,0.1,0.8,0.2,1.3,0.2c0.3,0,0.7,0,1-0.1
			c0.4-0.1,0.7-0.2,1-0.4c0.3-0.2,0.5-0.4,0.7-0.6c0.2-0.3,0.3-0.6,0.3-1c0-0.7-0.5-1.2-1.4-1.5c-0.9-0.3-2.2-0.7-3.8-1
			c-0.7-0.1-1.3-0.3-1.9-0.5c-0.6-0.2-1.2-0.5-1.7-0.8s-0.9-0.7-1.2-1.2s-0.4-1.1-0.4-1.8c0-1.1,0.2-1.9,0.6-2.6s1-1.2,1.6-1.6
			c0.7-0.4,1.5-0.7,2.3-0.8c0.9-0.2,1.7-0.2,2.6-0.2s1.8,0.1,2.6,0.3c0.8,0.2,1.6,0.5,2.3,0.9c0.7,0.4,1.2,0.9,1.6,1.6
			c0.4,0.7,0.7,1.5,0.8,2.5h-4.3c-0.1-0.9-0.4-1.5-1-1.8c-0.6-0.3-1.3-0.5-2.1-0.5c-0.3,0-0.5,0-0.8,0c-0.3,0-0.6,0.1-0.8,0.2
			c-0.2,0.1-0.5,0.3-0.6,0.5c-0.2,0.2-0.3,0.5-0.3,0.8c0,0.4,0.1,0.7,0.4,1c0.3,0.3,0.7,0.5,1.2,0.6s1,0.3,1.6,0.4
			c0.6,0.1,1.2,0.3,1.9,0.4c0.7,0.1,1.3,0.3,1.9,0.5c0.6,0.2,1.2,0.5,1.7,0.8c0.5,0.4,0.9,0.8,1.2,1.3c0.3,0.5,0.4,1.2,0.4,1.9
			c0,1.1-0.2,2-0.7,2.7c-0.4,0.7-1,1.3-1.7,1.8c-0.7,0.4-1.5,0.8-2.4,0.9c-0.9,0.2-1.8,0.3-2.8,0.3c-1,0-1.9-0.1-2.8-0.3
			c-0.9-0.2-1.7-0.5-2.4-1c-0.7-0.4-1.3-1-1.8-1.8c-0.5-0.7-0.7-1.7-0.8-2.8h4.3C110.7,106.2,110.8,106.6,111,107z"/>
		<path class="st3" d="M133.4,92v-3.7h4.5V92H133.4z M137.9,94.6v16.5h-4.5V94.6H137.9z"/>
		<path class="st3" d="M145.3,107c0.2,0.4,0.5,0.6,0.8,0.9s0.7,0.4,1.1,0.5c0.4,0.1,0.8,0.2,1.3,0.2c0.3,0,0.7,0,1-0.1
			c0.4-0.1,0.7-0.2,1-0.4c0.3-0.2,0.5-0.4,0.7-0.6c0.2-0.3,0.3-0.6,0.3-1c0-0.7-0.5-1.2-1.4-1.5c-0.9-0.3-2.2-0.7-3.8-1
			c-0.7-0.1-1.3-0.3-1.9-0.5c-0.6-0.2-1.2-0.5-1.7-0.8s-0.9-0.7-1.2-1.2s-0.4-1.1-0.4-1.8c0-1.1,0.2-1.9,0.6-2.6s1-1.2,1.6-1.6
			c0.7-0.4,1.5-0.7,2.3-0.8c0.9-0.2,1.7-0.2,2.6-0.2s1.8,0.1,2.6,0.3c0.8,0.2,1.6,0.5,2.3,0.9c0.7,0.4,1.2,0.9,1.6,1.6
			c0.4,0.7,0.7,1.5,0.8,2.5h-4.3c-0.1-0.9-0.4-1.5-1-1.8c-0.6-0.3-1.3-0.5-2.1-0.5c-0.3,0-0.5,0-0.8,0c-0.3,0-0.6,0.1-0.8,0.2
			c-0.2,0.1-0.5,0.3-0.6,0.5c-0.2,0.2-0.3,0.5-0.3,0.8c0,0.4,0.1,0.7,0.4,1c0.3,0.3,0.7,0.5,1.2,0.6s1,0.3,1.6,0.4
			c0.6,0.1,1.2,0.3,1.9,0.4c0.7,0.1,1.3,0.3,1.9,0.5c0.6,0.2,1.2,0.5,1.7,0.8c0.5,0.4,0.9,0.8,1.2,1.3c0.3,0.5,0.4,1.2,0.4,1.9
			c0,1.1-0.2,2-0.7,2.7c-0.4,0.7-1,1.3-1.7,1.8c-0.7,0.4-1.5,0.8-2.4,0.9c-0.9,0.2-1.8,0.3-2.8,0.3c-1,0-1.9-0.1-2.8-0.3
			c-0.9-0.2-1.7-0.5-2.4-1c-0.7-0.4-1.3-1-1.8-1.8c-0.5-0.7-0.7-1.7-0.8-2.8h4.3C145,106.2,145.1,106.6,145.3,107z"/>
		<path class="st3" d="M167.4,99.7c0.1-1.1,0.3-2,0.8-2.7s1.1-1.3,1.8-1.7c0.7-0.4,1.5-0.7,2.4-0.9c0.9-0.2,1.8-0.3,2.7-0.3
			c0.8,0,1.7,0.1,2.5,0.2c0.9,0.1,1.6,0.3,2.3,0.7c0.7,0.3,1.3,0.8,1.7,1.4c0.4,0.6,0.7,1.4,0.7,2.4v8.6c0,0.7,0,1.5,0.1,2.1
			c0.1,0.7,0.2,1.2,0.4,1.5h-4.6c-0.1-0.3-0.2-0.5-0.2-0.8c-0.1-0.3-0.1-0.5-0.1-0.8c-0.7,0.7-1.6,1.3-2.6,1.6c-1,0.3-2,0.4-3,0.4
			c-0.8,0-1.5-0.1-2.2-0.3c-0.7-0.2-1.3-0.5-1.8-0.9c-0.5-0.4-0.9-0.9-1.2-1.5s-0.4-1.4-0.4-2.2c0-0.9,0.2-1.7,0.5-2.3
			c0.3-0.6,0.8-1.1,1.3-1.5c0.5-0.4,1.1-0.6,1.8-0.8c0.7-0.2,1.3-0.3,2-0.4c0.7-0.1,1.4-0.2,2-0.3c0.7-0.1,1.2-0.2,1.8-0.3
			c0.5-0.1,0.9-0.3,1.2-0.6c0.3-0.2,0.4-0.6,0.4-1.1c0-0.5-0.1-0.9-0.2-1.2s-0.4-0.5-0.6-0.7c-0.3-0.2-0.6-0.3-0.9-0.3
			c-0.4-0.1-0.7-0.1-1.1-0.1c-0.9,0-1.6,0.2-2.1,0.6c-0.5,0.4-0.8,1-0.9,1.9H167.4z M177.9,103c-0.2,0.2-0.4,0.3-0.7,0.4
			c-0.3,0.1-0.6,0.2-0.9,0.2c-0.3,0.1-0.7,0.1-1,0.2c-0.4,0-0.7,0.1-1.1,0.2c-0.3,0.1-0.7,0.1-1,0.3c-0.3,0.1-0.6,0.3-0.9,0.4
			c-0.2,0.2-0.4,0.4-0.6,0.7c-0.1,0.3-0.2,0.6-0.2,1.1c0,0.4,0.1,0.7,0.2,1c0.1,0.3,0.4,0.5,0.6,0.7c0.3,0.2,0.6,0.3,0.9,0.3
			c0.3,0.1,0.7,0.1,1.1,0.1c0.9,0,1.6-0.1,2.1-0.4c0.5-0.3,0.9-0.7,1.1-1.1c0.2-0.4,0.4-0.8,0.4-1.3c0.1-0.4,0.1-0.8,0.1-1V103z"/>
		<path class="st3" d="M199.4,88.3v8.6h0.1c0.6-1,1.3-1.7,2.2-2.1s1.8-0.7,2.6-0.7c1.2,0,2.2,0.2,3,0.5c0.8,0.3,1.4,0.8,1.8,1.4
			c0.4,0.6,0.8,1.3,0.9,2.1c0.2,0.8,0.3,1.8,0.3,2.8v10.2h-4.5v-9.3c0-1.4-0.2-2.4-0.6-3.1c-0.4-0.7-1.2-1-2.3-1
			c-1.2,0-2.1,0.4-2.7,1.1c-0.6,0.7-0.8,1.9-0.8,3.6v8.7h-4.5V88.3H199.4z"/>
		<path class="st3" d="M218.7,107.1c0.7,0.7,1.7,1,2.9,1c0.9,0,1.7-0.2,2.4-0.7c0.7-0.5,1.1-0.9,1.2-1.5h4c-0.6,2-1.6,3.4-2.9,4.3
			c-1.3,0.9-2.9,1.3-4.8,1.3c-1.3,0-2.5-0.2-3.5-0.6c-1-0.4-1.9-1-2.7-1.8c-0.7-0.8-1.3-1.7-1.7-2.8c-0.4-1.1-0.6-2.2-0.6-3.5
			c0-1.2,0.2-2.4,0.6-3.5c0.4-1.1,1-2,1.7-2.8c0.7-0.8,1.6-1.4,2.7-1.8c1-0.4,2.2-0.7,3.4-0.7c1.4,0,2.6,0.3,3.7,0.8
			s1.9,1.3,2.6,2.2c0.7,0.9,1.2,2,1.5,3.1c0.3,1.2,0.4,2.4,0.3,3.7h-11.9C217.6,105.4,218,106.5,218.7,107.1z M223.8,98.4
			c-0.5-0.6-1.4-0.9-2.5-0.9c-0.7,0-1.3,0.1-1.8,0.4c-0.5,0.2-0.9,0.5-1.2,0.9c-0.3,0.4-0.5,0.7-0.6,1.2s-0.2,0.8-0.2,1.1h7.4
			C224.7,99.9,224.4,99,223.8,98.4z"/>
		<path class="st3" d="M232,99.7c0.1-1.1,0.3-2,0.8-2.7c0.5-0.7,1.1-1.3,1.8-1.7c0.7-0.4,1.5-0.7,2.4-0.9c0.9-0.2,1.8-0.3,2.7-0.3
			c0.8,0,1.7,0.1,2.5,0.2c0.9,0.1,1.6,0.3,2.3,0.7c0.7,0.3,1.3,0.8,1.7,1.4c0.4,0.6,0.7,1.4,0.7,2.4v8.6c0,0.7,0,1.5,0.1,2.1
			c0.1,0.7,0.2,1.2,0.4,1.5H243c-0.1-0.3-0.2-0.5-0.2-0.8c-0.1-0.3-0.1-0.5-0.1-0.8c-0.7,0.7-1.6,1.3-2.6,1.6c-1,0.3-2,0.4-3,0.4
			c-0.8,0-1.5-0.1-2.2-0.3c-0.7-0.2-1.3-0.5-1.8-0.9c-0.5-0.4-0.9-0.9-1.2-1.5s-0.4-1.4-0.4-2.2c0-0.9,0.2-1.7,0.5-2.3
			c0.3-0.6,0.8-1.1,1.3-1.5c0.5-0.4,1.1-0.6,1.8-0.8c0.7-0.2,1.3-0.3,2-0.4c0.7-0.1,1.4-0.2,2-0.3s1.2-0.2,1.8-0.3
			c0.5-0.1,0.9-0.3,1.2-0.6c0.3-0.2,0.4-0.6,0.4-1.1c0-0.5-0.1-0.9-0.2-1.2s-0.4-0.5-0.6-0.7c-0.3-0.2-0.6-0.3-0.9-0.3
			c-0.4-0.1-0.7-0.1-1.1-0.1c-0.9,0-1.6,0.2-2.1,0.6c-0.5,0.4-0.8,1-0.9,1.9H232z M242.5,103c-0.2,0.2-0.4,0.3-0.7,0.4
			c-0.3,0.1-0.6,0.2-0.9,0.2c-0.3,0.1-0.7,0.1-1,0.2s-0.7,0.1-1.1,0.2c-0.3,0.1-0.7,0.1-1,0.3c-0.3,0.1-0.6,0.3-0.9,0.4
			c-0.2,0.2-0.4,0.4-0.6,0.7s-0.2,0.6-0.2,1.1c0,0.4,0.1,0.7,0.2,1s0.4,0.5,0.6,0.7c0.3,0.2,0.6,0.3,0.9,0.3
			c0.3,0.1,0.7,0.1,1.1,0.1c0.9,0,1.6-0.1,2.1-0.4c0.5-0.3,0.9-0.7,1.1-1.1c0.2-0.4,0.4-0.8,0.4-1.3c0.1-0.4,0.1-0.8,0.1-1V103z"/>
		<path class="st3" d="M262.3,109c-0.5,0.9-1.2,1.5-2.1,1.9s-1.8,0.6-2.9,0.6c-1.2,0-2.3-0.2-3.3-0.7c-0.9-0.5-1.7-1.1-2.3-2
			c-0.6-0.8-1.1-1.8-1.4-2.8c-0.3-1.1-0.5-2.2-0.5-3.3c0-1.1,0.2-2.2,0.5-3.2c0.3-1,0.8-1.9,1.4-2.7c0.6-0.8,1.4-1.4,2.3-1.9
			c0.9-0.5,2-0.7,3.2-0.7c1,0,1.9,0.2,2.8,0.6c0.9,0.4,1.6,1,2.1,1.8h0.1v-8.3h4.5v22.8h-4.3L262.3,109L262.3,109z M262.1,100.8
			c-0.1-0.6-0.3-1.2-0.7-1.7c-0.3-0.5-0.7-0.9-1.2-1.2c-0.5-0.3-1.1-0.4-1.9-0.4c-0.7,0-1.4,0.1-1.9,0.4c-0.5,0.3-0.9,0.7-1.2,1.2
			c-0.3,0.5-0.5,1.1-0.7,1.7c-0.1,0.6-0.2,1.3-0.2,2c0,0.6,0.1,1.3,0.2,1.9c0.1,0.6,0.4,1.2,0.7,1.7c0.3,0.5,0.7,0.9,1.2,1.2
			c0.5,0.3,1.1,0.5,1.8,0.5c0.7,0,1.4-0.1,1.9-0.4c0.5-0.3,0.9-0.7,1.2-1.2c0.3-0.5,0.5-1.1,0.6-1.7s0.2-1.3,0.2-2
			C262.3,102.1,262.2,101.5,262.1,100.8z"/>
		<path class="st3" d="M270.2,92v-3.7h4.5V92H270.2z M274.8,94.6v16.5h-4.5V94.6H274.8z"/>
		<path class="st3" d="M282.7,94.6v2.3h0.1c0.6-1,1.3-1.7,2.2-2.1s1.9-0.7,2.8-0.7c1.2,0,2.2,0.2,3,0.5c0.8,0.3,1.4,0.8,1.8,1.4
			c0.4,0.6,0.8,1.3,0.9,2.1c0.2,0.8,0.3,1.8,0.3,2.8v10.2h-4.5v-9.3c0-1.4-0.2-2.4-0.6-3.1c-0.4-0.7-1.2-1-2.3-1
			c-1.2,0-2.1,0.4-2.7,1.1c-0.6,0.7-0.8,1.9-0.8,3.6v8.7h-4.5V94.6H282.7z"/>
		<path class="st3" d="M313,112.3c-0.2,0.9-0.6,1.6-1.2,2.4c-0.6,0.7-1.5,1.4-2.6,1.9c-1.1,0.5-2.6,0.8-4.5,0.8
			c-0.8,0-1.6-0.1-2.5-0.3c-0.8-0.2-1.6-0.5-2.3-0.9c-0.7-0.4-1.3-1-1.7-1.6s-0.7-1.5-0.8-2.4h4.5c0.2,0.9,0.6,1.4,1.2,1.8
			c0.6,0.3,1.3,0.5,2.1,0.5c1.3,0,2.2-0.4,2.8-1.2c0.6-0.8,0.9-1.7,0.8-2.9v-2.2h-0.1c-0.5,0.9-1.2,1.5-2.1,1.9
			c-0.9,0.4-1.9,0.6-2.9,0.6c-1.2,0-2.3-0.2-3.2-0.7c-0.9-0.4-1.6-1-2.2-1.8s-1-1.6-1.3-2.7c-0.3-1-0.4-2.1-0.4-3.2
			c0-1.1,0.2-2.1,0.5-3.1c0.3-1,0.8-1.9,1.4-2.6c0.6-0.8,1.3-1.4,2.2-1.8c0.9-0.4,1.9-0.7,3.1-0.7c1.1,0,2,0.2,2.9,0.6
			s1.5,1.1,2.1,2h0.1v-2.2h4.3v15.5C313.2,110.7,313.2,111.5,313,112.3z M306.7,106.8c0.5-0.3,0.9-0.6,1.2-1
			c0.3-0.4,0.6-0.9,0.7-1.5s0.2-1.1,0.2-1.7c0-0.7-0.1-1.3-0.2-1.9s-0.3-1.1-0.6-1.6c-0.3-0.5-0.7-0.8-1.2-1.1
			c-0.5-0.3-1.1-0.4-1.9-0.4c-0.6,0-1.2,0.1-1.6,0.4c-0.5,0.3-0.8,0.6-1.2,1s-0.5,0.9-0.7,1.5s-0.2,1.2-0.2,1.8
			c0,0.6,0.1,1.2,0.2,1.8s0.3,1.1,0.6,1.6c0.3,0.5,0.7,0.9,1.1,1.2c0.5,0.3,1.1,0.4,1.8,0.4C305.7,107.2,306.3,107.1,306.7,106.8z"
			/>
	</g>
	<g>
		<g>
			<path class="st3" d="M585.8,81.1v39h-534v-39H585.8 M588.8,78.1h-540v45h540V78.1L588.8,78.1z"/>
		</g>
	</g>
	<g>
		<g>
			<path class="st3" d="M585.8,136.1v110h-534v-110H585.8 M588.8,133.1h-540v116h540V133.1L588.8,133.1z"/>
		</g>
	</g>
	<g class="st2">
		<path class="st3" d="M80.7,163.1v13.9H89v1.8H78.6v-15.7H80.7z"/>
		<path class="st3" d="M90.2,170.8c0.2-0.7,0.6-1.4,1.1-1.9c0.5-0.5,1-1,1.7-1.3c0.7-0.3,1.5-0.5,2.4-0.5c0.9,0,1.7,0.2,2.4,0.5
			c0.7,0.3,1.3,0.7,1.7,1.3c0.5,0.5,0.8,1.2,1.1,1.9c0.2,0.7,0.4,1.5,0.4,2.3s-0.1,1.6-0.4,2.3c-0.2,0.7-0.6,1.3-1.1,1.9
			c-0.5,0.5-1,1-1.7,1.3c-0.7,0.3-1.5,0.5-2.4,0.5c-0.9,0-1.7-0.2-2.4-0.5s-1.3-0.7-1.7-1.3c-0.5-0.5-0.8-1.2-1.1-1.9
			c-0.2-0.7-0.4-1.5-0.4-2.3S90,171.5,90.2,170.8z M92.1,175c0.2,0.5,0.4,1,0.8,1.3c0.3,0.4,0.7,0.6,1.1,0.8s0.9,0.3,1.4,0.3
			s0.9-0.1,1.4-0.3s0.8-0.5,1.1-0.8s0.6-0.8,0.8-1.3c0.2-0.5,0.3-1.1,0.3-1.8s-0.1-1.3-0.3-1.8c-0.2-0.5-0.4-1-0.8-1.4
			c-0.3-0.4-0.7-0.6-1.1-0.8c-0.4-0.2-0.9-0.3-1.4-0.3s-0.9,0.1-1.4,0.3c-0.4,0.2-0.8,0.5-1.1,0.8c-0.3,0.4-0.6,0.8-0.8,1.4
			c-0.2,0.5-0.3,1.1-0.3,1.8S91.9,174.4,92.1,175z"/>
		<path class="st3" d="M104.8,167.4v2.4h0c0.5-0.9,1-1.6,1.7-2c0.7-0.4,1.5-0.6,2.5-0.6v2c-0.7,0-1.4,0.1-1.9,0.3
			c-0.5,0.2-1,0.5-1.3,0.9c-0.3,0.4-0.6,0.9-0.7,1.4c-0.1,0.6-0.2,1.2-0.2,1.9v5.1H103v-11.4H104.8z"/>
		<path class="st3" d="M118.1,178.1c-0.9,0.6-1.9,1-3.2,1c-0.9,0-1.7-0.1-2.4-0.4c-0.7-0.3-1.2-0.7-1.7-1.2c-0.5-0.5-0.8-1.2-1-1.9
			s-0.4-1.5-0.4-2.4c0-0.9,0.1-1.7,0.4-2.4s0.6-1.3,1.1-1.9c0.5-0.5,1-0.9,1.7-1.2c0.7-0.3,1.4-0.4,2.1-0.4c1,0,1.9,0.2,2.5,0.6
			c0.7,0.4,1.2,0.9,1.6,1.6c0.4,0.6,0.7,1.3,0.8,2.1c0.2,0.8,0.2,1.5,0.2,2.2h-8.5c0,0.5,0,1,0.2,1.4c0.1,0.4,0.3,0.8,0.6,1.2
			s0.7,0.6,1.1,0.8c0.5,0.2,1,0.3,1.6,0.3c0.8,0,1.4-0.2,1.9-0.5c0.5-0.4,0.8-0.9,1-1.7h1.8C119.5,176.5,118.9,177.4,118.1,178.1z
			 M117.6,170.8c-0.2-0.4-0.4-0.7-0.7-1c-0.3-0.3-0.6-0.5-1-0.7c-0.4-0.2-0.8-0.3-1.3-0.3c-0.5,0-0.9,0.1-1.3,0.3
			c-0.4,0.2-0.7,0.4-1,0.7c-0.3,0.3-0.5,0.6-0.7,1c-0.2,0.4-0.3,0.8-0.3,1.2h6.5C117.9,171.6,117.8,171.2,117.6,170.8z"/>
		<path class="st3" d="M123.6,167.4v1.7h0c0.9-1.3,2.1-1.9,3.7-1.9c0.7,0,1.3,0.1,1.9,0.4c0.6,0.3,1,0.8,1.2,1.5
			c0.4-0.6,0.9-1.1,1.5-1.4c0.6-0.3,1.3-0.5,2.1-0.5c0.6,0,1.1,0.1,1.6,0.2c0.5,0.1,0.9,0.3,1.2,0.6c0.3,0.3,0.6,0.6,0.8,1
			c0.2,0.4,0.3,0.9,0.3,1.5v8.3h-1.9v-7.5c0-0.4,0-0.7-0.1-1c-0.1-0.3-0.2-0.6-0.3-0.8s-0.4-0.4-0.7-0.5s-0.7-0.2-1.1-0.2
			c-0.9,0-1.6,0.3-2.2,0.8c-0.5,0.5-0.8,1.2-0.8,2.1v7.1h-1.9v-7.5c0-0.4,0-0.7-0.1-1c-0.1-0.3-0.2-0.6-0.3-0.8
			c-0.2-0.2-0.4-0.4-0.6-0.5s-0.6-0.2-1-0.2c-0.5,0-1,0.1-1.4,0.3s-0.7,0.5-0.9,0.8c-0.2,0.3-0.4,0.6-0.5,1
			c-0.1,0.3-0.2,0.6-0.2,0.8v7.1h-1.9v-11.4H123.6z"/>
		<path class="st3" d="M146.9,165.4v-2.3h1.9v2.3H146.9z M148.7,167.4v11.4h-1.9v-11.4H148.7z"/>
		<path class="st3" d="M153.6,167.4v1.5h0c0.3-0.6,0.8-1.1,1.5-1.4c0.7-0.3,1.4-0.4,2.2-0.4c0.9,0,1.6,0.2,2.3,0.5
			c0.7,0.3,1.2,0.8,1.6,1.3s0.8,1.2,1,1.9c0.2,0.7,0.3,1.5,0.3,2.3c0,0.8-0.1,1.6-0.3,2.3c-0.2,0.7-0.5,1.3-1,1.9
			c-0.4,0.5-1,1-1.6,1.3c-0.7,0.3-1.4,0.5-2.3,0.5c-0.3,0-0.6,0-0.9-0.1s-0.7-0.2-1-0.3s-0.7-0.3-1-0.5c-0.3-0.2-0.6-0.5-0.8-0.8h0
			v5.9h-1.9v-15.7H153.6z M160.3,171.5c-0.1-0.5-0.4-1-0.6-1.4c-0.3-0.4-0.7-0.7-1.1-0.9c-0.4-0.2-1-0.4-1.6-0.4
			c-0.6,0-1.2,0.1-1.6,0.4c-0.4,0.2-0.8,0.6-1.1,1s-0.5,0.9-0.6,1.4s-0.2,1-0.2,1.6c0,0.6,0.1,1.1,0.2,1.6s0.3,1,0.6,1.4
			c0.3,0.4,0.7,0.7,1.1,1s1,0.4,1.6,0.4s1.2-0.1,1.6-0.4s0.8-0.6,1-1c0.3-0.4,0.5-0.9,0.6-1.4c0.1-0.5,0.2-1.1,0.2-1.6
			C160.5,172.5,160.4,172,160.3,171.5z"/>
		<path class="st3" d="M166.1,176.3c0.2,0.3,0.4,0.5,0.7,0.7c0.3,0.2,0.6,0.3,1,0.4s0.7,0.1,1.1,0.1c0.3,0,0.6,0,0.9-0.1
			c0.3,0,0.6-0.1,0.9-0.2c0.3-0.1,0.5-0.3,0.7-0.5c0.2-0.2,0.3-0.5,0.3-0.9c0-0.5-0.2-0.9-0.5-1.1c-0.4-0.2-0.8-0.5-1.4-0.6
			c-0.6-0.2-1.1-0.3-1.8-0.4c-0.6-0.1-1.2-0.3-1.8-0.5c-0.6-0.2-1-0.5-1.4-1c-0.4-0.4-0.6-1-0.6-1.7c0-0.6,0.1-1.1,0.4-1.5
			c0.3-0.4,0.6-0.7,1-1s0.9-0.4,1.4-0.6c0.5-0.1,1-0.2,1.5-0.2c0.6,0,1.2,0.1,1.8,0.2c0.5,0.1,1,0.3,1.4,0.6c0.4,0.3,0.8,0.6,1,1.1
			c0.2,0.5,0.4,1,0.4,1.7h-1.9c0-0.4-0.1-0.7-0.3-0.9c-0.2-0.2-0.4-0.4-0.6-0.6c-0.2-0.1-0.5-0.3-0.8-0.3c-0.3-0.1-0.6-0.1-0.9-0.1
			c-0.3,0-0.6,0-0.8,0.1s-0.5,0.1-0.8,0.2c-0.2,0.1-0.4,0.3-0.6,0.4c-0.1,0.2-0.2,0.4-0.2,0.7c0,0.3,0.1,0.6,0.3,0.8
			c0.2,0.2,0.5,0.4,0.9,0.5c0.4,0.1,0.7,0.3,1.2,0.4c0.4,0.1,0.9,0.2,1.3,0.3c0.5,0.1,0.9,0.2,1.4,0.4c0.4,0.1,0.8,0.3,1.2,0.6
			c0.3,0.2,0.6,0.5,0.8,0.9c0.2,0.4,0.3,0.8,0.3,1.4c0,0.7-0.1,1.3-0.4,1.7c-0.3,0.5-0.7,0.8-1.1,1.1s-1,0.5-1.6,0.6
			c-0.6,0.1-1.2,0.2-1.7,0.2c-0.6,0-1.2-0.1-1.8-0.2c-0.6-0.1-1.1-0.3-1.5-0.6c-0.4-0.3-0.8-0.7-1.1-1.2s-0.4-1.1-0.4-1.8h1.9
			C165.8,175.6,165.9,176,166.1,176.3z"/>
		<path class="st3" d="M183.3,178.8V177h0c-0.4,0.7-0.9,1.2-1.5,1.6c-0.6,0.3-1.3,0.5-2.2,0.5c-0.7,0-1.4-0.1-1.9-0.3
			c-0.5-0.2-0.9-0.5-1.2-0.8c-0.3-0.4-0.5-0.8-0.6-1.3c-0.1-0.5-0.2-1.1-0.2-1.7v-7.5h1.9v7.7c0,0.7,0.2,1.3,0.6,1.7
			c0.4,0.4,1,0.6,1.7,0.6c0.6,0,1.1-0.1,1.5-0.3c0.4-0.2,0.8-0.4,1-0.7c0.3-0.3,0.5-0.7,0.6-1.1c0.1-0.4,0.2-0.9,0.2-1.4v-6.4h1.9
			v11.4H183.3z"/>
		<path class="st3" d="M189.7,167.4v1.7h0c0.9-1.3,2.1-1.9,3.7-1.9c0.7,0,1.3,0.1,1.9,0.4c0.6,0.3,1,0.8,1.2,1.5
			c0.4-0.6,0.9-1.1,1.5-1.4c0.6-0.3,1.3-0.5,2.1-0.5c0.6,0,1.1,0.1,1.6,0.2c0.5,0.1,0.9,0.3,1.2,0.6c0.3,0.3,0.6,0.6,0.8,1
			c0.2,0.4,0.3,0.9,0.3,1.5v8.3H202v-7.5c0-0.4,0-0.7-0.1-1c-0.1-0.3-0.2-0.6-0.3-0.8s-0.4-0.4-0.7-0.5s-0.7-0.2-1.1-0.2
			c-0.9,0-1.6,0.3-2.2,0.8c-0.5,0.5-0.8,1.2-0.8,2.1v7.1h-1.9v-7.5c0-0.4,0-0.7-0.1-1c-0.1-0.3-0.2-0.6-0.3-0.8
			c-0.2-0.2-0.4-0.4-0.6-0.5s-0.6-0.2-1-0.2c-0.5,0-1,0.1-1.4,0.3s-0.7,0.5-0.9,0.8c-0.2,0.3-0.4,0.6-0.5,1
			c-0.1,0.3-0.2,0.6-0.2,0.8v7.1h-1.9v-11.4H189.7z"/>
	</g>
	<g class="st2">
		<path class="st3" d="M220,178.8l0.4-1.6h0c-0.6,0.7-1.1,1.2-1.7,1.5c-0.6,0.3-1.3,0.4-2,0.4c-0.7,0-1.4-0.1-1.9-0.3
			c-0.6-0.2-1-0.5-1.4-0.9c-0.4-0.4-0.7-0.9-0.9-1.5c-0.2-0.6-0.3-1.2-0.3-1.9c0-0.9,0.1-1.7,0.4-2.6c0.3-0.9,0.7-1.6,1.2-2.3
			c0.5-0.7,1.2-1.3,2-1.7c0.8-0.4,1.7-0.6,2.7-0.6c0.4,0,0.7,0,1.1,0.1c0.4,0.1,0.7,0.2,1,0.3s0.6,0.4,0.9,0.6
			c0.2,0.3,0.4,0.6,0.5,1h0l1.2-6.1h1.8l-3.3,15.7H220z M214.7,176.6c0.5,0.5,1.2,0.8,2.2,0.8c0.7,0,1.3-0.2,1.9-0.5
			c0.6-0.4,1-0.8,1.4-1.4c0.4-0.6,0.7-1.2,0.9-1.8c0.2-0.7,0.3-1.3,0.3-1.9c0-0.9-0.2-1.6-0.7-2.1c-0.5-0.6-1.2-0.8-2.1-0.8
			c-0.7,0-1.4,0.2-2,0.5c-0.6,0.3-1,0.8-1.4,1.3c-0.4,0.5-0.7,1.1-0.9,1.8s-0.3,1.3-0.3,1.9C214,175.3,214.2,176.1,214.7,176.6z"/>
		<path class="st3" d="M225.6,171.6c0.3-0.9,0.7-1.6,1.3-2.3c0.5-0.7,1.2-1.2,2-1.6c0.8-0.4,1.7-0.6,2.7-0.6c1.5,0,2.7,0.4,3.5,1.2
			c0.8,0.8,1.2,2,1.2,3.5c0,0.9-0.1,1.8-0.4,2.7c-0.3,0.9-0.7,1.6-1.2,2.3c-0.5,0.7-1.2,1.2-2,1.6c-0.8,0.4-1.7,0.6-2.7,0.6
			c-0.7,0-1.4-0.1-2-0.4c-0.6-0.2-1.1-0.6-1.5-1s-0.7-0.9-0.9-1.5c-0.2-0.6-0.3-1.2-0.3-1.9C225.2,173.4,225.3,172.5,225.6,171.6z
			 M227.8,176.6c0.5,0.6,1.3,0.9,2.3,0.9c0.7,0,1.3-0.2,1.8-0.5c0.5-0.4,1-0.8,1.3-1.3c0.4-0.5,0.6-1.1,0.8-1.7
			c0.2-0.6,0.3-1.2,0.3-1.8c0-0.4-0.1-0.9-0.2-1.3c-0.1-0.4-0.3-0.7-0.5-1c-0.2-0.3-0.6-0.5-0.9-0.7c-0.4-0.2-0.8-0.3-1.3-0.3
			c-0.7,0-1.3,0.2-1.9,0.5c-0.5,0.4-1,0.8-1.4,1.3c-0.4,0.5-0.6,1.1-0.8,1.8c-0.2,0.6-0.3,1.3-0.3,1.8
			C227,175.2,227.3,176,227.8,176.6z"/>
		<path class="st3" d="M242.5,163.1l-3.3,15.7h-1.8l3.3-15.7H242.5z"/>
		<path class="st3" d="M243.1,171.6c0.3-0.9,0.7-1.6,1.3-2.3c0.5-0.7,1.2-1.2,2-1.6c0.8-0.4,1.7-0.6,2.7-0.6c1.5,0,2.7,0.4,3.5,1.2
			c0.8,0.8,1.2,2,1.2,3.5c0,0.9-0.1,1.8-0.4,2.7c-0.3,0.9-0.7,1.6-1.2,2.3c-0.5,0.7-1.2,1.2-2,1.6c-0.8,0.4-1.7,0.6-2.7,0.6
			c-0.7,0-1.4-0.1-2-0.4c-0.6-0.2-1.1-0.6-1.5-1s-0.7-0.9-0.9-1.5c-0.2-0.6-0.3-1.2-0.3-1.9C242.7,173.4,242.8,172.5,243.1,171.6z
			 M245.3,176.6c0.5,0.6,1.3,0.9,2.3,0.9c0.7,0,1.3-0.2,1.8-0.5c0.5-0.4,1-0.8,1.3-1.3c0.4-0.5,0.6-1.1,0.8-1.7
			c0.2-0.6,0.3-1.2,0.3-1.8c0-0.4-0.1-0.9-0.2-1.3c-0.1-0.4-0.3-0.7-0.5-1c-0.2-0.3-0.6-0.5-0.9-0.7c-0.4-0.2-0.8-0.3-1.3-0.3
			c-0.7,0-1.3,0.2-1.9,0.5c-0.5,0.4-1,0.8-1.4,1.3c-0.4,0.5-0.6,1.1-0.8,1.8c-0.2,0.6-0.3,1.3-0.3,1.8
			C244.5,175.2,244.8,176,245.3,176.6z"/>
		<path class="st3" d="M259,167.4l-0.5,2.4h0c0.4-0.8,1-1.4,1.7-1.9c0.7-0.5,1.5-0.8,2.5-0.8c0.1,0,0.2,0,0.3,0s0.2,0,0.3,0l-0.4,2
			c-0.1,0-0.2,0-0.3,0h-0.3c-0.2,0-0.4,0-0.6,0c-0.1,0-0.3,0-0.5,0.1c-0.5,0.1-1,0.4-1.4,0.7c-0.4,0.3-0.8,0.7-1,1.2
			c-0.2,0.4-0.4,0.8-0.6,1.3s-0.3,1-0.4,1.4l-1.1,5h-1.8l2.4-11.4H259z"/>
		<path class="st3" d="M275.5,169.3c-0.5-0.3-1-0.5-1.7-0.5c-0.3,0-0.6,0-0.9,0.1c-0.3,0-0.6,0.1-0.8,0.2c-0.2,0.1-0.4,0.3-0.6,0.4
			s-0.2,0.4-0.2,0.7c0,0.3,0.1,0.5,0.3,0.7c0.2,0.2,0.4,0.4,0.7,0.5c0.3,0.2,0.6,0.3,1,0.5s0.7,0.3,1.1,0.4c0.4,0.2,0.8,0.3,1.1,0.5
			c0.4,0.2,0.7,0.4,1,0.6c0.3,0.2,0.5,0.5,0.7,0.9c0.2,0.3,0.3,0.7,0.3,1.2c0,0.6-0.1,1.2-0.4,1.6c-0.3,0.4-0.6,0.8-1.1,1.1
			s-0.9,0.5-1.5,0.6c-0.5,0.1-1.1,0.2-1.7,0.2c-0.7,0-1.3-0.1-1.8-0.2c-0.6-0.1-1-0.3-1.4-0.6c-0.4-0.3-0.7-0.7-1-1.2
			c-0.2-0.5-0.4-1.1-0.4-1.8h1.8c0,0.4,0,0.8,0.2,1c0.2,0.3,0.4,0.5,0.6,0.7c0.3,0.2,0.6,0.3,0.9,0.4s0.7,0.1,1.1,0.1
			c0.3,0,0.6,0,0.9-0.1s0.6-0.2,0.8-0.3c0.2-0.1,0.5-0.3,0.6-0.5c0.2-0.2,0.2-0.5,0.2-0.8c0-0.3-0.1-0.5-0.3-0.7
			c-0.2-0.2-0.4-0.4-0.7-0.5c-0.3-0.2-0.6-0.3-1-0.5c-0.4-0.1-0.7-0.3-1.1-0.5c-0.4-0.1-0.8-0.3-1.1-0.5c-0.4-0.2-0.7-0.4-1-0.6
			c-0.3-0.2-0.5-0.5-0.7-0.8c-0.2-0.3-0.3-0.7-0.3-1.1c0-0.5,0.1-1,0.4-1.4c0.2-0.4,0.6-0.8,1-1s0.8-0.5,1.4-0.6
			c0.5-0.1,1-0.2,1.6-0.2c0.5,0,1,0.1,1.6,0.2c0.5,0.1,1,0.3,1.4,0.6c0.4,0.3,0.7,0.7,1,1.1c0.2,0.5,0.4,1,0.4,1.7h-1.9
			C276.2,170.1,276,169.7,275.5,169.3z"/>
		<path class="st3" d="M283.1,167.4l-2.4,11.4h-1.8l2.4-11.4H283.1z M281.6,165.4l0.5-2.3h1.9l-0.5,2.3H281.6z"/>
		<path class="st3" d="M291,167.4l-0.4,1.7h-2.3l-1.4,6.7c0,0.1,0,0.3,0,0.4c0,0.1,0,0.2,0,0.4c0,0.3,0.1,0.5,0.3,0.6
			c0.2,0.1,0.5,0.2,0.8,0.2c0.2,0,0.4,0,0.5-0.1c0.2,0,0.4-0.1,0.5-0.1l-0.3,1.7c-0.2,0-0.4,0.1-0.7,0.1c-0.2,0-0.4,0-0.7,0
			c-0.4,0-0.7,0-1-0.1c-0.3-0.1-0.6-0.1-0.8-0.3c-0.2-0.1-0.4-0.3-0.5-0.6c-0.1-0.2-0.2-0.5-0.2-0.9c0-0.2,0-0.3,0-0.5
			s0-0.3,0.1-0.5l1.5-7.1h-1.9l0.4-1.7h1.9l0.7-3.4h1.9l-0.7,3.4H291z"/>
		<path class="st3" d="M298.6,169.2c0.3-0.5,0.7-0.8,1.1-1.2c0.4-0.3,0.9-0.5,1.5-0.7c0.6-0.1,1.1-0.2,1.7-0.2c0.6,0,1.1,0,1.6,0.1
			c0.5,0.1,0.9,0.2,1.3,0.5c0.4,0.2,0.7,0.5,0.9,0.9c0.2,0.4,0.3,0.8,0.3,1.4c0,0.3,0,0.7-0.1,1s-0.2,0.7-0.2,1l-0.7,3.1
			c0,0.2-0.1,0.5-0.2,0.8c-0.1,0.3-0.1,0.6-0.1,0.8c0,0.3,0.1,0.4,0.2,0.5c0.1,0.1,0.2,0.2,0.4,0.2c0.1,0,0.2,0,0.3-0.1
			c0.1,0,0.2-0.1,0.3-0.1l-0.3,1.4c-0.1,0.1-0.3,0.1-0.6,0.2c-0.2,0.1-0.4,0.1-0.6,0.1c-0.5,0-0.9-0.1-1.2-0.4s-0.4-0.7-0.3-1.2l0,0
			c-0.4,0.5-0.9,0.9-1.5,1.2c-0.6,0.3-1.4,0.4-2.3,0.4c-0.5,0-0.9-0.1-1.4-0.2c-0.4-0.1-0.8-0.3-1.1-0.5s-0.6-0.6-0.7-1
			c-0.2-0.4-0.3-0.9-0.3-1.5c0-0.8,0.2-1.5,0.5-2c0.4-0.5,0.8-0.8,1.4-1.1c0.6-0.2,1.2-0.4,1.8-0.5c0.7-0.1,1.3-0.2,2-0.2
			c0.5,0,0.9-0.1,1.3-0.1c0.4-0.1,0.7-0.1,0.9-0.3c0.2-0.1,0.4-0.3,0.5-0.5c0.1-0.2,0.2-0.5,0.2-0.9c0-0.3-0.1-0.6-0.2-0.7
			c-0.1-0.2-0.3-0.3-0.6-0.5c-0.2-0.1-0.5-0.2-0.7-0.2c-0.3,0-0.5-0.1-0.8-0.1c-0.4,0-0.7,0-1,0.1s-0.7,0.2-0.9,0.4
			c-0.3,0.2-0.5,0.4-0.7,0.6c-0.2,0.3-0.3,0.6-0.4,0.9h-1.9C298.1,170.2,298.3,169.7,298.6,169.2z M299.2,177
			c0.4,0.3,0.9,0.4,1.4,0.4c1.5,0,2.5-0.5,3.2-1.5c0.3-0.4,0.5-0.9,0.6-1.4c0.1-0.5,0.2-1,0.4-1.5h0c-0.3,0.2-0.6,0.3-1,0.4
			c-0.4,0.1-0.8,0.1-1.3,0.2s-0.9,0.1-1.4,0.2c-0.5,0.1-0.9,0.2-1.2,0.3c-0.4,0.1-0.7,0.4-0.9,0.6c-0.2,0.3-0.4,0.6-0.4,1.1
			C298.5,176.4,298.7,176.8,299.2,177z"/>
		<path class="st3" d="M312.4,167.4l-0.4,1.7l0,0c0.5-0.6,1.1-1.1,1.7-1.5c0.7-0.4,1.4-0.5,2.2-0.5c0.7,0,1.3,0.2,1.8,0.5
			c0.5,0.3,0.9,0.8,1,1.6c0.4-0.6,1-1.1,1.7-1.5c0.7-0.4,1.4-0.6,2.2-0.6c0.4,0,0.8,0,1.2,0.1c0.4,0.1,0.7,0.2,1,0.4
			c0.3,0.2,0.5,0.5,0.7,0.8c0.2,0.3,0.3,0.7,0.3,1.2c0,0.3,0,0.7-0.1,1.1c-0.1,0.4-0.1,0.8-0.2,1.1l-1.4,6.8h-1.9l1.6-7.2
			c0-0.2,0.1-0.4,0.1-0.6c0-0.2,0.1-0.4,0.1-0.6c0-0.4-0.2-0.8-0.5-1.1s-0.7-0.4-1.2-0.4c-0.3,0-0.5,0-0.8,0.1
			c-0.3,0.1-0.5,0.2-0.8,0.3c-0.2,0.1-0.5,0.3-0.7,0.5c-0.2,0.2-0.4,0.4-0.6,0.6c-0.3,0.3-0.5,0.7-0.7,1.2c-0.1,0.4-0.3,0.9-0.4,1.4
			l-1.3,5.9h-1.9l1.4-6.5c0.1-0.4,0.2-0.9,0.3-1.2c0.1-0.4,0.1-0.6,0.1-0.8c0-0.5-0.1-0.8-0.4-1.1c-0.3-0.3-0.7-0.4-1.2-0.4
			c-0.5,0-1,0.1-1.5,0.4c-0.5,0.3-0.9,0.6-1.3,1c-0.4,0.4-0.7,0.8-0.8,1.2c-0.1,0.4-0.3,0.9-0.4,1.4l-1.3,6h-1.8l2.4-11.4H312.4z"/>
		<path class="st3" d="M329.1,174.7c0,0.4,0.1,0.8,0.2,1.2s0.4,0.6,0.7,0.9s0.6,0.4,0.9,0.5c0.4,0.1,0.7,0.2,1.1,0.2
			c0.8,0,1.5-0.2,2.1-0.6c0.5-0.4,0.9-0.9,1.2-1.6h1.9c-0.1,0.6-0.4,1.2-0.7,1.7c-0.3,0.5-0.7,0.9-1.2,1.2c-0.5,0.3-1,0.6-1.5,0.7
			s-1.1,0.2-1.8,0.2c-0.9,0-1.7-0.1-2.3-0.4c-0.6-0.3-1.1-0.7-1.5-1.1c-0.4-0.4-0.6-0.9-0.8-1.5s-0.2-1.1-0.2-1.6
			c0-1.1,0.2-2.1,0.5-3s0.7-1.7,1.3-2.3c0.5-0.6,1.2-1.1,1.9-1.5c0.7-0.4,1.5-0.5,2.2-0.5c1.7,0,2.9,0.4,3.7,1.3
			c0.8,0.9,1.2,2.1,1.2,3.7c0,0.3,0,0.6-0.1,0.8c0,0.3-0.1,0.5-0.1,0.6h-8.6C329.2,174,329.1,174.3,329.1,174.7z M336,170.9
			c-0.1-0.4-0.2-0.7-0.4-1c-0.2-0.3-0.5-0.5-0.8-0.7s-0.8-0.3-1.3-0.3c-0.5,0-1,0.1-1.5,0.3c-0.4,0.2-0.8,0.4-1.1,0.7
			c-0.3,0.3-0.6,0.6-0.8,1s-0.4,0.8-0.5,1.2h6.6C336.1,171.6,336.1,171.3,336,170.9z"/>
		<path class="st3" d="M346,167.4l-0.4,1.7h-2.3l-1.4,6.7c0,0.1,0,0.3,0,0.4s0,0.2,0,0.4c0,0.3,0.1,0.5,0.3,0.6
			c0.2,0.1,0.5,0.2,0.8,0.2c0.2,0,0.4,0,0.5-0.1c0.2,0,0.4-0.1,0.5-0.1l-0.3,1.7c-0.2,0-0.4,0.1-0.7,0.1c-0.2,0-0.4,0-0.7,0
			c-0.4,0-0.7,0-1-0.1c-0.3-0.1-0.6-0.1-0.8-0.3c-0.2-0.1-0.4-0.3-0.5-0.6c-0.1-0.2-0.2-0.5-0.2-0.9c0-0.2,0-0.3,0-0.5
			c0-0.1,0-0.3,0.1-0.5l1.5-7.1h-1.9l0.4-1.7h1.9l0.7-3.4h1.9l-0.7,3.4H346z"/>
	</g>
	<g class="st2">
		<path class="st3" d="M360.2,169.4c-0.5-0.4-1.1-0.6-1.9-0.6c-0.7,0-1.2,0.1-1.7,0.4c-0.5,0.2-0.8,0.6-1.1,1
			c-0.3,0.4-0.5,0.9-0.6,1.4s-0.2,1.1-0.2,1.7c0,0.5,0.1,1,0.2,1.5c0.1,0.5,0.3,0.9,0.6,1.3s0.6,0.7,1,0.9c0.4,0.2,0.9,0.4,1.5,0.4
			c0.9,0,1.6-0.2,2.2-0.7c0.5-0.5,0.8-1.2,1-2h1.9c-0.2,1.4-0.7,2.5-1.6,3.3c-0.8,0.8-2,1.1-3.4,1.1c-0.9,0-1.6-0.1-2.3-0.4
			c-0.7-0.3-1.2-0.7-1.7-1.2c-0.4-0.5-0.8-1.1-1-1.8c-0.2-0.7-0.3-1.5-0.3-2.3s0.1-1.6,0.3-2.4c0.2-0.7,0.6-1.4,1-1.9
			c0.4-0.5,1-1,1.7-1.3c0.7-0.3,1.5-0.5,2.4-0.5c0.6,0,1.2,0.1,1.8,0.2c0.6,0.2,1.1,0.4,1.5,0.7c0.4,0.3,0.8,0.7,1.1,1.2
			c0.3,0.5,0.5,1.1,0.5,1.7h-1.9C360.9,170.4,360.6,169.8,360.2,169.4z"/>
		<path class="st3" d="M364.9,170.8c0.2-0.7,0.6-1.4,1.1-1.9c0.5-0.5,1-1,1.7-1.3c0.7-0.3,1.5-0.5,2.4-0.5c0.9,0,1.7,0.2,2.4,0.5
			c0.7,0.3,1.3,0.7,1.7,1.3c0.5,0.5,0.8,1.2,1.1,1.9c0.2,0.7,0.4,1.5,0.4,2.3s-0.1,1.6-0.4,2.3c-0.2,0.7-0.6,1.3-1.1,1.9
			c-0.5,0.5-1,1-1.7,1.3s-1.5,0.5-2.4,0.5c-0.9,0-1.7-0.2-2.4-0.5s-1.3-0.7-1.7-1.3s-0.8-1.2-1.1-1.9c-0.2-0.7-0.4-1.5-0.4-2.3
			S364.7,171.5,364.9,170.8z M366.8,175c0.2,0.5,0.4,1,0.8,1.3c0.3,0.4,0.7,0.6,1.1,0.8c0.4,0.2,0.9,0.3,1.4,0.3
			c0.5,0,0.9-0.1,1.4-0.3c0.4-0.2,0.8-0.5,1.1-0.8c0.3-0.4,0.6-0.8,0.8-1.3c0.2-0.5,0.3-1.1,0.3-1.8s-0.1-1.3-0.3-1.8
			c-0.2-0.5-0.4-1-0.8-1.4c-0.3-0.4-0.7-0.6-1.1-0.8c-0.4-0.2-0.9-0.3-1.4-0.3c-0.5,0-0.9,0.1-1.4,0.3c-0.4,0.2-0.8,0.5-1.1,0.8
			c-0.3,0.4-0.6,0.8-0.8,1.4s-0.3,1.1-0.3,1.8S366.6,174.4,366.8,175z"/>
		<path class="st3" d="M379.6,167.4v1.8h0c0.8-1.4,2-2.1,3.7-2.1c0.7,0,1.4,0.1,1.9,0.3c0.5,0.2,0.9,0.5,1.2,0.9
			c0.3,0.4,0.5,0.8,0.7,1.3c0.1,0.5,0.2,1.1,0.2,1.7v7.5h-1.9v-7.7c0-0.7-0.2-1.3-0.6-1.7c-0.4-0.4-1-0.6-1.7-0.6
			c-0.6,0-1.1,0.1-1.5,0.3c-0.4,0.2-0.8,0.4-1,0.7c-0.3,0.3-0.5,0.7-0.6,1.1c-0.1,0.4-0.2,0.9-0.2,1.4v6.4h-1.9v-11.4H379.6z"/>
		<path class="st3" d="M391.5,176.3c0.2,0.3,0.4,0.5,0.7,0.7c0.3,0.2,0.6,0.3,1,0.4s0.7,0.1,1.1,0.1c0.3,0,0.6,0,0.9-0.1
			c0.3,0,0.6-0.1,0.9-0.2c0.3-0.1,0.5-0.3,0.7-0.5c0.2-0.2,0.3-0.5,0.3-0.9c0-0.5-0.2-0.9-0.5-1.1c-0.4-0.2-0.8-0.5-1.4-0.6
			c-0.6-0.2-1.1-0.3-1.8-0.4c-0.6-0.1-1.2-0.3-1.8-0.5c-0.6-0.2-1-0.5-1.4-1c-0.4-0.4-0.6-1-0.6-1.7c0-0.6,0.1-1.1,0.4-1.5
			c0.3-0.4,0.6-0.7,1-1c0.4-0.3,0.9-0.4,1.4-0.6c0.5-0.1,1-0.2,1.5-0.2c0.6,0,1.2,0.1,1.8,0.2c0.5,0.1,1,0.3,1.4,0.6
			c0.4,0.3,0.8,0.6,1,1.1c0.2,0.5,0.4,1,0.4,1.7h-1.9c0-0.4-0.1-0.7-0.3-0.9c-0.2-0.2-0.4-0.4-0.6-0.6c-0.2-0.1-0.5-0.3-0.8-0.3
			c-0.3-0.1-0.6-0.1-0.9-0.1c-0.3,0-0.6,0-0.8,0.1s-0.5,0.1-0.8,0.2c-0.2,0.1-0.4,0.3-0.6,0.4c-0.1,0.2-0.2,0.4-0.2,0.7
			c0,0.3,0.1,0.6,0.3,0.8c0.2,0.2,0.5,0.4,0.9,0.5c0.4,0.1,0.7,0.3,1.2,0.4c0.4,0.1,0.9,0.2,1.3,0.3c0.5,0.1,0.9,0.2,1.4,0.4
			c0.4,0.1,0.8,0.3,1.2,0.6c0.3,0.2,0.6,0.5,0.8,0.9c0.2,0.4,0.3,0.8,0.3,1.4c0,0.7-0.1,1.3-0.4,1.7c-0.3,0.5-0.7,0.8-1.1,1.1
			c-0.5,0.3-1,0.5-1.6,0.6c-0.6,0.1-1.2,0.2-1.7,0.2c-0.6,0-1.2-0.1-1.8-0.2c-0.6-0.1-1.1-0.3-1.5-0.6c-0.4-0.3-0.8-0.7-1.1-1.2
			c-0.3-0.5-0.4-1.1-0.4-1.8h1.9C391.2,175.6,391.3,176,391.5,176.3z"/>
		<path class="st3" d="M409.1,178.1c-0.9,0.6-1.9,1-3.2,1c-0.9,0-1.7-0.1-2.4-0.4c-0.7-0.3-1.2-0.7-1.7-1.2c-0.5-0.5-0.8-1.2-1-1.9
			c-0.2-0.7-0.4-1.5-0.4-2.4c0-0.9,0.1-1.7,0.4-2.4s0.6-1.3,1.1-1.9c0.5-0.5,1-0.9,1.7-1.2c0.7-0.3,1.4-0.4,2.1-0.4
			c1,0,1.9,0.2,2.5,0.6c0.7,0.4,1.2,0.9,1.6,1.6c0.4,0.6,0.7,1.3,0.8,2.1s0.2,1.5,0.2,2.2h-8.5c0,0.5,0,1,0.2,1.4
			c0.1,0.4,0.3,0.8,0.6,1.2c0.3,0.3,0.7,0.6,1.1,0.8c0.5,0.2,1,0.3,1.6,0.3c0.8,0,1.4-0.2,1.9-0.5c0.5-0.4,0.8-0.9,1-1.7h1.8
			C410.5,176.5,409.9,177.4,409.1,178.1z M408.6,170.8c-0.2-0.4-0.4-0.7-0.7-1c-0.3-0.3-0.6-0.5-1-0.7c-0.4-0.2-0.8-0.3-1.3-0.3
			c-0.5,0-0.9,0.1-1.3,0.3c-0.4,0.2-0.7,0.4-1,0.7c-0.3,0.3-0.5,0.6-0.7,1c-0.2,0.4-0.3,0.8-0.3,1.2h6.5
			C408.9,171.6,408.8,171.2,408.6,170.8z"/>
		<path class="st3" d="M419.7,169.4c-0.5-0.4-1.1-0.6-1.9-0.6c-0.7,0-1.2,0.1-1.7,0.4c-0.5,0.2-0.8,0.6-1.1,1
			c-0.3,0.4-0.5,0.9-0.6,1.4c-0.1,0.5-0.2,1.1-0.2,1.7c0,0.5,0.1,1,0.2,1.5c0.1,0.5,0.3,0.9,0.6,1.3s0.6,0.7,1,0.9
			c0.4,0.2,0.9,0.4,1.5,0.4c0.9,0,1.6-0.2,2.2-0.7c0.5-0.5,0.8-1.2,1-2h1.9c-0.2,1.4-0.7,2.5-1.6,3.3c-0.8,0.8-2,1.1-3.4,1.1
			c-0.9,0-1.6-0.1-2.3-0.4c-0.7-0.3-1.2-0.7-1.7-1.2c-0.4-0.5-0.8-1.1-1-1.8c-0.2-0.7-0.3-1.5-0.3-2.3s0.1-1.6,0.3-2.4
			c0.2-0.7,0.6-1.4,1-1.9s1-1,1.7-1.3c0.7-0.3,1.5-0.5,2.4-0.5c0.6,0,1.2,0.1,1.8,0.2c0.6,0.2,1.1,0.4,1.5,0.7
			c0.4,0.3,0.8,0.7,1.1,1.2s0.5,1.1,0.5,1.7h-1.9C420.4,170.4,420.1,169.8,419.7,169.4z"/>
		<path class="st3" d="M429.5,167.4v1.7h-2.3v7.1c0,0.2,0,0.4,0.1,0.5c0,0.1,0.1,0.2,0.2,0.3c0.1,0.1,0.2,0.1,0.4,0.1
			c0.2,0,0.4,0,0.7,0h0.9v1.7h-1.4c-0.5,0-0.9,0-1.2-0.1c-0.3-0.1-0.6-0.2-0.8-0.4s-0.4-0.4-0.5-0.7c-0.1-0.3-0.2-0.7-0.2-1.3v-7.2
			h-1.9v-1.7h1.9V164h1.9v3.4H429.5z"/>
		<path class="st3" d="M439.7,178.1c-0.9,0.6-1.9,1-3.2,1c-0.9,0-1.7-0.1-2.4-0.4c-0.7-0.3-1.2-0.7-1.7-1.2c-0.5-0.5-0.8-1.2-1-1.9
			s-0.4-1.5-0.4-2.4c0-0.9,0.1-1.7,0.4-2.4c0.3-0.7,0.6-1.3,1.1-1.9c0.5-0.5,1-0.9,1.7-1.2c0.7-0.3,1.4-0.4,2.1-0.4
			c1,0,1.9,0.2,2.5,0.6c0.7,0.4,1.2,0.9,1.6,1.6s0.7,1.3,0.8,2.1s0.2,1.5,0.2,2.2H433c0,0.5,0,1,0.2,1.4c0.1,0.4,0.3,0.8,0.6,1.2
			s0.7,0.6,1.1,0.8c0.5,0.2,1,0.3,1.6,0.3c0.8,0,1.4-0.2,1.9-0.5c0.5-0.4,0.8-0.9,1-1.7h1.8C441.1,176.5,440.5,177.4,439.7,178.1z
			 M439.2,170.8c-0.2-0.4-0.4-0.7-0.7-1c-0.3-0.3-0.6-0.5-1-0.7c-0.4-0.2-0.8-0.3-1.3-0.3c-0.5,0-0.9,0.1-1.3,0.3
			c-0.4,0.2-0.7,0.4-1,0.7c-0.3,0.3-0.5,0.6-0.7,1c-0.2,0.4-0.3,0.8-0.3,1.2h6.5C439.5,171.6,439.4,171.2,439.2,170.8z"/>
		<path class="st3" d="M448.3,167.4v1.7H446v7.1c0,0.2,0,0.4,0.1,0.5c0,0.1,0.1,0.2,0.2,0.3c0.1,0.1,0.2,0.1,0.4,0.1
			c0.2,0,0.4,0,0.7,0h0.9v1.7h-1.4c-0.5,0-0.9,0-1.2-0.1c-0.3-0.1-0.6-0.2-0.8-0.4c-0.2-0.2-0.4-0.4-0.5-0.7s-0.2-0.7-0.2-1.3v-7.2
			h-1.9v-1.7h1.9V164h1.9v3.4H448.3z"/>
		<path class="st3" d="M458,178.8V177h0c-0.4,0.7-0.9,1.2-1.5,1.6c-0.6,0.3-1.3,0.5-2.2,0.5c-0.7,0-1.4-0.1-1.9-0.3
			c-0.5-0.2-0.9-0.5-1.2-0.8c-0.3-0.4-0.5-0.8-0.6-1.3c-0.1-0.5-0.2-1.1-0.2-1.7v-7.5h1.9v7.7c0,0.7,0.2,1.3,0.6,1.7
			c0.4,0.4,1,0.6,1.7,0.6c0.6,0,1.1-0.1,1.5-0.3c0.4-0.2,0.8-0.4,1-0.7c0.3-0.3,0.5-0.7,0.6-1.1s0.2-0.9,0.2-1.4v-6.4h1.9v11.4H458z
			"/>
		<path class="st3" d="M470.6,178.1c-0.8,0.6-1.9,1-3.2,1c-0.9,0-1.7-0.1-2.4-0.4c-0.7-0.3-1.2-0.7-1.7-1.2c-0.5-0.5-0.8-1.2-1-1.9
			c-0.2-0.7-0.4-1.5-0.4-2.4c0-0.9,0.1-1.7,0.4-2.4s0.6-1.3,1.1-1.9c0.5-0.5,1-0.9,1.7-1.2c0.7-0.3,1.4-0.4,2.1-0.4
			c1,0,1.9,0.2,2.5,0.6s1.2,0.9,1.6,1.6s0.7,1.3,0.8,2.1c0.2,0.8,0.2,1.5,0.2,2.2h-8.5c0,0.5,0,1,0.2,1.4c0.1,0.4,0.3,0.8,0.6,1.2
			c0.3,0.3,0.7,0.6,1.1,0.8c0.5,0.2,1,0.3,1.6,0.3c0.8,0,1.4-0.2,1.9-0.5c0.5-0.4,0.8-0.9,1-1.7h1.8
			C472,176.5,471.5,177.4,470.6,178.1z M470.2,170.8c-0.2-0.4-0.4-0.7-0.7-1c-0.3-0.3-0.6-0.5-1-0.7c-0.4-0.2-0.8-0.3-1.3-0.3
			c-0.5,0-0.9,0.1-1.3,0.3c-0.4,0.2-0.7,0.4-1,0.7c-0.3,0.3-0.5,0.6-0.7,1s-0.3,0.8-0.3,1.2h6.5
			C470.4,171.6,470.3,171.2,470.2,170.8z"/>
		<path class="st3" d="M476.1,167.4v2.4h0c0.5-0.9,1-1.6,1.7-2c0.7-0.4,1.5-0.6,2.5-0.6v2c-0.7,0-1.4,0.1-1.9,0.3
			c-0.5,0.2-1,0.5-1.3,0.9c-0.3,0.4-0.6,0.9-0.7,1.4c-0.1,0.6-0.2,1.2-0.2,1.9v5.1h-1.9v-11.4H476.1z"/>
		<path class="st3" d="M497.9,178.8c-0.3,0.2-0.8,0.3-1.3,0.3c-0.5,0-0.9-0.1-1.2-0.4c-0.3-0.3-0.4-0.7-0.4-1.3
			c-0.5,0.6-1.1,1.1-1.8,1.3c-0.7,0.3-1.4,0.4-2.2,0.4c-0.5,0-1-0.1-1.5-0.2c-0.5-0.1-0.9-0.3-1.2-0.6c-0.3-0.2-0.6-0.6-0.8-1
			c-0.2-0.4-0.3-0.9-0.3-1.5c0-0.6,0.1-1.2,0.3-1.6c0.2-0.4,0.5-0.7,0.9-1s0.8-0.5,1.2-0.6s0.9-0.2,1.4-0.3c0.5-0.1,1-0.2,1.5-0.2
			c0.5-0.1,0.9-0.1,1.2-0.2c0.4-0.1,0.6-0.2,0.8-0.4c0.2-0.2,0.3-0.5,0.3-0.8c0-0.4-0.1-0.7-0.2-1s-0.4-0.4-0.6-0.6
			s-0.5-0.2-0.8-0.3s-0.6-0.1-0.9-0.1c-0.8,0-1.5,0.2-2,0.5c-0.5,0.3-0.8,0.9-0.9,1.7h-1.9c0-0.7,0.2-1.3,0.4-1.8
			c0.3-0.5,0.6-0.9,1.1-1.2s0.9-0.5,1.5-0.6c0.6-0.1,1.2-0.2,1.8-0.2c0.5,0,1,0,1.5,0.1s1,0.2,1.4,0.5s0.7,0.5,1,1s0.4,0.9,0.4,1.6
			v5.8c0,0.4,0,0.8,0.1,1c0.1,0.2,0.2,0.3,0.5,0.3c0.2,0,0.4,0,0.6-0.1V178.8z M494.9,172.9c-0.2,0.2-0.5,0.3-0.9,0.4
			c-0.4,0.1-0.8,0.1-1.2,0.2c-0.4,0.1-0.8,0.1-1.3,0.2c-0.4,0.1-0.8,0.2-1.1,0.3c-0.3,0.1-0.6,0.4-0.8,0.6c-0.2,0.3-0.3,0.6-0.3,1.1
			c0,0.3,0.1,0.6,0.2,0.8c0.1,0.2,0.3,0.4,0.5,0.5c0.2,0.1,0.4,0.2,0.7,0.3c0.3,0.1,0.5,0.1,0.8,0.1c0.6,0,1.1-0.1,1.6-0.3
			c0.4-0.2,0.8-0.4,1.1-0.6c0.3-0.3,0.5-0.5,0.6-0.8c0.1-0.3,0.2-0.6,0.2-0.8V172.9z"/>
		<path class="st3" d="M507.9,178.8v-1.5h0c-0.3,0.6-0.8,1.1-1.5,1.4s-1.4,0.4-2.2,0.4c-0.9,0-1.6-0.2-2.3-0.5
			c-0.7-0.3-1.2-0.8-1.6-1.3c-0.4-0.5-0.8-1.2-1-1.9s-0.3-1.5-0.3-2.3s0.1-1.6,0.3-2.3c0.2-0.7,0.5-1.3,1-1.9s1-1,1.6-1.3
			s1.4-0.5,2.3-0.5c0.3,0,0.6,0,0.9,0.1c0.3,0.1,0.7,0.2,1,0.3c0.3,0.1,0.7,0.3,1,0.5c0.3,0.2,0.6,0.5,0.8,0.8h0v-5.9h1.9v15.7
			H507.9z M501.2,174.8c0.1,0.5,0.4,1,0.6,1.4c0.3,0.4,0.7,0.7,1.1,0.9c0.4,0.2,1,0.4,1.6,0.4c0.6,0,1.2-0.1,1.6-0.4
			c0.4-0.2,0.8-0.6,1.1-1c0.3-0.4,0.5-0.9,0.6-1.4c0.1-0.5,0.2-1,0.2-1.6c0-0.6-0.1-1.1-0.2-1.6s-0.3-1-0.6-1.4
			c-0.3-0.4-0.7-0.7-1.1-1c-0.5-0.2-1-0.4-1.7-0.4c-0.6,0-1.2,0.1-1.6,0.4c-0.4,0.2-0.8,0.6-1.1,1c-0.3,0.4-0.5,0.9-0.6,1.4
			c-0.1,0.5-0.2,1.1-0.2,1.6C501,173.8,501.1,174.3,501.2,174.8z"/>
		<path class="st3" d="M512.8,165.4v-2.3h1.9v2.3H512.8z M514.7,167.4v11.4h-1.9v-11.4H514.7z"/>
		<path class="st3" d="M519.5,167.4v1.5h0c0.3-0.6,0.8-1.1,1.5-1.4s1.4-0.4,2.2-0.4c0.9,0,1.6,0.2,2.3,0.5c0.7,0.3,1.2,0.8,1.6,1.3
			c0.4,0.5,0.8,1.2,1,1.9c0.2,0.7,0.3,1.5,0.3,2.3c0,0.8-0.1,1.6-0.3,2.3c-0.2,0.7-0.5,1.3-1,1.9c-0.4,0.5-1,1-1.6,1.3
			c-0.7,0.3-1.4,0.5-2.3,0.5c-0.3,0-0.6,0-0.9-0.1s-0.7-0.2-1-0.3c-0.3-0.1-0.7-0.3-1-0.5c-0.3-0.2-0.6-0.5-0.8-0.8h0v5.9h-1.9
			v-15.7H519.5z M526.2,171.5c-0.1-0.5-0.4-1-0.6-1.4c-0.3-0.4-0.7-0.7-1.1-0.9s-1-0.4-1.6-0.4c-0.6,0-1.2,0.1-1.6,0.4
			c-0.4,0.2-0.8,0.6-1.1,1c-0.3,0.4-0.5,0.9-0.6,1.4s-0.2,1-0.2,1.6c0,0.6,0.1,1.1,0.2,1.6c0.1,0.5,0.3,1,0.6,1.4
			c0.3,0.4,0.7,0.7,1.1,1c0.5,0.2,1,0.4,1.7,0.4c0.6,0,1.2-0.1,1.6-0.4c0.4-0.2,0.8-0.6,1-1c0.3-0.4,0.5-0.9,0.6-1.4
			c0.1-0.5,0.2-1.1,0.2-1.6C526.4,172.5,526.4,172,526.2,171.5z"/>
	</g>
	<g class="st2">
		<path class="st3" d="M78.4,200.4v-2.3h1.9v2.3H78.4z M80.2,202.4v11.4h-1.9v-11.4H80.2z"/>
		<path class="st3" d="M84.6,211.3c0.2,0.3,0.4,0.5,0.7,0.7c0.3,0.2,0.6,0.3,1,0.4s0.7,0.1,1.1,0.1c0.3,0,0.6,0,0.9-0.1
			c0.3,0,0.6-0.1,0.9-0.2c0.3-0.1,0.5-0.3,0.7-0.5c0.2-0.2,0.3-0.5,0.3-0.9c0-0.5-0.2-0.9-0.5-1.1c-0.4-0.2-0.8-0.5-1.4-0.6
			c-0.6-0.2-1.1-0.3-1.8-0.4c-0.6-0.1-1.2-0.3-1.8-0.5c-0.6-0.2-1-0.5-1.4-1c-0.4-0.4-0.6-1-0.6-1.7c0-0.6,0.1-1.1,0.4-1.5
			c0.3-0.4,0.6-0.7,1-1s0.9-0.4,1.4-0.6c0.5-0.1,1-0.2,1.5-0.2c0.6,0,1.2,0.1,1.8,0.2c0.5,0.1,1,0.3,1.4,0.6c0.4,0.3,0.8,0.6,1,1.1
			c0.2,0.5,0.4,1,0.4,1.7h-1.9c0-0.4-0.1-0.7-0.3-0.9c-0.2-0.2-0.4-0.4-0.6-0.6c-0.2-0.1-0.5-0.3-0.8-0.3c-0.3-0.1-0.6-0.1-0.9-0.1
			c-0.3,0-0.6,0-0.8,0.1s-0.5,0.1-0.8,0.2c-0.2,0.1-0.4,0.3-0.6,0.4c-0.1,0.2-0.2,0.4-0.2,0.7c0,0.3,0.1,0.6,0.3,0.8
			c0.2,0.2,0.5,0.4,0.9,0.5c0.4,0.1,0.7,0.3,1.2,0.4c0.4,0.1,0.9,0.2,1.3,0.3c0.5,0.1,0.9,0.2,1.4,0.4c0.4,0.1,0.8,0.3,1.2,0.6
			c0.3,0.2,0.6,0.5,0.8,0.9c0.2,0.4,0.3,0.8,0.3,1.4c0,0.7-0.1,1.3-0.4,1.7c-0.3,0.5-0.7,0.8-1.1,1.1s-1,0.5-1.6,0.6
			c-0.6,0.1-1.2,0.2-1.7,0.2c-0.6,0-1.2-0.1-1.8-0.2c-0.6-0.1-1.1-0.3-1.5-0.6c-0.4-0.3-0.8-0.7-1.1-1.2s-0.4-1.1-0.4-1.8h1.9
			C84.3,210.6,84.4,211,84.6,211.3z"/>
		<path class="st3" d="M100.9,204.4c-0.5-0.4-1.1-0.6-1.9-0.6c-0.7,0-1.2,0.1-1.7,0.4c-0.5,0.2-0.8,0.6-1.1,1
			c-0.3,0.4-0.5,0.9-0.6,1.4c-0.1,0.5-0.2,1.1-0.2,1.7c0,0.5,0.1,1,0.2,1.5c0.1,0.5,0.3,0.9,0.6,1.3s0.6,0.7,1,0.9
			c0.4,0.2,0.9,0.4,1.5,0.4c0.9,0,1.6-0.2,2.2-0.7c0.5-0.5,0.8-1.2,1-2h1.9c-0.2,1.4-0.7,2.5-1.6,3.3c-0.8,0.8-2,1.1-3.4,1.1
			c-0.9,0-1.6-0.1-2.3-0.4s-1.2-0.7-1.7-1.2c-0.4-0.5-0.8-1.1-1-1.8c-0.2-0.7-0.3-1.5-0.3-2.3s0.1-1.6,0.3-2.4
			c0.2-0.7,0.6-1.4,1-1.9c0.4-0.5,1-1,1.7-1.3c0.7-0.3,1.5-0.5,2.4-0.5c0.6,0,1.2,0.1,1.8,0.2c0.6,0.2,1.1,0.4,1.5,0.7
			c0.4,0.3,0.8,0.7,1.1,1.2c0.3,0.5,0.5,1.1,0.5,1.7h-1.9C101.7,205.4,101.4,204.8,100.9,204.4z"/>
		<path class="st3" d="M106.1,200.4v-2.3h1.9v2.3H106.1z M107.9,202.4v11.4h-1.9v-11.4H107.9z"/>
		<path class="st3" d="M112.6,202.4v1.8h0c0.8-1.4,2-2.1,3.7-2.1c0.7,0,1.4,0.1,1.9,0.3c0.5,0.2,0.9,0.5,1.2,0.9
			c0.3,0.4,0.5,0.8,0.6,1.3c0.1,0.5,0.2,1.1,0.2,1.7v7.5h-1.9v-7.7c0-0.7-0.2-1.3-0.6-1.7c-0.4-0.4-1-0.6-1.7-0.6
			c-0.6,0-1.1,0.1-1.5,0.3c-0.4,0.2-0.8,0.4-1,0.7c-0.3,0.3-0.5,0.7-0.6,1.1s-0.2,0.9-0.2,1.4v6.4h-1.9v-11.4H112.6z"/>
		<path class="st3" d="M131.6,217c-0.9,0.9-2.2,1.4-4,1.4c-0.5,0-1.1-0.1-1.6-0.2c-0.6-0.1-1-0.3-1.5-0.6c-0.4-0.3-0.8-0.6-1.1-1
			c-0.3-0.4-0.5-0.9-0.5-1.6h1.9c0,0.3,0.1,0.6,0.3,0.9c0.2,0.2,0.4,0.4,0.7,0.6s0.6,0.3,0.9,0.3s0.7,0.1,1,0.1
			c0.6,0,1.1-0.1,1.6-0.3c0.4-0.2,0.8-0.5,1.1-0.9c0.3-0.4,0.5-0.8,0.6-1.4c0.1-0.5,0.2-1.1,0.2-1.7v-0.7h0
			c-0.3,0.7-0.8,1.2-1.5,1.6c-0.7,0.3-1.3,0.5-2.1,0.5c-0.9,0-1.6-0.2-2.2-0.5c-0.6-0.3-1.2-0.7-1.6-1.2s-0.7-1.1-1-1.8
			s-0.3-1.4-0.3-2.2c0-0.7,0.1-1.4,0.3-2.1c0.2-0.7,0.5-1.4,0.9-1.9c0.4-0.6,1-1.1,1.6-1.4c0.7-0.4,1.5-0.6,2.5-0.6
			c0.7,0,1.4,0.2,2,0.5s1.1,0.8,1.4,1.4h0v-1.6h1.8v10.4C132.9,214.7,132.5,216.1,131.6,217z M129.2,211.9c0.4-0.3,0.8-0.6,1-1
			s0.5-0.9,0.6-1.4c0.1-0.5,0.2-1.1,0.2-1.6c0-0.5-0.1-1-0.2-1.5c-0.1-0.5-0.3-0.9-0.6-1.3c-0.3-0.4-0.6-0.7-1-0.9s-0.9-0.4-1.5-0.4
			c-0.6,0-1.1,0.1-1.5,0.3c-0.4,0.2-0.8,0.5-1,0.9c-0.3,0.4-0.5,0.8-0.6,1.3c-0.1,0.5-0.2,1-0.2,1.6c0,0.5,0.1,1,0.2,1.5
			c0.1,0.5,0.3,1,0.5,1.4c0.2,0.4,0.6,0.8,1,1c0.4,0.3,0.9,0.4,1.5,0.4C128.3,212.3,128.8,212.2,129.2,211.9z"/>
		<path class="st3" d="M149.9,213.1c-0.9,0.6-1.9,1-3.2,1c-0.9,0-1.7-0.1-2.4-0.4c-0.7-0.3-1.2-0.7-1.7-1.2c-0.5-0.5-0.8-1.2-1-1.9
			s-0.4-1.5-0.4-2.4c0-0.9,0.1-1.7,0.4-2.4s0.6-1.3,1.1-1.9c0.5-0.5,1-0.9,1.7-1.2c0.7-0.3,1.4-0.4,2.1-0.4c1,0,1.9,0.2,2.5,0.6
			c0.7,0.4,1.2,0.9,1.6,1.6c0.4,0.6,0.7,1.3,0.8,2.1c0.2,0.8,0.2,1.5,0.2,2.2h-8.5c0,0.5,0,1,0.2,1.4c0.1,0.4,0.3,0.8,0.6,1.2
			s0.7,0.6,1.1,0.8c0.5,0.2,1,0.3,1.6,0.3c0.8,0,1.4-0.2,1.9-0.5c0.5-0.4,0.8-0.9,1-1.7h1.8C151.3,211.5,150.7,212.4,149.9,213.1z
			 M149.4,205.8c-0.2-0.4-0.4-0.7-0.7-1c-0.3-0.3-0.6-0.5-1-0.7c-0.4-0.2-0.8-0.3-1.3-0.3c-0.5,0-0.9,0.1-1.3,0.3
			c-0.4,0.2-0.7,0.4-1,0.7c-0.3,0.3-0.5,0.6-0.7,1c-0.2,0.4-0.3,0.8-0.3,1.2h6.5C149.7,206.6,149.6,206.2,149.4,205.8z"/>
		<path class="st3" d="M155.6,198.1v15.7h-1.9v-15.7H155.6z"/>
		<path class="st3" d="M158.6,200.4v-2.3h1.9v2.3H158.6z M160.5,202.4v11.4h-1.9v-11.4H160.5z"/>
		<path class="st3" d="M168.3,202.4v1.7H166v7.1c0,0.2,0,0.4,0.1,0.5c0,0.1,0.1,0.2,0.2,0.3c0.1,0.1,0.2,0.1,0.4,0.1
			c0.2,0,0.4,0,0.7,0h0.9v1.7h-1.4c-0.5,0-0.9,0-1.2-0.1c-0.3-0.1-0.6-0.2-0.8-0.4c-0.2-0.2-0.4-0.4-0.5-0.7
			c-0.1-0.3-0.2-0.7-0.2-1.3v-7.2h-1.9v-1.7h1.9V199h1.9v3.4H168.3z"/>
		<path class="st3" d="M173.2,211.4v2.2c0,0.8-0.2,1.6-0.6,2.2s-1,1-1.8,1.3v-1.1c0.2-0.1,0.5-0.2,0.6-0.4c0.2-0.2,0.3-0.4,0.4-0.5
			s0.2-0.4,0.2-0.6c0-0.2,0-0.4,0-0.6h-1.3v-2.4H173.2z"/>
		<path class="st3" d="M184,211.3c0.2,0.3,0.4,0.5,0.7,0.7c0.3,0.2,0.6,0.3,1,0.4s0.7,0.1,1.1,0.1c0.3,0,0.6,0,0.9-0.1
			c0.3,0,0.6-0.1,0.9-0.2c0.3-0.1,0.5-0.3,0.7-0.5c0.2-0.2,0.3-0.5,0.3-0.9c0-0.5-0.2-0.9-0.5-1.1c-0.4-0.2-0.8-0.5-1.4-0.6
			c-0.6-0.2-1.1-0.3-1.8-0.4c-0.6-0.1-1.2-0.3-1.8-0.5c-0.6-0.2-1-0.5-1.4-1c-0.4-0.4-0.6-1-0.6-1.7c0-0.6,0.1-1.1,0.4-1.5
			c0.3-0.4,0.6-0.7,1-1s0.9-0.4,1.4-0.6c0.5-0.1,1-0.2,1.5-0.2c0.6,0,1.2,0.1,1.8,0.2c0.5,0.1,1,0.3,1.4,0.6c0.4,0.3,0.8,0.6,1,1.1
			c0.2,0.5,0.4,1,0.4,1.7h-1.9c0-0.4-0.1-0.7-0.3-0.9c-0.2-0.2-0.4-0.4-0.6-0.6c-0.2-0.1-0.5-0.3-0.8-0.3c-0.3-0.1-0.6-0.1-0.9-0.1
			c-0.3,0-0.6,0-0.8,0.1s-0.5,0.1-0.8,0.2c-0.2,0.1-0.4,0.3-0.6,0.4c-0.1,0.2-0.2,0.4-0.2,0.7c0,0.3,0.1,0.6,0.3,0.8
			c0.2,0.2,0.5,0.4,0.9,0.5c0.4,0.1,0.7,0.3,1.2,0.4c0.4,0.1,0.9,0.2,1.3,0.3c0.5,0.1,0.9,0.2,1.4,0.4c0.4,0.1,0.8,0.3,1.2,0.6
			c0.3,0.2,0.6,0.5,0.8,0.9c0.2,0.4,0.3,0.8,0.3,1.4c0,0.7-0.1,1.3-0.4,1.7c-0.3,0.5-0.7,0.8-1.1,1.1s-1,0.5-1.6,0.6
			c-0.6,0.1-1.2,0.2-1.7,0.2c-0.6,0-1.2-0.1-1.8-0.2c-0.6-0.1-1.1-0.3-1.5-0.6c-0.4-0.3-0.8-0.7-1.1-1.2s-0.4-1.1-0.4-1.8h1.9
			C183.7,210.6,183.8,211,184,211.3z"/>
		<path class="st3" d="M201.6,213.1c-0.9,0.6-1.9,1-3.2,1c-0.9,0-1.7-0.1-2.4-0.4c-0.7-0.3-1.2-0.7-1.7-1.2c-0.5-0.5-0.8-1.2-1-1.9
			s-0.4-1.5-0.4-2.4c0-0.9,0.1-1.7,0.4-2.4s0.6-1.3,1.1-1.9c0.5-0.5,1-0.9,1.7-1.2c0.7-0.3,1.4-0.4,2.1-0.4c1,0,1.9,0.2,2.5,0.6
			c0.7,0.4,1.2,0.9,1.6,1.6c0.4,0.6,0.7,1.3,0.8,2.1c0.2,0.8,0.2,1.5,0.2,2.2h-8.5c0,0.5,0,1,0.2,1.4c0.1,0.4,0.3,0.8,0.6,1.2
			s0.7,0.6,1.1,0.8c0.5,0.2,1,0.3,1.6,0.3c0.8,0,1.4-0.2,1.9-0.5c0.5-0.4,0.8-0.9,1-1.7h1.8C203,211.5,202.5,212.4,201.6,213.1z
			 M201.2,205.8c-0.2-0.4-0.4-0.7-0.7-1c-0.3-0.3-0.6-0.5-1-0.7c-0.4-0.2-0.8-0.3-1.3-0.3c-0.5,0-0.9,0.1-1.3,0.3
			c-0.4,0.2-0.7,0.4-1,0.7c-0.3,0.3-0.5,0.6-0.7,1c-0.2,0.4-0.3,0.8-0.3,1.2h6.5C201.4,206.6,201.3,206.2,201.2,205.8z"/>
		<path class="st3" d="M213.7,213.8v-1.5h0c-0.3,0.6-0.8,1.1-1.5,1.4s-1.4,0.4-2.2,0.4c-0.9,0-1.6-0.2-2.3-0.5
			c-0.7-0.3-1.2-0.8-1.6-1.3c-0.4-0.5-0.8-1.2-1-1.9c-0.2-0.7-0.3-1.5-0.3-2.3s0.1-1.6,0.3-2.3s0.5-1.3,1-1.9c0.4-0.5,1-1,1.6-1.3
			c0.7-0.3,1.4-0.5,2.3-0.5c0.3,0,0.6,0,0.9,0.1c0.3,0.1,0.7,0.2,1,0.3s0.7,0.3,1,0.5c0.3,0.2,0.6,0.5,0.8,0.8h0v-5.9h1.9v15.7
			H213.7z M206.9,209.8c0.1,0.5,0.4,1,0.6,1.4c0.3,0.4,0.7,0.7,1.1,0.9c0.4,0.2,1,0.4,1.6,0.4c0.6,0,1.2-0.1,1.6-0.4s0.8-0.6,1.1-1
			c0.3-0.4,0.5-0.9,0.6-1.4c0.1-0.5,0.2-1,0.2-1.6c0-0.6-0.1-1.1-0.2-1.6c-0.1-0.5-0.3-1-0.6-1.4c-0.3-0.4-0.7-0.7-1.1-1
			s-1-0.4-1.6-0.4c-0.6,0-1.2,0.1-1.6,0.4c-0.4,0.2-0.8,0.6-1.1,1c-0.3,0.4-0.5,0.9-0.6,1.4c-0.1,0.5-0.2,1.1-0.2,1.6
			C206.7,208.8,206.8,209.3,206.9,209.8z"/>
		<path class="st3" d="M232.8,213.8v-1.5h0c-0.3,0.6-0.8,1.1-1.5,1.4s-1.4,0.4-2.2,0.4c-0.9,0-1.6-0.2-2.3-0.5
			c-0.7-0.3-1.2-0.8-1.6-1.3c-0.4-0.5-0.8-1.2-1-1.9c-0.2-0.7-0.3-1.5-0.3-2.3s0.1-1.6,0.3-2.3s0.5-1.3,1-1.9c0.4-0.5,1-1,1.6-1.3
			c0.7-0.3,1.4-0.5,2.3-0.5c0.3,0,0.6,0,0.9,0.1c0.3,0.1,0.7,0.2,1,0.3c0.3,0.1,0.7,0.3,1,0.5c0.3,0.2,0.6,0.5,0.8,0.8h0v-5.9h1.9
			v15.7H232.8z M226.1,209.8c0.1,0.5,0.4,1,0.6,1.4c0.3,0.4,0.7,0.7,1.1,0.9c0.4,0.2,1,0.4,1.6,0.4c0.6,0,1.2-0.1,1.6-0.4
			c0.4-0.2,0.8-0.6,1.1-1c0.3-0.4,0.5-0.9,0.6-1.4c0.1-0.5,0.2-1,0.2-1.6c0-0.6-0.1-1.1-0.2-1.6s-0.3-1-0.6-1.4
			c-0.3-0.4-0.7-0.7-1.1-1c-0.5-0.2-1-0.4-1.7-0.4c-0.6,0-1.2,0.1-1.6,0.4c-0.4,0.2-0.8,0.6-1.1,1c-0.3,0.4-0.5,0.9-0.6,1.4
			c-0.1,0.5-0.2,1.1-0.2,1.6C225.9,208.8,226,209.3,226.1,209.8z"/>
		<path class="st3" d="M237.7,200.4v-2.3h1.9v2.3H237.7z M239.6,202.4v11.4h-1.9v-11.4H239.6z"/>
		<path class="st3" d="M252.5,213.8c-0.3,0.2-0.8,0.3-1.3,0.3c-0.5,0-0.9-0.1-1.2-0.4s-0.4-0.7-0.4-1.3c-0.5,0.6-1.1,1.1-1.8,1.3
			c-0.7,0.3-1.4,0.4-2.2,0.4c-0.5,0-1-0.1-1.5-0.2s-0.9-0.3-1.2-0.6c-0.3-0.2-0.6-0.6-0.8-1s-0.3-0.9-0.3-1.5c0-0.6,0.1-1.2,0.3-1.6
			c0.2-0.4,0.5-0.7,0.9-1s0.8-0.5,1.2-0.6s0.9-0.2,1.4-0.3c0.5-0.1,1-0.2,1.5-0.2c0.5-0.1,0.9-0.1,1.2-0.2c0.4-0.1,0.6-0.2,0.8-0.4
			c0.2-0.2,0.3-0.5,0.3-0.8c0-0.4-0.1-0.7-0.2-1c-0.2-0.2-0.4-0.4-0.6-0.6c-0.2-0.1-0.5-0.2-0.8-0.3s-0.6-0.1-0.9-0.1
			c-0.8,0-1.5,0.2-2,0.5s-0.8,0.9-0.9,1.7h-1.9c0-0.7,0.2-1.3,0.4-1.8c0.3-0.5,0.6-0.9,1.1-1.2c0.4-0.3,0.9-0.5,1.5-0.6
			c0.6-0.1,1.2-0.2,1.8-0.2c0.5,0,1,0,1.5,0.1s1,0.2,1.4,0.5c0.4,0.2,0.7,0.5,1,1c0.2,0.4,0.4,0.9,0.4,1.6v5.8c0,0.4,0,0.8,0.1,1
			c0.1,0.2,0.2,0.3,0.5,0.3c0.2,0,0.4,0,0.6-0.1V213.8z M249.5,207.9c-0.2,0.2-0.5,0.3-0.9,0.4c-0.4,0.1-0.8,0.1-1.2,0.2
			c-0.4,0.1-0.8,0.1-1.3,0.2c-0.4,0.1-0.8,0.2-1.1,0.3c-0.3,0.1-0.6,0.4-0.8,0.6c-0.2,0.3-0.3,0.6-0.3,1.1c0,0.3,0.1,0.6,0.2,0.8
			c0.1,0.2,0.3,0.4,0.5,0.5c0.2,0.1,0.4,0.2,0.7,0.3c0.3,0.1,0.5,0.1,0.8,0.1c0.6,0,1.1-0.1,1.6-0.3c0.4-0.2,0.8-0.4,1.1-0.6
			c0.3-0.3,0.5-0.5,0.6-0.8c0.1-0.3,0.2-0.6,0.2-0.8V207.9z"/>
		<path class="st3" d="M256,202.4v1.7h0c0.9-1.3,2.1-1.9,3.7-1.9c0.7,0,1.3,0.1,1.9,0.4c0.6,0.3,1,0.8,1.2,1.5
			c0.4-0.6,0.9-1.1,1.5-1.4c0.6-0.3,1.3-0.5,2.1-0.5c0.6,0,1.1,0.1,1.6,0.2c0.5,0.1,0.9,0.3,1.2,0.6c0.3,0.3,0.6,0.6,0.8,1
			s0.3,0.9,0.3,1.5v8.3h-1.9v-7.5c0-0.4,0-0.7-0.1-1c-0.1-0.3-0.2-0.6-0.3-0.8c-0.2-0.2-0.4-0.4-0.7-0.5c-0.3-0.1-0.7-0.2-1.1-0.2
			c-0.9,0-1.7,0.3-2.2,0.8c-0.5,0.5-0.8,1.2-0.8,2.1v7.1h-1.9v-7.5c0-0.4,0-0.7-0.1-1c-0.1-0.3-0.2-0.6-0.3-0.8
			c-0.2-0.2-0.4-0.4-0.6-0.5c-0.3-0.1-0.6-0.2-1-0.2c-0.5,0-1,0.1-1.4,0.3s-0.7,0.5-0.9,0.8c-0.2,0.3-0.4,0.6-0.5,1
			c-0.1,0.3-0.2,0.6-0.2,0.8v7.1h-1.9v-11.4H256z"/>
		<path class="st3" d="M280.9,202.4v1.8h0c0.8-1.4,2-2.1,3.7-2.1c0.7,0,1.4,0.1,1.9,0.3c0.5,0.2,0.9,0.5,1.2,0.9
			c0.3,0.4,0.5,0.8,0.6,1.3c0.1,0.5,0.2,1.1,0.2,1.7v7.5h-1.9v-7.7c0-0.7-0.2-1.3-0.6-1.7c-0.4-0.4-1-0.6-1.7-0.6
			c-0.6,0-1.1,0.1-1.5,0.3c-0.4,0.2-0.8,0.4-1,0.7c-0.3,0.3-0.5,0.7-0.6,1.1c-0.1,0.4-0.2,0.9-0.2,1.4v6.4h-1.9v-11.4H280.9z"/>
		<path class="st3" d="M291.5,200.4v-2.3h1.9v2.3H291.5z M293.4,202.4v11.4h-1.9v-11.4H293.4z"/>
		<path class="st3" d="M298.2,198.1v5.9h0c0.3-0.6,0.8-1.1,1.5-1.4s1.4-0.4,2.2-0.4c0.9,0,1.6,0.2,2.3,0.5c0.7,0.3,1.2,0.8,1.6,1.3
			c0.4,0.5,0.8,1.2,1,1.9c0.2,0.7,0.3,1.5,0.3,2.3c0,0.8-0.1,1.6-0.3,2.3c-0.2,0.7-0.5,1.3-1,1.9c-0.4,0.5-1,1-1.6,1.3
			c-0.7,0.3-1.4,0.5-2.3,0.5c-0.3,0-0.6,0-0.9-0.1s-0.7-0.2-1-0.3c-0.3-0.1-0.7-0.3-1-0.5c-0.3-0.2-0.6-0.5-0.8-0.8h0v1.5h-1.9
			v-15.7H298.2z M304.9,206.5c-0.1-0.5-0.4-1-0.6-1.4c-0.3-0.4-0.7-0.7-1.1-0.9s-1-0.4-1.6-0.4c-0.6,0-1.2,0.1-1.6,0.4
			c-0.4,0.2-0.8,0.6-1.1,1c-0.3,0.4-0.5,0.9-0.6,1.4s-0.2,1-0.2,1.6c0,0.6,0.1,1.1,0.2,1.6c0.1,0.5,0.3,1,0.6,1.4
			c0.3,0.4,0.7,0.7,1.1,1c0.5,0.2,1,0.4,1.7,0.4c0.6,0,1.2-0.1,1.6-0.4c0.4-0.2,0.8-0.6,1-1c0.3-0.4,0.5-0.9,0.6-1.4
			c0.1-0.5,0.2-1.1,0.2-1.6C305.1,207.5,305.1,207,304.9,206.5z"/>
		<path class="st3" d="M311.2,198.1v6h0c0.1-0.4,0.4-0.6,0.6-0.9c0.3-0.2,0.6-0.4,0.9-0.6c0.3-0.2,0.7-0.3,1-0.3
			c0.4-0.1,0.7-0.1,1-0.1c0.7,0,1.4,0.1,1.9,0.3c0.5,0.2,0.9,0.5,1.2,0.9c0.3,0.4,0.5,0.8,0.6,1.3c0.1,0.5,0.2,1.1,0.2,1.7v7.5h-1.9
			v-7.7c0-0.7-0.2-1.3-0.6-1.7c-0.4-0.4-1-0.6-1.7-0.6c-0.6,0-1.1,0.1-1.5,0.3c-0.4,0.2-0.8,0.4-1,0.7c-0.3,0.3-0.5,0.7-0.6,1.1
			c-0.1,0.4-0.2,0.9-0.2,1.4v6.4h-1.9v-15.7H311.2z"/>
		<path class="st3" d="M335.7,213.1c-0.9,0.6-1.9,1-3.2,1c-0.9,0-1.7-0.1-2.4-0.4c-0.7-0.3-1.2-0.7-1.7-1.2c-0.5-0.5-0.8-1.2-1-1.9
			s-0.4-1.5-0.4-2.4c0-0.9,0.1-1.7,0.4-2.4c0.3-0.7,0.6-1.3,1.1-1.9c0.5-0.5,1-0.9,1.7-1.2c0.7-0.3,1.4-0.4,2.1-0.4
			c1,0,1.9,0.2,2.5,0.6c0.7,0.4,1.2,0.9,1.6,1.6s0.7,1.3,0.8,2.1c0.2,0.8,0.2,1.5,0.2,2.2H329c0,0.5,0,1,0.2,1.4s0.3,0.8,0.6,1.2
			c0.3,0.3,0.7,0.6,1.1,0.8c0.5,0.2,1,0.3,1.6,0.3c0.8,0,1.4-0.2,1.9-0.5c0.5-0.4,0.8-0.9,1-1.7h1.8
			C337.1,211.5,336.6,212.4,335.7,213.1z M335.3,205.8c-0.2-0.4-0.4-0.7-0.7-1s-0.6-0.5-1-0.7c-0.4-0.2-0.8-0.3-1.3-0.3
			c-0.5,0-0.9,0.1-1.3,0.3c-0.4,0.2-0.7,0.4-1,0.7c-0.3,0.3-0.5,0.6-0.7,1s-0.3,0.8-0.3,1.2h6.5
			C335.5,206.6,335.4,206.2,335.3,205.8z"/>
		<path class="st3" d="M347.1,213.8V212h0c-0.4,0.7-0.9,1.2-1.5,1.6s-1.3,0.5-2.2,0.5c-0.7,0-1.4-0.1-1.9-0.3
			c-0.5-0.2-0.9-0.5-1.2-0.8c-0.3-0.4-0.5-0.8-0.6-1.3c-0.1-0.5-0.2-1.1-0.2-1.7v-7.5h1.9v7.7c0,0.7,0.2,1.3,0.6,1.7
			c0.4,0.4,1,0.6,1.7,0.6c0.6,0,1.1-0.1,1.5-0.3c0.4-0.2,0.8-0.4,1-0.7c0.3-0.3,0.5-0.7,0.6-1.1c0.1-0.4,0.2-0.9,0.2-1.4v-6.4h1.9
			v11.4H347.1z"/>
		<path class="st3" d="M351.8,200.4v-2.3h1.9v2.3H351.8z M353.7,202.4v11.4h-1.9v-11.4H353.7z"/>
		<path class="st3" d="M358,211.3c0.2,0.3,0.4,0.5,0.7,0.7c0.3,0.2,0.6,0.3,1,0.4s0.7,0.1,1.1,0.1c0.3,0,0.6,0,0.9-0.1
			c0.3,0,0.6-0.1,0.9-0.2c0.3-0.1,0.5-0.3,0.7-0.5c0.2-0.2,0.3-0.5,0.3-0.9c0-0.5-0.2-0.9-0.6-1.1c-0.4-0.2-0.8-0.5-1.4-0.6
			c-0.5-0.2-1.1-0.3-1.8-0.4c-0.6-0.1-1.2-0.3-1.8-0.5c-0.5-0.2-1-0.5-1.4-1c-0.4-0.4-0.5-1-0.5-1.7c0-0.6,0.1-1.1,0.4-1.5
			c0.3-0.4,0.6-0.7,1-1s0.9-0.4,1.4-0.6c0.5-0.1,1-0.2,1.5-0.2c0.6,0,1.2,0.1,1.8,0.2c0.5,0.1,1,0.3,1.4,0.6c0.4,0.3,0.8,0.6,1,1.1
			c0.2,0.5,0.4,1,0.4,1.7h-1.9c0-0.4-0.1-0.7-0.3-0.9c-0.2-0.2-0.4-0.4-0.6-0.6c-0.2-0.1-0.5-0.3-0.8-0.3c-0.3-0.1-0.6-0.1-0.9-0.1
			c-0.3,0-0.6,0-0.8,0.1c-0.3,0-0.5,0.1-0.8,0.2c-0.2,0.1-0.4,0.3-0.6,0.4s-0.2,0.4-0.2,0.7c0,0.3,0.1,0.6,0.3,0.8
			c0.2,0.2,0.5,0.4,0.9,0.5c0.4,0.1,0.7,0.3,1.2,0.4c0.4,0.1,0.9,0.2,1.3,0.3c0.5,0.1,0.9,0.2,1.4,0.4s0.8,0.3,1.2,0.6
			c0.3,0.2,0.6,0.5,0.8,0.9c0.2,0.4,0.3,0.8,0.3,1.4c0,0.7-0.1,1.3-0.4,1.7c-0.3,0.5-0.7,0.8-1.1,1.1s-1,0.5-1.6,0.6
			c-0.6,0.1-1.2,0.2-1.7,0.2c-0.6,0-1.2-0.1-1.8-0.2c-0.6-0.1-1.1-0.3-1.5-0.6c-0.4-0.3-0.8-0.7-1.1-1.2s-0.4-1.1-0.4-1.8h1.9
			C357.8,210.6,357.9,211,358,211.3z"/>
		<path class="st3" d="M369.4,202.4v1.7h0c0.9-1.3,2.1-1.9,3.7-1.9c0.7,0,1.3,0.1,1.9,0.4c0.6,0.3,1,0.8,1.2,1.5
			c0.4-0.6,0.9-1.1,1.5-1.4c0.6-0.3,1.3-0.5,2.1-0.5c0.6,0,1.1,0.1,1.6,0.2c0.5,0.1,0.9,0.3,1.2,0.6c0.3,0.3,0.6,0.6,0.8,1
			s0.3,0.9,0.3,1.5v8.3h-1.9v-7.5c0-0.4,0-0.7-0.1-1c-0.1-0.3-0.2-0.6-0.3-0.8c-0.2-0.2-0.4-0.4-0.7-0.5c-0.3-0.1-0.7-0.2-1.1-0.2
			c-0.9,0-1.7,0.3-2.2,0.8c-0.5,0.5-0.8,1.2-0.8,2.1v7.1h-1.9v-7.5c0-0.4,0-0.7-0.1-1c-0.1-0.3-0.2-0.6-0.3-0.8
			c-0.2-0.2-0.4-0.4-0.6-0.5c-0.3-0.1-0.6-0.2-1-0.2c-0.5,0-1,0.1-1.4,0.3s-0.7,0.5-0.9,0.8c-0.2,0.3-0.4,0.6-0.5,1
			c-0.1,0.3-0.2,0.6-0.2,0.8v7.1h-1.9v-11.4H369.4z"/>
		<path class="st3" d="M386.1,205.8c0.2-0.7,0.6-1.4,1.1-1.9c0.5-0.5,1-1,1.7-1.3c0.7-0.3,1.5-0.5,2.4-0.5c0.9,0,1.7,0.2,2.4,0.5
			c0.7,0.3,1.3,0.7,1.7,1.3c0.5,0.5,0.8,1.2,1.1,1.9c0.2,0.7,0.4,1.5,0.4,2.3s-0.1,1.6-0.4,2.3c-0.2,0.7-0.6,1.3-1.1,1.9
			s-1,1-1.7,1.3c-0.7,0.3-1.5,0.5-2.4,0.5c-0.9,0-1.7-0.2-2.4-0.5c-0.7-0.3-1.3-0.7-1.7-1.3c-0.5-0.5-0.8-1.2-1.1-1.9
			c-0.2-0.7-0.4-1.5-0.4-2.3S385.9,206.5,386.1,205.8z M388,210c0.2,0.5,0.4,1,0.8,1.3c0.3,0.4,0.7,0.6,1.1,0.8
			c0.4,0.2,0.9,0.3,1.4,0.3c0.5,0,0.9-0.1,1.4-0.3c0.4-0.2,0.8-0.5,1.1-0.8c0.3-0.4,0.6-0.8,0.8-1.3s0.3-1.1,0.3-1.8
			s-0.1-1.3-0.3-1.8s-0.4-1-0.8-1.4c-0.3-0.4-0.7-0.6-1.1-0.8c-0.4-0.2-0.9-0.3-1.4-0.3c-0.5,0-0.9,0.1-1.4,0.3
			c-0.4,0.2-0.8,0.5-1.1,0.8c-0.3,0.4-0.6,0.8-0.8,1.4s-0.3,1.1-0.3,1.8S387.8,209.4,388,210z"/>
		<path class="st3" d="M407.3,213.8v-1.5h0c-0.3,0.6-0.8,1.1-1.5,1.4s-1.4,0.4-2.2,0.4c-0.9,0-1.6-0.2-2.3-0.5
			c-0.7-0.3-1.2-0.8-1.6-1.3c-0.4-0.5-0.8-1.2-1-1.9s-0.3-1.5-0.3-2.3s0.1-1.6,0.3-2.3c0.2-0.7,0.5-1.3,1-1.9s1-1,1.6-1.3
			s1.4-0.5,2.3-0.5c0.3,0,0.6,0,0.9,0.1c0.3,0.1,0.7,0.2,1,0.3c0.3,0.1,0.7,0.3,1,0.5c0.3,0.2,0.6,0.5,0.8,0.8h0v-5.9h1.9v15.7
			H407.3z M400.6,209.8c0.1,0.5,0.4,1,0.6,1.4c0.3,0.4,0.7,0.7,1.1,0.9c0.4,0.2,1,0.4,1.6,0.4c0.6,0,1.2-0.1,1.6-0.4
			c0.4-0.2,0.8-0.6,1.1-1c0.3-0.4,0.5-0.9,0.6-1.4c0.1-0.5,0.2-1,0.2-1.6c0-0.6-0.1-1.1-0.2-1.6s-0.3-1-0.6-1.4
			c-0.3-0.4-0.7-0.7-1.1-1c-0.5-0.2-1-0.4-1.7-0.4c-0.6,0-1.2,0.1-1.6,0.4c-0.4,0.2-0.8,0.6-1.1,1c-0.3,0.4-0.5,0.9-0.6,1.4
			c-0.1,0.5-0.2,1.1-0.2,1.6C400.4,208.8,400.4,209.3,400.6,209.8z"/>
		<path class="st3" d="M423,202.4v1.7h-2.3v7.1c0,0.2,0,0.4,0.1,0.5c0,0.1,0.1,0.2,0.2,0.3c0.1,0.1,0.2,0.1,0.4,0.1
			c0.2,0,0.4,0,0.7,0h0.9v1.7h-1.4c-0.5,0-0.9,0-1.2-0.1c-0.3-0.1-0.6-0.2-0.8-0.4s-0.4-0.4-0.5-0.7s-0.2-0.7-0.2-1.3v-7.2h-1.9
			v-1.7h1.9V199h1.9v3.4H423z"/>
		<path class="st3" d="M425.2,200.4v-2.3h1.9v2.3H425.2z M427.1,202.4v11.4h-1.9v-11.4H427.1z"/>
		<path class="st3" d="M431.7,202.4v1.8h0c0.8-1.4,2-2.1,3.7-2.1c0.7,0,1.4,0.1,1.9,0.3c0.5,0.2,0.9,0.5,1.2,0.9
			c0.3,0.4,0.5,0.8,0.6,1.3c0.1,0.5,0.2,1.1,0.2,1.7v7.5h-1.9v-7.7c0-0.7-0.2-1.3-0.6-1.7c-0.4-0.4-1-0.6-1.7-0.6
			c-0.6,0-1.1,0.1-1.5,0.3c-0.4,0.2-0.8,0.4-1,0.7c-0.3,0.3-0.5,0.7-0.6,1.1c-0.1,0.4-0.2,0.9-0.2,1.4v6.4H430v-11.4H431.7z"/>
		<path class="st3" d="M449,204.4c-0.5-0.4-1.1-0.6-1.9-0.6c-0.7,0-1.2,0.1-1.7,0.4c-0.5,0.2-0.8,0.6-1.1,1
			c-0.3,0.4-0.5,0.9-0.6,1.4c-0.1,0.5-0.2,1.1-0.2,1.7c0,0.5,0.1,1,0.2,1.5c0.1,0.5,0.3,0.9,0.6,1.3s0.6,0.7,1,0.9
			c0.4,0.2,0.9,0.4,1.5,0.4c0.9,0,1.6-0.2,2.2-0.7c0.5-0.5,0.8-1.2,1-2h1.9c-0.2,1.4-0.7,2.5-1.6,3.3c-0.8,0.8-2,1.1-3.4,1.1
			c-0.9,0-1.6-0.1-2.3-0.4c-0.7-0.3-1.2-0.7-1.7-1.2c-0.4-0.5-0.8-1.1-1-1.8c-0.2-0.7-0.3-1.5-0.3-2.3s0.1-1.6,0.3-2.4
			c0.2-0.7,0.6-1.4,1-1.9s1-1,1.7-1.3s1.5-0.5,2.4-0.5c0.6,0,1.2,0.1,1.8,0.2c0.6,0.2,1.1,0.4,1.5,0.7c0.4,0.3,0.8,0.7,1.1,1.2
			c0.3,0.5,0.5,1.1,0.5,1.7h-1.9C449.8,205.4,449.5,204.8,449,204.4z"/>
		<path class="st3" d="M454.1,200.4v-2.3h1.9v2.3H454.1z M456,202.4v11.4h-1.9v-11.4H456z"/>
		<path class="st3" d="M467.2,213.8v-1.5h0c-0.3,0.6-0.8,1.1-1.5,1.4s-1.4,0.4-2.2,0.4c-0.9,0-1.6-0.2-2.3-0.5
			c-0.7-0.3-1.2-0.8-1.6-1.3c-0.4-0.5-0.8-1.2-1-1.9s-0.3-1.5-0.3-2.3s0.1-1.6,0.3-2.3c0.2-0.7,0.5-1.3,1-1.9s1-1,1.6-1.3
			s1.4-0.5,2.3-0.5c0.3,0,0.6,0,0.9,0.1c0.3,0.1,0.7,0.2,1,0.3c0.3,0.1,0.7,0.3,1,0.5c0.3,0.2,0.6,0.5,0.8,0.8h0v-5.9h1.9v15.7
			H467.2z M460.5,209.8c0.1,0.5,0.4,1,0.6,1.4c0.3,0.4,0.7,0.7,1.1,0.9c0.4,0.2,1,0.4,1.6,0.4c0.6,0,1.2-0.1,1.6-0.4
			c0.4-0.2,0.8-0.6,1.1-1c0.3-0.4,0.5-0.9,0.6-1.4c0.1-0.5,0.2-1,0.2-1.6c0-0.6-0.1-1.1-0.2-1.6s-0.3-1-0.6-1.4
			c-0.3-0.4-0.7-0.7-1.1-1c-0.5-0.2-1-0.4-1.7-0.4c-0.6,0-1.2,0.1-1.6,0.4c-0.4,0.2-0.8,0.6-1.1,1c-0.3,0.4-0.5,0.9-0.6,1.4
			c-0.1,0.5-0.2,1.1-0.2,1.6C460.3,208.8,460.3,209.3,460.5,209.8z"/>
		<path class="st3" d="M479.6,213.8V212h0c-0.4,0.7-0.9,1.2-1.5,1.6s-1.3,0.5-2.2,0.5c-0.7,0-1.4-0.1-1.9-0.3
			c-0.5-0.2-0.9-0.5-1.2-0.8c-0.3-0.4-0.5-0.8-0.6-1.3c-0.1-0.5-0.2-1.1-0.2-1.7v-7.5h1.9v7.7c0,0.7,0.2,1.3,0.6,1.7
			c0.4,0.4,1,0.6,1.7,0.6c0.6,0,1.1-0.1,1.5-0.3c0.4-0.2,0.8-0.4,1-0.7c0.3-0.3,0.5-0.7,0.6-1.1c0.1-0.4,0.2-0.9,0.2-1.4v-6.4h1.9
			v11.4H479.6z"/>
		<path class="st3" d="M485.9,202.4v1.8h0c0.8-1.4,2-2.1,3.7-2.1c0.7,0,1.4,0.1,1.9,0.3c0.5,0.2,0.9,0.5,1.2,0.9
			c0.3,0.4,0.5,0.8,0.6,1.3c0.1,0.5,0.2,1.1,0.2,1.7v7.5h-1.9v-7.7c0-0.7-0.2-1.3-0.6-1.7c-0.4-0.4-1-0.6-1.7-0.6
			c-0.6,0-1.1,0.1-1.5,0.3c-0.4,0.2-0.8,0.4-1,0.7c-0.3,0.3-0.5,0.7-0.6,1.1c-0.1,0.4-0.2,0.9-0.2,1.4v6.4h-1.9v-11.4H485.9z"/>
		<path class="st3" d="M501.3,202.4v1.7H499v7.1c0,0.2,0,0.4,0.1,0.5c0,0.1,0.1,0.2,0.2,0.3c0.1,0.1,0.2,0.1,0.4,0.1
			c0.2,0,0.4,0,0.7,0h0.9v1.7h-1.4c-0.5,0-0.9,0-1.2-0.1c-0.3-0.1-0.6-0.2-0.8-0.4s-0.4-0.4-0.5-0.7s-0.2-0.7-0.2-1.3v-7.2h-1.9
			v-1.7h1.9V199h1.9v3.4H501.3z"/>
		<path class="st3" d="M517.1,213.8V212h0c-0.4,0.7-0.9,1.2-1.5,1.6s-1.3,0.5-2.2,0.5c-0.7,0-1.4-0.1-1.9-0.3
			c-0.5-0.2-0.9-0.5-1.2-0.8c-0.3-0.4-0.5-0.8-0.6-1.3c-0.1-0.5-0.2-1.1-0.2-1.7v-7.5h1.9v7.7c0,0.7,0.2,1.3,0.6,1.7
			c0.4,0.4,1,0.6,1.7,0.6c0.6,0,1.1-0.1,1.5-0.3c0.4-0.2,0.8-0.4,1-0.7c0.3-0.3,0.5-0.7,0.6-1.1c0.1-0.4,0.2-0.9,0.2-1.4v-6.4h1.9
			v11.4H517.1z"/>
		<path class="st3" d="M526.5,202.4v1.7h-2.3v7.1c0,0.2,0,0.4,0.1,0.5c0,0.1,0.1,0.2,0.2,0.3c0.1,0.1,0.2,0.1,0.4,0.1
			c0.2,0,0.4,0,0.7,0h0.9v1.7h-1.4c-0.5,0-0.9,0-1.2-0.1c-0.3-0.1-0.6-0.2-0.8-0.4s-0.4-0.4-0.5-0.7s-0.2-0.7-0.2-1.3v-7.2h-1.9
			v-1.7h1.9V199h1.9v3.4H526.5z"/>
	</g>
	<g>
		<path class="st3" d="M565.9,156v32.2H71.7V156H565.9 M568.8,153.1h-500v38h500V153.1L568.8,153.1z"/>
	</g>
	<g>
		<path class="st3" d="M565.9,191v32.2H71.7V191H565.9 M568.8,188.1h-500v38h500V188.1L568.8,188.1z"/>
	</g>
	<g>
		<g>
			<path class="st3" d="M585.8,262.1v109h-534v-109H585.8 M588.8,259.1h-540v115h540V259.1L588.8,259.1z"/>
		</g>
	</g>
	<g class="st2">
		<path class="st3" d="M80.7,289.1v13.9H89v1.8H78.6v-15.7H80.7z"/>
		<path class="st3" d="M90.2,296.8c0.2-0.7,0.6-1.4,1.1-1.9c0.5-0.5,1-1,1.7-1.3c0.7-0.3,1.5-0.5,2.4-0.5c0.9,0,1.7,0.2,2.4,0.5
			c0.7,0.3,1.3,0.7,1.7,1.3c0.5,0.5,0.8,1.2,1.1,1.9c0.2,0.7,0.4,1.5,0.4,2.3s-0.1,1.6-0.4,2.3c-0.2,0.7-0.6,1.3-1.1,1.9
			c-0.5,0.5-1,1-1.7,1.3c-0.7,0.3-1.5,0.5-2.4,0.5c-0.9,0-1.7-0.2-2.4-0.5s-1.3-0.7-1.7-1.3c-0.5-0.5-0.8-1.2-1.1-1.9
			c-0.2-0.7-0.4-1.5-0.4-2.3S90,297.5,90.2,296.8z M92.1,301c0.2,0.5,0.4,1,0.8,1.3c0.3,0.4,0.7,0.6,1.1,0.8s0.9,0.3,1.4,0.3
			s0.9-0.1,1.4-0.3s0.8-0.5,1.1-0.8s0.6-0.8,0.8-1.3c0.2-0.5,0.3-1.1,0.3-1.8s-0.1-1.3-0.3-1.8c-0.2-0.5-0.4-1-0.8-1.4
			c-0.3-0.4-0.7-0.6-1.1-0.8c-0.4-0.2-0.9-0.3-1.4-0.3s-0.9,0.1-1.4,0.3c-0.4,0.2-0.8,0.5-1.1,0.8c-0.3,0.4-0.6,0.8-0.8,1.4
			c-0.2,0.5-0.3,1.1-0.3,1.8S91.9,300.4,92.1,301z"/>
		<path class="st3" d="M104.8,293.4v2.4h0c0.5-0.9,1-1.6,1.7-2c0.7-0.4,1.5-0.6,2.5-0.6v2c-0.7,0-1.4,0.1-1.9,0.3
			c-0.5,0.2-1,0.5-1.3,0.9c-0.3,0.4-0.6,0.9-0.7,1.4c-0.1,0.6-0.2,1.2-0.2,1.9v5.1H103v-11.4H104.8z"/>
		<path class="st3" d="M118.1,304.1c-0.9,0.6-1.9,1-3.2,1c-0.9,0-1.7-0.1-2.4-0.4c-0.7-0.3-1.2-0.7-1.7-1.2c-0.5-0.5-0.8-1.2-1-1.9
			s-0.4-1.5-0.4-2.4c0-0.9,0.1-1.7,0.4-2.4s0.6-1.3,1.1-1.9c0.5-0.5,1-0.9,1.7-1.2c0.7-0.3,1.4-0.4,2.1-0.4c1,0,1.9,0.2,2.5,0.6
			c0.7,0.4,1.2,0.9,1.6,1.6c0.4,0.6,0.7,1.3,0.8,2.1c0.2,0.8,0.2,1.5,0.2,2.2h-8.5c0,0.5,0,1,0.2,1.4c0.1,0.4,0.3,0.8,0.6,1.2
			s0.7,0.6,1.1,0.8c0.5,0.2,1,0.3,1.6,0.3c0.8,0,1.4-0.2,1.9-0.5c0.5-0.4,0.8-0.9,1-1.7h1.8C119.5,302.5,118.9,303.4,118.1,304.1z
			 M117.6,296.8c-0.2-0.4-0.4-0.7-0.7-1c-0.3-0.3-0.6-0.5-1-0.7c-0.4-0.2-0.8-0.3-1.3-0.3c-0.5,0-0.9,0.1-1.3,0.3
			c-0.4,0.2-0.7,0.4-1,0.7c-0.3,0.3-0.5,0.6-0.7,1c-0.2,0.4-0.3,0.8-0.3,1.2h6.5C117.9,297.6,117.8,297.2,117.6,296.8z"/>
		<path class="st3" d="M123.6,293.4v1.7h0c0.9-1.3,2.1-1.9,3.7-1.9c0.7,0,1.3,0.1,1.9,0.4c0.6,0.3,1,0.8,1.2,1.5
			c0.4-0.6,0.9-1.1,1.5-1.4c0.6-0.3,1.3-0.5,2.1-0.5c0.6,0,1.1,0.1,1.6,0.2c0.5,0.1,0.9,0.3,1.2,0.6c0.3,0.3,0.6,0.6,0.8,1
			c0.2,0.4,0.3,0.9,0.3,1.5v8.3h-1.9v-7.5c0-0.4,0-0.7-0.1-1c-0.1-0.3-0.2-0.6-0.3-0.8s-0.4-0.4-0.7-0.5s-0.7-0.2-1.1-0.2
			c-0.9,0-1.6,0.3-2.2,0.8c-0.5,0.5-0.8,1.2-0.8,2.1v7.1h-1.9v-7.5c0-0.4,0-0.7-0.1-1c-0.1-0.3-0.2-0.6-0.3-0.8
			c-0.2-0.2-0.4-0.4-0.6-0.5s-0.6-0.2-1-0.2c-0.5,0-1,0.1-1.4,0.3s-0.7,0.5-0.9,0.8c-0.2,0.3-0.4,0.6-0.5,1
			c-0.1,0.3-0.2,0.6-0.2,0.8v7.1h-1.9v-11.4H123.6z"/>
		<path class="st3" d="M146.9,291.4v-2.3h1.9v2.3H146.9z M148.7,293.4v11.4h-1.9v-11.4H148.7z"/>
		<path class="st3" d="M153.6,293.4v1.5h0c0.3-0.6,0.8-1.1,1.5-1.4c0.7-0.3,1.4-0.4,2.2-0.4c0.9,0,1.6,0.2,2.3,0.5
			c0.7,0.3,1.2,0.8,1.6,1.3s0.8,1.2,1,1.9c0.2,0.7,0.3,1.5,0.3,2.3c0,0.8-0.1,1.6-0.3,2.3c-0.2,0.7-0.5,1.3-1,1.9
			c-0.4,0.5-1,1-1.6,1.3c-0.7,0.3-1.4,0.5-2.3,0.5c-0.3,0-0.6,0-0.9-0.1s-0.7-0.2-1-0.3s-0.7-0.3-1-0.5c-0.3-0.2-0.6-0.5-0.8-0.8h0
			v5.9h-1.9v-15.7H153.6z M160.3,297.5c-0.1-0.5-0.4-1-0.6-1.4c-0.3-0.4-0.7-0.7-1.1-0.9c-0.4-0.2-1-0.4-1.6-0.4
			c-0.6,0-1.2,0.1-1.6,0.4c-0.4,0.2-0.8,0.6-1.1,1s-0.5,0.9-0.6,1.4s-0.2,1-0.2,1.6c0,0.6,0.1,1.1,0.2,1.6s0.3,1,0.6,1.4
			c0.3,0.4,0.7,0.7,1.1,1s1,0.4,1.6,0.4s1.2-0.1,1.6-0.4s0.8-0.6,1-1c0.3-0.4,0.5-0.9,0.6-1.4c0.1-0.5,0.2-1.1,0.2-1.6
			C160.5,298.5,160.4,298,160.3,297.5z"/>
		<path class="st3" d="M166.1,302.3c0.2,0.3,0.4,0.5,0.7,0.7c0.3,0.2,0.6,0.3,1,0.4s0.7,0.1,1.1,0.1c0.3,0,0.6,0,0.9-0.1
			c0.3,0,0.6-0.1,0.9-0.2c0.3-0.1,0.5-0.3,0.7-0.5c0.2-0.2,0.3-0.5,0.3-0.9c0-0.5-0.2-0.9-0.5-1.1c-0.4-0.2-0.8-0.5-1.4-0.6
			c-0.6-0.2-1.1-0.3-1.8-0.4c-0.6-0.1-1.2-0.3-1.8-0.5c-0.6-0.2-1-0.5-1.4-1c-0.4-0.4-0.6-1-0.6-1.7c0-0.6,0.1-1.1,0.4-1.5
			c0.3-0.4,0.6-0.7,1-1s0.9-0.4,1.4-0.6c0.5-0.1,1-0.2,1.5-0.2c0.6,0,1.2,0.1,1.8,0.2c0.5,0.1,1,0.3,1.4,0.6c0.4,0.3,0.8,0.6,1,1.1
			c0.2,0.5,0.4,1,0.4,1.7h-1.9c0-0.4-0.1-0.7-0.3-0.9c-0.2-0.2-0.4-0.4-0.6-0.6c-0.2-0.1-0.5-0.3-0.8-0.3c-0.3-0.1-0.6-0.1-0.9-0.1
			c-0.3,0-0.6,0-0.8,0.1s-0.5,0.1-0.8,0.2c-0.2,0.1-0.4,0.3-0.6,0.4c-0.1,0.2-0.2,0.4-0.2,0.7c0,0.3,0.1,0.6,0.3,0.8
			c0.2,0.2,0.5,0.4,0.9,0.5c0.4,0.1,0.7,0.3,1.2,0.4c0.4,0.1,0.9,0.2,1.3,0.3c0.5,0.1,0.9,0.2,1.4,0.4c0.4,0.1,0.8,0.3,1.2,0.6
			c0.3,0.2,0.6,0.5,0.8,0.9c0.2,0.4,0.3,0.8,0.3,1.4c0,0.7-0.1,1.3-0.4,1.7c-0.3,0.5-0.7,0.8-1.1,1.1s-1,0.5-1.6,0.6
			c-0.6,0.1-1.2,0.2-1.7,0.2c-0.6,0-1.2-0.1-1.8-0.2c-0.6-0.1-1.1-0.3-1.5-0.6c-0.4-0.3-0.8-0.7-1.1-1.2s-0.4-1.1-0.4-1.8h1.9
			C165.8,301.6,165.9,302,166.1,302.3z"/>
		<path class="st3" d="M183.3,304.8V303h0c-0.4,0.7-0.9,1.2-1.5,1.6c-0.6,0.3-1.3,0.5-2.2,0.5c-0.7,0-1.4-0.1-1.9-0.3
			c-0.5-0.2-0.9-0.5-1.2-0.8c-0.3-0.4-0.5-0.8-0.6-1.3c-0.1-0.5-0.2-1.1-0.2-1.7v-7.5h1.9v7.7c0,0.7,0.2,1.3,0.6,1.7
			c0.4,0.4,1,0.6,1.7,0.6c0.6,0,1.1-0.1,1.5-0.3c0.4-0.2,0.8-0.4,1-0.7c0.3-0.3,0.5-0.7,0.6-1.1c0.1-0.4,0.2-0.9,0.2-1.4v-6.4h1.9
			v11.4H183.3z"/>
		<path class="st3" d="M189.7,293.4v1.7h0c0.9-1.3,2.1-1.9,3.7-1.9c0.7,0,1.3,0.1,1.9,0.4c0.6,0.3,1,0.8,1.2,1.5
			c0.4-0.6,0.9-1.1,1.5-1.4c0.6-0.3,1.3-0.5,2.1-0.5c0.6,0,1.1,0.1,1.6,0.2c0.5,0.1,0.9,0.3,1.2,0.6c0.3,0.3,0.6,0.6,0.8,1
			c0.2,0.4,0.3,0.9,0.3,1.5v8.3H202v-7.5c0-0.4,0-0.7-0.1-1c-0.1-0.3-0.2-0.6-0.3-0.8s-0.4-0.4-0.7-0.5s-0.7-0.2-1.1-0.2
			c-0.9,0-1.6,0.3-2.2,0.8c-0.5,0.5-0.8,1.2-0.8,2.1v7.1h-1.9v-7.5c0-0.4,0-0.7-0.1-1c-0.1-0.3-0.2-0.6-0.3-0.8
			c-0.2-0.2-0.4-0.4-0.6-0.5s-0.6-0.2-1-0.2c-0.5,0-1,0.1-1.4,0.3s-0.7,0.5-0.9,0.8c-0.2,0.3-0.4,0.6-0.5,1
			c-0.1,0.3-0.2,0.6-0.2,0.8v7.1h-1.9v-11.4H189.7z"/>
	</g>
	<g class="st2">
		<path class="st3" d="M221,303.4c-0.4,0.6-0.8,1.1-1.4,1.3c-0.6,0.3-1.3,0.4-2,0.4c-0.9,0-1.6-0.2-2.2-0.5
			c-0.6-0.3-1.2-0.8-1.6-1.3c-0.4-0.6-0.7-1.2-0.9-1.9c-0.2-0.7-0.3-1.5-0.3-2.3c0-0.8,0.1-1.5,0.3-2.2c0.2-0.7,0.5-1.3,0.9-1.9
			c0.4-0.5,0.9-1,1.6-1.3c0.6-0.3,1.4-0.5,2.2-0.5c0.7,0,1.3,0.1,1.9,0.4c0.6,0.3,1.1,0.7,1.4,1.3h0v-5.7h3.1v15.7h-3L221,303.4
			L221,303.4z M220.9,297.7c-0.1-0.4-0.2-0.8-0.5-1.1c-0.2-0.3-0.5-0.6-0.8-0.8c-0.3-0.2-0.8-0.3-1.3-0.3c-0.5,0-0.9,0.1-1.3,0.3
			c-0.4,0.2-0.6,0.5-0.8,0.8c-0.2,0.3-0.4,0.7-0.5,1.2c-0.1,0.4-0.1,0.9-0.1,1.4c0,0.4,0.1,0.9,0.2,1.3c0.1,0.4,0.3,0.8,0.5,1.2
			c0.2,0.3,0.5,0.6,0.9,0.8c0.3,0.2,0.8,0.3,1.2,0.3c0.5,0,0.9-0.1,1.3-0.3c0.3-0.2,0.6-0.5,0.8-0.8c0.2-0.3,0.4-0.7,0.4-1.2
			c0.1-0.4,0.1-0.9,0.1-1.4S221,298.2,220.9,297.7z"/>
		<path class="st3" d="M226.4,296.7c0.3-0.7,0.7-1.4,1.2-1.9c0.5-0.5,1.1-0.9,1.8-1.2c0.7-0.3,1.5-0.4,2.4-0.4s1.7,0.1,2.4,0.4
			s1.3,0.7,1.9,1.2c0.5,0.5,0.9,1.2,1.2,1.9c0.3,0.7,0.4,1.6,0.4,2.5s-0.1,1.7-0.4,2.5c-0.3,0.7-0.7,1.4-1.2,1.9
			c-0.5,0.5-1.1,0.9-1.9,1.2s-1.5,0.4-2.4,0.4s-1.7-0.1-2.4-0.4c-0.7-0.3-1.3-0.7-1.8-1.2c-0.5-0.5-0.9-1.1-1.2-1.9
			c-0.3-0.7-0.4-1.6-0.4-2.5S226.2,297.4,226.4,296.7z M229.3,300.5c0.1,0.4,0.2,0.8,0.5,1.2c0.2,0.3,0.5,0.6,0.8,0.8
			c0.4,0.2,0.8,0.3,1.3,0.3s1-0.1,1.3-0.3c0.4-0.2,0.6-0.5,0.9-0.8c0.2-0.3,0.4-0.7,0.5-1.2s0.1-0.9,0.1-1.3c0-0.5,0-0.9-0.1-1.3
			c-0.1-0.4-0.2-0.8-0.5-1.2c-0.2-0.3-0.5-0.6-0.9-0.8s-0.8-0.3-1.3-0.3s-1,0.1-1.3,0.3s-0.6,0.5-0.8,0.8c-0.2,0.3-0.4,0.7-0.5,1.2
			c-0.1,0.4-0.1,0.9-0.1,1.3C229.1,299.6,229.2,300,229.3,300.5z"/>
		<path class="st3" d="M243,289.1v15.7h-3.1v-15.7H243z"/>
		<path class="st3" d="M245.6,296.7c0.3-0.7,0.7-1.4,1.2-1.9c0.5-0.5,1.1-0.9,1.8-1.2c0.7-0.3,1.5-0.4,2.4-0.4s1.7,0.1,2.4,0.4
			s1.3,0.7,1.9,1.2c0.5,0.5,0.9,1.2,1.2,1.9c0.3,0.7,0.4,1.6,0.4,2.5s-0.1,1.7-0.4,2.5c-0.3,0.7-0.7,1.4-1.2,1.9
			c-0.5,0.5-1.1,0.9-1.9,1.2s-1.5,0.4-2.4,0.4s-1.7-0.1-2.4-0.4c-0.7-0.3-1.3-0.7-1.8-1.2c-0.5-0.5-0.9-1.1-1.2-1.9
			c-0.3-0.7-0.4-1.6-0.4-2.5S245.3,297.4,245.6,296.7z M248.4,300.5c0.1,0.4,0.2,0.8,0.5,1.2c0.2,0.3,0.5,0.6,0.8,0.8
			c0.4,0.2,0.8,0.3,1.3,0.3s1-0.1,1.3-0.3c0.4-0.2,0.6-0.5,0.9-0.8c0.2-0.3,0.4-0.7,0.5-1.2s0.1-0.9,0.1-1.3c0-0.5,0-0.9-0.1-1.3
			c-0.1-0.4-0.2-0.8-0.5-1.2c-0.2-0.3-0.5-0.6-0.9-0.8s-0.8-0.3-1.3-0.3s-1,0.1-1.3,0.3s-0.6,0.5-0.8,0.8c-0.2,0.3-0.4,0.7-0.5,1.2
			c-0.1,0.4-0.1,0.9-0.1,1.3C248.3,299.6,248.3,300,248.4,300.5z"/>
		<path class="st3" d="M261.9,293.4v2.1h0c0.1-0.4,0.3-0.7,0.6-1c0.2-0.3,0.5-0.6,0.9-0.8s0.7-0.4,1-0.5c0.4-0.1,0.7-0.2,1.1-0.2
			c0.2,0,0.4,0,0.7,0.1v2.9c-0.1,0-0.3-0.1-0.5-0.1c-0.2,0-0.4,0-0.6,0c-0.6,0-1.1,0.1-1.5,0.3c-0.4,0.2-0.7,0.5-1,0.8
			c-0.2,0.3-0.4,0.7-0.5,1.2c-0.1,0.4-0.2,0.9-0.2,1.4v5.1h-3.1v-11.4H261.9z"/>
		<path class="st3" d="M276.2,302c0.1,0.2,0.3,0.4,0.5,0.6c0.2,0.2,0.5,0.3,0.8,0.3c0.3,0.1,0.6,0.1,0.9,0.1c0.2,0,0.5,0,0.7-0.1
			c0.2-0.1,0.5-0.1,0.7-0.2c0.2-0.1,0.4-0.3,0.5-0.4s0.2-0.4,0.2-0.7c0-0.5-0.3-0.8-0.9-1.1c-0.6-0.2-1.5-0.5-2.6-0.7
			c-0.5-0.1-0.9-0.2-1.3-0.4c-0.4-0.1-0.8-0.3-1.2-0.5c-0.3-0.2-0.6-0.5-0.8-0.9c-0.2-0.3-0.3-0.8-0.3-1.3c0-0.7,0.1-1.3,0.4-1.8
			c0.3-0.5,0.7-0.8,1.1-1.1c0.5-0.3,1-0.5,1.6-0.6c0.6-0.1,1.2-0.2,1.8-0.2c0.6,0,1.2,0.1,1.8,0.2c0.6,0.1,1.1,0.3,1.6,0.6
			c0.5,0.3,0.8,0.6,1.1,1.1c0.3,0.5,0.5,1,0.5,1.7h-3c0-0.6-0.3-1-0.7-1.2c-0.4-0.2-0.9-0.3-1.5-0.3c-0.2,0-0.4,0-0.6,0
			c-0.2,0-0.4,0.1-0.6,0.1s-0.3,0.2-0.4,0.3c-0.1,0.1-0.2,0.3-0.2,0.6c0,0.3,0.1,0.5,0.3,0.7c0.2,0.2,0.5,0.3,0.8,0.4
			c0.3,0.1,0.7,0.2,1.1,0.3c0.4,0.1,0.9,0.2,1.3,0.3c0.5,0.1,0.9,0.2,1.3,0.4s0.8,0.3,1.2,0.6c0.3,0.2,0.6,0.5,0.8,0.9
			c0.2,0.4,0.3,0.8,0.3,1.3c0,0.7-0.2,1.4-0.5,1.9c-0.3,0.5-0.7,0.9-1.2,1.2c-0.5,0.3-1,0.5-1.7,0.6c-0.6,0.1-1.3,0.2-1.9,0.2
			c-0.7,0-1.3-0.1-1.9-0.2c-0.6-0.1-1.2-0.4-1.7-0.7c-0.5-0.3-0.9-0.7-1.2-1.2s-0.5-1.1-0.5-1.9h3C276,301.5,276.1,301.8,276.2,302z
			"/>
		<path class="st3" d="M285.5,291.7v-2.6h3.1v2.6H285.5z M288.6,293.4v11.4h-3.1v-11.4H288.6z"/>
		<path class="st3" d="M297.3,293.4v2.1h-2.3v5.6c0,0.5,0.1,0.9,0.3,1.1c0.2,0.2,0.5,0.3,1.1,0.3c0.2,0,0.3,0,0.5,0
			c0.2,0,0.3,0,0.5-0.1v2.4c-0.3,0-0.6,0.1-0.9,0.1c-0.3,0-0.6,0-0.9,0c-0.5,0-0.9,0-1.4-0.1c-0.4-0.1-0.8-0.2-1.1-0.4
			c-0.3-0.2-0.6-0.5-0.8-0.8c-0.2-0.4-0.3-0.8-0.3-1.4v-6.7H290v-2.1h1.9V290h3.1v3.4H297.3z"/>
		<path class="st3" d="M304.8,296.9c0-0.7,0.2-1.3,0.5-1.8c0.3-0.5,0.7-0.9,1.2-1.2c0.5-0.3,1.1-0.5,1.7-0.6
			c0.6-0.1,1.2-0.2,1.9-0.2c0.6,0,1.2,0,1.7,0.1c0.6,0.1,1.1,0.2,1.6,0.5s0.9,0.6,1.2,1s0.5,1,0.5,1.7v5.9c0,0.5,0,1,0.1,1.5
			c0.1,0.5,0.2,0.8,0.3,1.1h-3.2c-0.1-0.2-0.1-0.4-0.1-0.5s-0.1-0.4-0.1-0.6c-0.5,0.5-1.1,0.9-1.8,1.1c-0.7,0.2-1.4,0.3-2.1,0.3
			c-0.5,0-1-0.1-1.5-0.2c-0.5-0.1-0.9-0.3-1.2-0.6c-0.4-0.3-0.6-0.6-0.8-1.1c-0.2-0.4-0.3-0.9-0.3-1.5c0-0.6,0.1-1.2,0.3-1.6
			s0.5-0.8,0.9-1c0.4-0.2,0.8-0.4,1.2-0.6c0.5-0.1,0.9-0.2,1.4-0.3c0.5-0.1,0.9-0.1,1.4-0.2s0.9-0.1,1.2-0.2s0.6-0.2,0.8-0.4
			c0.2-0.2,0.3-0.4,0.3-0.7c0-0.3-0.1-0.6-0.2-0.8c-0.1-0.2-0.3-0.4-0.4-0.5c-0.2-0.1-0.4-0.2-0.6-0.2c-0.2,0-0.5-0.1-0.8-0.1
			c-0.6,0-1.1,0.1-1.5,0.4c-0.4,0.3-0.6,0.7-0.6,1.3H304.8z M312,299.3c-0.1,0.1-0.3,0.2-0.5,0.3c-0.2,0.1-0.4,0.1-0.6,0.2
			c-0.2,0-0.5,0.1-0.7,0.1s-0.5,0.1-0.7,0.1c-0.2,0-0.5,0.1-0.7,0.2c-0.2,0.1-0.4,0.2-0.6,0.3c-0.2,0.1-0.3,0.3-0.4,0.5
			s-0.2,0.4-0.2,0.7c0,0.3,0.1,0.5,0.2,0.7c0.1,0.2,0.2,0.3,0.4,0.5c0.2,0.1,0.4,0.2,0.6,0.2c0.2,0,0.5,0.1,0.7,0.1
			c0.6,0,1.1-0.1,1.4-0.3s0.6-0.5,0.7-0.7c0.2-0.3,0.3-0.6,0.3-0.9c0-0.3,0.1-0.5,0.1-0.7V299.3z"/>
		<path class="st3" d="M320.6,293.4v1.5h0c0.4-0.6,0.9-1,1.5-1.4c0.6-0.3,1.2-0.5,2-0.5c0.7,0,1.4,0.1,2,0.4c0.6,0.3,1,0.8,1.4,1.5
			c0.3-0.5,0.8-0.9,1.4-1.3c0.6-0.4,1.3-0.6,2.1-0.6c0.6,0,1.2,0.1,1.7,0.2s1,0.4,1.3,0.7c0.4,0.3,0.7,0.7,0.9,1.3
			c0.2,0.5,0.3,1.1,0.3,1.9v7.6h-3.1v-6.4c0-0.4,0-0.7,0-1.1c0-0.3-0.1-0.6-0.2-0.9c-0.1-0.2-0.3-0.4-0.6-0.6s-0.6-0.2-1-0.2
			c-0.4,0-0.8,0.1-1.1,0.3s-0.5,0.4-0.6,0.7s-0.3,0.6-0.3,0.9c-0.1,0.3-0.1,0.7-0.1,1v6.3h-3.1v-6.4c0-0.3,0-0.7,0-1
			s-0.1-0.6-0.2-0.9s-0.3-0.5-0.5-0.7c-0.3-0.2-0.6-0.3-1.1-0.3c-0.1,0-0.3,0-0.6,0.1c-0.2,0.1-0.5,0.2-0.7,0.4
			c-0.2,0.2-0.4,0.4-0.6,0.8c-0.2,0.3-0.2,0.8-0.2,1.4v6.6h-3.1v-11.4H320.6z"/>
		<path class="st3" d="M340.9,302.1c0.5,0.5,1.1,0.7,2,0.7c0.6,0,1.2-0.2,1.6-0.5c0.5-0.3,0.7-0.6,0.8-1h2.8c-0.4,1.4-1.1,2.3-2,2.9
			s-2,0.9-3.3,0.9c-0.9,0-1.7-0.1-2.4-0.4c-0.7-0.3-1.3-0.7-1.8-1.2c-0.5-0.5-0.9-1.2-1.2-1.9s-0.4-1.5-0.4-2.4
			c0-0.9,0.1-1.6,0.4-2.4c0.3-0.7,0.7-1.4,1.2-1.9s1.1-1,1.8-1.3c0.7-0.3,1.5-0.5,2.4-0.5c1,0,1.8,0.2,2.5,0.6
			c0.7,0.4,1.3,0.9,1.8,1.5c0.5,0.6,0.8,1.3,1,2.2s0.3,1.7,0.2,2.5h-8.2C340.1,300.9,340.4,301.6,340.9,302.1z M344.4,296.1
			c-0.4-0.4-0.9-0.6-1.7-0.6c-0.5,0-0.9,0.1-1.2,0.3c-0.3,0.2-0.6,0.4-0.8,0.6c-0.2,0.2-0.3,0.5-0.4,0.8c-0.1,0.3-0.1,0.5-0.1,0.7
			h5.1C345,297.1,344.8,296.5,344.4,296.1z"/>
		<path class="st3" d="M356.4,293.4v2.1h-2.3v5.6c0,0.5,0.1,0.9,0.3,1.1c0.2,0.2,0.5,0.3,1.1,0.3c0.2,0,0.3,0,0.5,0
			c0.2,0,0.3,0,0.5-0.1v2.4c-0.3,0-0.6,0.1-0.9,0.1c-0.3,0-0.6,0-0.9,0c-0.5,0-0.9,0-1.4-0.1c-0.4-0.1-0.8-0.2-1.1-0.4
			c-0.3-0.2-0.6-0.5-0.8-0.8c-0.2-0.4-0.3-0.8-0.3-1.4v-6.7h-1.9v-2.1h1.9V290h3.1v3.4H356.4z"/>
	</g>
	<g class="st2">
		<path class="st3" d="M371.1,295.4c-0.5-0.4-1.1-0.6-1.9-0.6c-0.7,0-1.2,0.1-1.7,0.4c-0.5,0.2-0.8,0.6-1.1,1
			c-0.3,0.4-0.5,0.9-0.6,1.4c-0.1,0.5-0.2,1.1-0.2,1.7c0,0.5,0.1,1,0.2,1.5c0.1,0.5,0.3,0.9,0.6,1.3c0.3,0.4,0.6,0.7,1,0.9
			c0.4,0.2,0.9,0.4,1.5,0.4c0.9,0,1.6-0.2,2.2-0.7c0.5-0.5,0.8-1.2,1-2h1.9c-0.2,1.4-0.7,2.5-1.6,3.3c-0.8,0.8-2,1.1-3.4,1.1
			c-0.9,0-1.6-0.1-2.3-0.4c-0.7-0.3-1.2-0.7-1.7-1.2c-0.4-0.5-0.8-1.1-1-1.8c-0.2-0.7-0.3-1.5-0.3-2.3s0.1-1.6,0.3-2.4
			c0.2-0.7,0.6-1.4,1-1.9c0.4-0.5,1-1,1.7-1.3s1.5-0.5,2.4-0.5c0.6,0,1.2,0.1,1.8,0.2c0.6,0.2,1.1,0.4,1.5,0.7
			c0.4,0.3,0.8,0.7,1.1,1.2c0.3,0.5,0.5,1.1,0.5,1.7H372C371.8,296.4,371.5,295.8,371.1,295.4z"/>
		<path class="st3" d="M375.8,296.8c0.2-0.7,0.6-1.4,1.1-1.9c0.5-0.5,1-1,1.7-1.3c0.7-0.3,1.5-0.5,2.4-0.5c0.9,0,1.7,0.2,2.4,0.5
			c0.7,0.3,1.3,0.7,1.7,1.3c0.5,0.5,0.8,1.2,1.1,1.9c0.2,0.7,0.4,1.5,0.4,2.3s-0.1,1.6-0.4,2.3s-0.6,1.3-1.1,1.9s-1,1-1.7,1.3
			c-0.7,0.3-1.5,0.5-2.4,0.5c-0.9,0-1.7-0.2-2.4-0.5s-1.3-0.7-1.7-1.3c-0.5-0.5-0.8-1.2-1.1-1.9s-0.4-1.5-0.4-2.3
			S375.6,297.5,375.8,296.8z M377.7,301c0.2,0.5,0.4,1,0.8,1.3s0.7,0.6,1.1,0.8s0.9,0.3,1.4,0.3c0.5,0,0.9-0.1,1.4-0.3
			s0.8-0.5,1.1-0.8c0.3-0.4,0.6-0.8,0.8-1.3c0.2-0.5,0.3-1.1,0.3-1.8s-0.1-1.3-0.3-1.8c-0.2-0.5-0.4-1-0.8-1.4
			c-0.3-0.4-0.7-0.6-1.1-0.8c-0.4-0.2-0.9-0.3-1.4-0.3c-0.5,0-0.9,0.1-1.4,0.3c-0.4,0.2-0.8,0.5-1.1,0.8c-0.3,0.4-0.6,0.8-0.8,1.4
			c-0.2,0.5-0.3,1.1-0.3,1.8S377.5,300.4,377.7,301z"/>
		<path class="st3" d="M390.5,293.4v1.8h0c0.8-1.4,2-2.1,3.7-2.1c0.7,0,1.4,0.1,1.9,0.3c0.5,0.2,0.9,0.5,1.2,0.9
			c0.3,0.4,0.5,0.8,0.6,1.3c0.1,0.5,0.2,1.1,0.2,1.7v7.5h-1.9v-7.7c0-0.7-0.2-1.3-0.6-1.7c-0.4-0.4-1-0.6-1.7-0.6
			c-0.6,0-1.1,0.1-1.5,0.3c-0.4,0.2-0.8,0.4-1,0.7c-0.3,0.3-0.5,0.7-0.6,1.1c-0.1,0.4-0.2,0.9-0.2,1.4v6.4h-1.9v-11.4H390.5z"/>
		<path class="st3" d="M402.4,302.3c0.2,0.3,0.4,0.5,0.7,0.7c0.3,0.2,0.6,0.3,1,0.4s0.7,0.1,1.1,0.1c0.3,0,0.6,0,0.9-0.1
			s0.6-0.1,0.9-0.2c0.3-0.1,0.5-0.3,0.7-0.5c0.2-0.2,0.3-0.5,0.3-0.9c0-0.5-0.2-0.9-0.5-1.1c-0.4-0.2-0.8-0.5-1.4-0.6
			c-0.6-0.2-1.1-0.3-1.8-0.4c-0.6-0.1-1.2-0.3-1.8-0.5c-0.6-0.2-1-0.5-1.4-1c-0.4-0.4-0.6-1-0.6-1.7c0-0.6,0.1-1.1,0.4-1.5
			c0.3-0.4,0.6-0.7,1-1s0.9-0.4,1.4-0.6c0.5-0.1,1-0.2,1.5-0.2c0.6,0,1.2,0.1,1.8,0.2c0.5,0.1,1,0.3,1.4,0.6c0.4,0.3,0.8,0.6,1,1.1
			c0.2,0.5,0.4,1,0.4,1.7h-1.9c0-0.4-0.1-0.7-0.3-0.9c-0.2-0.2-0.4-0.4-0.6-0.6c-0.2-0.1-0.5-0.3-0.8-0.3c-0.3-0.1-0.6-0.1-0.9-0.1
			c-0.3,0-0.6,0-0.8,0.1s-0.5,0.1-0.8,0.2c-0.2,0.1-0.4,0.3-0.6,0.4s-0.2,0.4-0.2,0.7c0,0.3,0.1,0.6,0.3,0.8
			c0.2,0.2,0.5,0.4,0.9,0.5c0.4,0.1,0.7,0.3,1.2,0.4c0.4,0.1,0.9,0.2,1.3,0.3c0.5,0.1,0.9,0.2,1.4,0.4s0.8,0.3,1.2,0.6
			c0.3,0.2,0.6,0.5,0.8,0.9c0.2,0.4,0.3,0.8,0.3,1.4c0,0.7-0.1,1.3-0.4,1.7c-0.3,0.5-0.7,0.8-1.1,1.1s-1,0.5-1.6,0.6
			c-0.6,0.1-1.2,0.2-1.7,0.2c-0.6,0-1.2-0.1-1.8-0.2s-1.1-0.3-1.5-0.6c-0.4-0.3-0.8-0.7-1.1-1.2c-0.3-0.5-0.4-1.1-0.4-1.8h1.9
			C402.1,301.6,402.2,302,402.4,302.3z"/>
		<path class="st3" d="M420,304.1c-0.9,0.6-1.9,1-3.2,1c-0.9,0-1.7-0.1-2.4-0.4c-0.7-0.3-1.2-0.7-1.7-1.2c-0.5-0.5-0.8-1.2-1-1.9
			s-0.4-1.5-0.4-2.4c0-0.9,0.1-1.7,0.4-2.4c0.3-0.7,0.6-1.3,1.1-1.9c0.5-0.5,1-0.9,1.7-1.2c0.7-0.3,1.4-0.4,2.1-0.4
			c1,0,1.9,0.2,2.5,0.6c0.7,0.4,1.2,0.9,1.6,1.6c0.4,0.6,0.7,1.3,0.8,2.1c0.2,0.8,0.2,1.5,0.2,2.2h-8.5c0,0.5,0,1,0.2,1.4
			s0.3,0.8,0.6,1.2c0.3,0.3,0.7,0.6,1.1,0.8c0.5,0.2,1,0.3,1.6,0.3c0.8,0,1.4-0.2,1.9-0.5c0.5-0.4,0.8-0.9,1-1.7h1.8
			C421.4,302.5,420.8,303.4,420,304.1z M419.5,296.8c-0.2-0.4-0.4-0.7-0.7-1s-0.6-0.5-1-0.7c-0.4-0.2-0.8-0.3-1.3-0.3
			c-0.5,0-0.9,0.1-1.3,0.3c-0.4,0.2-0.7,0.4-1,0.7c-0.3,0.3-0.5,0.6-0.7,1c-0.2,0.4-0.3,0.8-0.3,1.2h6.5
			C419.8,297.6,419.7,297.2,419.5,296.8z"/>
		<path class="st3" d="M430.6,295.4c-0.5-0.4-1.1-0.6-1.9-0.6c-0.7,0-1.2,0.1-1.7,0.4c-0.5,0.2-0.8,0.6-1.1,1
			c-0.3,0.4-0.5,0.9-0.6,1.4c-0.1,0.5-0.2,1.1-0.2,1.7c0,0.5,0.1,1,0.2,1.5c0.1,0.5,0.3,0.9,0.6,1.3c0.3,0.4,0.6,0.7,1,0.9
			c0.4,0.2,0.9,0.4,1.5,0.4c0.9,0,1.6-0.2,2.2-0.7c0.5-0.5,0.8-1.2,1-2h1.9c-0.2,1.4-0.7,2.5-1.6,3.3c-0.8,0.8-2,1.1-3.4,1.1
			c-0.9,0-1.6-0.1-2.3-0.4c-0.7-0.3-1.2-0.7-1.7-1.2c-0.4-0.5-0.8-1.1-1-1.8c-0.2-0.7-0.3-1.5-0.3-2.3s0.1-1.6,0.3-2.4
			c0.2-0.7,0.6-1.4,1-1.9c0.4-0.5,1-1,1.7-1.3s1.5-0.5,2.4-0.5c0.6,0,1.2,0.1,1.8,0.2c0.6,0.2,1.1,0.4,1.5,0.7
			c0.4,0.3,0.8,0.7,1.1,1.2c0.3,0.5,0.5,1.1,0.5,1.7h-1.9C431.3,296.4,431,295.8,430.6,295.4z"/>
		<path class="st3" d="M440.4,293.4v1.7h-2.3v7.1c0,0.2,0,0.4,0.1,0.5s0.1,0.2,0.2,0.3c0.1,0.1,0.2,0.1,0.4,0.1c0.2,0,0.4,0,0.7,0
			h0.9v1.7H439c-0.5,0-0.9,0-1.2-0.1c-0.3-0.1-0.6-0.2-0.8-0.4s-0.4-0.4-0.5-0.7c-0.1-0.3-0.2-0.7-0.2-1.3v-7.2h-1.9v-1.7h1.9V290
			h1.9v3.4H440.4z"/>
		<path class="st3" d="M450.6,304.1c-0.9,0.6-1.9,1-3.2,1c-0.9,0-1.7-0.1-2.4-0.4c-0.7-0.3-1.2-0.7-1.7-1.2c-0.5-0.5-0.8-1.2-1-1.9
			s-0.4-1.5-0.4-2.4c0-0.9,0.1-1.7,0.4-2.4c0.3-0.7,0.6-1.3,1.1-1.9c0.5-0.5,1-0.9,1.7-1.2c0.7-0.3,1.4-0.4,2.1-0.4
			c1,0,1.9,0.2,2.5,0.6c0.7,0.4,1.2,0.9,1.6,1.6s0.7,1.3,0.8,2.1s0.2,1.5,0.2,2.2h-8.5c0,0.5,0,1,0.2,1.4c0.1,0.4,0.3,0.8,0.6,1.2
			c0.3,0.3,0.7,0.6,1.1,0.8c0.5,0.2,1,0.3,1.6,0.3c0.8,0,1.4-0.2,1.9-0.5c0.5-0.4,0.8-0.9,1-1.7h1.8
			C452,302.5,451.4,303.4,450.6,304.1z M450.1,296.8c-0.2-0.4-0.4-0.7-0.7-1c-0.3-0.3-0.6-0.5-1-0.7c-0.4-0.2-0.8-0.3-1.3-0.3
			c-0.5,0-0.9,0.1-1.3,0.3c-0.4,0.2-0.7,0.4-1,0.7c-0.3,0.3-0.5,0.6-0.7,1s-0.3,0.8-0.3,1.2h6.5
			C450.4,297.6,450.3,297.2,450.1,296.8z"/>
		<path class="st3" d="M459.2,293.4v1.7h-2.3v7.1c0,0.2,0,0.4,0.1,0.5s0.1,0.2,0.2,0.3c0.1,0.1,0.2,0.1,0.4,0.1c0.2,0,0.4,0,0.7,0
			h0.9v1.7h-1.4c-0.5,0-0.9,0-1.2-0.1c-0.3-0.1-0.6-0.2-0.8-0.4s-0.4-0.4-0.5-0.7c-0.1-0.3-0.2-0.7-0.2-1.3v-7.2h-1.9v-1.7h1.9V290
			h1.9v3.4H459.2z"/>
		<path class="st3" d="M468.9,304.8V303h0c-0.4,0.7-0.9,1.2-1.5,1.6s-1.3,0.5-2.2,0.5c-0.7,0-1.4-0.1-1.9-0.3
			c-0.5-0.2-0.9-0.5-1.2-0.8c-0.3-0.4-0.5-0.8-0.6-1.3c-0.1-0.5-0.2-1.1-0.2-1.7v-7.5h1.9v7.7c0,0.7,0.2,1.3,0.6,1.7
			c0.4,0.4,1,0.6,1.7,0.6c0.6,0,1.1-0.1,1.5-0.3c0.4-0.2,0.8-0.4,1-0.7c0.3-0.3,0.5-0.7,0.6-1.1c0.1-0.4,0.2-0.9,0.2-1.4v-6.4h1.9
			v11.4H468.9z"/>
		<path class="st3" d="M481.5,304.1c-0.9,0.6-1.9,1-3.2,1c-0.9,0-1.7-0.1-2.4-0.4c-0.7-0.3-1.2-0.7-1.7-1.2c-0.5-0.5-0.8-1.2-1-1.9
			s-0.4-1.5-0.4-2.4c0-0.9,0.1-1.7,0.4-2.4c0.3-0.7,0.6-1.3,1.1-1.9c0.5-0.5,1-0.9,1.7-1.2c0.7-0.3,1.4-0.4,2.1-0.4
			c1,0,1.9,0.2,2.5,0.6c0.7,0.4,1.2,0.9,1.6,1.6c0.4,0.6,0.7,1.3,0.8,2.1c0.2,0.8,0.2,1.5,0.2,2.2h-8.5c0,0.5,0,1,0.2,1.4
			s0.3,0.8,0.6,1.2c0.3,0.3,0.7,0.6,1.1,0.8c0.5,0.2,1,0.3,1.6,0.3c0.8,0,1.4-0.2,1.9-0.5c0.5-0.4,0.8-0.9,1-1.7h1.8
			C482.9,302.5,482.4,303.4,481.5,304.1z M481.1,296.8c-0.2-0.4-0.4-0.7-0.7-1s-0.6-0.5-1-0.7c-0.4-0.2-0.8-0.3-1.3-0.3
			c-0.5,0-0.9,0.1-1.3,0.3c-0.4,0.2-0.7,0.4-1,0.7c-0.3,0.3-0.5,0.6-0.7,1c-0.2,0.4-0.3,0.8-0.3,1.2h6.5
			C481.3,297.6,481.2,297.2,481.1,296.8z"/>
		<path class="st3" d="M487,293.4v2.4h0c0.5-0.9,1-1.6,1.7-2c0.7-0.4,1.5-0.6,2.5-0.6v2c-0.7,0-1.4,0.1-1.9,0.3
			c-0.5,0.2-1,0.5-1.3,0.9c-0.3,0.4-0.6,0.9-0.7,1.4s-0.2,1.2-0.2,1.9v5.1h-1.9v-11.4H487z"/>
		<path class="st3" d="M508.8,304.8c-0.3,0.2-0.8,0.3-1.3,0.3c-0.5,0-0.9-0.1-1.2-0.4s-0.4-0.7-0.4-1.3c-0.5,0.6-1.1,1.1-1.8,1.3
			c-0.7,0.3-1.4,0.4-2.2,0.4c-0.5,0-1-0.1-1.5-0.2c-0.5-0.1-0.9-0.3-1.2-0.6c-0.3-0.2-0.6-0.6-0.8-1c-0.2-0.4-0.3-0.9-0.3-1.5
			c0-0.6,0.1-1.2,0.3-1.6c0.2-0.4,0.5-0.7,0.9-1s0.8-0.5,1.2-0.6s0.9-0.2,1.4-0.3c0.5-0.1,1-0.2,1.5-0.2c0.5-0.1,0.9-0.1,1.2-0.2
			c0.4-0.1,0.6-0.2,0.8-0.4s0.3-0.5,0.3-0.8c0-0.4-0.1-0.7-0.2-1s-0.4-0.4-0.6-0.6s-0.5-0.2-0.8-0.3s-0.6-0.1-0.9-0.1
			c-0.8,0-1.5,0.2-2,0.5c-0.5,0.3-0.8,0.9-0.9,1.7h-1.9c0-0.7,0.2-1.3,0.4-1.8c0.3-0.5,0.6-0.9,1.1-1.2c0.4-0.3,0.9-0.5,1.5-0.6
			c0.6-0.1,1.2-0.2,1.8-0.2c0.5,0,1,0,1.5,0.1s1,0.2,1.4,0.5s0.7,0.5,1,1s0.4,0.9,0.4,1.6v5.8c0,0.4,0,0.8,0.1,1
			c0.1,0.2,0.2,0.3,0.5,0.3c0.2,0,0.4,0,0.6-0.1V304.8z M505.8,298.9c-0.2,0.2-0.5,0.3-0.9,0.4c-0.4,0.1-0.8,0.1-1.2,0.2
			c-0.4,0.1-0.8,0.1-1.3,0.2c-0.4,0.1-0.8,0.2-1.1,0.3c-0.3,0.1-0.6,0.4-0.8,0.6c-0.2,0.3-0.3,0.6-0.3,1.1c0,0.3,0.1,0.6,0.2,0.8
			c0.1,0.2,0.3,0.4,0.5,0.5c0.2,0.1,0.4,0.2,0.7,0.3c0.3,0.1,0.5,0.1,0.8,0.1c0.6,0,1.1-0.1,1.6-0.3c0.4-0.2,0.8-0.4,1.1-0.6
			c0.3-0.3,0.5-0.5,0.6-0.8c0.1-0.3,0.2-0.6,0.2-0.8V298.9z"/>
		<path class="st3" d="M518.8,304.8v-1.5h0c-0.3,0.6-0.8,1.1-1.5,1.4s-1.4,0.4-2.2,0.4c-0.9,0-1.6-0.2-2.3-0.5
			c-0.7-0.3-1.2-0.8-1.6-1.3c-0.4-0.5-0.8-1.2-1-1.9s-0.3-1.5-0.3-2.3s0.1-1.6,0.3-2.3c0.2-0.7,0.5-1.3,1-1.9s1-1,1.6-1.3
			s1.4-0.5,2.3-0.5c0.3,0,0.6,0,0.9,0.1c0.3,0.1,0.7,0.2,1,0.3c0.3,0.1,0.7,0.3,1,0.5c0.3,0.2,0.6,0.5,0.8,0.8h0v-5.9h1.9v15.7
			H518.8z M512.1,300.8c0.1,0.5,0.4,1,0.6,1.4c0.3,0.4,0.7,0.7,1.1,0.9c0.4,0.2,1,0.4,1.6,0.4c0.6,0,1.2-0.1,1.6-0.4
			c0.4-0.2,0.8-0.6,1.1-1c0.3-0.4,0.5-0.9,0.6-1.4c0.1-0.5,0.2-1,0.2-1.6c0-0.6-0.1-1.1-0.2-1.6s-0.3-1-0.6-1.4
			c-0.3-0.4-0.7-0.7-1.1-1c-0.5-0.2-1-0.4-1.7-0.4c-0.6,0-1.2,0.1-1.6,0.4c-0.4,0.2-0.8,0.6-1.1,1c-0.3,0.4-0.5,0.9-0.6,1.4
			c-0.1,0.5-0.2,1.1-0.2,1.6C511.9,299.8,512,300.3,512.1,300.8z"/>
		<path class="st3" d="M523.7,291.4v-2.3h1.9v2.3H523.7z M525.6,293.4v11.4h-1.9v-11.4H525.6z"/>
		<path class="st3" d="M530.4,293.4v1.5h0c0.3-0.6,0.8-1.1,1.5-1.4s1.4-0.4,2.2-0.4c0.9,0,1.6,0.2,2.3,0.5c0.7,0.3,1.2,0.8,1.6,1.3
			c0.4,0.5,0.8,1.2,1,1.9c0.2,0.7,0.3,1.5,0.3,2.3c0,0.8-0.1,1.6-0.3,2.3c-0.2,0.7-0.5,1.3-1,1.9c-0.4,0.5-1,1-1.6,1.3
			c-0.7,0.3-1.4,0.5-2.3,0.5c-0.3,0-0.6,0-0.9-0.1s-0.7-0.2-1-0.3c-0.3-0.1-0.7-0.3-1-0.5c-0.3-0.2-0.6-0.5-0.8-0.8h0v5.9h-1.9
			v-15.7H530.4z M537.1,297.5c-0.1-0.5-0.4-1-0.6-1.4c-0.3-0.4-0.7-0.7-1.1-0.9s-1-0.4-1.6-0.4c-0.6,0-1.2,0.1-1.6,0.4
			c-0.4,0.2-0.8,0.6-1.1,1c-0.3,0.4-0.5,0.9-0.6,1.4s-0.2,1-0.2,1.6c0,0.6,0.1,1.1,0.2,1.6c0.1,0.5,0.3,1,0.6,1.4
			c0.3,0.4,0.7,0.7,1.1,1c0.5,0.2,1,0.4,1.7,0.4c0.6,0,1.2-0.1,1.6-0.4c0.4-0.2,0.8-0.6,1-1c0.3-0.4,0.5-0.9,0.6-1.4
			c0.1-0.5,0.2-1.1,0.2-1.6C537.3,298.5,537.3,298,537.1,297.5z"/>
	</g>
	<g class="st2">
		<path class="st3" d="M78.4,326.4v-2.3h1.9v2.3H78.4z M80.2,328.4v11.4h-1.9v-11.4H80.2z"/>
		<path class="st3" d="M84.6,337.3c0.2,0.3,0.4,0.5,0.7,0.7c0.3,0.2,0.6,0.3,1,0.4s0.7,0.1,1.1,0.1c0.3,0,0.6,0,0.9-0.1
			c0.3,0,0.6-0.1,0.9-0.2c0.3-0.1,0.5-0.3,0.7-0.5c0.2-0.2,0.3-0.5,0.3-0.9c0-0.5-0.2-0.9-0.5-1.1c-0.4-0.2-0.8-0.5-1.4-0.6
			c-0.6-0.2-1.1-0.3-1.8-0.4c-0.6-0.1-1.2-0.3-1.8-0.5c-0.6-0.2-1-0.5-1.4-1c-0.4-0.4-0.6-1-0.6-1.7c0-0.6,0.1-1.1,0.4-1.5
			c0.3-0.4,0.6-0.7,1-1s0.9-0.4,1.4-0.6c0.5-0.1,1-0.2,1.5-0.2c0.6,0,1.2,0.1,1.8,0.2c0.5,0.1,1,0.3,1.4,0.6c0.4,0.3,0.8,0.6,1,1.1
			c0.2,0.5,0.4,1,0.4,1.7h-1.9c0-0.4-0.1-0.7-0.3-0.9c-0.2-0.2-0.4-0.4-0.6-0.6c-0.2-0.1-0.5-0.3-0.8-0.3c-0.3-0.1-0.6-0.1-0.9-0.1
			c-0.3,0-0.6,0-0.8,0.1s-0.5,0.1-0.8,0.2c-0.2,0.1-0.4,0.3-0.6,0.4c-0.1,0.2-0.2,0.4-0.2,0.7c0,0.3,0.1,0.6,0.3,0.8
			c0.2,0.2,0.5,0.4,0.9,0.5c0.4,0.1,0.7,0.3,1.2,0.4c0.4,0.1,0.9,0.2,1.3,0.3c0.5,0.1,0.9,0.2,1.4,0.4c0.4,0.1,0.8,0.3,1.2,0.6
			c0.3,0.2,0.6,0.5,0.8,0.9c0.2,0.4,0.3,0.8,0.3,1.4c0,0.7-0.1,1.3-0.4,1.7c-0.3,0.5-0.7,0.8-1.1,1.1s-1,0.5-1.6,0.6
			c-0.6,0.1-1.2,0.2-1.7,0.2c-0.6,0-1.2-0.1-1.8-0.2c-0.6-0.1-1.1-0.3-1.5-0.6c-0.4-0.3-0.8-0.7-1.1-1.2s-0.4-1.1-0.4-1.8h1.9
			C84.3,336.6,84.4,337,84.6,337.3z"/>
		<path class="st3" d="M100.9,330.4c-0.5-0.4-1.1-0.6-1.9-0.6c-0.7,0-1.2,0.1-1.7,0.4c-0.5,0.2-0.8,0.6-1.1,1
			c-0.3,0.4-0.5,0.9-0.6,1.4c-0.1,0.5-0.2,1.1-0.2,1.7c0,0.5,0.1,1,0.2,1.5c0.1,0.5,0.3,0.9,0.6,1.3s0.6,0.7,1,0.9
			c0.4,0.2,0.9,0.4,1.5,0.4c0.9,0,1.6-0.2,2.2-0.7c0.5-0.5,0.8-1.2,1-2h1.9c-0.2,1.4-0.7,2.5-1.6,3.3c-0.8,0.8-2,1.1-3.4,1.1
			c-0.9,0-1.6-0.1-2.3-0.4s-1.2-0.7-1.7-1.2c-0.4-0.5-0.8-1.1-1-1.8c-0.2-0.7-0.3-1.5-0.3-2.3s0.1-1.6,0.3-2.4
			c0.2-0.7,0.6-1.4,1-1.9c0.4-0.5,1-1,1.7-1.3c0.7-0.3,1.5-0.5,2.4-0.5c0.6,0,1.2,0.1,1.8,0.2c0.6,0.2,1.1,0.4,1.5,0.7
			c0.4,0.3,0.8,0.7,1.1,1.2c0.3,0.5,0.5,1.1,0.5,1.7h-1.9C101.7,331.4,101.4,330.8,100.9,330.4z"/>
		<path class="st3" d="M106.1,326.4v-2.3h1.9v2.3H106.1z M107.9,328.4v11.4h-1.9v-11.4H107.9z"/>
		<path class="st3" d="M112.6,328.4v1.8h0c0.8-1.4,2-2.1,3.7-2.1c0.7,0,1.4,0.1,1.9,0.3c0.5,0.2,0.9,0.5,1.2,0.9
			c0.3,0.4,0.5,0.8,0.6,1.3c0.1,0.5,0.2,1.1,0.2,1.7v7.5h-1.9v-7.7c0-0.7-0.2-1.3-0.6-1.7c-0.4-0.4-1-0.6-1.7-0.6
			c-0.6,0-1.1,0.1-1.5,0.3c-0.4,0.2-0.8,0.4-1,0.7c-0.3,0.3-0.5,0.7-0.6,1.1s-0.2,0.9-0.2,1.4v6.4h-1.9v-11.4H112.6z"/>
		<path class="st3" d="M131.6,343c-0.9,0.9-2.2,1.4-4,1.4c-0.5,0-1.1-0.1-1.6-0.2c-0.6-0.1-1-0.3-1.5-0.6c-0.4-0.3-0.8-0.6-1.1-1
			c-0.3-0.4-0.5-0.9-0.5-1.6h1.9c0,0.3,0.1,0.6,0.3,0.9c0.2,0.2,0.4,0.4,0.7,0.6s0.6,0.3,0.9,0.3s0.7,0.1,1,0.1
			c0.6,0,1.1-0.1,1.6-0.3c0.4-0.2,0.8-0.5,1.1-0.9c0.3-0.4,0.5-0.8,0.6-1.4c0.1-0.5,0.2-1.1,0.2-1.7v-0.7h0
			c-0.3,0.7-0.8,1.2-1.5,1.6c-0.7,0.3-1.3,0.5-2.1,0.5c-0.9,0-1.6-0.2-2.2-0.5c-0.6-0.3-1.2-0.7-1.6-1.2s-0.7-1.1-1-1.8
			s-0.3-1.4-0.3-2.2c0-0.7,0.1-1.4,0.3-2.1c0.2-0.7,0.5-1.4,0.9-1.9c0.4-0.6,1-1.1,1.6-1.4c0.7-0.4,1.5-0.6,2.5-0.6
			c0.7,0,1.4,0.2,2,0.5s1.1,0.8,1.4,1.4h0v-1.6h1.8v10.4C132.9,340.7,132.5,342.1,131.6,343z M129.2,337.9c0.4-0.3,0.8-0.6,1-1
			s0.5-0.9,0.6-1.4c0.1-0.5,0.2-1.1,0.2-1.6c0-0.5-0.1-1-0.2-1.5c-0.1-0.5-0.3-0.9-0.6-1.3c-0.3-0.4-0.6-0.7-1-0.9s-0.9-0.4-1.5-0.4
			c-0.6,0-1.1,0.1-1.5,0.3c-0.4,0.2-0.8,0.5-1,0.9c-0.3,0.4-0.5,0.8-0.6,1.3c-0.1,0.5-0.2,1-0.2,1.6c0,0.5,0.1,1,0.2,1.5
			c0.1,0.5,0.3,1,0.5,1.4c0.2,0.4,0.6,0.8,1,1c0.4,0.3,0.9,0.4,1.5,0.4C128.3,338.3,128.8,338.2,129.2,337.9z"/>
		<path class="st3" d="M149.9,339.1c-0.9,0.6-1.9,1-3.2,1c-0.9,0-1.7-0.1-2.4-0.4c-0.7-0.3-1.2-0.7-1.7-1.2c-0.5-0.5-0.8-1.2-1-1.9
			s-0.4-1.5-0.4-2.4c0-0.9,0.1-1.7,0.4-2.4s0.6-1.3,1.1-1.9c0.5-0.5,1-0.9,1.7-1.2c0.7-0.3,1.4-0.4,2.1-0.4c1,0,1.9,0.2,2.5,0.6
			c0.7,0.4,1.2,0.9,1.6,1.6c0.4,0.6,0.7,1.3,0.8,2.1c0.2,0.8,0.2,1.5,0.2,2.2h-8.5c0,0.5,0,1,0.2,1.4c0.1,0.4,0.3,0.8,0.6,1.2
			s0.7,0.6,1.1,0.8c0.5,0.2,1,0.3,1.6,0.3c0.8,0,1.4-0.2,1.9-0.5c0.5-0.4,0.8-0.9,1-1.7h1.8C151.3,337.5,150.7,338.4,149.9,339.1z
			 M149.4,331.8c-0.2-0.4-0.4-0.7-0.7-1c-0.3-0.3-0.6-0.5-1-0.7c-0.4-0.2-0.8-0.3-1.3-0.3c-0.5,0-0.9,0.1-1.3,0.3
			c-0.4,0.2-0.7,0.4-1,0.7c-0.3,0.3-0.5,0.6-0.7,1c-0.2,0.4-0.3,0.8-0.3,1.2h6.5C149.7,332.6,149.6,332.2,149.4,331.8z"/>
		<path class="st3" d="M155.6,324.1v15.7h-1.9v-15.7H155.6z"/>
		<path class="st3" d="M158.6,326.4v-2.3h1.9v2.3H158.6z M160.5,328.4v11.4h-1.9v-11.4H160.5z"/>
		<path class="st3" d="M168.3,328.4v1.7H166v7.1c0,0.2,0,0.4,0.1,0.5c0,0.1,0.1,0.2,0.2,0.3c0.1,0.1,0.2,0.1,0.4,0.1
			c0.2,0,0.4,0,0.7,0h0.9v1.7h-1.4c-0.5,0-0.9,0-1.2-0.1c-0.3-0.1-0.6-0.2-0.8-0.4c-0.2-0.2-0.4-0.4-0.5-0.7
			c-0.1-0.3-0.2-0.7-0.2-1.3v-7.2h-1.9v-1.7h1.9V325h1.9v3.4H168.3z"/>
		<path class="st3" d="M173.2,337.4v2.2c0,0.8-0.2,1.6-0.6,2.2s-1,1-1.8,1.3v-1.1c0.2-0.1,0.5-0.2,0.6-0.4c0.2-0.2,0.3-0.4,0.4-0.5
			s0.2-0.4,0.2-0.6c0-0.2,0-0.4,0-0.6h-1.3v-2.4H173.2z"/>
		<path class="st3" d="M184,337.3c0.2,0.3,0.4,0.5,0.7,0.7c0.3,0.2,0.6,0.3,1,0.4s0.7,0.1,1.1,0.1c0.3,0,0.6,0,0.9-0.1
			c0.3,0,0.6-0.1,0.9-0.2c0.3-0.1,0.5-0.3,0.7-0.5c0.2-0.2,0.3-0.5,0.3-0.9c0-0.5-0.2-0.9-0.5-1.1c-0.4-0.2-0.8-0.5-1.4-0.6
			c-0.6-0.2-1.1-0.3-1.8-0.4c-0.6-0.1-1.2-0.3-1.8-0.5c-0.6-0.2-1-0.5-1.4-1c-0.4-0.4-0.6-1-0.6-1.7c0-0.6,0.1-1.1,0.4-1.5
			c0.3-0.4,0.6-0.7,1-1s0.9-0.4,1.4-0.6c0.5-0.1,1-0.2,1.5-0.2c0.6,0,1.2,0.1,1.8,0.2c0.5,0.1,1,0.3,1.4,0.6c0.4,0.3,0.8,0.6,1,1.1
			c0.2,0.5,0.4,1,0.4,1.7h-1.9c0-0.4-0.1-0.7-0.3-0.9c-0.2-0.2-0.4-0.4-0.6-0.6c-0.2-0.1-0.5-0.3-0.8-0.3c-0.3-0.1-0.6-0.1-0.9-0.1
			c-0.3,0-0.6,0-0.8,0.1s-0.5,0.1-0.8,0.2c-0.2,0.1-0.4,0.3-0.6,0.4c-0.1,0.2-0.2,0.4-0.2,0.7c0,0.3,0.1,0.6,0.3,0.8
			c0.2,0.2,0.5,0.4,0.9,0.5c0.4,0.1,0.7,0.3,1.2,0.4c0.4,0.1,0.9,0.2,1.3,0.3c0.5,0.1,0.9,0.2,1.4,0.4c0.4,0.1,0.8,0.3,1.2,0.6
			c0.3,0.2,0.6,0.5,0.8,0.9c0.2,0.4,0.3,0.8,0.3,1.4c0,0.7-0.1,1.3-0.4,1.7c-0.3,0.5-0.7,0.8-1.1,1.1s-1,0.5-1.6,0.6
			c-0.6,0.1-1.2,0.2-1.7,0.2c-0.6,0-1.2-0.1-1.8-0.2c-0.6-0.1-1.1-0.3-1.5-0.6c-0.4-0.3-0.8-0.7-1.1-1.2s-0.4-1.1-0.4-1.8h1.9
			C183.7,336.6,183.8,337,184,337.3z"/>
		<path class="st3" d="M201.6,339.1c-0.9,0.6-1.9,1-3.2,1c-0.9,0-1.7-0.1-2.4-0.4c-0.7-0.3-1.2-0.7-1.7-1.2c-0.5-0.5-0.8-1.2-1-1.9
			s-0.4-1.5-0.4-2.4c0-0.9,0.1-1.7,0.4-2.4s0.6-1.3,1.1-1.9c0.5-0.5,1-0.9,1.7-1.2c0.7-0.3,1.4-0.4,2.1-0.4c1,0,1.9,0.2,2.5,0.6
			c0.7,0.4,1.2,0.9,1.6,1.6c0.4,0.6,0.7,1.3,0.8,2.1c0.2,0.8,0.2,1.5,0.2,2.2h-8.5c0,0.5,0,1,0.2,1.4c0.1,0.4,0.3,0.8,0.6,1.2
			s0.7,0.6,1.1,0.8c0.5,0.2,1,0.3,1.6,0.3c0.8,0,1.4-0.2,1.9-0.5c0.5-0.4,0.8-0.9,1-1.7h1.8C203,337.5,202.5,338.4,201.6,339.1z
			 M201.2,331.8c-0.2-0.4-0.4-0.7-0.7-1c-0.3-0.3-0.6-0.5-1-0.7c-0.4-0.2-0.8-0.3-1.3-0.3c-0.5,0-0.9,0.1-1.3,0.3
			c-0.4,0.2-0.7,0.4-1,0.7c-0.3,0.3-0.5,0.6-0.7,1c-0.2,0.4-0.3,0.8-0.3,1.2h6.5C201.4,332.6,201.3,332.2,201.2,331.8z"/>
		<path class="st3" d="M213.7,339.8v-1.5h0c-0.3,0.6-0.8,1.1-1.5,1.4s-1.4,0.4-2.2,0.4c-0.9,0-1.6-0.2-2.3-0.5
			c-0.7-0.3-1.2-0.8-1.6-1.3c-0.4-0.5-0.8-1.2-1-1.9c-0.2-0.7-0.3-1.5-0.3-2.3s0.1-1.6,0.3-2.3s0.5-1.3,1-1.9c0.4-0.5,1-1,1.6-1.3
			c0.7-0.3,1.4-0.5,2.3-0.5c0.3,0,0.6,0,0.9,0.1c0.3,0.1,0.7,0.2,1,0.3s0.7,0.3,1,0.5c0.3,0.2,0.6,0.5,0.8,0.8h0v-5.9h1.9v15.7
			H213.7z M206.9,335.8c0.1,0.5,0.4,1,0.6,1.4c0.3,0.4,0.7,0.7,1.1,0.9c0.4,0.2,1,0.4,1.6,0.4c0.6,0,1.2-0.1,1.6-0.4s0.8-0.6,1.1-1
			c0.3-0.4,0.5-0.9,0.6-1.4c0.1-0.5,0.2-1,0.2-1.6c0-0.6-0.1-1.1-0.2-1.6c-0.1-0.5-0.3-1-0.6-1.4c-0.3-0.4-0.7-0.7-1.1-1
			s-1-0.4-1.6-0.4c-0.6,0-1.2,0.1-1.6,0.4c-0.4,0.2-0.8,0.6-1.1,1c-0.3,0.4-0.5,0.9-0.6,1.4c-0.1,0.5-0.2,1.1-0.2,1.6
			C206.7,334.8,206.8,335.3,206.9,335.8z"/>
		<path class="st3" d="M232.8,339.8v-1.5h0c-0.3,0.6-0.8,1.1-1.5,1.4s-1.4,0.4-2.2,0.4c-0.9,0-1.6-0.2-2.3-0.5
			c-0.7-0.3-1.2-0.8-1.6-1.3c-0.4-0.5-0.8-1.2-1-1.9c-0.2-0.7-0.3-1.5-0.3-2.3s0.1-1.6,0.3-2.3s0.5-1.3,1-1.9c0.4-0.5,1-1,1.6-1.3
			c0.7-0.3,1.4-0.5,2.3-0.5c0.3,0,0.6,0,0.9,0.1c0.3,0.1,0.7,0.2,1,0.3c0.3,0.1,0.7,0.3,1,0.5c0.3,0.2,0.6,0.5,0.8,0.8h0v-5.9h1.9
			v15.7H232.8z M226.1,335.8c0.1,0.5,0.4,1,0.6,1.4c0.3,0.4,0.7,0.7,1.1,0.9c0.4,0.2,1,0.4,1.6,0.4c0.6,0,1.2-0.1,1.6-0.4
			c0.4-0.2,0.8-0.6,1.1-1c0.3-0.4,0.5-0.9,0.6-1.4c0.1-0.5,0.2-1,0.2-1.6c0-0.6-0.1-1.1-0.2-1.6s-0.3-1-0.6-1.4
			c-0.3-0.4-0.7-0.7-1.1-1c-0.5-0.2-1-0.4-1.7-0.4c-0.6,0-1.2,0.1-1.6,0.4c-0.4,0.2-0.8,0.6-1.1,1c-0.3,0.4-0.5,0.9-0.6,1.4
			c-0.1,0.5-0.2,1.1-0.2,1.6C225.9,334.8,226,335.3,226.1,335.8z"/>
		<path class="st3" d="M237.7,326.4v-2.3h1.9v2.3H237.7z M239.6,328.4v11.4h-1.9v-11.4H239.6z"/>
		<path class="st3" d="M252.5,339.8c-0.3,0.2-0.8,0.3-1.3,0.3c-0.5,0-0.9-0.1-1.2-0.4s-0.4-0.7-0.4-1.3c-0.5,0.6-1.1,1.1-1.8,1.3
			c-0.7,0.3-1.4,0.4-2.2,0.4c-0.5,0-1-0.1-1.5-0.2s-0.9-0.3-1.2-0.6c-0.3-0.2-0.6-0.6-0.8-1s-0.3-0.9-0.3-1.5c0-0.6,0.1-1.2,0.3-1.6
			c0.2-0.4,0.5-0.7,0.9-1s0.8-0.5,1.2-0.6s0.9-0.2,1.4-0.3c0.5-0.1,1-0.2,1.5-0.2c0.5-0.1,0.9-0.1,1.2-0.2c0.4-0.1,0.6-0.2,0.8-0.4
			c0.2-0.2,0.3-0.5,0.3-0.8c0-0.4-0.1-0.7-0.2-1c-0.2-0.2-0.4-0.4-0.6-0.6c-0.2-0.1-0.5-0.2-0.8-0.3s-0.6-0.1-0.9-0.1
			c-0.8,0-1.5,0.2-2,0.5s-0.8,0.9-0.9,1.7h-1.9c0-0.7,0.2-1.3,0.4-1.8c0.3-0.5,0.6-0.9,1.1-1.2c0.4-0.3,0.9-0.5,1.5-0.6
			c0.6-0.1,1.2-0.2,1.8-0.2c0.5,0,1,0,1.5,0.1s1,0.2,1.4,0.5c0.4,0.2,0.7,0.5,1,1c0.2,0.4,0.4,0.9,0.4,1.6v5.8c0,0.4,0,0.8,0.1,1
			c0.1,0.2,0.2,0.3,0.5,0.3c0.2,0,0.4,0,0.6-0.1V339.8z M249.5,333.9c-0.2,0.2-0.5,0.3-0.9,0.4c-0.4,0.1-0.8,0.1-1.2,0.2
			c-0.4,0.1-0.8,0.1-1.3,0.2c-0.4,0.1-0.8,0.2-1.1,0.3c-0.3,0.1-0.6,0.4-0.8,0.6c-0.2,0.3-0.3,0.6-0.3,1.1c0,0.3,0.1,0.6,0.2,0.8
			c0.1,0.2,0.3,0.4,0.5,0.5c0.2,0.1,0.4,0.2,0.7,0.3c0.3,0.1,0.5,0.1,0.8,0.1c0.6,0,1.1-0.1,1.6-0.3c0.4-0.2,0.8-0.4,1.1-0.6
			c0.3-0.3,0.5-0.5,0.6-0.8c0.1-0.3,0.2-0.6,0.2-0.8V333.9z"/>
		<path class="st3" d="M256,328.4v1.7h0c0.9-1.3,2.1-1.9,3.7-1.9c0.7,0,1.3,0.1,1.9,0.4c0.6,0.3,1,0.8,1.2,1.5
			c0.4-0.6,0.9-1.1,1.5-1.4c0.6-0.3,1.3-0.5,2.1-0.5c0.6,0,1.1,0.1,1.6,0.2c0.5,0.1,0.9,0.3,1.2,0.6c0.3,0.3,0.6,0.6,0.8,1
			s0.3,0.9,0.3,1.5v8.3h-1.9v-7.5c0-0.4,0-0.7-0.1-1c-0.1-0.3-0.2-0.6-0.3-0.8c-0.2-0.2-0.4-0.4-0.7-0.5c-0.3-0.1-0.7-0.2-1.1-0.2
			c-0.9,0-1.7,0.3-2.2,0.8c-0.5,0.5-0.8,1.2-0.8,2.1v7.1h-1.9v-7.5c0-0.4,0-0.7-0.1-1c-0.1-0.3-0.2-0.6-0.3-0.8
			c-0.2-0.2-0.4-0.4-0.6-0.5c-0.3-0.1-0.6-0.2-1-0.2c-0.5,0-1,0.1-1.4,0.3s-0.7,0.5-0.9,0.8c-0.2,0.3-0.4,0.6-0.5,1
			c-0.1,0.3-0.2,0.6-0.2,0.8v7.1h-1.9v-11.4H256z"/>
		<path class="st3" d="M280.9,328.4v1.8h0c0.8-1.4,2-2.1,3.7-2.1c0.7,0,1.4,0.1,1.9,0.3c0.5,0.2,0.9,0.5,1.2,0.9
			c0.3,0.4,0.5,0.8,0.6,1.3c0.1,0.5,0.2,1.1,0.2,1.7v7.5h-1.9v-7.7c0-0.7-0.2-1.3-0.6-1.7c-0.4-0.4-1-0.6-1.7-0.6
			c-0.6,0-1.1,0.1-1.5,0.3c-0.4,0.2-0.8,0.4-1,0.7c-0.3,0.3-0.5,0.7-0.6,1.1c-0.1,0.4-0.2,0.9-0.2,1.4v6.4h-1.9v-11.4H280.9z"/>
		<path class="st3" d="M291.5,326.4v-2.3h1.9v2.3H291.5z M293.4,328.4v11.4h-1.9v-11.4H293.4z"/>
		<path class="st3" d="M298.2,324.1v5.9h0c0.3-0.6,0.8-1.1,1.5-1.4s1.4-0.4,2.2-0.4c0.9,0,1.6,0.2,2.3,0.5c0.7,0.3,1.2,0.8,1.6,1.3
			c0.4,0.5,0.8,1.2,1,1.9c0.2,0.7,0.3,1.5,0.3,2.3c0,0.8-0.1,1.6-0.3,2.3c-0.2,0.7-0.5,1.3-1,1.9c-0.4,0.5-1,1-1.6,1.3
			c-0.7,0.3-1.4,0.5-2.3,0.5c-0.3,0-0.6,0-0.9-0.1s-0.7-0.2-1-0.3c-0.3-0.1-0.7-0.3-1-0.5c-0.3-0.2-0.6-0.5-0.8-0.8h0v1.5h-1.9
			v-15.7H298.2z M304.9,332.5c-0.1-0.5-0.4-1-0.6-1.4c-0.3-0.4-0.7-0.7-1.1-0.9s-1-0.4-1.6-0.4c-0.6,0-1.2,0.1-1.6,0.4
			c-0.4,0.2-0.8,0.6-1.1,1c-0.3,0.4-0.5,0.9-0.6,1.4s-0.2,1-0.2,1.6c0,0.6,0.1,1.1,0.2,1.6c0.1,0.5,0.3,1,0.6,1.4
			c0.3,0.4,0.7,0.7,1.1,1c0.5,0.2,1,0.4,1.7,0.4c0.6,0,1.2-0.1,1.6-0.4c0.4-0.2,0.8-0.6,1-1c0.3-0.4,0.5-0.9,0.6-1.4
			c0.1-0.5,0.2-1.1,0.2-1.6C305.1,333.5,305.1,333,304.9,332.5z"/>
		<path class="st3" d="M311.2,324.1v6h0c0.1-0.4,0.4-0.6,0.6-0.9c0.3-0.2,0.6-0.4,0.9-0.6c0.3-0.2,0.7-0.3,1-0.3
			c0.4-0.1,0.7-0.1,1-0.1c0.7,0,1.4,0.1,1.9,0.3c0.5,0.2,0.9,0.5,1.2,0.9c0.3,0.4,0.5,0.8,0.6,1.3c0.1,0.5,0.2,1.1,0.2,1.7v7.5h-1.9
			v-7.7c0-0.7-0.2-1.3-0.6-1.7c-0.4-0.4-1-0.6-1.7-0.6c-0.6,0-1.1,0.1-1.5,0.3c-0.4,0.2-0.8,0.4-1,0.7c-0.3,0.3-0.5,0.7-0.6,1.1
			c-0.1,0.4-0.2,0.9-0.2,1.4v6.4h-1.9v-15.7H311.2z"/>
		<path class="st3" d="M335.7,339.1c-0.9,0.6-1.9,1-3.2,1c-0.9,0-1.7-0.1-2.4-0.4c-0.7-0.3-1.2-0.7-1.7-1.2c-0.5-0.5-0.8-1.2-1-1.9
			s-0.4-1.5-0.4-2.4c0-0.9,0.1-1.7,0.4-2.4c0.3-0.7,0.6-1.3,1.1-1.9c0.5-0.5,1-0.9,1.7-1.2c0.7-0.3,1.4-0.4,2.1-0.4
			c1,0,1.9,0.2,2.5,0.6c0.7,0.4,1.2,0.9,1.6,1.6s0.7,1.3,0.8,2.1c0.2,0.8,0.2,1.5,0.2,2.2H329c0,0.5,0,1,0.2,1.4s0.3,0.8,0.6,1.2
			c0.3,0.3,0.7,0.6,1.1,0.8c0.5,0.2,1,0.3,1.6,0.3c0.8,0,1.4-0.2,1.9-0.5c0.5-0.4,0.8-0.9,1-1.7h1.8
			C337.1,337.5,336.6,338.4,335.7,339.1z M335.3,331.8c-0.2-0.4-0.4-0.7-0.7-1s-0.6-0.5-1-0.7c-0.4-0.2-0.8-0.3-1.3-0.3
			c-0.5,0-0.9,0.1-1.3,0.3c-0.4,0.2-0.7,0.4-1,0.7c-0.3,0.3-0.5,0.6-0.7,1s-0.3,0.8-0.3,1.2h6.5
			C335.5,332.6,335.4,332.2,335.3,331.8z"/>
		<path class="st3" d="M347.1,339.8V338h0c-0.4,0.7-0.9,1.2-1.5,1.6s-1.3,0.5-2.2,0.5c-0.7,0-1.4-0.1-1.9-0.3
			c-0.5-0.2-0.9-0.5-1.2-0.8c-0.3-0.4-0.5-0.8-0.6-1.3c-0.1-0.5-0.2-1.1-0.2-1.7v-7.5h1.9v7.7c0,0.7,0.2,1.3,0.6,1.7
			c0.4,0.4,1,0.6,1.7,0.6c0.6,0,1.1-0.1,1.5-0.3c0.4-0.2,0.8-0.4,1-0.7c0.3-0.3,0.5-0.7,0.6-1.1c0.1-0.4,0.2-0.9,0.2-1.4v-6.4h1.9
			v11.4H347.1z"/>
		<path class="st3" d="M351.8,326.4v-2.3h1.9v2.3H351.8z M353.7,328.4v11.4h-1.9v-11.4H353.7z"/>
		<path class="st3" d="M358,337.3c0.2,0.3,0.4,0.5,0.7,0.7c0.3,0.2,0.6,0.3,1,0.4s0.7,0.1,1.1,0.1c0.3,0,0.6,0,0.9-0.1
			c0.3,0,0.6-0.1,0.9-0.2c0.3-0.1,0.5-0.3,0.7-0.5c0.2-0.2,0.3-0.5,0.3-0.9c0-0.5-0.2-0.9-0.6-1.1c-0.4-0.2-0.8-0.5-1.4-0.6
			c-0.5-0.2-1.1-0.3-1.8-0.4c-0.6-0.1-1.2-0.3-1.8-0.5c-0.5-0.2-1-0.5-1.4-1c-0.4-0.4-0.5-1-0.5-1.7c0-0.6,0.1-1.1,0.4-1.5
			c0.3-0.4,0.6-0.7,1-1s0.9-0.4,1.4-0.6c0.5-0.1,1-0.2,1.5-0.2c0.6,0,1.2,0.1,1.8,0.2c0.5,0.1,1,0.3,1.4,0.6c0.4,0.3,0.8,0.6,1,1.1
			c0.2,0.5,0.4,1,0.4,1.7h-1.9c0-0.4-0.1-0.7-0.3-0.9c-0.2-0.2-0.4-0.4-0.6-0.6c-0.2-0.1-0.5-0.3-0.8-0.3c-0.3-0.1-0.6-0.1-0.9-0.1
			c-0.3,0-0.6,0-0.8,0.1c-0.3,0-0.5,0.1-0.8,0.2c-0.2,0.1-0.4,0.3-0.6,0.4s-0.2,0.4-0.2,0.7c0,0.3,0.1,0.6,0.3,0.8
			c0.2,0.2,0.5,0.4,0.9,0.5c0.4,0.1,0.7,0.3,1.2,0.4c0.4,0.1,0.9,0.2,1.3,0.3c0.5,0.1,0.9,0.2,1.4,0.4s0.8,0.3,1.2,0.6
			c0.3,0.2,0.6,0.5,0.8,0.9c0.2,0.4,0.3,0.8,0.3,1.4c0,0.7-0.1,1.3-0.4,1.7c-0.3,0.5-0.7,0.8-1.1,1.1s-1,0.5-1.6,0.6
			c-0.6,0.1-1.2,0.2-1.7,0.2c-0.6,0-1.2-0.1-1.8-0.2c-0.6-0.1-1.1-0.3-1.5-0.6c-0.4-0.3-0.8-0.7-1.1-1.2s-0.4-1.1-0.4-1.8h1.9
			C357.8,336.6,357.9,337,358,337.3z"/>
		<path class="st3" d="M369.4,328.4v1.7h0c0.9-1.3,2.1-1.9,3.7-1.9c0.7,0,1.3,0.1,1.9,0.4c0.6,0.3,1,0.8,1.2,1.5
			c0.4-0.6,0.9-1.1,1.5-1.4c0.6-0.3,1.3-0.5,2.1-0.5c0.6,0,1.1,0.1,1.6,0.2c0.5,0.1,0.9,0.3,1.2,0.6c0.3,0.3,0.6,0.6,0.8,1
			s0.3,0.9,0.3,1.5v8.3h-1.9v-7.5c0-0.4,0-0.7-0.1-1c-0.1-0.3-0.2-0.6-0.3-0.8c-0.2-0.2-0.4-0.4-0.7-0.5c-0.3-0.1-0.7-0.2-1.1-0.2
			c-0.9,0-1.7,0.3-2.2,0.8c-0.5,0.5-0.8,1.2-0.8,2.1v7.1h-1.9v-7.5c0-0.4,0-0.7-0.1-1c-0.1-0.3-0.2-0.6-0.3-0.8
			c-0.2-0.2-0.4-0.4-0.6-0.5c-0.3-0.1-0.6-0.2-1-0.2c-0.5,0-1,0.1-1.4,0.3s-0.7,0.5-0.9,0.8c-0.2,0.3-0.4,0.6-0.5,1
			c-0.1,0.3-0.2,0.6-0.2,0.8v7.1h-1.9v-11.4H369.4z"/>
		<path class="st3" d="M386.1,331.8c0.2-0.7,0.6-1.4,1.1-1.9c0.5-0.5,1-1,1.7-1.3c0.7-0.3,1.5-0.5,2.4-0.5c0.9,0,1.7,0.2,2.4,0.5
			c0.7,0.3,1.3,0.7,1.7,1.3c0.5,0.5,0.8,1.2,1.1,1.9c0.2,0.7,0.4,1.5,0.4,2.3s-0.1,1.6-0.4,2.3c-0.2,0.7-0.6,1.3-1.1,1.9
			s-1,1-1.7,1.3c-0.7,0.3-1.5,0.5-2.4,0.5c-0.9,0-1.7-0.2-2.4-0.5c-0.7-0.3-1.3-0.7-1.7-1.3c-0.5-0.5-0.8-1.2-1.1-1.9
			c-0.2-0.7-0.4-1.5-0.4-2.3S385.9,332.5,386.1,331.8z M388,336c0.2,0.5,0.4,1,0.8,1.3c0.3,0.4,0.7,0.6,1.1,0.8
			c0.4,0.2,0.9,0.3,1.4,0.3c0.5,0,0.9-0.1,1.4-0.3c0.4-0.2,0.8-0.5,1.1-0.8c0.3-0.4,0.6-0.8,0.8-1.3s0.3-1.1,0.3-1.8
			s-0.1-1.3-0.3-1.8s-0.4-1-0.8-1.4c-0.3-0.4-0.7-0.6-1.1-0.8c-0.4-0.2-0.9-0.3-1.4-0.3c-0.5,0-0.9,0.1-1.4,0.3
			c-0.4,0.2-0.8,0.5-1.1,0.8c-0.3,0.4-0.6,0.8-0.8,1.4s-0.3,1.1-0.3,1.8S387.8,335.4,388,336z"/>
		<path class="st3" d="M407.3,339.8v-1.5h0c-0.3,0.6-0.8,1.1-1.5,1.4s-1.4,0.4-2.2,0.4c-0.9,0-1.6-0.2-2.3-0.5
			c-0.7-0.3-1.2-0.8-1.6-1.3c-0.4-0.5-0.8-1.2-1-1.9s-0.3-1.5-0.3-2.3s0.1-1.6,0.3-2.3c0.2-0.7,0.5-1.3,1-1.9s1-1,1.6-1.3
			s1.4-0.5,2.3-0.5c0.3,0,0.6,0,0.9,0.1c0.3,0.1,0.7,0.2,1,0.3c0.3,0.1,0.7,0.3,1,0.5c0.3,0.2,0.6,0.5,0.8,0.8h0v-5.9h1.9v15.7
			H407.3z M400.6,335.8c0.1,0.5,0.4,1,0.6,1.4c0.3,0.4,0.7,0.7,1.1,0.9c0.4,0.2,1,0.4,1.6,0.4c0.6,0,1.2-0.1,1.6-0.4
			c0.4-0.2,0.8-0.6,1.1-1c0.3-0.4,0.5-0.9,0.6-1.4c0.1-0.5,0.2-1,0.2-1.6c0-0.6-0.1-1.1-0.2-1.6s-0.3-1-0.6-1.4
			c-0.3-0.4-0.7-0.7-1.1-1c-0.5-0.2-1-0.4-1.7-0.4c-0.6,0-1.2,0.1-1.6,0.4c-0.4,0.2-0.8,0.6-1.1,1c-0.3,0.4-0.5,0.9-0.6,1.4
			c-0.1,0.5-0.2,1.1-0.2,1.6C400.4,334.8,400.4,335.3,400.6,335.8z"/>
		<path class="st3" d="M414.9,337.4v2.4h-2.4v-2.4H414.9z"/>
	</g>
	<g>
		<path class="st3" d="M565.9,282v32.2H71.7V282L565.9,282 M568.8,279.1h-500v38h500V279.1L568.8,279.1z"/>
	</g>
	<g>
		<path class="st3" d="M565.9,317v32.2H71.7V317H565.9 M568.8,314.1h-500v38h500V314.1L568.8,314.1z"/>
	</g>
</g>
<g>
	<g>
		<path class="st4" d="M604,8.8c1.1,0,2,0.9,2,2v320c0,1.1-0.9,2-2,2H34c-1.1,0-2-0.9-2-2v-320c0-1.1,0.9-2,2-2H604 M604,5.8H34
			c-2.8,0-5,2.2-5,5v320c0,2.8,2.2,5,5,5h570c2.8,0,5-2.2,5-5v-320C609,8.1,606.8,5.8,604,5.8L604,5.8z"/>
	</g>
	<g>
		<path class="st4" d="M30,58.8v-51c0-2.8,2.2-5,5-5h570c2.8,0,5,2.2,5,5v51H30z"/>
		<circle class="st5" cx="45.3" cy="16.8" r="6"/>
		<circle class="st5" cx="60.7" cy="16.8" r="6"/>
		<circle class="st5" cx="76" cy="16.8" r="6"/>
		<polygon class="st5" points="57.2,41.9 44.8,41.9 49.9,36.9 48.6,35.6 42.3,41.9 42.2,41.9 42.2,43.7 42.7,43.7 42.2,44.2 
			48.6,50.6 49.9,49.3 44.3,43.7 57.2,43.7 		"/>
		<polygon class="st5" points="66.7,41.9 79.1,41.9 74.1,36.9 75.4,35.6 81.7,41.9 81.7,41.9 81.7,43.7 81.3,43.7 81.7,44.2 
			75.4,50.6 74.1,49.3 79.6,43.7 66.7,43.7 		"/>
		<path class="st5" d="M431.2,51.3H105.7c-2.8,0-5-2.2-5-5v-10c0-2.8,2.2-5,5-5h325.5c2.8,0,5,2.2,5,5v10
			C436.2,49.1,434,51.3,431.2,51.3z"/>
		<path class="st5" d="M584.2,51.3h-130c-5.5,0-10-4.5-10-10v0c0-5.5,4.5-10,10-10h130c5.5,0,10,4.5,10,10v0
			C594.2,46.8,589.7,51.3,584.2,51.3z"/>
	</g>
</g>
<g>
	<g>
		<line class="st6" x1="38.9" y1="214.6" x2="595.7" y2="214.6"/>
		<g>
			<polygon class="st7" points="40.9,221.4 29.1,214.6 40.9,207.8 			"/>
		</g>
		<g>
			<polygon class="st7" points="593.7,221.4 605.6,214.6 593.7,207.8 			"/>
		</g>
	</g>
</g>
<g>
	<g>
		<line class="st6" x1="317.3" y1="380.8" x2="317.3" y2="69.8"/>
		<g>
			<polygon class="st7" points="324.1,378.8 317.3,390.6 310.5,378.8 			"/>
		</g>
		<g>
			<polygon class="st7" points="324.1,71.8 317.3,60 310.5,71.8 			"/>
		</g>
	</g>
</g>
<rect x="172.3" y="195.1" class="st7" width="290" height="41"/>
<text transform="matrix(1 0 0 1 193.1855 223.9225)" class="st5 st8 st9">Initial containing block</text>
</svg>
