<?xml version="1.0" encoding="utf-8"?>
<!-- Generator: Adobe Illustrator 22.0.1, SVG Export Plug-In . SVG Version: 6.00 Build 0)  -->
<svg version="1.1" xmlns="http://www.w3.org/2000/svg" xmlns:xlink="http://www.w3.org/1999/xlink" x="0px" y="0px"
	 viewBox="0 0 650 400" style="enable-background:new 0 0 650 400;" xml:space="preserve">
<style type="text/css">
	.st0{fill:#FFFF8E;}
	.st1{fill:#B0C590;}
	.st2{fill:#A3FFD5;}
	.st3{fill:#646464;}
	.st4{font-family:'HelveticaNeue';}
	.st5{font-size:82px;}
	.st6{fill:none;stroke:#B04636;stroke-width:7;stroke-miterlimit:10;}
	.st7{fill:#B04636;}
	.st8{fill:#FFFFFF;}
	.st9{font-family:'HelveticaNeue-Bold';}
	.st10{font-size:23px;}
</style>
<g id="content">
	<g>
		<rect x="60" y="185" class="st1" width="520" height="110"/>
	</g>
	<text transform="matrix(1 0 0 1 65.9998 269.4238)" class="st3 st4 st5">ÙAbcdefghijkl</text>
	<g>
		<polygon points="583,237 57,237 57,243 583,243 583,237 		"/>
	</g>
</g>
<g id="feature">
</g>
<g id="label">
	<g>
		<g>
			<line class="st6" x1="372" y1="258.1" x2="372" y2="355"/>
			<g>
				<polygon class="st7" points="361.5,261.1 372,243 382.5,261.1 				"/>
			</g>
		</g>
	</g>
	<g>
		<g>
			<line class="st6" x1="222" y1="174.9" x2="222" y2="86"/>
			<g>
				<polygon class="st7" points="232.5,171.9 222,190 211.5,171.9 				"/>
			</g>
		</g>
	</g>
	<rect x="336" y="355" class="st7" width="247" height="41"/>
	<text transform="matrix(1 0 0 1 347.9999 382.7117)" class="st8 st9 st10">Inline box: 0px high</text>
	<rect x="152" y="45" class="st7" width="286" height="41"/>
	<text transform="matrix(1 0 0 1 164.0001 74.7117)" class="st8 st9 st10">Content area: 16px high</text>
</g>
</svg>
