<?xml version="1.0" encoding="utf-8"?>
<!-- Generator: Adobe Illustrator 22.0.1, SVG Export Plug-In . SVG Version: 6.00 Build 0)  -->
<svg version="1.1" id="Layer_1" xmlns="http://www.w3.org/2000/svg" xmlns:xlink="http://www.w3.org/1999/xlink" x="0px" y="0px"
	 viewBox="0 0 650 400" style="enable-background:new 0 0 650 400;" xml:space="preserve">
<style type="text/css">
	.st0{fill:#FFFFFF;}
	.st1{fill:#D2D2D2;}
	.st2{fill:#568312;}
	.st3{fill:#B0C590;}
	.st4{fill:#B04636;}
	.st5{fill:none;stroke:#B04636;stroke-width:7;stroke-miterlimit:10;}
	.st6{fill:none;stroke:#B04636;stroke-width:7.7406;stroke-miterlimit:10;}
	.st7{font-family:'HelveticaNeue-Bold';}
	.st8{font-size:32px;}
	.st9{font-family:'HelveticaNeue';}
	.st10{font-size:22px;}
	.st11{font-size:23px;}
</style>
<rect class="st0" width="650" height="400"/>
<g>
	<rect x="26.6" y="65.6" class="st0" width="596.8" height="332.8"/>
	<path class="st1" d="M621.8,67.2v329.6H28.2V67.2H621.8 M625,64H25v336h600V64L625,64z"/>
</g>
<g>
	<rect x="46.6" y="85.6" class="st0" width="556.8" height="292.8"/>
	<path class="st1" d="M601.8,87.2v289.5H48.2V87.2H601.8 M605,84H45v296h560V84L605,84z"/>
</g>
<g>
	<rect x="66.5" y="105.5" class="st0" width="517" height="42"/>
	<path class="st1" d="M582,107v39H68v-39H582 M585,104H65v45h520V104L585,104z"/>
</g>
<g>
	<rect x="66.5" y="248.5" class="st0" width="517" height="110"/>
	<path class="st1" d="M582,250v107H68V250H582 M585,247H65v113h520V247L585,247z"/>
</g>
<g>
	<rect x="86.5" y="268.5" class="st0" width="477" height="35"/>
	<path class="st1" d="M562,270v32H88v-32H562 M565,267H85v38h480V267L565,267z"/>
</g>
<g>
	<rect x="86.5" y="303.5" class="st0" width="477" height="35"/>
	<path class="st1" d="M562,305v32H88v-32H562 M565,302H85v38h480V302L565,302z"/>
</g>
<text transform="matrix(1 0 0 1 74.9998 136.4238)" class="st7 st8">This is a heading</text>
<text transform="matrix(1 0 0 1 95.0004 290.8535)" class="st9 st10">Lorem ipsum dolor sit amet, consectetuer adip</text>
<text transform="matrix(1 0 0 1 95.0004 325.8535)" class="st9 st10">iscing elit, sed diam euismod tincidunt ut</text>
<g>
	<g>
		<path class="st2" d="M585,159h-7v3.2h3.8v6.8h3.2V159L585,159z M571,159h-7v3.2h7V159L571,159z M557,159h-7v3.2h7V159L557,159z
			 M543,159h-7v3.2h7V159L543,159z M529,159h-7v3.2h7V159L529,159z M515,159h-7v3.2h7V159L515,159z M501,159h-7v3.2h7V159L501,159z
			 M487,159h-7v3.2h7V159L487,159z M473,159h-7v3.2h7V159L473,159z M459,159h-7v3.2h7V159L459,159z M445,159h-7v3.2h7V159L445,159z
			 M431,159h-7v3.2h7V159L431,159z M417,159h-7v3.2h7V159L417,159z M403,159h-7v3.2h7V159L403,159z M389,159h-7v3.2h7V159L389,159z
			 M375,159h-7v3.2h7V159L375,159z M361,159h-7v3.2h7V159L361,159z M347,159h-7v3.2h7V159L347,159z M333,159h-7v3.2h7V159L333,159z
			 M319,159h-7v3.2h7V159L319,159z M305,159h-7v3.2h7V159L305,159z M291,159h-7v3.2h7V159L291,159z M277,159h-7v3.2h7V159L277,159z
			 M263,159h-7v3.2h7V159L263,159z M249,159h-7v3.2h7V159L249,159z M235,159h-7v3.2h7V159L235,159z M221,159h-7v3.2h7V159L221,159z
			 M207,159h-7v3.2h7V159L207,159z M193,159h-7v3.2h7V159L193,159z M179,159h-7v3.2h7V159L179,159z M165,159h-7v3.2h7V159L165,159z
			 M151,159h-7v3.2h7V159L151,159z M137,159h-7v3.2h7V159L137,159z M123,159h-7v3.2h7V159L123,159z M109,159h-7v3.2h7V159L109,159z
			 M95,159h-7v3.2h7V159L95,159z M81,159h-7v3.2h7V159L81,159z M68.2,159H65v3.2l0,0c0,1,0,1.8,0,1.8h3.2V159L68.2,159z M68.2,171
			H65v7h3.2V171L68.2,171z M68.2,185H65v7h3.2V185L68.2,185z M74,193.8h-7v3.2h7V193.8L74,193.8z M88,193.8h-7v3.2h7V193.8L88,193.8
			z M102,193.8h-7v3.2h7V193.8L102,193.8z M116,193.8h-7v3.2h7V193.8L116,193.8z M130,193.8h-7v3.2h7V193.8L130,193.8z M144,193.8
			h-7v3.2h7V193.8L144,193.8z M158,193.8h-7v3.2h7V193.8L158,193.8z M172,193.8h-7v3.2h7V193.8L172,193.8z M186,193.8h-7v3.2h7
			V193.8L186,193.8z M200,193.8h-7v3.2h7V193.8L200,193.8z M214,193.8h-7v3.2h7V193.8L214,193.8z M228,193.8h-7v3.2h7V193.8
			L228,193.8z M242,193.8h-7v3.2h7V193.8L242,193.8z M256,193.8h-7v3.2h7V193.8L256,193.8z M270,193.8h-7v3.2h7V193.8L270,193.8z
			 M284,193.8h-7v3.2h7V193.8L284,193.8z M298,193.8h-7v3.2h7V193.8L298,193.8z M312,193.8h-7v3.2h7V193.8L312,193.8z M326,193.8h-7
			v3.2h7V193.8L326,193.8z M340,193.8h-7v3.2h7V193.8L340,193.8z M354,193.8h-7v3.2h7V193.8L354,193.8z M368,193.8h-7v3.2h7V193.8
			L368,193.8z M382,193.8h-7v3.2h7V193.8L382,193.8z M396,193.8h-7v3.2h7V193.8L396,193.8z M410,193.8h-7v3.2h7V193.8L410,193.8z
			 M424,193.8h-7v3.2h7V193.8L424,193.8z M438,193.8h-7v3.2h7V193.8L438,193.8z M452,193.8h-7v3.2h7V193.8L452,193.8z M466,193.8h-7
			v3.2h7V193.8L466,193.8z M480,193.8h-7v3.2h7V193.8L480,193.8z M494,193.8h-7v3.2h7V193.8L494,193.8z M508,193.8h-7v3.2h7V193.8
			L508,193.8z M522,193.8h-7v3.2h7V193.8L522,193.8z M536,193.8h-7v3.2h7V193.8L536,193.8z M550,193.8h-7v3.2h7V193.8L550,193.8z
			 M564,193.8h-7v3.2h7V193.8L564,193.8z M578,193.8h-7v3.2h7V193.8L578,193.8z M585,190h-3.2v7h3.2V190L585,190z M585,176h-3.2v7
			h3.2V176L585,176z"/>
	</g>
</g>
<rect x="20" y="10" class="st4" width="611" height="41"/>
<text transform="matrix(1 0 0 1 34.5284 37.7109)" class="st0 st7 st11">Relatively-positioned block-level element with height</text>
<g>
	<g>
		<rect x="67.7" y="176.2" class="st3" width="515.6" height="75.6"/>
		<path class="st2" d="M581.1,178.4v71.3H69.9v-71.3H581.1 M585.5,174h-520v80h520V174L585.5,174z"/>
	</g>
	<text transform="matrix(1 0 0 1 75.4995 199.418)" class="st9 st10">Block-level element</text>
</g>
<g>
	<g>
		<line class="st5" x1="475" y1="161.4" x2="475" y2="50.7"/>
		<g>
			<polygon class="st4" points="485.5,158.3 475,176.4 464.5,158.3 			"/>
		</g>
	</g>
</g>
</svg>
