<?xml version="1.0" encoding="utf-8"?>
<!-- Generator: Adobe Illustrator 22.0.1, SVG Export Plug-In . SVG Version: 6.00 Build 0)  -->
<svg version="1.1" id="Layer_1" xmlns="http://www.w3.org/2000/svg" xmlns:xlink="http://www.w3.org/1999/xlink" x="0px" y="0px"
	 viewBox="0 0 650 400" style="enable-background:new 0 0 650 400;" xml:space="preserve">
<style type="text/css">
	.st0{fill:#FFFFFF;}
	.st1{fill:#D2D2D2;}
	.st2{fill:#568312;}
	.st3{fill:#B0C590;}
	.st4{fill:#B04636;}
	.st5{fill:none;stroke:#B04636;stroke-width:7;stroke-miterlimit:10;}
	.st6{fill:none;stroke:#B04636;stroke-width:7.7406;stroke-miterlimit:10;}
	.st7{font-family:'HelveticaNeue-Bold';}
	.st8{font-size:32px;}
	.st9{font-family:'HelveticaNeue';}
	.st10{font-size:22px;}
	.st11{font-size:23px;}
</style>
<rect class="st0" width="650" height="400"/>
<g>
	<rect x="26.5" y="65.5" class="st0" width="597" height="333"/>
	<path class="st1" d="M622,67v330H28V67H622 M625,64H25v336h600V64L625,64z"/>
</g>
<g>
	<rect x="46.5" y="85.5" class="st0" width="557" height="293"/>
	<path class="st1" d="M602,87v290H48V87H602 M605,84H45v296h560V84L605,84z"/>
</g>
<g>
	<rect x="66.5" y="105.5" class="st0" width="517" height="42"/>
	<path class="st1" d="M582,107v39H68v-39H582 M585,104H65v45h520V104L585,104z"/>
</g>
<g>
	<rect x="66.5" y="248.5" class="st0" width="517" height="110"/>
	<path class="st1" d="M582,250v107H68V250H582 M585,247H65v113h520V247L585,247z"/>
</g>
<g>
	<rect x="86.5" y="268.5" class="st0" width="477" height="35"/>
	<path class="st1" d="M562,270v32H88v-32H562 M565,267H85v38h480V267L565,267z"/>
</g>
<g>
	<rect x="86.5" y="303.5" class="st0" width="477" height="35"/>
	<path class="st1" d="M562,305v32H88v-32H562 M565,302H85v38h480V302L565,302z"/>
</g>
<text transform="matrix(1 0 0 1 74.9998 136.4238)" class="st7 st8">This is a heading</text>
<text transform="matrix(1 0 0 1 95.0005 290.8535)" class="st9 st10">Lorem ipsum dolor sit amet, consectetuer adip</text>
<text transform="matrix(1 0 0 1 95.0005 325.8535)" class="st9 st10">iscing elit, sed diam euismod tincidunt ut</text>
<g>
	<g>
		<path class="st2" d="M585,159h-7v3h4v7h3V159L585,159z M571,159h-7v3h7V159L571,159z M557,159h-7v3h7V159L557,159z M543,159h-7v3
			h7V159L543,159z M529,159h-7v3h7V159L529,159z M515,159h-7v3h7V159L515,159z M501,159h-7v3h7V159L501,159z M487,159h-7v3h7V159
			L487,159z M473,159h-7v3h7V159L473,159z M459,159h-7v3h7V159L459,159z M445,159h-7v3h7V159L445,159z M431,159h-7v3h7V159L431,159z
			 M417,159h-7v3h7V159L417,159z M403,159h-7v3h7V159L403,159z M389,159h-7v3h7V159L389,159z M375,159h-7v3h7V159L375,159z M361,159
			h-7v3h7V159L361,159z M347,159h-7v3h7V159L347,159z M333,159h-7v3h7V159L333,159z M319,159h-7v3h7V159L319,159z M305,159h-7v3h7
			V159L305,159z M291,159h-7v3h7V159L291,159z M277,159h-7v3h7V159L277,159z M263,159h-7v3h7V159L263,159z M249,159h-7v3h7V159
			L249,159z M235,159h-7v3h7V159L235,159z M221,159h-7v3h7V159L221,159z M207,159h-7v3h7V159L207,159z M193,159h-7v3h7V159L193,159z
			 M179,159h-7v3h7V159L179,159z M165,159h-7v3h7V159L165,159z M151,159h-7v3h7V159L151,159z M137,159h-7v3h7V159L137,159z M123,159
			h-7v3h7V159L123,159z M109,159h-7v3h7V159L109,159z M95,159h-7v3h7V159L95,159z M81,159h-7v3h7V159L81,159z M68,159h-3v3l0,0
			c0,1.1,0,2,0,2h3V159L68,159z M68,171h-3v7h3V171L68,171z M68,185h-3v7h3V185L68,185z M74,194h-7v3h7V194L74,194z M88,194h-7v3h7
			V194L88,194z M102,194h-7v3h7V194L102,194z M116,194h-7v3h7V194L116,194z M130,194h-7v3h7V194L130,194z M144,194h-7v3h7V194
			L144,194z M158,194h-7v3h7V194L158,194z M172,194h-7v3h7V194L172,194z M186,194h-7v3h7V194L186,194z M200,194h-7v3h7V194L200,194z
			 M214,194h-7v3h7V194L214,194z M228,194h-7v3h7V194L228,194z M242,194h-7v3h7V194L242,194z M256,194h-7v3h7V194L256,194z M270,194
			h-7v3h7V194L270,194z M284,194h-7v3h7V194L284,194z M298,194h-7v3h7V194L298,194z M312,194h-7v3h7V194L312,194z M326,194h-7v3h7
			V194L326,194z M340,194h-7v3h7V194L340,194z M354,194h-7v3h7V194L354,194z M368,194h-7v3h7V194L368,194z M382,194h-7v3h7V194
			L382,194z M396,194h-7v3h7V194L396,194z M410,194h-7v3h7V194L410,194z M424,194h-7v3h7V194L424,194z M438,194h-7v3h7V194L438,194z
			 M452,194h-7v3h7V194L452,194z M466,194h-7v3h7V194L466,194z M480,194h-7v3h7V194L480,194z M494,194h-7v3h7V194L494,194z M508,194
			h-7v3h7V194L508,194z M522,194h-7v3h7V194L522,194z M536,194h-7v3h7V194L536,194z M550,194h-7v3h7V194L550,194z M564,194h-7v3h7
			V194L564,194z M578,194h-7v3h7V194L578,194z M585,190h-3v7h3V190L585,190z M585,176h-3v7h3V176L585,176z"/>
	</g>
</g>
<rect x="20" y="10" class="st4" width="509" height="41"/>
<text transform="matrix(1 0 0 1 34.5283 37.7109)" class="st0 st7 st11">Border reduces width of content area</text>
<g>
	<rect x="75" y="184" class="st3" width="500" height="58"/>
	<g>
		<path class="st2" d="M565,194v38H85v-38H565 M585,174H65v78h520V174L585,174z"/>
	</g>
</g>
<g>
	<rect x="85" y="194" class="st3" width="480" height="38"/>
</g>
<g>
	<g>
		<line class="st5" x1="77" y1="151.9" x2="77" y2="51"/>
		<g>
			<polygon class="st4" points="87.5,148.9 77,167 66.5,148.9 			"/>
		</g>
	</g>
</g>
<text transform="matrix(1 0 0 1 94.9995 219.418)" class="st9 st10">Block-level element</text>
</svg>
