<?xml version="1.0" encoding="utf-8"?>
<!-- Generator: Adobe Illustrator 22.0.1, SVG Export Plug-In . SVG Version: 6.00 Build 0)  -->
<svg version="1.1" id="Layer_1" xmlns="http://www.w3.org/2000/svg" xmlns:xlink="http://www.w3.org/1999/xlink" x="0px" y="0px"
	 viewBox="0 0 650 400" style="enable-background:new 0 0 650 400;" xml:space="preserve">
<style type="text/css">
	.st0{fill:#FFFFFF;}
	.st1{fill:#D2D2D2;}
	.st2{fill:#568312;}
	.st3{fill:#B0C590;}
	.st4{fill:#B04636;}
	.st5{fill:none;stroke:#B04636;stroke-width:7;stroke-miterlimit:10;}
	.st6{fill:none;stroke:#B04636;stroke-width:7.7406;stroke-miterlimit:10;}
	.st7{font-family:'HelveticaNeue-Bold';}
	.st8{font-size:32px;}
	.st9{font-family:'HelveticaNeue';}
	.st10{font-size:22px;}
	.st11{font-size:23px;}
</style>
<polygon class="st0" points="649.5,400 -0.5,400 0.5,0 650.5,0 "/>
<g>
	<rect x="26" y="100.5" class="st0" width="597" height="298"/>
	<path class="st1" d="M621.5,102v295h-594V102H621.5 M624.5,99h-600v301h600V99L624.5,99z"/>
</g>
<g>
	<rect x="46" y="120.5" class="st0" width="557" height="258"/>
	<path class="st1" d="M601.5,122v255h-554V122H601.5 M604.5,119h-560v261h560V119L604.5,119z"/>
</g>
<g>
	<rect x="66" y="140.5" class="st0" width="517" height="42"/>
	<path class="st1" d="M581.5,142v39h-514v-39H581.5 M584.5,139h-520v45h520V139L584.5,139z"/>
</g>
<g>
	<rect x="66" y="283.5" class="st0" width="517" height="75"/>
	<path class="st1" d="M581.5,285v72h-514v-72H581.5 M584.5,282h-520v78h520V282L584.5,282z"/>
</g>
<g>
	<rect x="66" y="194.5" class="st0" width="517" height="75"/>
	<path class="st1" d="M581.5,196v72h-514v-72H581.5 M584.5,193h-520v78h520V193L584.5,193z"/>
</g>
<g>
	<rect x="86" y="303.5" class="st0" width="477" height="35"/>
	<path class="st1" d="M561.5,305v32h-474v-32H561.5 M564.5,302h-480v38h480V302L564.5,302z"/>
</g>
<text transform="matrix(1 0 0 1 74.4998 171.4238)" class="st7 st8">This is a heading</text>
<text transform="matrix(1 0 0 1 94.5004 325.8535)" class="st9 st10">Lorem ipsum dolor sit amet, consectetuer adip</text>
<g>
	<rect x="86" y="214.5" class="st0" width="477" height="35"/>
	<g>
		<path class="st1" d="M561.5,216v32h-474v-32H561.5 M564.5,213h-480v38h480V213L564.5,213z"/>
	</g>
</g>
<text transform="matrix(1 0 0 1 94.4996 237.8535)" class="st9 st10">Lorem ipsum:</text>
<text transform="matrix(1 0 0 1 426.5001 237.8535)" class="st9 st10">dolor sit amet</text>
<rect x="46.5" y="25" class="st4" width="533" height="41"/>
<text transform="matrix(1 0 0 1 61.5288 52.7109)" class="st0 st7 st11"> </text>
<g>
	<path class="st2" d="M412,213h-7.8v3.5h7.8V213L412,213z M396.4,213h-7.8v3.5h7.8V213L396.4,213z M380.9,213h-7.8v3.5h7.8V213
		L380.9,213z M365.3,213h-7.8v3.5h7.8V213L365.3,213z M349.8,213H342v3.5h7.8V213L349.8,213z M334.2,213h-7.8v3.5h7.8V213L334.2,213
		z M318.7,213h-7.8v3.5h7.8V213L318.7,213z M303.1,213h-7.8v3.5h7.8V213L303.1,213z M287.6,213h-7.8v3.5h7.8V213L287.6,213z
		 M272.1,213h-7.8v3.5h7.8V213L272.1,213z M256.5,213h-7.8v3.5h7.8V213L256.5,213z M241,213h-7.8v3.5h7.8V213L241,213z M235,219.1
		h-3.5v7.8h3.5V219.1L235,219.1z M235,234.6h-3.5v7.8h3.5V234.6L235,234.6z M238.4,247.5h-6.9v2.7l0,0v-2.7v2.7l0,0v0.8h3.5l0,0l0,0
		l0,0l0,0c1.7,0,3.4,0,3.4,0V247.5L238.4,247.5z M254,247.5h-7.8v3.5h7.8V247.5L254,247.5z M269.5,247.5h-7.8v3.5h7.8V247.5
		L269.5,247.5z M285.1,247.5h-7.8v3.5h7.8V247.5L285.1,247.5z M300.6,247.5h-7.8v3.5h7.8V247.5L300.6,247.5z M316.1,247.5h-7.8v3.5
		h7.8V247.5L316.1,247.5z M331.7,247.5h-7.8v3.5h7.8V247.5L331.7,247.5z M347.2,247.5h-7.8v3.5h7.8V247.5L347.2,247.5z M362.8,247.5
		H355v3.5h7.8V247.5L362.8,247.5z M378.3,247.5h-7.8v3.5h7.8V247.5L378.3,247.5z M393.9,247.5h-7.8v3.5h7.8V247.5L393.9,247.5z
		 M409.4,247.5h-7.8v3.5h7.8V247.5L409.4,247.5z M425,247.5h-7.8v3.5h7.8V247.5L425,247.5z M427.5,238H424v7.8h3.5V238L427.5,238z
		 M427.5,222.5H424v7.8h3.5V222.5L427.5,222.5z M427.5,213h-7.8v3.5h7.8V213L427.5,213z"/>
</g>
<g>
	<rect x="262.5" y="218" class="st3" width="179" height="58"/>
	<g>
		<path class="st2" d="M431.5,228v38h-159v-38H431.5 M451.5,208h-199v78h199V208L451.5,208z"/>
	</g>
</g>
<g>
	<g>
		<line class="st5" x1="263.5" y1="212.9" x2="263.5" y2="66"/>
		<g>
			<polygon class="st4" points="274,209.9 263.5,228 253,209.9 			"/>
		</g>
	</g>
</g>
<g>
	<g>
		<rect x="272.5" y="228" class="st3" width="159" height="38"/>
	</g>
	<text transform="matrix(1 0 0 1 282.5001 253.418)" class="st9 st10">Inline element</text>
</g>
<text transform="matrix(1 0 0 1 61.5288 52.7109)" class="st0 st7 st11">Border increases dimensions of the element</text>
</svg>
