<?xml version="1.0" encoding="utf-8"?>
<!-- Generator: Adobe Illustrator 22.0.1, SVG Export Plug-In . SVG Version: 6.00 Build 0)  -->
<svg version="1.1" id="Layer_1" xmlns="http://www.w3.org/2000/svg" xmlns:xlink="http://www.w3.org/1999/xlink" x="0px" y="0px"
	 viewBox="0 0 650 400" style="enable-background:new 0 0 650 400;" xml:space="preserve">
<style type="text/css">
	.st0{fill:#FFFFFF;}
	.st1{fill:#595959;}
	.st2{fill:#D2D2D2;}
	.st3{fill:#B0C590;}
	.st4{fill:#568312;}
	.st5{fill:#B04636;}
	.st6{font-family:'HelveticaNeue-Bold';}
	.st7{font-size:32px;}
	.st8{font-family:'HelveticaNeue';}
	.st9{font-size:22px;}
	.st10{fill:none;stroke:#B04636;stroke-width:7;stroke-miterlimit:10;}
	.st11{font-size:23px;}
	.st12{fill:#91AE65;}
</style>
<g>
	<g>
		<rect x="26.5" y="82.5" class="st0" width="597" height="298"/>
		<path class="st1" d="M622,84v295H28V84H622 M625,81H25v301h600V81L625,81z"/>
	</g>
	<g>
		<rect x="25" y="81" class="st1" width="600" height="56"/>
		<circle class="st0" cx="41.3" cy="95" r="6"/>
		<circle class="st0" cx="56.7" cy="95" r="6"/>
		<circle class="st0" cx="72" cy="95" r="6"/>
		<polygon class="st0" points="53.2,120.1 40.8,120.1 45.9,115.1 44.6,113.8 38.3,120.1 38.2,120.1 38.2,121.9 38.7,121.9 
			38.2,122.4 44.6,128.7 45.9,127.4 40.3,121.9 53.2,121.9 		"/>
		<polygon class="st0" points="62.7,120.1 75.1,120.1 70.1,115.1 71.4,113.8 77.7,120.1 77.7,120.1 77.7,121.9 77.3,121.9 
			77.7,122.4 71.4,128.7 70.1,127.4 75.6,121.9 62.7,121.9 		"/>
		<path class="st0" d="M446.2,129.5H101.7c-2.8,0-5-2.2-5-5v-10c0-2.8,2.2-5,5-5h344.5c2.8,0,5,2.2,5,5v10
			C451.2,127.2,449,129.5,446.2,129.5z"/>
		<path class="st0" d="M599.2,129.5h-130c-5.5,0-10-4.5-10-10v0c0-5.5,4.5-10,10-10h130c5.5,0,10,4.5,10,10v0
			C609.2,125,604.7,129.5,599.2,129.5z"/>
	</g>
</g>
<g>
	<rect x="44.5" y="155.5" class="st0" width="557" height="205"/>
	<path class="st2" d="M600,157v202H46V157H600 M603,154H43v208h560V154L603,154z"/>
</g>
<g>
	<rect x="64.5" y="175.5" class="st0" width="517" height="42"/>
	<path class="st2" d="M580,177v39H66v-39H580 M583,174H63v45h520V174L583,174z"/>
</g>
<g>
	<rect x="64.5" y="230.5" class="st0" width="517" height="110"/>
	<path class="st2" d="M580,232v107H66V232H580 M583,229H63v113h520V229L583,229z"/>
</g>
<g>
	<rect x="84.5" y="250.5" class="st0" width="477" height="35"/>
	<path class="st2" d="M560,252v32H86v-32H560 M563,249H83v38h480V249L563,249z"/>
</g>
<g>
	<rect x="84.5" y="285.5" class="st0" width="477" height="35"/>
	<path class="st2" d="M560,287v32H86v-32H560 M563,284H83v38h480V284L563,284z"/>
</g>
<text transform="matrix(1 0 0 1 72.9971 206.4238)" class="st6 st7">This is a heading</text>
<text transform="matrix(1 0 0 1 92.9991 272.8535)" class="st8 st9">Lorem ipsum dolor sit amet, consectetuer adip</text>
<text transform="matrix(1 0 0 1 92.9997 307.8535)" class="st8 st9">iscing elit, sed diam euismod tincidunt ut</text>
<g>
	<rect x="29.5" y="230.5" class="st3" width="147" height="35"/>
	<path class="st4" d="M175,232v32H31v-32H175 M178,229H28v38h150V229L178,229z"/>
</g>
<text transform="matrix(1 0 0 1 37.998 254.418)" class="st8 st9">Test element</text>
<g>
	<g>
		<polyline class="st10" points="192.1,247 390,247 390,56 		"/>
		<g>
			<polygon class="st5" points="195.1,257.5 177,247 195.1,236.5 			"/>
		</g>
	</g>
</g>
<rect x="25" y="15" class="st5" width="487.7" height="41"/>
<text transform="matrix(1 0 0 1 39.5265 42.711)" class="st0 st6 st11">Fixed postioned element height collapsed</text>
</svg>
