<?xml version="1.0" encoding="utf-8"?>
<!-- Generator: Adobe Illustrator 22.0.1, SVG Export Plug-In . SVG Version: 6.00 Build 0)  -->
<svg version="1.1" id="Layer_1" xmlns="http://www.w3.org/2000/svg" xmlns:xlink="http://www.w3.org/1999/xlink" x="0px" y="0px"
	 viewBox="0 0 650 400" style="enable-background:new 0 0 650 400;" xml:space="preserve">
<style type="text/css">
	.st0{fill:#FFFFFF;}
	.st1{fill:#595959;}
	.st2{fill:#D2D2D2;}
	.st3{fill:#B0C590;}
	.st4{fill:#568312;}
	.st5{fill:#B04636;}
	.st6{fill:none;stroke:#B04636;stroke-width:7;stroke-miterlimit:10;}
	.st7{font-family:'HelveticaNeue-Bold';}
	.st8{font-size:32px;}
	.st9{font-family:'HelveticaNeue';}
	.st10{font-size:22px;}
	.st11{font-size:23px;}
	.st12{fill:#91AE65;}
</style>
<g>
	<g>
		<rect x="26.5" y="82.5" class="st0" width="597" height="298"/>
		<path class="st1" d="M622,84v295H28V84H622 M625,81H25v301h600V81L625,81z"/>
	</g>
	<g>
		<rect x="25" y="81" class="st1" width="600" height="56"/>
		<circle class="st0" cx="41.3" cy="95" r="6"/>
		<circle class="st0" cx="56.7" cy="95" r="6"/>
		<circle class="st0" cx="72" cy="95" r="6"/>
		<polygon class="st0" points="53.2,120.1 40.8,120.1 45.9,115.1 44.6,113.8 38.3,120.1 38.2,120.1 38.2,121.9 38.7,121.9 
			38.2,122.4 44.6,128.7 45.9,127.4 40.3,121.9 53.2,121.9 		"/>
		<polygon class="st0" points="62.7,120.1 75.1,120.1 70.1,115.1 71.4,113.8 77.7,120.1 77.7,120.1 77.7,121.9 77.3,121.9 
			77.7,122.4 71.4,128.7 70.1,127.4 75.6,121.9 62.7,121.9 		"/>
		<path class="st0" d="M446.2,129.5H101.7c-2.8,0-5-2.2-5-5v-10c0-2.8,2.2-5,5-5h344.5c2.8,0,5,2.2,5,5v10
			C451.2,127.2,449,129.5,446.2,129.5z"/>
		<path class="st0" d="M599.2,129.5h-130c-5.5,0-10-4.5-10-10v0c0-5.5,4.5-10,10-10h130c5.5,0,10,4.5,10,10v0
			C609.2,125,604.7,129.5,599.2,129.5z"/>
	</g>
</g>
<g>
	<rect x="46.5" y="155.5" class="st0" width="557" height="205"/>
	<path class="st2" d="M602,157v202H48V157H602 M605,154H45v208h560V154L605,154z"/>
</g>
<g>
	<rect x="66.5" y="175.5" class="st0" width="517" height="42"/>
	<path class="st2" d="M582,177v39H68v-39H582 M585,174H65v45h520V174L585,174z"/>
</g>
<g>
	<rect x="66.5" y="230.5" class="st0" width="517" height="110"/>
	<path class="st2" d="M582,232v107H68V232H582 M585,229H65v113h520V229L585,229z"/>
</g>
<g>
	<rect x="86.5" y="250.5" class="st0" width="477" height="35"/>
	<path class="st2" d="M562,252v32H88v-32H562 M565,249H85v38h480V249L565,249z"/>
</g>
<g>
	<rect x="86.5" y="285.5" class="st0" width="477" height="35"/>
	<path class="st2" d="M562,287v32H88v-32H562 M565,284H85v38h480V284L565,284z"/>
</g>
<text transform="matrix(1 0 0 1 74.9995 206.4238)" class="st7 st8">This is a heading</text>
<text transform="matrix(1 0 0 1 95.0007 272.8535)" class="st9 st10">Lorem ipsum dolor sit amet, consectetuer adip</text>
<text transform="matrix(1 0 0 1 95.0007 307.8535)" class="st9 st10">iscing elit, sed diam euismod tincidunt ut</text>
<g>
	<rect x="29.5" y="230.5" class="st3" width="591" height="35"/>
	<path class="st4" d="M619,232v32H31v-32H619 M622,229H28v38h594V229L622,229z"/>
</g>
<text transform="matrix(1 0 0 1 34.9998 254.418)" class="st9 st10">Test element</text>
<g>
	<g>
		<line class="st6" x1="66" y1="214.3" x2="66" y2="56"/>
		<g>
			<polygon class="st5" points="76.5,211.3 66,229.4 55.5,211.3 			"/>
		</g>
	</g>
</g>
<rect x="25" y="15" class="st5" width="410.7" height="41"/>
<text transform="matrix(1 0 0 1 39.5293 42.7107)" class="st0 st7 st11">Fixed postioned element stretched</text>
</svg>
