<?xml version="1.0" encoding="utf-8"?>
<!-- Generator: Adobe Illustrator 22.0.1, SVG Export Plug-In . SVG Version: 6.00 Build 0)  -->
<svg version="1.1" id="Layer_1" xmlns="http://www.w3.org/2000/svg" xmlns:xlink="http://www.w3.org/1999/xlink" x="0px" y="0px"
	 viewBox="0 0 650 400" style="enable-background:new 0 0 650 400;" xml:space="preserve">
<style type="text/css">
	.st0{fill:#FFFFFF;}
	.st1{fill:#D2D2D2;}
	.st2{fill:#568312;}
	.st3{fill:#B0C590;}
	.st4{fill:#B04636;}
	.st5{fill:none;stroke:#B04636;stroke-width:7;stroke-miterlimit:10;}
	.st6{fill:none;stroke:#B04636;stroke-width:7.7406;stroke-miterlimit:10;}
	.st7{font-family:'HelveticaNeue-Bold';}
	.st8{font-size:32px;}
	.st9{font-family:'HelveticaNeue';}
	.st10{font-size:22px;}
	.st11{font-size:23px;}
</style>
<rect class="st0" width="650" height="400"/>
<g>
	<rect x="26.5" y="65.5" class="st0" width="597" height="333"/>
	<path class="st1" d="M622,67v330H28V67H622 M625,64H25v336h600V64L625,64z"/>
</g>
<g>
	<rect x="46.5" y="85.5" class="st0" width="557" height="293"/>
	<path class="st1" d="M602,87v290H48V87H602 M605,84H45v296h560V84L605,84z"/>
</g>
<g>
	<rect x="66.5" y="105.5" class="st0" width="517" height="42"/>
	<path class="st1" d="M582,107v39H68v-39H582 M585,104H65v45h520V104L585,104z"/>
</g>
<g>
	<rect x="66.5" y="248.5" class="st0" width="517" height="110"/>
	<path class="st1" d="M582,250v107H68V250H582 M585,247H65v113h520V247L585,247z"/>
</g>
<g>
	<rect x="86.5" y="268.5" class="st0" width="477" height="35"/>
	<path class="st1" d="M562,270v32H88v-32H562 M565,267H85v38h480V267L565,267z"/>
</g>
<g>
	<rect x="86.5" y="303.5" class="st0" width="477" height="35"/>
	<path class="st1" d="M562,305v32H88v-32H562 M565,302H85v38h480V302L565,302z"/>
</g>
<text transform="matrix(1 0 0 1 74.9998 136.4238)" class="st7 st8">This is a heading</text>
<text transform="matrix(1 0 0 1 95.0004 290.8535)" class="st9 st10">Lorem ipsum dolor sit amet, consectetuer adip</text>
<text transform="matrix(1 0 0 1 95.0004 325.8535)" class="st9 st10">iscing elit, sed diam euismod tincidunt ut</text>
<g>
	<g>
		<path class="st2" d="M365,159h-5.3v3h2.3v3.1h3V159L365,159z M354.4,159H349v3h5.3V159L354.4,159z M343.7,159h-5.3v3h5.3V159
			L343.7,159z M333.1,159h-5.3v3h5.3V159L333.1,159z M322.5,159h-5.3v3h5.3V159L322.5,159z M311.8,159h-5.3v3h5.3V159L311.8,159z
			 M301.2,159h-5.3v3h5.3V159L301.2,159z M290.6,159h-5.3v3h5.3V159L290.6,159z M279.9,159h-5.3v3h5.3V159L279.9,159z M269.3,159
			H264v3h5.3V159L269.3,159z M258.7,159h-5.3v3h5.3V159L258.7,159z M248,159h-5.3v3h5.3V159L248,159z M237.4,159h-5.3v3h5.3V159
			L237.4,159z M226.8,159h-5.3v3h5.3V159L226.8,159z M216.1,159h-5.3v3h5.3V159L216.1,159z M205.5,159h-5.3v3h5.3V159L205.5,159z
			 M194.9,159h-5.3v3h5.3V159L194.9,159z M184.2,159h-5.3v3h5.3V159L184.2,159z M173.6,159h-5.3v3h5.3V159L173.6,159z M163,159h-5.3
			v3h5.3V159L163,159z M152.3,159H147v3h5.3V159L152.3,159z M141.7,159h-5.3v3h5.3V159L141.7,159z M131.1,159h-5.3v3h5.3V159
			L131.1,159z M120.4,159h-5.3v3h5.3V159L120.4,159z M109.8,159h-5.3v3h5.3V159L109.8,159z M99.2,159h-5.3v3h5.3V159L99.2,159z
			 M88.5,159h-5.3v3h5.3V159L88.5,159z M77.9,159h-5.3v3h5.3V159L77.9,159z M68,159h-3v3l0,0c0,0,0,0.1,0,0.1h3V159L68,159z
			 M68,167.4h-3v5.3h3V167.4L68,167.4z M68,178h-3v5.3h3V178L68,178z M68,188.6h-3v5.3h3V188.6L68,188.6z M72.6,194h-5.3v3h5.3V194
			L72.6,194z M83.2,194h-5.3v3h5.3V194L83.2,194z M93.9,194h-5.3v3h5.3V194L93.9,194z M104.5,194h-5.3v3h5.3V194L104.5,194z
			 M115.1,194h-5.3v3h5.3V194L115.1,194z M125.8,194h-5.3v3h5.3V194L125.8,194z M136.4,194h-5.3v3h5.3V194L136.4,194z M147,194h-5.3
			v3h5.3V194L147,194z M157.7,194h-5.3v3h5.3V194L157.7,194z M168.3,194H163v3h5.3V194L168.3,194z M178.9,194h-5.3v3h5.3V194
			L178.9,194z M189.6,194h-5.3v3h5.3V194L189.6,194z M200.2,194h-5.3v3h5.3V194L200.2,194z M210.8,194h-5.3v3h5.3V194L210.8,194z
			 M221.5,194h-5.3v3h5.3V194L221.5,194z M232.1,194h-5.3v3h5.3V194L232.1,194z M242.7,194h-5.3v3h5.3V194L242.7,194z M253.4,194
			h-5.3v3h5.3V194L253.4,194z M264,194h-5.3v3h5.3V194L264,194z M274.6,194h-5.3v3h5.3V194L274.6,194z M285.3,194H280v3h5.3V194
			L285.3,194z M295.9,194h-5.3v3h5.3V194L295.9,194z M306.5,194h-5.3v3h5.3V194L306.5,194z M317.2,194h-5.3v3h5.3V194L317.2,194z
			 M327.8,194h-5.3v3h5.3V194L327.8,194z M338.4,194h-5.3v3h5.3V194L338.4,194z M349.1,194h-5.3v3h5.3V194L349.1,194z M359.7,194
			h-5.3v3h5.3V194L359.7,194z M365,191.7h-3v5.3h3V191.7L365,191.7z M365,181h-3v5.3h3V181L365,181z M365,170.4h-3v5.3h3V170.4
			L365,170.4z"/>
	</g>
</g>
<rect x="20" y="10" class="st4" width="529" height="41"/>
<text transform="matrix(1 0 0 1 34.5284 37.7109)" class="st0 st7 st11">Margin pushes element away from its postion</text>
<g>
	<path class="st4" d="M420,174h-5v5l0,0v1h5V174L420,174z M410,174h-5v5h5V174L410,174z M400,174h-5v5h5V174L400,174z M390,174h-5v5
		h5V174L390,174z M380,174h-5v5h5V174L380,174z M370,174h-5v5h5V174L370,174z M360,174h-5v5h5V174L360,174z M350,174h-5v5h5V174
		L350,174z M340,174h-5v5h5V174L340,174z M330,174h-5v5h5V174L330,174z M320,174h-5v5h5V174L320,174z M310,174h-5v5h5V174L310,174z
		 M300,174h-5v5h5V174L300,174z M290,174h-5v5h5V174L290,174z M280,174h-5v5h5V174L280,174z M270,174h-5v5h5V174L270,174z M260,174
		h-5v5h5V174L260,174z M250,174h-5v5h5V174L250,174z M240,174h-5v5h5V174L240,174z M230,174h-5v5h5V174L230,174z M220,174h-5v5h5
		V174L220,174z M210,174h-5v5h5V174L210,174z M200,174h-5v5h5V174L200,174z M190,174h-5v5h5V174L190,174z M180,174h-5v5h5V174
		L180,174z M170,174h-5v5h5V174L170,174z M160,174h-5v5h5V174L160,174z M150,174h-5v5h5V174L150,174z M140,174h-5v5h5V174L140,174z
		 M130,174h-5v5h5V174L130,174z M120,174h-5v5h5V174L120,174z M110,174h-5v5h5V174L110,174z M100,174h-5v5h5V174L100,174z M90,174
		H80v5h5l0,0h5V174L90,174z M85,184h-5v5h5V184L85,184z M85,194h-5v5h5V194L85,194z M85,204h-5v5h5V204L85,204z M85,214h-5v5h5V214
		L85,214z M85,224h-5v5h5V224L85,224z M85,234h-5v5h5V234L85,234z M85,244h-5v5h2v3h5v-5h-2V244L85,244z M97,247h-5v5h5V247L97,247z
		 M107,247h-5v5h5V247L107,247z M117,247h-5v5h5V247L117,247z M127,247h-5v5h5V247L127,247z M137,247h-5v5h5V247L137,247z M147,247
		h-5v5h5V247L147,247z M157,247h-5v5h5V247L157,247z M167,247h-5v5h5V247L167,247z M177,247h-5v5h5V247L177,247z M187,247h-5v5h5
		V247L187,247z M197,247h-5v5h5V247L197,247z M207,247h-5v5h5V247L207,247z M217,247h-5v5h5V247L217,247z M227,247h-5v5h5V247
		L227,247z M237,247h-5v5h5V247L237,247z M247,247h-5v5h5V247L247,247z M257,247h-5v5h5V247L257,247z M267,247h-5v5h5V247L267,247z
		 M277,247h-5v5h5V247L277,247z M287,247h-5v5h5V247L287,247z M297,247h-5v5h5V247L297,247z M307,247h-5v5h5V247L307,247z M317,247
		h-5v5h5V247L317,247z M327,247h-5v5h5V247L327,247z M337,247h-5v5h5V247L337,247z M347,247h-5v5h5V247L347,247z M357,247h-5v5h5
		V247L357,247z M367,247h-5v5h5V247L367,247z M377,247h-5v5h5V247L377,247z M387,247h-5v5h5V247L387,247z M397,247h-5v5h5V247
		L397,247z M407,247h-5v5h5V247L407,247z M420,245h-5v2h-3v5h5v-2h3V245L420,245z M420,235h-5v5h5V235L420,235z M420,225h-5v5h5V225
		L420,225z M420,215h-5v5h5V215L420,215z M420,205h-5v5h5V205L420,205z M420,195h-5v5h5V195L420,195z M420,185h-5v5h5V185L420,185z"
		/>
</g>
<g>
	<rect x="101.5" y="195.5" class="st3" width="297" height="35"/>
	<path class="st2" d="M397,197v32H103v-32H397 M400,194H100v38h300V194L400,194z"/>
</g>
<text transform="matrix(1 0 0 1 109.9996 219.418)" class="st9 st10">Block-level element</text>
<g>
	<g>
		<line class="st5" x1="90" y1="199.9" x2="90" y2="50.7"/>
		<g>
			<polygon class="st4" points="100.5,196.9 90,215 79.5,196.9 			"/>
		</g>
	</g>
</g>
</svg>
