<?xml version="1.0" encoding="utf-8"?>
<!-- Generator: Adobe Illustrator 22.0.1, SVG Export Plug-In . SVG Version: 6.00 Build 0)  -->
<svg version="1.1" id="Layer_1" xmlns="http://www.w3.org/2000/svg" xmlns:xlink="http://www.w3.org/1999/xlink" x="0px" y="0px"
	 viewBox="0 0 650 400" style="enable-background:new 0 0 650 400;" xml:space="preserve">
<style type="text/css">
	.st0{fill:#FFFFFF;}
	.st1{fill:#D2D2D2;}
	.st2{font-family:'HelveticaNeue-Bold';}
	.st3{font-size:32px;}
	.st4{font-family:'HelveticaNeue';}
	.st5{font-size:22px;}
	.st6{fill:#568312;}
	.st7{fill:#B0C590;}
	.st8{fill:#B04636;}
	.st9{fill:none;stroke:#B04636;stroke-width:7;stroke-miterlimit:10;}
	.st10{font-size:23px;}
	.st11{fill:none;stroke:#B04636;stroke-width:7.7406;stroke-miterlimit:10;}
</style>
<rect class="st0" width="650" height="400"/>
<g>
	<rect x="26.5" y="105.5" class="st0" width="597" height="293"/>
	<path class="st1" d="M622,107v290H28V107H622 M625,104H25v296h600V104L625,104z"/>
</g>
<g>
	<rect x="46.5" y="125.5" class="st0" width="557" height="253"/>
	<path class="st1" d="M602,127v250H48V127H602 M605,124H45v256h560V124L605,124z"/>
</g>
<g>
	<rect x="66.5" y="145.5" class="st0" width="517" height="42"/>
	<path class="st1" d="M582,147v39H68v-39H582 M585,144H65v45h520V144L585,144z"/>
</g>
<g>
	<rect x="66.5" y="248.5" class="st0" width="517" height="110"/>
	<path class="st1" d="M582,250v107H68V250H582 M585,247H65v113h520V247L585,247z"/>
</g>
<g>
	<rect x="86.5" y="268.5" class="st0" width="477" height="35"/>
	<path class="st1" d="M562,270v32H88v-32H562 M565,267H85v38h480V267L565,267z"/>
</g>
<g>
	<rect x="86.5" y="303.5" class="st0" width="477" height="35"/>
	<path class="st1" d="M562,305v32H88v-32H562 M565,302H85v38h480V302L565,302z"/>
</g>
<text transform="matrix(1 0 0 1 74.9998 176.4238)" class="st2 st3">This is a heading</text>
<text transform="matrix(1 0 0 1 95.0004 290.8535)" class="st4 st5">Lorem ipsum dolor sit amet, consectetuer adip</text>
<text transform="matrix(1 0 0 1 95.0004 325.8535)" class="st4 st5">iscing elit, sed diam euismod tincidunt ut</text>
<g>
	<g>
		<path class="st6" d="M365,199h-5.3v2.4h2.9v3.6h2.4V199L365,199z M354.4,199H349v2.4h5.3V199L354.4,199z M343.7,199h-5.3v2.4h5.3
			V199L343.7,199z M333.1,199h-5.3v2.4h5.3V199L333.1,199z M322.5,199h-5.3v2.4h5.3V199L322.5,199z M311.8,199h-5.3v2.4h5.3V199
			L311.8,199z M301.2,199h-5.3v2.4h5.3V199L301.2,199z M290.6,199h-5.3v2.4h5.3V199L290.6,199z M279.9,199h-5.3v2.4h5.3V199
			L279.9,199z M269.3,199H264v2.4h5.3V199L269.3,199z M258.7,199h-5.3v2.4h5.3V199L258.7,199z M248,199h-5.3v2.4h5.3V199L248,199z
			 M237.4,199h-5.3v2.4h5.3V199L237.4,199z M226.8,199h-5.3v2.4h5.3V199L226.8,199z M216.1,199h-5.3v2.4h5.3V199L216.1,199z
			 M205.5,199h-5.3v2.4h5.3V199L205.5,199z M194.9,199h-5.3v2.4h5.3V199L194.9,199z M184.2,199h-5.3v2.4h5.3V199L184.2,199z
			 M173.6,199h-5.3v2.4h5.3V199L173.6,199z M163,199h-5.3v2.4h5.3V199L163,199z M152.3,199H147v2.4h5.3V199L152.3,199z M141.7,199
			h-5.3v2.4h5.3V199L141.7,199z M131.1,199h-5.3v2.4h5.3V199L131.1,199z M120.4,199h-5.3v2.4h5.3V199L120.4,199z M109.8,199h-5.3
			v2.4h5.3V199L109.8,199z M99.2,199h-5.3v2.4h5.3V199L99.2,199z M88.5,199h-5.3v2.4h5.3V199L88.5,199z M77.9,199h-5.3v2.4h5.3V199
			L77.9,199z M67.4,199H65v2.4l0,0c0,0.4,0,0.6,0,0.6h2.4V199L67.4,199z M67.4,207.4H65v5.3h2.4V207.4L67.4,207.4z M67.4,218H65v5.3
			h2.4V218L67.4,218z M67.4,228.6H65v5.3h2.4V228.6L67.4,228.6z M72.6,234.6h-5.3v2.4h5.3V234.6L72.6,234.6z M83.2,234.6h-5.3v2.4
			h5.3V234.6L83.2,234.6z M93.9,234.6h-5.3v2.4h5.3V234.6L93.9,234.6z M104.5,234.6h-5.3v2.4h5.3V234.6L104.5,234.6z M115.1,234.6
			h-5.3v2.4h5.3V234.6L115.1,234.6z M125.8,234.6h-5.3v2.4h5.3V234.6L125.8,234.6z M136.4,234.6h-5.3v2.4h5.3V234.6L136.4,234.6z
			 M147,234.6h-5.3v2.4h5.3V234.6L147,234.6z M157.7,234.6h-5.3v2.4h5.3V234.6L157.7,234.6z M168.3,234.6H163v2.4h5.3V234.6
			L168.3,234.6z M178.9,234.6h-5.3v2.4h5.3V234.6L178.9,234.6z M189.6,234.6h-5.3v2.4h5.3V234.6L189.6,234.6z M200.2,234.6h-5.3v2.4
			h5.3V234.6L200.2,234.6z M210.8,234.6h-5.3v2.4h5.3V234.6L210.8,234.6z M221.5,234.6h-5.3v2.4h5.3V234.6L221.5,234.6z
			 M232.1,234.6h-5.3v2.4h5.3V234.6L232.1,234.6z M242.7,234.6h-5.3v2.4h5.3V234.6L242.7,234.6z M253.4,234.6h-5.3v2.4h5.3V234.6
			L253.4,234.6z M264,234.6h-5.3v2.4h5.3V234.6L264,234.6z M274.6,234.6h-5.3v2.4h5.3V234.6L274.6,234.6z M285.3,234.6H280v2.4h5.3
			V234.6L285.3,234.6z M295.9,234.6h-5.3v2.4h5.3V234.6L295.9,234.6z M306.5,234.6h-5.3v2.4h5.3V234.6L306.5,234.6z M317.2,234.6
			h-5.3v2.4h5.3V234.6L317.2,234.6z M327.8,234.6h-5.3v2.4h5.3V234.6L327.8,234.6z M338.4,234.6h-5.3v2.4h5.3V234.6L338.4,234.6z
			 M349.1,234.6h-5.3v2.4h5.3V234.6L349.1,234.6z M359.7,234.6h-5.3v2.4h5.3V234.6L359.7,234.6z M365,231.7h-2.4v5.3h2.4V231.7
			L365,231.7z M365,221h-2.4v5.3h2.4V221L365,221z M365,210.4h-2.4v5.3h2.4V210.4L365,210.4z"/>
	</g>
</g>
<g>
	<rect x="81.1" y="215.1" class="st7" width="297.7" height="35.7"/>
	<path class="st6" d="M377.7,216.3v33.4H82.3v-33.4H377.7 M380,214H80v38h300V214L380,214z"/>
</g>
<g>
	<g>
		<line class="st9" x1="319" y1="209.3" x2="319" y2="66"/>
		<g>
			<polygon class="st8" points="329.5,206.3 319,224.4 308.5,206.3 			"/>
		</g>
	</g>
</g>
<rect x="81" y="25" class="st8" width="476" height="41"/>
<text transform="matrix(1 0 0 1 96.5709 52.7109)" class="st0 st2 st10">Relatively-positioned element with width</text>
<text transform="matrix(1 0 0 1 89.9996 239.418)" class="st4 st5">Block-level element</text>
</svg>
