<?xml version="1.0" encoding="utf-8"?>
<!-- Generator: Adobe Illustrator 22.0.1, SVG Export Plug-In . SVG Version: 6.00 Build 0)  -->
<svg version="1.1" id="Layer_1" xmlns="http://www.w3.org/2000/svg" xmlns:xlink="http://www.w3.org/1999/xlink" x="0px" y="0px"
	 viewBox="0 0 650 400" style="enable-background:new 0 0 650 400;" xml:space="preserve">
<style type="text/css">
	.st0{fill:#FFFFFF;}
	.st1{fill:#D2D2D2;}
	.st2{fill:#B0C590;}
	.st3{fill:#568312;}
	.st4{fill:#B04636;}
	.st5{fill:none;stroke:#B04636;stroke-width:7;stroke-miterlimit:10;}
	.st6{font-family:'HelveticaNeue-Bold';}
	.st7{font-size:32px;}
	.st8{font-family:'HelveticaNeue';}
	.st9{font-size:22px;}
	.st10{font-size:23px;}
	.st11{fill:#91AE65;}
</style>
<rect class="st0" width="650" height="400"/>
<g>
	<rect x="26.5" y="105.5" class="st0" width="597" height="245"/>
	<path class="st1" d="M622,107v242H28V107H622 M625,104H25v248h600V104L625,104z"/>
</g>
<g>
	<rect x="46.5" y="125.5" class="st0" width="557" height="205"/>
	<path class="st1" d="M602,127v202H48V127H602 M605,124H45v208h560V124L605,124z"/>
</g>
<g>
	<rect x="66.5" y="145.5" class="st0" width="517" height="42"/>
	<path class="st1" d="M582,147v39H68v-39H582 M585,144H65v45h520V144L585,144z"/>
</g>
<g>
	<rect x="66.5" y="200.5" class="st0" width="517" height="110"/>
	<path class="st1" d="M582,202v107H68V202H582 M585,199H65v113h520V199L585,199z"/>
</g>
<g>
	<rect x="86.5" y="220.5" class="st0" width="477" height="35"/>
	<path class="st1" d="M562,222v32H88v-32H562 M565,219H85v38h480V219L565,219z"/>
</g>
<g>
	<rect x="86.5" y="255.5" class="st0" width="477" height="35"/>
	<path class="st1" d="M562,257v32H88v-32H562 M565,254H85v38h480V254L565,254z"/>
</g>
<text transform="matrix(1 0 0 1 75.0005 176.4238)" class="st6 st7">This is a heading</text>
<text transform="matrix(1 0 0 1 95.0006 242.8531)" class="st8 st9">Lorem ipsum dolor sit amet, consectetuer adip</text>
<text transform="matrix(1 0 0 1 95.0006 277.8531)" class="st8 st9">iscing elit, sed diam euismod tincidunt ut</text>
<g>
	<rect x="46.1" y="116.1" class="st2" width="147.8" height="117.8"/>
	<path class="st3" d="M192.8,117.2v115.6H47.2V117.2H192.8 M195,115H45v120h150V115L195,115z"/>
</g>
<text transform="matrix(1 0 0 1 54.9997 140.4177)" class="st8 st9">Test element</text>
<g>
	<g>
		<polyline class="st5" points="121,252.1 121,303 280,303 280,66 		"/>
		<g>
			<polygon class="st4" points="110.5,255.1 121,237 131.5,255.1 			"/>
		</g>
	</g>
</g>
<rect x="39.3" y="25" class="st4" width="300" height="41"/>
<text transform="matrix(1 0 0 1 53.8624 52.7115)" class="st0 st6 st10">Bottom property ignored</text>
</svg>
