<?xml version="1.0" encoding="utf-8"?>
<!-- Generator: Adobe Illustrator 22.0.1, SVG Export Plug-In . SVG Version: 6.00 Build 0)  -->
<svg version="1.1" id="Layer_1" xmlns="http://www.w3.org/2000/svg" xmlns:xlink="http://www.w3.org/1999/xlink" x="0px" y="0px"
	 viewBox="0 0 650 400" style="enable-background:new 0 0 650 400;" xml:space="preserve">
<style type="text/css">
	.st0{fill:#FFFFFF;}
	.st1{fill:#D2D2D2;}
	.st2{fill:#B0C590;}
	.st3{fill:#568312;}
	.st4{fill:#B04636;}
	.st5{fill:none;stroke:#B04636;stroke-width:7;stroke-miterlimit:10;}
	.st6{font-family:'HelveticaNeue-Bold';}
	.st7{font-size:32px;}
	.st8{font-family:'HelveticaNeue';}
	.st9{font-size:22px;}
	.st10{font-size:23px;}
	.st11{fill:#91AE65;}
</style>
<rect class="st0" width="650" height="400"/>
<g>
	<rect x="26.5" y="105.5" class="st0" width="597" height="245"/>
	<path class="st1" d="M622,107v242H28V107H622 M625,104H25v248h600V104L625,104z"/>
</g>
<g>
	<rect x="46.5" y="125.5" class="st0" width="557" height="205"/>
	<path class="st1" d="M602,127v202H48V127H602 M605,124H45v208h560V124L605,124z"/>
</g>
<g>
	<rect x="66.5" y="145.5" class="st0" width="517" height="42"/>
	<path class="st1" d="M582,147v39H68v-39H582 M585,144H65v45h520V144L585,144z"/>
</g>
<g>
	<rect x="66.5" y="200.5" class="st0" width="517" height="110"/>
	<path class="st1" d="M582,202v107H68V202H582 M585,199H65v113h520V199L585,199z"/>
</g>
<g>
	<rect x="86.5" y="220.5" class="st0" width="477" height="35"/>
	<path class="st1" d="M562,222v32H88v-32H562 M565,219H85v38h480V219L565,219z"/>
</g>
<g>
	<rect x="86.5" y="255.5" class="st0" width="477" height="35"/>
	<path class="st1" d="M562,257v32H88v-32H562 M565,254H85v38h480V254L565,254z"/>
</g>
<text transform="matrix(1 0 0 1 74.9998 176.4238)" class="st6 st7">This is a heading</text>
<text transform="matrix(1 0 0 1 95.0004 242.8535)" class="st8 st9">Lorem ipsum dolor sit amet, consectetuer adip</text>
<text transform="matrix(1 0 0 1 95.0004 277.8535)" class="st8 st9">iscing elit, sed diam euismod tincidunt ut</text>
<rect x="39.3" y="25" class="st4" width="590" height="41"/>
<text transform="matrix(1 0 0 1 53.8621 52.7109)" class="st0 st6 st10">Margin pushes element away from original position</text>
<g>
	<path class="st4" d="M295,124h-5v5l0,0v1h5V124L295,124z M285,124h-5v5h5V124L285,124z M275,124h-5v5h5V124L275,124z M265,124h-5v5
		h5V124L265,124z M255,124h-5v5h5V124L255,124z M245,124h-5v5h5V124L245,124z M235,124h-5v5h5V124L235,124z M225,124h-5v5h5V124
		L225,124z M215,124h-5v5h5V124L215,124z M205,124h-5v5h5V124L205,124z M195,124h-5v5h5V124L195,124z M185,124h-5v5h5V124L185,124z
		 M175,124h-5v5h5V124L175,124z M165,124h-5v5h5V124L165,124z M155,124h-5v5h5V124L155,124z M145,124h-5v5h5V124L145,124z M135,124
		h-5v5h5V124L135,124z M125,124h-5v5h5V124L125,124z M115,124h-5v5h5V124L115,124z M105,124h-5v5h5V124L105,124z M95,124h-5v5h5V124
		L95,124z M85,124h-5v5h5V124L85,124z M75,124h-5v5h5V124L75,124z M65,124h-5v5h5V124L65,124z M55,124H45v5h5l0,0h5V124L55,124z
		 M50,134h-5v5h5V134L50,134z M50,144h-5v5h5V144L50,144z M50,154h-5v5h5V154L50,154z M50,164h-5v5h5V164L50,164z M50,174h-5v5h5
		V174L50,174z M50,184h-5v5h5V184L50,184z M50,194h-5v5h5V194L50,194z M50,204h-5v5h5V204L50,204z M50,214h-5v5h5V214L50,214z
		 M50,224h-5v5h5V224L50,224z M50,234h-5v5h5V234L50,234z M50,244h-5v5h5V244L50,244z M50,254h-5v5h2v3h5v-5h-2V254L50,254z M62,257
		h-5v5h5V257L62,257z M72,257h-5v5h5V257L72,257z M82,257h-5v5h5V257L82,257z M92,257h-5v5h5V257L92,257z M102,257h-5v5h5V257
		L102,257z M112,257h-5v5h5V257L112,257z M122,257h-5v5h5V257L122,257z M132,257h-5v5h5V257L132,257z M142,257h-5v5h5V257L142,257z
		 M152,257h-5v5h5V257L152,257z M162,257h-5v5h5V257L162,257z M172,257h-5v5h5V257L172,257z M182,257h-5v5h5V257L182,257z M192,257
		h-5v5h5V257L192,257z M202,257h-5v5h5V257L202,257z M212,257h-5v5h5V257L212,257z M222,257h-5v5h5V257L222,257z M232,257h-5v5h5
		V257L232,257z M242,257h-5v5h5V257L242,257z M252,257h-5v5h5V257L252,257z M262,257h-5v5h5V257L262,257z M272,257h-5v5h5V257
		L272,257z M282,257h-5v5h5V257L282,257z M295,255h-5v2h-3v5h5v-2h3V255L295,255z M295,245h-5v5h5V245L295,245z M295,235h-5v5h5V235
		L295,235z M295,225h-5v5h5V225L295,225z M295,215h-5v5h5V215L295,215z M295,205h-5v5h5V205L295,205z M295,195h-5v5h5V195L295,195z
		 M295,185h-5v5h5V185L295,185z M295,175h-5v5h5V175L295,175z M295,165h-5v5h5V165L295,165z M295,155h-5v5h5V155L295,155z M295,145
		h-5v5h5V145L295,145z M295,135h-5v5h5V135L295,135z"/>
</g>
<g>
	<rect x="96.5" y="175.5" class="st2" width="147" height="35"/>
	<path class="st3" d="M242,177v32H98v-32H242 M245,174H95v38h150V174L245,174z"/>
</g>
<text transform="matrix(1 0 0 1 104.9996 199.418)" class="st8 st9">Test element</text>
<g>
	<g>
		<line class="st5" x1="59" y1="110.9" x2="59" y2="66"/>
		<g>
			<polygon class="st4" points="69.5,107.9 59,126 48.5,107.9 			"/>
		</g>
	</g>
</g>
</svg>
