<?xml version="1.0" encoding="utf-8"?>
<!-- Generator: Adobe Illustrator 22.0.1, SVG Export Plug-In . SVG Version: 6.00 Build 0)  -->
<svg version="1.1" id="Layer_1" xmlns="http://www.w3.org/2000/svg" xmlns:xlink="http://www.w3.org/1999/xlink" x="0px" y="0px"
	 viewBox="0 0 650 400" style="enable-background:new 0 0 650 400;" xml:space="preserve">
<style type="text/css">
	.st0{fill:#FFFFFF;}
	.st1{fill:#595959;}
	.st2{fill:#D2D2D2;}
	.st3{fill:#B0C590;}
	.st4{fill:#568312;}
	.st5{font-family:'HelveticaNeue-Bold';}
	.st6{font-size:32px;}
	.st7{font-family:'HelveticaNeue';}
	.st8{font-size:22px;}
	.st9{fill:#B04636;}
	.st10{font-size:23px;}
	.st11{fill:none;stroke:#B04636;stroke-width:7;stroke-miterlimit:10;}
	.st12{fill:#91AE65;}
</style>
<g>
	<g>
		<rect x="26.5" y="82.5" class="st0" width="597" height="298"/>
		<path class="st1" d="M622,84v295H28V84H622 M625,81H25v301h600V81L625,81z"/>
	</g>
	<g>
		<rect x="25" y="81" class="st1" width="600" height="56"/>
		<circle class="st0" cx="41.3" cy="95" r="6"/>
		<circle class="st0" cx="56.7" cy="95" r="6"/>
		<circle class="st0" cx="72" cy="95" r="6"/>
		<polygon class="st0" points="53.2,120.1 40.8,120.1 45.9,115.1 44.6,113.8 38.3,120.1 38.2,120.1 38.2,121.9 38.7,121.9 
			38.2,122.4 44.6,128.7 45.9,127.4 40.3,121.9 53.2,121.9 		"/>
		<polygon class="st0" points="62.7,120.1 75.1,120.1 70.1,115.1 71.4,113.8 77.7,120.1 77.7,120.1 77.7,121.9 77.3,121.9 
			77.7,122.4 71.4,128.7 70.1,127.4 75.6,121.9 62.7,121.9 		"/>
		<path class="st0" d="M446.2,129.5H101.7c-2.8,0-5-2.2-5-5v-10c0-2.8,2.2-5,5-5h344.5c2.8,0,5,2.2,5,5v10
			C451.2,127.2,449,129.5,446.2,129.5z"/>
		<path class="st0" d="M599.2,129.5h-130c-5.5,0-10-4.5-10-10v0c0-5.5,4.5-10,10-10h130c5.5,0,10,4.5,10,10v0
			C609.2,125,604.7,129.5,599.2,129.5z"/>
	</g>
</g>
<g>
	<rect x="46.5" y="155.5" class="st0" width="557" height="205"/>
	<path class="st2" d="M602,157v202H48V157H602 M605,154H45v208h560V154L605,154z"/>
</g>
<g>
	<rect x="66.5" y="175.5" class="st0" width="517" height="42"/>
	<path class="st2" d="M582,177v39H68v-39H582 M585,174H65v45h520V174L585,174z"/>
</g>
<g>
	<rect x="66.5" y="230.5" class="st0" width="517" height="110"/>
	<path class="st2" d="M582,232v107H68V232H582 M585,229H65v113h520V229L585,229z"/>
</g>
<g>
	<rect x="86.5" y="250.5" class="st0" width="477" height="35"/>
	<path class="st2" d="M562,252v32H88v-32H562 M565,249H85v38h480V249L565,249z"/>
</g>
<g>
	<rect x="86.5" y="285.5" class="st0" width="477" height="35"/>
	<path class="st2" d="M562,287v32H88v-32H562 M565,284H85v38h480V284L565,284z"/>
</g>
<text transform="matrix(1 0 0 1 74.9997 206.4238)" class="st5 st6">This is a heading</text>
<text transform="matrix(1 0 0 1 95.0003 272.8535)" class="st7 st8">Lorem ipsum dolor sit amet, consectetuer adip</text>
<text transform="matrix(1 0 0 1 95.0002 307.8535)" class="st7 st8">iscing elit, sed diam euismod tincidunt ut</text>
<rect x="25" y="15" class="st9" width="590" height="41"/>
<text transform="matrix(1 0 0 1 39.5287 42.7109)" class="st0 st5 st10">Margin pushes element away from original position</text>
<g>
	<g>
		<path class="st9" d="M278,137h-5v5l0,0v1h5V137L278,137z M268,137h-5v5h5V137L268,137z M258,137h-5v5h5V137L258,137z M248,137h-5
			v5h5V137L248,137z M238,137h-5v5h5V137L238,137z M228,137h-5v5h5V137L228,137z M218,137h-5v5h5V137L218,137z M208,137h-5v5h5V137
			L208,137z M198,137h-5v5h5V137L198,137z M188,137h-5v5h5V137L188,137z M178,137h-5v5h5V137L178,137z M168,137h-5v5h5V137L168,137z
			 M158,137h-5v5h5V137L158,137z M148,137h-5v5h5V137L148,137z M138,137h-5v5h5V137L138,137z M128,137h-5v5h5V137L128,137z M118,137
			h-5v5h5V137L118,137z M108,137h-5v5h5V137L108,137z M98,137h-5v5h5V137L98,137z M88,137h-5v5h5V137L88,137z M78,137h-5v5h5V137
			L78,137z M68,137h-5v5h5V137L68,137z M58,137h-5v5h5V137L58,137z M48,137h-5v5h5V137L48,137z M38,137H28v5h5l0,0h5V137L38,137z
			 M33,147h-5v5h5V147L33,147z M33,157h-5v5h5V157L33,157z M33,167h-5v5h5V167L33,167z M33,177h-5v5h5V177L33,177z M33,187h-5v5h5
			V187L33,187z M33,197h-5v5h5V197L33,197z M33,207h-5v5h5V207L33,207z M33,217h-5v5h5V217L33,217z M33,227h-5v5h5V227L33,227z
			 M33,237h-5v5h5V237L33,237z M33,247h-5v5h5V247L33,247z M33,257h-5v5h5V257L33,257z M33,267h-5v5h2v3h5v-5h-2V267L33,267z
			 M45,270h-5v5h5V270L45,270z M55,270h-5v5h5V270L55,270z M65,270h-5v5h5V270L65,270z M75,270h-5v5h5V270L75,270z M85,270h-5v5h5
			V270L85,270z M95,270h-5v5h5V270L95,270z M105,270h-5v5h5V270L105,270z M115,270h-5v5h5V270L115,270z M125,270h-5v5h5V270L125,270
			z M135,270h-5v5h5V270L135,270z M145,270h-5v5h5V270L145,270z M155,270h-5v5h5V270L155,270z M165,270h-5v5h5V270L165,270z
			 M175,270h-5v5h5V270L175,270z M185,270h-5v5h5V270L185,270z M195,270h-5v5h5V270L195,270z M205,270h-5v5h5V270L205,270z M215,270
			h-5v5h5V270L215,270z M225,270h-5v5h5V270L225,270z M235,270h-5v5h5V270L235,270z M245,270h-5v5h5V270L245,270z M255,270h-5v5h5
			V270L255,270z M265,270h-5v5h5V270L265,270z M278,268h-5v2h-3v5h5v-2h3V268L278,268z M278,258h-5v5h5V258L278,258z M278,248h-5v5
			h5V248L278,248z M278,238h-5v5h5V238L278,238z M278,228h-5v5h5V228L278,228z M278,218h-5v5h5V218L278,218z M278,208h-5v5h5V208
			L278,208z M278,198h-5v5h5V198L278,198z M278,188h-5v5h5V188L278,188z M278,178h-5v5h5V178L278,178z M278,168h-5v5h5V168L278,168z
			 M278,158h-5v5h5V158L278,158z M278,148h-5v5h5V148L278,148z"/>
	</g>
	<g>
		<rect x="79.5" y="188.5" class="st3" width="147" height="35"/>
		<path class="st4" d="M225,190v32H81v-32H225 M228,187H78v38h150V187L228,187z"/>
	</g>
	<text transform="matrix(1 0 0 1 87.9995 212.418)" class="st7 st8">Test element</text>
</g>
<g>
	<g>
		<line class="st11" x1="59" y1="149.9" x2="59" y2="56"/>
		<g>
			<polygon class="st9" points="69.5,146.9 59,165 48.5,146.9 			"/>
		</g>
	</g>
</g>
</svg>
