<?xml version="1.0" encoding="utf-8"?>
<!-- Generator: Adobe Illustrator 22.0.1, SVG Export Plug-In . SVG Version: 6.00 Build 0)  -->
<svg version="1.1" id="Layer_1" xmlns="http://www.w3.org/2000/svg" xmlns:xlink="http://www.w3.org/1999/xlink" x="0px" y="0px"
	 viewBox="0 0 650 400" style="enable-background:new 0 0 650 400;" xml:space="preserve">
<style type="text/css">
	.st0{fill:#FFFFFF;}
	.st1{fill:#D2D2D2;}
	.st2{fill:#568312;}
	.st3{fill:#B0C590;}
	.st4{fill:#B04636;}
	.st5{fill:none;stroke:#B04636;stroke-width:7;stroke-miterlimit:10;}
	.st6{fill:none;stroke:#B04636;stroke-width:7.7406;stroke-miterlimit:10;}
	.st7{font-family:'HelveticaNeue-Bold';}
	.st8{font-size:32px;}
	.st9{font-family:'HelveticaNeue';}
	.st10{font-size:22px;}
	.st11{font-size:23px;}
</style>
<rect class="st0" width="650" height="400"/>
<g>
	<rect x="26.5" y="65.5" class="st0" width="597" height="333"/>
	<path class="st1" d="M622,67v330H28V67H622 M625,64H25v336h600V64L625,64z"/>
</g>
<g>
	<rect x="46.5" y="85.5" class="st0" width="557" height="293"/>
	<path class="st1" d="M602,87v290H48V87H602 M605,84H45v296h560V84L605,84z"/>
</g>
<g>
	<rect x="66.5" y="105.5" class="st0" width="517" height="42"/>
	<path class="st1" d="M582,107v39H68v-39H582 M585,104H65v45h520V104L585,104z"/>
</g>
<g>
	<rect x="66.5" y="248.5" class="st0" width="517" height="110"/>
	<path class="st1" d="M582,250v107H68V250H582 M585,247H65v113h520V247L585,247z"/>
</g>
<g>
	<rect x="86.5" y="268.5" class="st0" width="477" height="35"/>
	<path class="st1" d="M562,270v32H88v-32H562 M565,267H85v38h480V267L565,267z"/>
</g>
<g>
	<rect x="86.5" y="303.5" class="st0" width="477" height="35"/>
	<path class="st1" d="M562,305v32H88v-32H562 M565,302H85v38h480V302L565,302z"/>
</g>
<text transform="matrix(1 0 0 1 74.9998 136.4238)" class="st7 st8">This is a heading</text>
<text transform="matrix(1 0 0 1 95.0004 290.8535)" class="st9 st10">Lorem ipsum dolor sit amet, consectetuer adip</text>
<text transform="matrix(1 0 0 1 95.0004 325.8535)" class="st9 st10">iscing elit, sed diam euismod tincidunt ut</text>
<g>
	<g>
		<path class="st2" d="M585,159h-5.3v3h5.3V159L585,159z M574.4,159H569v3h5.3V159L574.4,159z M563.7,159h-5.3v3h5.3V159L563.7,159z
			 M553.1,159h-5.3v3h5.3V159L553.1,159z M542.5,159h-5.3v3h5.3V159L542.5,159z M531.8,159h-5.3v3h5.3V159L531.8,159z M521.2,159
			h-5.3v3h5.3V159L521.2,159z M510.6,159h-5.3v3h5.3V159L510.6,159z M499.9,159h-5.3v3h5.3V159L499.9,159z M489.3,159H484v3h5.3V159
			L489.3,159z M478.7,159h-5.3v3h5.3V159L478.7,159z M468,159h-5.3v3h5.3V159L468,159z M457.4,159h-5.3v3h5.3V159L457.4,159z
			 M446.8,159h-5.3v3h5.3V159L446.8,159z M436.1,159h-5.3v3h5.3V159L436.1,159z M425.5,159h-5.3v3h5.3V159L425.5,159z M414.9,159
			h-5.3v3h5.3V159L414.9,159z M404.2,159h-5.3v3h5.3V159L404.2,159z M393.6,159h-5.3v3h5.3V159L393.6,159z M383,159h-5.3v3h5.3V159
			L383,159z M372.3,159H367v3h5.3V159L372.3,159z M361.7,159h-5.3v3h5.3V159L361.7,159z M351.1,159h-5.3v3h5.3V159L351.1,159z
			 M340.4,159h-5.3v3h5.3V159L340.4,159z M329.8,159h-5.3v3h5.3V159L329.8,159z M319.2,159h-5.3v3h5.3V159L319.2,159z M308.5,159
			h-5.3v3h5.3V159L308.5,159z M297.9,159h-5.3v3h5.3V159L297.9,159z M287.3,159h-5.3v3h5.3V159L287.3,159z M276.6,159h-5.3v3h5.3
			V159L276.6,159z M266,159h-5.3v3h5.3V159L266,159z M255.4,159H250v3h5.3V159L255.4,159z M244.7,159h-5.3v3h5.3V159L244.7,159z
			 M234.1,159h-5.3v3h5.3V159L234.1,159z M223.5,159h-5.3v3h5.3V159L223.5,159z M212.8,159h-5.3v3h5.3V159L212.8,159z M202.2,159
			h-5.3v3h5.3V159L202.2,159z M191.6,159h-5.3v3h5.3V159L191.6,159z M180.9,159h-5.3v3h5.3V159L180.9,159z M170.3,159H165v3h5.3V159
			L170.3,159z M159.6,159h-5.3v3h5.3V159L159.6,159z M149,159h-5.3v3h5.3V159L149,159z M138.4,159h-5.3v3h5.3V159L138.4,159z
			 M127.7,159h-5.3v3h5.3V159L127.7,159z M117.1,159h-5.3v3h5.3V159L117.1,159z M106.5,159h-5.3v3h5.3V159L106.5,159z M95.8,159
			h-5.3v3h5.3V159L95.8,159z M85.2,159h-5.3v3h5.3V159L85.2,159z M74.6,159h-5.3v3h5.3V159L74.6,159z M68,160.1h-3v5.3h3V160.1
			L68,160.1z M68,170.7h-3v5.3h3V170.7L68,170.7z M68,181.3h-3v5.3h3V181.3L68,181.3z M68,192h-3v5h3l0,0l0,0l0,0V192L68,192z
			 M75.9,194h-5.3v3h5.3V194L75.9,194z M86.5,194h-5.3v3h5.3V194L86.5,194z M97.2,194h-5.3v3h5.3V194L97.2,194z M107.8,194h-5.3v3
			h5.3V194L107.8,194z M118.4,194h-5.3v3h5.3V194L118.4,194z M129.1,194h-5.3v3h5.3V194L129.1,194z M139.7,194h-5.3v3h5.3V194
			L139.7,194z M150.3,194H145v3h5.3V194L150.3,194z M161,194h-5.3v3h5.3V194L161,194z M171.6,194h-5.3v3h5.3V194L171.6,194z
			 M182.2,194h-5.3v3h5.3V194L182.2,194z M192.9,194h-5.3v3h5.3V194L192.9,194z M203.5,194h-5.3v3h5.3V194L203.5,194z M214.1,194
			h-5.3v3h5.3V194L214.1,194z M224.8,194h-5.3v3h5.3V194L224.8,194z M235.4,194h-5.3v3h5.3V194L235.4,194z M246,194h-5.3v3h5.3V194
			L246,194z M256.7,194h-5.3v3h5.3V194L256.7,194z M267.3,194H262v3h5.3V194L267.3,194z M277.9,194h-5.3v3h5.3V194L277.9,194z
			 M288.6,194h-5.3v3h5.3V194L288.6,194z M299.2,194h-5.3v3h5.3V194L299.2,194z M309.8,194h-5.3v3h5.3V194L309.8,194z M320.5,194
			h-5.3v3h5.3V194L320.5,194z M331.1,194h-5.3v3h5.3V194L331.1,194z M341.8,194h-5.3v3h5.3V194L341.8,194z M352.4,194h-5.3v3h5.3
			V194L352.4,194z M363,194h-5.3v3h5.3V194L363,194z M373.7,194h-5.3v3h5.3V194L373.7,194z M384.3,194H379v3h5.3V194L384.3,194z
			 M394.9,194h-5.3v3h5.3V194L394.9,194z M405.6,194h-5.3v3h5.3V194L405.6,194z M416.2,194h-5.3v3h5.3V194L416.2,194z M426.8,194
			h-5.3v3h5.3V194L426.8,194z M437.5,194h-5.3v3h5.3V194L437.5,194z M448.1,194h-5.3v3h5.3V194L448.1,194z M458.7,194h-5.3v3h5.3
			V194L458.7,194z M469.4,194H464v3h5.3V194L469.4,194z M480,194h-5.3v3h5.3V194L480,194z M490.6,194h-5.3v3h5.3V194L490.6,194z
			 M501.3,194h-5.3v3h5.3V194L501.3,194z M511.9,194h-5.3v3h5.3V194L511.9,194z M522.5,194h-5.3v3h5.3V194L522.5,194z M533.2,194
			h-5.3v3h5.3V194L533.2,194z M543.8,194h-5.3v3h5.3V194L543.8,194z M554.4,194h-5.3v3h5.3V194L554.4,194z M565.1,194h-5.3v3h5.3
			V194L565.1,194z M575.7,194h-5.3v3h5.3V194L575.7,194z M585,194h-4v3h4V194L585,194z M585,185h-3v5.3h3V185L585,185z M585,174.4
			h-3v5.3h3V174.4L585,174.4z M585,163.8h-3v5.3h3V163.8L585,163.8z"/>
	</g>
</g>
<rect x="65" y="10" class="st4" width="520" height="41"/>
<text transform="matrix(1 0 0 1 79.5288 37.7109)" class="st0 st7 st11">Margin reduces width of stretched element</text>
<g>
	<g>
		<g>
			<path class="st4" d="M585,174h-5v5l0,0v1h5V174L585,174z M575,174h-5v5h5V174L575,174z M565,174h-5v5h5V174L565,174z M555,174h-5
				v5h5V174L555,174z M545,174h-5v5h5V174L545,174z M535,174h-5v5h5V174L535,174z M525,174h-5v5h5V174L525,174z M515,174h-5v5h5V174
				L515,174z M505,174h-5v5h5V174L505,174z M495,174h-5v5h5V174L495,174z M485,174h-5v5h5V174L485,174z M475,174h-5v5h5V174L475,174
				z M465,174h-5v5h5V174L465,174z M455,174h-5v5h5V174L455,174z M445,174h-5v5h5V174L445,174z M435,174h-5v5h5V174L435,174z
				 M425,174h-5v5h5V174L425,174z M415,174h-5v5h5V174L415,174z M405,174h-5v5h5V174L405,174z M395,174h-5v5h5V174L395,174z
				 M385,174h-5v5h5V174L385,174z M375,174h-5v5h5V174L375,174z M365,174h-5v5h5V174L365,174z M355,174h-5v5h5V174L355,174z
				 M345,174h-5v5h5V174L345,174z M335,174h-5v5h5V174L335,174z M325,174h-5v5h5V174L325,174z M315,174h-5v5h5V174L315,174z
				 M305,174h-5v5h5V174L305,174z M295,174h-5v5h5V174L295,174z M285,174h-5v5h5V174L285,174z M275,174h-5v5h5V174L275,174z
				 M265,174h-5v5h5V174L265,174z M255,174h-5v5h5V174L255,174z M245,174h-5v5h5V174L245,174z M235,174h-5v5h5V174L235,174z
				 M225,174h-5v5h5V174L225,174z M215,174h-5v5h5V174L215,174z M205,174h-5v5h5V174L205,174z M195,174h-5v5h5V174L195,174z
				 M185,174h-5v5h5V174L185,174z M175,174h-5v5h5V174L175,174z M165,174h-5v5h5V174L165,174z M155,174h-5v5h5V174L155,174z
				 M145,174h-5v5h5V174L145,174z M135,174h-5v5h5V174L135,174z M125,174h-5v5h5V174L125,174z M115,174h-5v5h5V174L115,174z
				 M105,174h-5v5h5V174L105,174z M95,174h-5v5h5V174L95,174z M85,174h-5v5h5V174L85,174z M75,174H65v5h5l0,0h5V174L75,174z M70,184
				h-5v5h5V184L70,184z M70,194h-5v5h5V194L70,194z M70,204h-5v5h5V204L70,204z M70,214h-5v5h5V214L70,214z M70,224h-5v5h5V224
				L70,224z M70,234h-5v5h5V234L70,234z M70,244h-5v5h2v3h5v-5h-2V244L70,244z M82,247h-5v5h5V247L82,247z M92,247h-5v5h5V247
				L92,247z M102,247h-5v5h5V247L102,247z M112,247h-5v5h5V247L112,247z M122,247h-5v5h5V247L122,247z M132,247h-5v5h5V247L132,247z
				 M142,247h-5v5h5V247L142,247z M152,247h-5v5h5V247L152,247z M162,247h-5v5h5V247L162,247z M172,247h-5v5h5V247L172,247z
				 M182,247h-5v5h5V247L182,247z M192,247h-5v5h5V247L192,247z M202,247h-5v5h5V247L202,247z M212,247h-5v5h5V247L212,247z
				 M222,247h-5v5h5V247L222,247z M232,247h-5v5h5V247L232,247z M242,247h-5v5h5V247L242,247z M252,247h-5v5h5V247L252,247z
				 M262,247h-5v5h5V247L262,247z M272,247h-5v5h5V247L272,247z M282,247h-5v5h5V247L282,247z M292,247h-5v5h5V247L292,247z
				 M302,247h-5v5h5V247L302,247z M312,247h-5v5h5V247L312,247z M322,247h-5v5h5V247L322,247z M332,247h-5v5h5V247L332,247z
				 M342,247h-5v5h5V247L342,247z M352,247h-5v5h5V247L352,247z M362,247h-5v5h5V247L362,247z M372,247h-5v5h5V247L372,247z
				 M382,247h-5v5h5V247L382,247z M392,247h-5v5h5V247L392,247z M402,247h-5v5h5V247L402,247z M412,247h-5v5h5V247L412,247z
				 M422,247h-5v5h5V247L422,247z M432,247h-5v5h5V247L432,247z M442,247h-5v5h5V247L442,247z M452,247h-5v5h5V247L452,247z
				 M462,247h-5v5h5V247L462,247z M472,247h-5v5h5V247L472,247z M482,247h-5v5h5V247L482,247z M492,247h-5v5h5V247L492,247z
				 M502,247h-5v5h5V247L502,247z M512,247h-5v5h5V247L512,247z M522,247h-5v5h5V247L522,247z M532,247h-5v5h5V247L532,247z
				 M542,247h-5v5h5V247L542,247z M552,247h-5v5h5V247L552,247z M562,247h-5v5h5V247L562,247z M572,247h-5v5h5V247L572,247z
				 M585,245h-5v2h-3v5h5v-2h3V245L585,245z M585,235h-5v5h5V235L585,235z M585,225h-5v5h5V225L585,225z M585,215h-5v5h5V215
				L585,215z M585,205h-5v5h5V205L585,205z M585,195h-5v5h5V195L585,195z M585,185h-5v5h5V185L585,185z"/>
		</g>
	</g>
	<g>
		<rect x="86.9" y="195.9" class="st3" width="476.2" height="34.2"/>
		<path class="st2" d="M561.2,197.8v30.4H88.8v-30.4H561.2 M565,194H85v38h480V194L565,194z"/>
	</g>
	<text transform="matrix(1 0 0 1 94.9996 219.418)" class="st9 st10">Block-level element</text>
</g>
<g>
	<g>
		<line class="st5" x1="76.5" y1="191.4" x2="76.5" y2="49.5"/>
		<g>
			<polygon class="st4" points="87,188.4 76.5,206.5 66,188.4 			"/>
		</g>
	</g>
</g>
<g>
	<g>
		<line class="st5" x1="576" y1="191.4" x2="576" y2="49.5"/>
		<g>
			<polygon class="st4" points="586.5,188.4 576,206.5 565.5,188.4 			"/>
		</g>
	</g>
</g>
</svg>
