<?xml version="1.0" encoding="utf-8"?>
<!-- Generator: Adobe Illustrator 22.0.1, SVG Export Plug-In . SVG Version: 6.00 Build 0)  -->
<svg version="1.1" id="Layer_1" xmlns="http://www.w3.org/2000/svg" xmlns:xlink="http://www.w3.org/1999/xlink" x="0px" y="0px"
	 viewBox="0 0 650 400" style="enable-background:new 0 0 650 400;" xml:space="preserve">
<style type="text/css">
	.st0{fill:#FFFFFF;}
	.st1{fill:#595959;}
	.st2{fill:#D2D2D2;}
	.st3{font-family:'HelveticaNeue';}
	.st4{font-size:24px;}
	.st5{font-family:'HelveticaNeue-Bold';}
	.st6{font-size:26px;}
	.st7{fill:none;stroke:#B04636;stroke-width:7;stroke-miterlimit:10;}
	.st8{fill:#B04636;}
	.st9{font-size:23px;}
	.st10{fill:#969696;}
</style>
<g>
	<g>
		<rect x="11.5" y="77.5" class="st0" width="626" height="312"/>
		<path class="st1" d="M636,79v309H13V79H636 M639,76H10v315h629V76L639,76z"/>
	</g>
	<g>
		<rect x="10" y="76" class="st1" width="629" height="56"/>
		<circle class="st0" cx="26.3" cy="90" r="6"/>
		<circle class="st0" cx="41.7" cy="90" r="6"/>
		<circle class="st0" cx="57" cy="90" r="6"/>
		<polygon class="st0" points="38.2,115.1 25.8,115.1 30.9,110.1 29.6,108.8 23.3,115.1 23.2,115.1 23.2,116.9 23.7,116.9 
			23.2,117.4 29.6,123.7 30.9,122.4 25.3,116.9 38.2,116.9 		"/>
		<polygon class="st0" points="47.7,115.1 60.1,115.1 55.1,110.1 56.4,108.8 62.7,115.1 62.7,115.1 62.7,116.9 62.3,116.9 
			62.7,117.4 56.4,123.7 55.1,122.4 60.6,116.9 47.7,116.9 		"/>
		<path class="st0" d="M431.2,124.5H86.7c-2.8,0-5-2.2-5-5v-10c0-2.8,2.2-5,5-5h344.5c2.8,0,5,2.2,5,5v10
			C436.2,122.2,434,124.5,431.2,124.5z"/>
		<path class="st0" d="M619.2,124.5h-130c-5.5,0-10-4.5-10-10v0c0-5.5,4.5-10,10-10h130c5.5,0,10,4.5,10,10v0
			C629.2,120,624.7,124.5,619.2,124.5z"/>
	</g>
</g>
<g>
	<rect x="24" y="171" class="st2" width="581" height="3"/>
</g>
<g>
	<rect x="24" y="216" class="st2" width="581" height="3"/>
</g>
<g>
	<rect x="24" y="261" class="st2" width="581" height="3"/>
</g>
<g>
	<rect x="24" y="306" class="st2" width="581" height="3"/>
</g>
<g>
	<rect x="24" y="351" class="st2" width="581" height="3"/>
</g>
<g>
	<rect x="24" y="264" width="581" height="45"/>
</g>
<text transform="matrix(1 0 0 1 34.1438 158.5674)"><tspan x="0" y="0" class="st3 st4">Alderton, May</tspan><tspan x="0" y="45" class="st3 st4">Amber, John</tspan><tspan x="0" y="90" class="st3 st4">Arnott, Jill</tspan></text>
<text transform="matrix(1 0 0 1 33.9998 338.5674)"><tspan x="0" y="0" class="st3 st4">Banner, Eric</tspan><tspan x="0" y="45" class="st3 st4">Bennet, Elizabeth</tspan></text>
<text transform="matrix(1 0 0 1 34.1678 293.4961)" class="st0 st5 st6">B</text>
<g>
	<g>
		<line class="st7" x1="314.5" y1="248.9" x2="314.5" y2="46"/>
		<g>
			<polygon class="st8" points="325,245.9 314.5,264 304,245.9 			"/>
		</g>
	</g>
</g>
<rect x="207.5" y="5" class="st8" width="214" height="41"/>
<text transform="matrix(1 0 0 1 222.0288 32.7109)" class="st0 st5 st9">position: relative</text>
<g>
	<rect x="615" y="132" class="st2" width="22" height="256"/>
</g>
<path class="st10" d="M627,274L627,274c-3.8,0-7-3.1-7-7v-86c0-3.9,3.2-7,7-7l0,0c3.8,0,7,3.1,7,7v86C634,270.9,630.8,274,627,274z"
	/>
</svg>
