<?xml version="1.0" encoding="utf-8"?>
<!-- Generator: Adobe Illustrator 22.0.1, SVG Export Plug-In . SVG Version: 6.00 Build 0)  -->
<svg version="1.1" id="Layer_1" xmlns="http://www.w3.org/2000/svg" xmlns:xlink="http://www.w3.org/1999/xlink" x="0px" y="0px"
	 viewBox="0 0 650 400" style="enable-background:new 0 0 650 400;" xml:space="preserve">
<style type="text/css">
	.st0{fill:#FFFFFF;}
	.st1{fill:#D2D2D2;}
	.st2{fill:#568312;}
	.st3{fill:#B0C590;}
	.st4{font-family:'HelveticaNeue-Bold';}
	.st5{font-size:32px;}
	.st6{font-family:'HelveticaNeue';}
	.st7{font-size:22px;}
	.st8{fill:#B04636;}
	.st9{fill:none;stroke:#B04636;stroke-width:7;stroke-miterlimit:10;}
	.st10{font-size:23px;}
	.st11{fill:none;stroke:#B04636;stroke-width:7.7406;stroke-miterlimit:10;}
</style>
<rect class="st0" width="650" height="400"/>
<g>
	<rect x="26.5" y="105.5" class="st0" width="597" height="293"/>
	<path class="st1" d="M622,107v290H28V107H622 M625,104H25v296h600V104L625,104z"/>
</g>
<g>
	<rect x="46.5" y="125.5" class="st0" width="557" height="253"/>
	<path class="st1" d="M602,127v250H48V127H602 M605,124H45v256h560V124L605,124z"/>
</g>
<g>
	<rect x="66.5" y="145.5" class="st0" width="517" height="42"/>
	<path class="st1" d="M582,147v39H68v-39H582 M585,144H65v45h520V144L585,144z"/>
</g>
<g>
	<rect x="66.5" y="248.5" class="st0" width="517" height="110"/>
	<path class="st1" d="M582,250v107H68V250H582 M585,247H65v113h520V247L585,247z"/>
</g>
<g>
	<rect x="86.5" y="268.5" class="st0" width="477" height="35"/>
	<path class="st1" d="M562,270v32H88v-32H562 M565,267H85v38h480V267L565,267z"/>
</g>
<g>
	<rect x="86.5" y="303.5" class="st0" width="477" height="35"/>
	<path class="st1" d="M562,305v32H88v-32H562 M565,302H85v38h480V302L565,302z"/>
</g>
<text transform="matrix(1 0 0 1 74.9998 176.4238)" class="st4 st5">This is a heading</text>
<text transform="matrix(1 0 0 1 95.0004 290.8535)" class="st6 st7">Lorem ipsum dolor sit amet, consectetuer adip</text>
<text transform="matrix(1 0 0 1 95.0004 325.8535)" class="st6 st7">iscing elit, sed diam euismod tincidunt ut</text>
<g>
	<g>
		<path class="st2" d="M585,199h-7v3.2h3.8v6.8h3.2V199L585,199z M571,199h-7v3.2h7V199L571,199z M557,199h-7v3.2h7V199L557,199z
			 M543,199h-7v3.2h7V199L543,199z M529,199h-7v3.2h7V199L529,199z M515,199h-7v3.2h7V199L515,199z M501,199h-7v3.2h7V199L501,199z
			 M487,199h-7v3.2h7V199L487,199z M473,199h-7v3.2h7V199L473,199z M459,199h-7v3.2h7V199L459,199z M445,199h-7v3.2h7V199L445,199z
			 M431,199h-7v3.2h7V199L431,199z M417,199h-7v3.2h7V199L417,199z M403,199h-7v3.2h7V199L403,199z M389,199h-7v3.2h7V199L389,199z
			 M375,199h-7v3.2h7V199L375,199z M361,199h-7v3.2h7V199L361,199z M347,199h-7v3.2h7V199L347,199z M333,199h-7v3.2h7V199L333,199z
			 M319,199h-7v3.2h7V199L319,199z M305,199h-7v3.2h7V199L305,199z M291,199h-7v3.2h7V199L291,199z M277,199h-7v3.2h7V199L277,199z
			 M263,199h-7v3.2h7V199L263,199z M249,199h-7v3.2h7V199L249,199z M235,199h-7v3.2h7V199L235,199z M221,199h-7v3.2h7V199L221,199z
			 M207,199h-7v3.2h7V199L207,199z M193,199h-7v3.2h7V199L193,199z M179,199h-7v3.2h7V199L179,199z M165,199h-7v3.2h7V199L165,199z
			 M151,199h-7v3.2h7V199L151,199z M137,199h-7v3.2h7V199L137,199z M123,199h-7v3.2h7V199L123,199z M109,199h-7v3.2h7V199L109,199z
			 M95,199h-7v3.2h7V199L95,199z M81,199h-7v3.2h7V199L81,199z M68.2,199H65v3.2l0,0c0,1,0,1.8,0,1.8h3.2V199L68.2,199z M68.2,211
			H65v7h3.2V211L68.2,211z M68.2,225H65v7h3.2V225L68.2,225z M74,233.8h-7v3.2h7V233.8L74,233.8z M88,233.8h-7v3.2h7V233.8L88,233.8
			z M102,233.8h-7v3.2h7V233.8L102,233.8z M116,233.8h-7v3.2h7V233.8L116,233.8z M130,233.8h-7v3.2h7V233.8L130,233.8z M144,233.8
			h-7v3.2h7V233.8L144,233.8z M158,233.8h-7v3.2h7V233.8L158,233.8z M172,233.8h-7v3.2h7V233.8L172,233.8z M186,233.8h-7v3.2h7
			V233.8L186,233.8z M200,233.8h-7v3.2h7V233.8L200,233.8z M214,233.8h-7v3.2h7V233.8L214,233.8z M228,233.8h-7v3.2h7V233.8
			L228,233.8z M242,233.8h-7v3.2h7V233.8L242,233.8z M256,233.8h-7v3.2h7V233.8L256,233.8z M270,233.8h-7v3.2h7V233.8L270,233.8z
			 M284,233.8h-7v3.2h7V233.8L284,233.8z M298,233.8h-7v3.2h7V233.8L298,233.8z M312,233.8h-7v3.2h7V233.8L312,233.8z M326,233.8h-7
			v3.2h7V233.8L326,233.8z M340,233.8h-7v3.2h7V233.8L340,233.8z M354,233.8h-7v3.2h7V233.8L354,233.8z M368,233.8h-7v3.2h7V233.8
			L368,233.8z M382,233.8h-7v3.2h7V233.8L382,233.8z M396,233.8h-7v3.2h7V233.8L396,233.8z M410,233.8h-7v3.2h7V233.8L410,233.8z
			 M424,233.8h-7v3.2h7V233.8L424,233.8z M438,233.8h-7v3.2h7V233.8L438,233.8z M452,233.8h-7v3.2h7V233.8L452,233.8z M466,233.8h-7
			v3.2h7V233.8L466,233.8z M480,233.8h-7v3.2h7V233.8L480,233.8z M494,233.8h-7v3.2h7V233.8L494,233.8z M508,233.8h-7v3.2h7V233.8
			L508,233.8z M522,233.8h-7v3.2h7V233.8L522,233.8z M536,233.8h-7v3.2h7V233.8L536,233.8z M550,233.8h-7v3.2h7V233.8L550,233.8z
			 M564,233.8h-7v3.2h7V233.8L564,233.8z M578,233.8h-7v3.2h7V233.8L578,233.8z M585,230h-3.2v7h3.2V230L585,230z M585,216h-3.2v7
			h3.2V216L585,216z"/>
	</g>
</g>
<g>
	<g>
		<line class="st9" x1="90" y1="199.9" x2="90" y2="65"/>
		<g>
			<polygon class="st8" points="100.5,196.9 90,215 79.5,196.9 			"/>
		</g>
	</g>
</g>
<rect x="20" y="25" class="st8" width="480" height="41"/>
<text transform="matrix(1 0 0 1 34.5284 52.7109)" class="st0 st4 st10">Block-level relatively-positioned element</text>
<g>
	<rect x="81.5" y="215.5" class="st3" width="517" height="35"/>
	<path class="st2" d="M597,217v32H83v-32H597 M600,214H80v38h520V214L600,214z"/>
</g>
<text transform="matrix(1 0 0 1 89.9996 239.418)" class="st6 st7">Block-level element</text>
</svg>
