<?xml version="1.0" encoding="utf-8"?>
<!-- Generator: Adobe Illustrator 22.0.1, SVG Export Plug-In . SVG Version: 6.00 Build 0)  -->
<svg version="1.1" id="Layer_1" xmlns="http://www.w3.org/2000/svg" xmlns:xlink="http://www.w3.org/1999/xlink" x="0px" y="0px"
	 viewBox="0 0 650 400" style="enable-background:new 0 0 650 400;" xml:space="preserve">
<style type="text/css">
	.st0{fill:#FFFFFF;}
	.st1{fill:#595959;}
	.st2{fill:#D2D2D2;}
	.st3{fill:none;stroke:#B04636;stroke-width:7;stroke-miterlimit:10;}
	.st4{fill:#B04636;}
	.st5{fill:#969696;}
	.st6{font-family:'HelveticaNeue';}
	.st7{font-size:24px;}
	.st8{font-family:'HelveticaNeue-Bold';}
	.st9{font-size:26px;}
	.st10{font-size:23px;}
</style>
<g>
	<g>
		<rect x="11.5" y="77.5" class="st0" width="626" height="312"/>
		<path class="st1" d="M636,79v309H13V79H636 M639,76H10v315h629V76L639,76z"/>
	</g>
	<g>
		<rect x="10" y="76" class="st1" width="629" height="56"/>
		<circle class="st0" cx="26.3" cy="90" r="6"/>
		<circle class="st0" cx="41.7" cy="90" r="6"/>
		<circle class="st0" cx="57" cy="90" r="6"/>
		<polygon class="st0" points="38.2,115.1 25.8,115.1 30.9,110.1 29.6,108.8 23.3,115.1 23.2,115.1 23.2,116.9 23.7,116.9 
			23.2,117.4 29.6,123.7 30.9,122.4 25.3,116.9 38.2,116.9 		"/>
		<polygon class="st0" points="47.7,115.1 60.1,115.1 55.1,110.1 56.4,108.8 62.7,115.1 62.7,115.1 62.7,116.9 62.3,116.9 
			62.7,117.4 56.4,123.7 55.1,122.4 60.6,116.9 47.7,116.9 		"/>
		<path class="st0" d="M431.2,124.5H86.7c-2.8,0-5-2.2-5-5v-10c0-2.8,2.2-5,5-5h344.5c2.8,0,5,2.2,5,5v10
			C436.2,122.2,434,124.5,431.2,124.5z"/>
		<path class="st0" d="M619.2,124.5h-130c-5.5,0-10-4.5-10-10v0c0-5.5,4.5-10,10-10h130c5.5,0,10,4.5,10,10v0
			C629.2,120,624.7,124.5,619.2,124.5z"/>
	</g>
</g>
<g>
	<rect x="24" y="202" class="st2" width="581" height="3"/>
</g>
<g>
	<rect x="24" y="157" class="st2" width="581" height="3"/>
</g>
<g>
	<rect x="24" y="247" class="st2" width="581" height="3"/>
</g>
<g>
	<rect x="24" y="292" class="st2" width="581" height="3"/>
</g>
<text transform="matrix(1 0 0 1 33.9998 187.5674)"><tspan x="0" y="0" class="st6 st7">Bird, Zac</tspan><tspan x="0" y="45" class="st6 st7">Buckley, Chantell</tspan><tspan x="0" y="90" class="st6 st7">Byron, Frank</tspan></text>
<g>
	<rect x="24" y="337" class="st2" width="581" height="3"/>
</g>
<g>
	<rect x="24" y="382" class="st2" width="581" height="3"/>
</g>
<g>
	<rect x="24" y="295" width="581" height="45"/>
</g>
<text transform="matrix(1 0 0 1 33.9998 369.5674)" class="st6 st7">Cabbage, Bill</text>
<text transform="matrix(1 0 0 1 34.1678 324.4961)" class="st0 st8 st9">C</text>
<g>
	<rect x="615" y="132" class="st2" width="22" height="256"/>
</g>
<path class="st5" d="M627,274L627,274c-3.8,0-7-3.1-7-7v-86c0-3.9,3.2-7,7-7l0,0c3.8,0,7,3.1,7,7v86C634,270.9,630.8,274,627,274z"
	/>
<g>
	<rect x="24" y="132" width="581" height="45"/>
</g>
<text transform="matrix(1 0 0 1 34.1678 161.4961)" class="st0 st8 st9">B</text>
<g>
	<g>
		<line class="st3" x1="314.6" y1="116.9" x2="314.6" y2="46"/>
		<g>
			<polygon class="st4" points="325,113.9 314.6,132 304.1,113.9 			"/>
		</g>
	</g>
</g>
<rect x="82.2" y="5" class="st4" width="464.7" height="41"/>
<text transform="matrix(1 0 0 1 96.6956 32.7109)" class="st0 st8 st10">position: fixed, sticky to top of viewport</text>
</svg>
