<?xml version="1.0" encoding="utf-8"?>
<!-- Generator: Adobe Illustrator 22.0.1, SVG Export Plug-In . SVG Version: 6.00 Build 0)  -->
<svg version="1.1" id="Layer_1" xmlns="http://www.w3.org/2000/svg" xmlns:xlink="http://www.w3.org/1999/xlink" x="0px" y="0px"
	 viewBox="0 0 650 400" style="enable-background:new 0 0 650 400;" xml:space="preserve">
<style type="text/css">
	.st0{fill:#FFFFFF;}
	.st1{fill:#D2D2D2;}
	.st2{fill:#B0C590;}
	.st3{fill:#568312;}
	.st4{fill:#B04636;}
	.st5{fill:none;stroke:#B04636;stroke-width:7;stroke-miterlimit:10;}
	.st6{font-family:'HelveticaNeue-Bold';}
	.st7{font-size:32px;}
	.st8{font-family:'HelveticaNeue';}
	.st9{font-size:22px;}
	.st10{font-size:23px;}
	.st11{fill:#91AE65;}
</style>
<rect class="st0" width="650" height="400"/>
<g>
	<rect x="26.5" y="105.5" class="st0" width="597" height="245"/>
	<path class="st1" d="M622,107v242H28V107H622 M625,104H25v248h600V104L625,104z"/>
</g>
<g>
	<rect x="44.5" y="125.5" class="st0" width="557" height="205"/>
	<path class="st1" d="M600,127v202H46V127H600 M603,124H43v208h560V124L603,124z"/>
</g>
<g>
	<rect x="64.5" y="145.5" class="st0" width="517" height="42"/>
	<path class="st1" d="M580,147v39H66v-39H580 M583,144H63v45h520V144L583,144z"/>
</g>
<g>
	<rect x="64.5" y="200.5" class="st0" width="517" height="110"/>
	<path class="st1" d="M580,202v107H66V202H580 M583,199H63v113h520V199L583,199z"/>
</g>
<g>
	<rect x="84.5" y="220.5" class="st0" width="477" height="35"/>
	<path class="st1" d="M560,222v32H86v-32H560 M563,219H83v38h480V219L563,219z"/>
</g>
<g>
	<rect x="84.5" y="255.5" class="st0" width="477" height="35"/>
	<path class="st1" d="M560,257v32H86v-32H560 M563,254H83v38h480V254L563,254z"/>
</g>
<text transform="matrix(1 0 0 1 72.9973 176.4238)" class="st6 st7">This is a heading</text>
<text transform="matrix(1 0 0 1 92.9991 242.8535)" class="st8 st9">Lorem ipsum dolor sit amet, consectetuer adip</text>
<text transform="matrix(1 0 0 1 92.9998 277.8535)" class="st8 st9">iscing elit, sed diam euismod tincidunt ut</text>
<g>
	<rect x="44.5" y="200.5" class="st2" width="147" height="35"/>
	<path class="st3" d="M190,202v32H46v-32H190 M193,199H43v38h150V199L193,199z"/>
</g>
<text transform="matrix(1 0 0 1 52.9982 224.418)" class="st8 st9">Test element</text>
<g>
	<g>
		<polyline class="st5" points="208.1,217 390,217 390,66 		"/>
		<g>
			<polygon class="st4" points="211.1,227.5 193,217 211.1,206.5 			"/>
		</g>
	</g>
</g>
<rect x="37.3" y="25" class="st4" width="550" height="41"/>
<text transform="matrix(1 0 0 1 51.86 52.711)" class="st0 st6 st10">Absolutely-postioned element height collapsed</text>
</svg>
