<?xml version="1.0" encoding="utf-8"?>
<!-- Generator: Adobe Illustrator 22.0.1, SVG Export Plug-In . SVG Version: 6.00 Build 0)  -->
<svg version="1.1" id="Layer_1" xmlns="http://www.w3.org/2000/svg" xmlns:xlink="http://www.w3.org/1999/xlink" x="0px" y="0px"
	 viewBox="0 0 650 400" style="enable-background:new 0 0 650 400;" xml:space="preserve">
<style type="text/css">
	.st0{fill:#FFFFFF;}
	.st1{fill:#444444;}
	.st2{font-family:'HelveticaNeue';}
	.st3{font-size:22px;}
	.st4{fill:none;stroke:#B04636;stroke-width:7;stroke-miterlimit:10;}
	.st5{fill:#B04636;}
</style>
<g>
	<g>
		<rect x="218.2" y="111.5" class="st0" width="179" height="179"/>
		<g>
			<path class="st1" d="M396.7,112v178h-178V112H396.7 M397.7,111h-180v180h180V111L397.7,111z"/>
		</g>
	</g>
	<text transform="matrix(1 0 0 1 286.265 95.6361)" class="st2 st3">1em</text>
	<text transform="matrix(1 0 0 1 157.0941 205.1026)" class="st2 st3">4em</text>
	<text transform="matrix(1 0 0 1 417.0941 205.1026)" class="st2 st3">2em</text>
	<text transform="matrix(1 0 0 1 286.265 316.6362)" class="st2 st3">3em</text>
</g>
<g>
	<g>
		<g>
			<path class="st4" d="M180.3,260.2c16.9,31.6,48.3,55.9,86.4,66.1"/>
			<g>
				<polygon class="st5" points="172.3,267.4 174.1,246.5 191.3,258.5 				"/>
			</g>
		</g>
	</g>
	<g>
		<g>
			<path class="st4" d="M433.2,152.8c-16.9-31.6-48.3-55.9-86.4-66.1"/>
			<g>
				<polygon class="st5" points="441.2,145.6 439.4,166.5 422.2,154.5 				"/>
			</g>
		</g>
	</g>
	<g>
		<g>
			<path class="st4" d="M361.1,321.7c36.7-13.8,65.5-41.3,78.3-75.2"/>
			<g>
				<polygon class="st5" points="367.3,330.6 346.8,326.3 360.7,310.7 				"/>
			</g>
		</g>
	</g>
</g>
</svg>
