<?xml version="1.0" encoding="utf-8"?>
<!-- Generator: Adobe Illustrator 22.0.1, SVG Export Plug-In . SVG Version: 6.00 Build 0)  -->
<svg version="1.1" xmlns="http://www.w3.org/2000/svg" xmlns:xlink="http://www.w3.org/1999/xlink" x="0px" y="0px"
	 viewBox="0 0 650 400" style="enable-background:new 0 0 650 400;" xml:space="preserve">
<style type="text/css">
	.st0{fill:#FFFFFF;}
	.st1{fill:#595959;}
	.st2{fill:#B0C590;}
	.st3{fill:#568312;}
	.st4{fill:#D2D2D2;}
	.st5{fill:#DAA8A1;}
	.st6{fill:#B04636;}
	.st7{fill:#969696;}
	.st8{fill:#E6E6E6;}
	.st9{fill:#C8C8C8;}
	.st10{fill:#B4B4B4;}
	.st11{opacity:0.4;}
	.st12{fill:none;stroke:#005BF6;stroke-width:7;stroke-miterlimit:10;}
	.st13{fill:#005BF6;}
	.st14{fill:none;stroke:#55A400;stroke-width:7;stroke-miterlimit:10;}
	.st15{fill:#55A400;}
	.st16{fill:none;stroke:#B04636;stroke-width:7;stroke-miterlimit:10;}
	.st17{fill:none;stroke:#B04636;stroke-width:3;stroke-miterlimit:10;stroke-dasharray:5;}
	.st18{fill:#3A7100;}
	.st19{font-family:'HelveticaNeue-Bold';}
	.st20{font-size:23px;}
	.st21{fill:#005BA5;}
</style>
<g id="base">
	<g>
		<g>
			<g>
				<polygon class="st0" points="178.2,307.5 178.2,60.7 504.1,36.4 504.1,393.9 				"/>
				<path class="st1" d="M503.2,38v354.1l-324.1-85.5V61.7L503.2,38 M505,34.7L177.2,59.7v248.7L505,395.8V34.7L505,34.7z"/>
			</g>
			<g>
				<polygon class="st1" points="177.2,105 177.2,59.7 505,34.7 505,100.6 				"/>
				<path class="st0" d="M189.4,70.3c0,2.7-1.5,5-3.3,5.1c-1.8,0.1-3.3-2-3.3-4.7c0-2.7,1.5-5,3.3-5.1
					C188,65.4,189.4,67.5,189.4,70.3z"/>
				<path class="st0" d="M197.8,69.8c0,2.8-1.5,5.1-3.3,5.2c-1.8,0.1-3.3-2-3.3-4.8s1.5-5.1,3.3-5.2C196.3,64.9,197.8,67,197.8,69.8
					z"/>
				<path class="st0" d="M206.2,69.3c0,2.8-1.5,5.1-3.3,5.2c-1.8,0.1-3.3-2.1-3.3-4.8s1.5-5.1,3.3-5.2
					C204.7,64.3,206.2,66.5,206.2,69.3z"/>
				<polygon class="st0" points="192.7,90.8 185.9,91.1 188.6,86.8 187.9,85.8 184.5,91.1 184.5,91.1 184.5,92.6 184.7,92.6 
					184.5,92.9 187.9,98.1 188.6,97 185.6,92.5 192.7,92.3 				"/>
				<polygon class="st0" points="197.8,90.7 204.6,90.4 201.9,86.3 202.6,85.2 206,90.4 206,90.4 206,91.9 205.8,91.9 206,92.3 
					202.6,97.7 201.9,96.7 204.9,92 197.8,92.2 				"/>
				<path class="st0" d="M405.9,93.9L220.6,98c-2.3,0.1-4.2-2.3-4.2-5.2v-6.5c0-2.9,1.9-5.4,4.2-5.5l185.3-8.2
					c2.3-0.1,4.2,2.8,4.2,6.4v8.2C410.1,90.9,408.2,93.9,405.9,93.9z"/>
				<path class="st0" d="M489.6,92.1l-68.3,1.5c-3.8,0.1-6.8-4.7-6.8-10.6v0c0-5.9,3.1-10.9,6.8-11.1l68.3-3
					c3.8-0.2,6.8,4.9,6.8,11.4v0C496.4,86.7,493.3,92,489.6,92.1z"/>
			</g>
		</g>
	</g>
</g>
<g id="feature">
	<g>
		<g>
			<line class="st12" x1="323.5" y1="41.8" x2="323.5" y2="353.9"/>
			<g>
				<polygon class="st13" points="313,44.9 323.5,26.8 334,44.9 				"/>
			</g>
			<g>
				<polygon class="st13" points="313,350.9 323.5,369 334,350.9 				"/>
			</g>
		</g>
	</g>
	<g>
		<line class="st0" x1="154" y1="195.7" x2="545.2" y2="229.4"/>
		<g>
			<line class="st14" x1="169.1" y1="197" x2="530.2" y2="228.1"/>
			<g>
				<polygon class="st15" points="171.2,207.7 154,195.7 173,186.8 				"/>
			</g>
			<g>
				<polygon class="st15" points="526.3,238.2 545.2,229.4 528,217.4 				"/>
			</g>
		</g>
	</g>
	<g>
		<g>
			<line class="st16" x1="507.4" y1="187.7" x2="587" y2="177.8"/>
			<g>
				<polygon class="st6" points="585.3,188.6 602,176 582.7,167.8 				"/>
			</g>
		</g>
	</g>
	<g>
		<g>
			<line class="st16" x1="118.5" y1="235.7" x2="323.6" y2="210.3"/>
			<g>
				<polygon class="st6" points="122.8,245.7 103.5,237.5 120.2,224.9 				"/>
			</g>
		</g>
	</g>
	<line class="st17" x1="323.6" y1="210.3" x2="507.4" y2="187.7"/>
	<text transform="matrix(1 0 0 1 115.1851 199.4866)" class="st18 st19 st20">-X</text>
	<text transform="matrix(1 0 0 1 554.0621 238.3708)" class="st18 st19 st20">+X</text>
	<g>
		<text transform="matrix(1 0 0 1 308.8608 19.7109)" class="st21 st19 st20">+Y</text>
	</g>
	<text transform="matrix(1 0 0 1 310.0112 392.7859)" class="st21 st19 st20">-Y</text>
	<text transform="matrix(1 0 0 1 62.5791 246.0833)" class="st6 st19 st20">+Z</text>
	<g>
		<text transform="matrix(1 0 0 1 616.8677 181.2109)" class="st6 st19 st20">-Z</text>
	</g>
</g>
<g id="label">
	<g>
		<g>
			<g>
				<polygon class="st0" points="178.2,307.5 178.2,60.7 504.1,36.4 504.1,393.9 				"/>
				<path class="st1" d="M503.2,38v354.1l-324.1-85.5V61.7L503.2,38 M505,34.7L177.2,59.7v248.7L505,395.8V34.7L505,34.7z"/>
			</g>
			<g>
				<polygon class="st1" points="177.2,105 177.2,59.7 505,34.7 505,100.6 				"/>
				<path class="st0" d="M189.4,70.3c0,2.7-1.5,5-3.3,5.1c-1.8,0.1-3.3-2-3.3-4.7c0-2.7,1.5-5,3.3-5.1
					C188,65.4,189.4,67.5,189.4,70.3z"/>
				<path class="st0" d="M197.8,69.8c0,2.8-1.5,5.1-3.3,5.2c-1.8,0.1-3.3-2-3.3-4.8s1.5-5.1,3.3-5.2C196.3,64.9,197.8,67,197.8,69.8
					z"/>
				<path class="st0" d="M206.2,69.3c0,2.8-1.5,5.1-3.3,5.2c-1.8,0.1-3.3-2.1-3.3-4.8s1.5-5.1,3.3-5.2
					C204.7,64.3,206.2,66.5,206.2,69.3z"/>
				<polygon class="st0" points="192.7,90.8 185.9,91.1 188.6,86.8 187.9,85.8 184.5,91.1 184.5,91.1 184.5,92.6 184.7,92.6 
					184.5,92.9 187.9,98.1 188.6,97 185.6,92.5 192.7,92.3 				"/>
				<polygon class="st0" points="197.8,90.7 204.6,90.4 201.9,86.3 202.6,85.2 206,90.4 206,90.4 206,91.9 205.8,91.9 206,92.3 
					202.6,97.7 201.9,96.7 204.9,92 197.8,92.2 				"/>
				<path class="st0" d="M405.9,93.9L220.6,98c-2.3,0.1-4.2-2.3-4.2-5.2v-6.5c0-2.9,1.9-5.4,4.2-5.5l185.3-8.2
					c2.3-0.1,4.2,2.8,4.2,6.4v8.2C410.1,90.9,408.2,93.9,405.9,93.9z"/>
				<path class="st0" d="M489.6,92.1l-68.3,1.5c-3.8,0.1-6.8-4.7-6.8-10.6v0c0-5.9,3.1-10.9,6.8-11.1l68.3-3
					c3.8-0.2,6.8,4.9,6.8,11.4v0C496.4,86.7,493.3,92,489.6,92.1z"/>
			</g>
		</g>
	</g>
	<g>
		<g>
			<line class="st12" x1="323.5" y1="41.8" x2="323.5" y2="353.9"/>
			<g>
				<polygon class="st13" points="313,44.9 323.5,26.8 334,44.9 				"/>
			</g>
			<g>
				<polygon class="st13" points="313,350.9 323.5,369 334,350.9 				"/>
			</g>
		</g>
	</g>
	<g>
		<line class="st0" x1="154" y1="195.7" x2="545.2" y2="229.4"/>
		<g>
			<line class="st14" x1="169.1" y1="197" x2="530.2" y2="228.1"/>
			<g>
				<polygon class="st15" points="171.2,207.7 154,195.7 173,186.8 				"/>
			</g>
			<g>
				<polygon class="st15" points="526.3,238.2 545.2,229.4 528,217.4 				"/>
			</g>
		</g>
	</g>
	<g>
		<g>
			<line class="st16" x1="507.4" y1="187.7" x2="587" y2="177.8"/>
			<g>
				<polygon class="st6" points="585.3,188.6 602,176 582.7,167.8 				"/>
			</g>
		</g>
	</g>
	<g>
		<g>
			<line class="st16" x1="118.5" y1="235.7" x2="323.6" y2="210.3"/>
			<g>
				<polygon class="st6" points="122.8,245.7 103.5,237.5 120.2,224.9 				"/>
			</g>
		</g>
	</g>
	<line class="st17" x1="323.6" y1="210.3" x2="507.4" y2="187.7"/>
	<text transform="matrix(1 0 0 1 115.1851 199.4866)" class="st18 st19 st20">-X</text>
	<text transform="matrix(1 0 0 1 554.0621 238.3708)" class="st18 st19 st20">+X</text>
	<g>
		<text transform="matrix(1 0 0 1 308.8608 19.7109)" class="st21 st19 st20">+Y</text>
	</g>
	<text transform="matrix(1 0 0 1 310.0112 392.7859)" class="st21 st19 st20">-Y</text>
	<text transform="matrix(1 0 0 1 62.5791 246.0833)" class="st6 st19 st20">+Z</text>
	<g>
		<text transform="matrix(1 0 0 1 616.8677 181.2109)" class="st6 st19 st20">-Z</text>
	</g>
	<rect y="10" class="st6" width="172.8" height="41"/>
	<text transform="matrix(1 0 0 1 14.5288 37.7109)" class="st0 st19 st20">X, Y &amp; Z axes</text>
</g>
</svg>
