<?xml version="1.0" encoding="utf-8"?>
<!-- Generator: Adobe Illustrator 22.0.1, SVG Export Plug-In . SVG Version: 6.00 Build 0)  -->
<svg version="1.1" xmlns="http://www.w3.org/2000/svg" xmlns:xlink="http://www.w3.org/1999/xlink" x="0px" y="0px"
	 viewBox="0 0 650 400" style="enable-background:new 0 0 650 400;" xml:space="preserve">
<style type="text/css">
	.st0{fill:#FFFFFF;}
	.st1{fill:#595959;}
	.st2{fill:#B0C590;}
	.st3{fill:#568312;}
	.st4{fill:#D2D2D2;}
	.st5{opacity:0.1;}
	.st6{font-family:'HelveticaNeue-Bold';}
	.st7{font-size:32px;}
	.st8{font-family:'HelveticaNeue';}
	.st9{font-size:22px;}
	.st10{font-family:'HelveticaNeue-BoldItalic';}
	.st11{fill:#DAA8A1;}
	.st12{fill:#B04636;}
	.st13{fill:#969696;}
	.st14{fill:#E6E6E6;}
	.st15{fill:#C8C8C8;}
	.st16{fill:#DCDCDC;}
	.st17{fill:#B4B4B4;}
	.st18{fill:#A0A0A0;}
	.st19{opacity:0.4;}
	.st20{font-size:23px;}
	.st21{fill:none;stroke:#B04636;stroke-width:7;stroke-miterlimit:10;}
</style>
<g id="base">
	<g>
		<g>
			<rect x="26.5" y="82.5" class="st0" width="597" height="312"/>
			<path class="st1" d="M622,84v309H28V84H622 M625,81H25v315h600V81L625,81z"/>
		</g>
		<g>
			<rect x="25" y="81" class="st1" width="600" height="56"/>
			<circle class="st0" cx="41.3" cy="95" r="6"/>
			<circle class="st0" cx="56.7" cy="95" r="6"/>
			<circle class="st0" cx="72" cy="95" r="6"/>
			<polygon class="st0" points="53.2,120.1 40.8,120.1 45.9,115.1 44.6,113.8 38.3,120.1 38.2,120.1 38.2,121.9 38.7,121.9 
				38.2,122.4 44.6,128.7 45.9,127.4 40.3,121.9 53.2,121.9 			"/>
			<polygon class="st0" points="62.7,120.1 75.1,120.1 70.1,115.1 71.4,113.8 77.7,120.1 77.7,120.1 77.7,121.9 77.3,121.9 
				77.7,122.4 71.4,128.7 70.1,127.4 75.6,121.9 62.7,121.9 			"/>
			<path class="st0" d="M446.2,129.5H101.7c-2.8,0-5-2.2-5-5v-10c0-2.8,2.2-5,5-5h344.5c2.8,0,5,2.2,5,5v10
				C451.2,127.2,449,129.5,446.2,129.5z"/>
			<path class="st0" d="M599.2,129.5h-130c-5.5,0-10-4.5-10-10v0c0-5.5,4.5-10,10-10h130c5.5,0,10,4.5,10,10v0
				C609.2,125,604.7,129.5,599.2,129.5z"/>
		</g>
	</g>
	<g>
		<rect x="29.5" y="138.5" class="st2" width="591" height="253"/>
		<path class="st3" d="M619,140v250H31V140H619 M622,137H28v256h594V137L622,137z"/>
	</g>
	<g class="st5">
		<path d="M599,160v39H51v-39H599 M602,157H48v45h554V157L602,157z"/>
	</g>
	<g class="st5">
		<g>
			<path d="M599,215v87H51v-87H599 M602,212H48v93h554V212L602,212z"/>
		</g>
	</g>
	<text transform="matrix(1 0 0 1 57.9994 191.4238)" class="st6 st7">This is a heading</text>
	<text transform="matrix(1 0 0 1 68.0003 245.8535)"><tspan x="0" y="0" class="st8 st9">Lorem ipsum </tspan><tspan x="134.9" y="0" class="st10 st9">dolor sit amet</tspan><tspan x="279.6" y="0" class="st8 st9">, consectetuer adip amet</tspan></text>
	<text transform="matrix(1 0 0 1 68.0002 280.8535)" class="st8 st9">iscing elit, sed diam euismod tincidunt ut ipsum sit.</text>
</g>
<g id="feature">
</g>
<g id="label">
	<rect y="15" class="st12" width="572" height="41"/>
	<text transform="matrix(1 0 0 1 14.5288 42.7109)" class="st0 st6 st20">Layer 1: Background and borders of root element</text>
	<g>
		<g>
			<line class="st21" x1="42.3" y1="56" x2="42.3" y2="147.9"/>
			<g>
				<polygon class="st12" points="31.9,144.9 42.3,163 52.8,144.9 				"/>
			</g>
		</g>
	</g>
</g>
</svg>
