<?xml version="1.0" encoding="utf-8"?>
<!-- Generator: Adobe Illustrator 22.0.1, SVG Export Plug-In . SVG Version: 6.00 Build 0)  -->
<svg version="1.1" xmlns="http://www.w3.org/2000/svg" xmlns:xlink="http://www.w3.org/1999/xlink" x="0px" y="0px"
	 viewBox="0 0 650 400" style="enable-background:new 0 0 650 400;" xml:space="preserve">
<style type="text/css">
	.st0{fill:#FFFFFF;}
	.st1{fill:#595959;}
	.st2{fill:#D2D2D2;}
	.st3{font-family:'HelveticaNeue-Bold';}
	.st4{font-size:32px;}
	.st5{font-family:'HelveticaNeue';}
	.st6{font-size:22px;}
	.st7{fill:#969696;}
	.st8{fill:#E7C7C2;}
	.st9{fill:#B04636;}
	.st10{fill:#B0C590;}
	.st11{fill:#568312;}
	.st12{fill:none;stroke:#B04636;stroke-width:7;stroke-miterlimit:10;}
	.st13{font-size:23px;}
</style>
<g id="base">
	<g>
		<g>
			<rect x="26.5" y="82.5" class="st0" width="597" height="304"/>
			<path class="st1" d="M622,84v301H28V84H622 M625,81H25v307h600V81L625,81z"/>
		</g>
		<g>
			<rect x="25" y="81" class="st1" width="600" height="56"/>
			<circle class="st0" cx="41.3" cy="95" r="6"/>
			<circle class="st0" cx="56.7" cy="95" r="6"/>
			<circle class="st0" cx="72" cy="95" r="6"/>
			<polygon class="st0" points="53.2,120.1 40.8,120.1 45.9,115.1 44.6,113.8 38.3,120.1 38.2,120.1 38.2,121.9 38.7,121.9 
				38.2,122.4 44.6,128.7 45.9,127.4 40.3,121.9 53.2,121.9 			"/>
			<polygon class="st0" points="62.7,120.1 75.1,120.1 70.1,115.1 71.4,113.8 77.7,120.1 77.7,120.1 77.7,121.9 77.3,121.9 
				77.7,122.4 71.4,128.7 70.1,127.4 75.6,121.9 62.7,121.9 			"/>
			<path class="st0" d="M446.2,129.5H101.7c-2.8,0-5-2.2-5-5v-10c0-2.8,2.2-5,5-5h344.5c2.8,0,5,2.2,5,5v10
				C451.2,127.2,449,129.5,446.2,129.5z"/>
			<path class="st0" d="M599.2,129.5h-130c-5.5,0-10-4.5-10-10v0c0-5.5,4.5-10,10-10h130c5.5,0,10,4.5,10,10v0
				C609.2,125,604.7,129.5,599.2,129.5z"/>
		</g>
	</g>
	<g>
		<rect x="49.5" y="158.5" class="st0" width="551" height="205"/>
		<g>
			<path class="st2" d="M599,160v202H51V160H599 M602,157H48v208h554V157L602,157z"/>
		</g>
	</g>
	<g>
		<rect x="69.5" y="178.5" class="st0" width="511" height="42"/>
		<path class="st2" d="M579,180v39H71v-39H579 M582,177H68v45h514V177L582,177z"/>
	</g>
	<g>
		<rect x="69.5" y="233.5" class="st0" width="511" height="110"/>
		<path class="st2" d="M579,235v107H71V235H579 M582,232H68v113h514V232L582,232z"/>
	</g>
	<g>
		<rect x="89.5" y="253.5" class="st0" width="471" height="35"/>
		<path class="st2" d="M559,255v32H91v-32H559 M562,252H88v38h474V252L562,252z"/>
	</g>
	<g>
		<rect x="89.5" y="288.5" class="st0" width="471" height="35"/>
		<path class="st2" d="M559,290v32H91v-32H559 M562,287H88v38h474V287L562,287z"/>
	</g>
	<text transform="matrix(1 0 0 1 77.9995 209.4238)" class="st3 st4">This is a heading</text>
	<text transform="matrix(1 0 0 1 98.0004 275.8535)" class="st5 st6">Lorem ipsum dolor sit amet, consectetuer adip</text>
	<text transform="matrix(1 0 0 1 98.0002 310.8535)" class="st5 st6">iscing elit, sed diam euismod tincidunt ut</text>
</g>
<g id="feature">
	<g>
		<g>
			<rect x="48" y="137" class="st8" width="150" height="38"/>
			<path class="st9" d="M198,137h-5v3h2v3h3V137L198,137z M188,137h-5v3h5V137L188,137z M178,137h-5v3h5V137L178,137z M168,137h-5v3
				h5V137L168,137z M158,137h-5v3h5V137L158,137z M148,137h-5v3h5V137L148,137z M138,137h-5v3h5V137L138,137z M128,137h-5v3h5V137
				L128,137z M118,137h-5v3h5V137L118,137z M108,137h-5v3h5V137L108,137z M98,137h-5v3h5V137L98,137z M88,137h-5v3h5V137L88,137z
				 M78,137h-5v3h5V137L78,137z M68,137h-5v3h5V137L68,137z M58,137h-5v3h5V137L58,137z M51,137h-3v5h3V137L51,137z M51,147h-3v5h3
				V147L51,147z M51,157h-3v5h3V157L51,157z M51,167h-3v5h2v3h5v-3h-4V167L51,167z M65,172h-5v3h5V172L65,172z M75,172h-5v3h5V172
				L75,172z M85,172h-5v3h5V172L85,172z M95,172h-5v3h5V172L95,172z M105,172h-5v3h5V172L105,172z M115,172h-5v3h5V172L115,172z
				 M125,172h-5v3h5V172L125,172z M135,172h-5v3h5V172L135,172z M145,172h-5v3h5V172L145,172z M155,172h-5v3h5V172L155,172z
				 M165,172h-5v3h5V172L165,172z M175,172h-5v3h5V172L175,172z M185,172h-5v3h5V172L185,172z M195,172h-5v3h5V172L195,172z
				 M198,168h-3v5h3V168L198,168z M198,158h-3v5h3V158L198,158z M198,148h-3v5h3V148L198,148z"/>
		</g>
	</g>
	<g>
		<g>
			<rect x="49.5" y="153.5" class="st10" width="147" height="35"/>
			<path class="st11" d="M195,155v32H51v-32H195 M198,152H48v38h150V152L198,152z"/>
		</g>
		<text transform="matrix(1 0 0 1 57.9995 177.418)" class="st5 st6">Test element</text>
	</g>
</g>
<g id="label">
	<rect x="25" y="15" class="st9" width="511" height="41"/>
	<text transform="matrix(1 0 0 1 39.5288 42.7109)" class="st0 st3 st13">Fixed: down 20px from top edge of viewport</text>
	<g>
		<g>
			<line class="st12" x1="100" y1="136.9" x2="100" y2="56"/>
			<g>
				<polygon class="st9" points="110.5,133.9 100,152 89.5,133.9 				"/>
			</g>
		</g>
	</g>
</g>
</svg>
